<svg xmlns="http://www.w3.org/2000/svg" xmlns:xlink="http://www.w3.org/1999/xlink" width="510" height="525" viewBox="0 0 510 525">
  <defs>
    <clipPath id="clip-path">
      <rect id="Rectangle_12" data-name="Rectangle 12" width="525" height="282" transform="translate(-0.032)" fill="#fff" stroke="#707070" stroke-width="1"/>
    </clipPath>
    <clipPath id="clip-path-2">
      <rect id="Rectangle_14" data-name="Rectangle 14" width="515.672" height="282"/>
    </clipPath>
    <clipPath id="clip-cssBegGames">
      <rect width="510" height="525"/>
    </clipPath>
  </defs>
  <g id="cssBegGames" clip-path="url(#clip-cssBegGames)">
    <rect width="510" height="525" fill="#d3eef9"/>
    <g id="Mask_Group_4" data-name="Mask Group 4" transform="translate(-6.968)" clip-path="url(#clip-path)">
      <g id="cssDefaultBeginner" transform="translate(4.458)" clip-path="url(#clip-path-2)">
        <rect id="Rectangle_13" data-name="Rectangle 13" width="515.672" height="282" fill="#fff"/>
        <g id="lego_1_" data-name="lego (1)" transform="translate(-1.612 176.946)">
          <g id="Group_1" data-name="Group 1" transform="translate(17.189)">
            <path id="Path_1" data-name="Path 1" d="M48.224,13.926H25.306a8.478,8.478,0,0,0-8.595,8.356V38.993a2.826,2.826,0,0,0,2.865,2.785H53.954a2.826,2.826,0,0,0,2.865-2.785V22.281a8.478,8.478,0,0,0-8.595-8.356Z" transform="translate(-16.711 -13.926)" fill="#a7e4ff"/>
            <path id="Path_2" data-name="Path 2" d="M109.5,13.926H86.58a8.478,8.478,0,0,0-8.595,8.356V38.993a2.826,2.826,0,0,0,2.865,2.785h34.378a2.826,2.826,0,0,0,2.865-2.785V22.281a8.478,8.478,0,0,0-8.595-8.356Z" transform="translate(-14.959 -13.926)" fill="#a7e4ff"/>
          </g>
          <path id="Path_3" data-name="Path 3" d="M128.918,36.207H8.595A8.478,8.478,0,0,0,0,44.563v72.415a2.826,2.826,0,0,0,2.865,2.785H134.648a2.826,2.826,0,0,0,2.865-2.785V44.563A8.478,8.478,0,0,0,128.918,36.207Z" transform="translate(0 -13.926)" fill="#a7e4ff"/>
        </g>
        <g id="lego_1_2" data-name="lego (1)" transform="translate(270.19 176.946)">
          <g id="Group_1-2" data-name="Group 1" transform="translate(17.189)">
            <path id="Path_1-2" data-name="Path 1" d="M48.224,13.926H25.306a8.478,8.478,0,0,0-8.595,8.356V38.993a2.826,2.826,0,0,0,2.865,2.785H53.954a2.826,2.826,0,0,0,2.865-2.785V22.281a8.478,8.478,0,0,0-8.595-8.356Z" transform="translate(-16.711 -13.926)" fill="#a7e4ff"/>
            <path id="Path_2-2" data-name="Path 2" d="M109.5,13.926H86.58a8.478,8.478,0,0,0-8.595,8.356V38.993a2.826,2.826,0,0,0,2.865,2.785h34.378a2.826,2.826,0,0,0,2.865-2.785V22.281a8.478,8.478,0,0,0-8.595-8.356Z" transform="translate(-14.959 -13.926)" fill="#a7e4ff"/>
          </g>
          <path id="Path_3-2" data-name="Path 3" d="M128.918,36.207H8.595A8.478,8.478,0,0,0,0,44.563v72.415a2.826,2.826,0,0,0,2.865,2.785H134.648a2.826,2.826,0,0,0,2.865-2.785V44.563A8.478,8.478,0,0,0,128.918,36.207Z" transform="translate(0 -13.926)" fill="#a7e4ff"/>
        </g>
        <g id="lego_1_3" data-name="lego (1)" transform="translate(-1.881 102.529)">
          <g id="Group_1-3" data-name="Group 1" transform="translate(17.189)">
            <path id="Path_1-3" data-name="Path 1" d="M48.224,13.926H25.306a8.478,8.478,0,0,0-8.595,8.356V38.993a2.826,2.826,0,0,0,2.865,2.785H53.954a2.826,2.826,0,0,0,2.865-2.785V22.281a8.478,8.478,0,0,0-8.595-8.356Z" transform="translate(-16.711 -13.926)" fill="#b6e9ff"/>
            <path id="Path_2-3" data-name="Path 2" d="M109.5,13.926H86.58a8.478,8.478,0,0,0-8.595,8.356V38.993a2.826,2.826,0,0,0,2.865,2.785h34.378a2.826,2.826,0,0,0,2.865-2.785V22.281a8.478,8.478,0,0,0-8.595-8.356Z" transform="translate(-14.959 -13.926)" fill="#b6e9ff"/>
          </g>
          <path id="Path_3-3" data-name="Path 3" d="M128.918,36.207H8.595A8.478,8.478,0,0,0,0,44.563v72.415a2.826,2.826,0,0,0,2.865,2.785H134.648a2.826,2.826,0,0,0,2.865-2.785V44.563A8.478,8.478,0,0,0,128.918,36.207Z" transform="translate(0 -13.926)" fill="#b6e9ff"/>
        </g>
        <g id="lego_1_4" data-name="lego (1)" transform="translate(134.827 176.946)">
          <g id="Group_1-4" data-name="Group 1" transform="translate(17.189)">
            <path id="Path_1-4" data-name="Path 1" d="M48.224,13.926H25.306a8.478,8.478,0,0,0-8.595,8.356V38.993a2.826,2.826,0,0,0,2.865,2.785H53.954a2.826,2.826,0,0,0,2.865-2.785V22.281a8.478,8.478,0,0,0-8.595-8.356Z" transform="translate(-16.711 -13.926)" fill="#b6e9ff"/>
            <path id="Path_2-4" data-name="Path 2" d="M109.5,13.926H86.58a8.478,8.478,0,0,0-8.595,8.356V38.993a2.826,2.826,0,0,0,2.865,2.785h34.378a2.826,2.826,0,0,0,2.865-2.785V22.281a8.478,8.478,0,0,0-8.595-8.356Z" transform="translate(-14.959 -13.926)" fill="#b6e9ff"/>
          </g>
          <path id="Path_3-4" data-name="Path 3" d="M128.918,36.207H8.595A8.478,8.478,0,0,0,0,44.563v72.415a2.826,2.826,0,0,0,2.865,2.785H134.648a2.826,2.826,0,0,0,2.865-2.785V44.563A8.478,8.478,0,0,0,128.918,36.207Z" transform="translate(0 -13.926)" fill="#b6e9ff"/>
        </g>
        <g id="lego_1_5" data-name="lego (1)" transform="translate(269.921 102.529)">
          <g id="Group_1-5" data-name="Group 1" transform="translate(17.189)">
            <path id="Path_1-5" data-name="Path 1" d="M48.224,13.926H25.306a8.478,8.478,0,0,0-8.595,8.356V38.993a2.826,2.826,0,0,0,2.865,2.785H53.954a2.826,2.826,0,0,0,2.865-2.785V22.281a8.478,8.478,0,0,0-8.595-8.356Z" transform="translate(-16.711 -13.926)" fill="#b6e9ff"/>
            <path id="Path_2-5" data-name="Path 2" d="M109.5,13.926H86.58a8.478,8.478,0,0,0-8.595,8.356V38.993a2.826,2.826,0,0,0,2.865,2.785h34.378a2.826,2.826,0,0,0,2.865-2.785V22.281a8.478,8.478,0,0,0-8.595-8.356Z" transform="translate(-14.959 -13.926)" fill="#b6e9ff"/>
          </g>
          <path id="Path_3-5" data-name="Path 3" d="M128.918,36.207H8.595A8.478,8.478,0,0,0,0,44.563v72.415a2.826,2.826,0,0,0,2.865,2.785H134.648a2.826,2.826,0,0,0,2.865-2.785V44.563A8.478,8.478,0,0,0,128.918,36.207Z" transform="translate(0 -13.926)" fill="#b6e9ff"/>
        </g>
        <g id="lego_1_6" data-name="lego (1)" transform="translate(404.749 176.946)">
          <g id="Group_1-6" data-name="Group 1" transform="translate(17.189)">
            <path id="Path_1-6" data-name="Path 1" d="M48.224,13.926H25.306a8.478,8.478,0,0,0-8.595,8.356V38.993a2.826,2.826,0,0,0,2.865,2.785H53.954a2.826,2.826,0,0,0,2.865-2.785V22.281a8.478,8.478,0,0,0-8.595-8.356Z" transform="translate(-16.711 -13.926)" fill="#b6e9ff"/>
            <path id="Path_2-6" data-name="Path 2" d="M109.5,13.926H86.58a8.478,8.478,0,0,0-8.595,8.356V38.993a2.826,2.826,0,0,0,2.865,2.785h34.378a2.826,2.826,0,0,0,2.865-2.785V22.281a8.478,8.478,0,0,0-8.595-8.356Z" transform="translate(-14.959 -13.926)" fill="#b6e9ff"/>
          </g>
          <path id="Path_3-6" data-name="Path 3" d="M128.918,36.207H8.595A8.478,8.478,0,0,0,0,44.563v72.415a2.826,2.826,0,0,0,2.865,2.785H134.648a2.826,2.826,0,0,0,2.865-2.785V44.563A8.478,8.478,0,0,0,128.918,36.207Z" transform="translate(0 -13.926)" fill="#b6e9ff"/>
        </g>
        <g id="lego_1_7" data-name="lego (1)" transform="translate(134.558 102.529)">
          <g id="Group_1-7" data-name="Group 1" transform="translate(17.189)">
            <path id="Path_1-7" data-name="Path 1" d="M48.224,13.926H25.306a8.478,8.478,0,0,0-8.595,8.356V38.993a2.826,2.826,0,0,0,2.865,2.785H53.954a2.826,2.826,0,0,0,2.865-2.785V22.281a8.478,8.478,0,0,0-8.595-8.356Z" transform="translate(-16.711 -13.926)" fill="#a7e4ff"/>
            <path id="Path_2-7" data-name="Path 2" d="M109.5,13.926H86.58a8.478,8.478,0,0,0-8.595,8.356V38.993a2.826,2.826,0,0,0,2.865,2.785h34.378a2.826,2.826,0,0,0,2.865-2.785V22.281a8.478,8.478,0,0,0-8.595-8.356Z" transform="translate(-14.959 -13.926)" fill="#a7e4ff"/>
          </g>
          <path id="Path_3-7" data-name="Path 3" d="M128.918,36.207H8.595A8.478,8.478,0,0,0,0,44.563v72.415a2.826,2.826,0,0,0,2.865,2.785H134.648a2.826,2.826,0,0,0,2.865-2.785V44.563A8.478,8.478,0,0,0,128.918,36.207Z" transform="translate(0 -13.926)" fill="#a7e4ff"/>
        </g>
        <g id="lego_1_8" data-name="lego (1)" transform="translate(404.48 102.529)">
          <g id="Group_1-8" data-name="Group 1" transform="translate(17.189)">
            <path id="Path_1-8" data-name="Path 1" d="M48.224,13.926H25.306a8.478,8.478,0,0,0-8.595,8.356V38.993a2.826,2.826,0,0,0,2.865,2.785H53.954a2.826,2.826,0,0,0,2.865-2.785V22.281a8.478,8.478,0,0,0-8.595-8.356Z" transform="translate(-16.711 -13.926)" fill="#a7e4ff"/>
            <path id="Path_2-8" data-name="Path 2" d="M109.5,13.926H86.58a8.478,8.478,0,0,0-8.595,8.356V38.993a2.826,2.826,0,0,0,2.865,2.785h34.378a2.826,2.826,0,0,0,2.865-2.785V22.281a8.478,8.478,0,0,0-8.595-8.356Z" transform="translate(-14.959 -13.926)" fill="#a7e4ff"/>
          </g>
          <path id="Path_3-8" data-name="Path 3" d="M128.918,36.207H8.595A8.478,8.478,0,0,0,0,44.563v72.415a2.826,2.826,0,0,0,2.865,2.785H134.648a2.826,2.826,0,0,0,2.865-2.785V44.563A8.478,8.478,0,0,0,128.918,36.207Z" transform="translate(0 -13.926)" fill="#a7e4ff"/>
        </g>
        <g id="lego_1_9" data-name="lego (1)" transform="translate(-2.015 25.502)">
          <g id="Group_1-9" data-name="Group 1" transform="translate(17.189)">
            <path id="Path_1-9" data-name="Path 1" d="M48.224,13.926H25.306a8.478,8.478,0,0,0-8.595,8.356V38.993a2.826,2.826,0,0,0,2.865,2.785H53.954a2.826,2.826,0,0,0,2.865-2.785V22.281a8.478,8.478,0,0,0-8.595-8.356Z" transform="translate(-16.711 -13.926)" fill="#a7e4ff"/>
            <path id="Path_2-9" data-name="Path 2" d="M109.5,13.926H86.58a8.478,8.478,0,0,0-8.595,8.356V38.993a2.826,2.826,0,0,0,2.865,2.785h34.378a2.826,2.826,0,0,0,2.865-2.785V22.281a8.478,8.478,0,0,0-8.595-8.356Z" transform="translate(-14.959 -13.926)" fill="#a7e4ff"/>
          </g>
          <path id="Path_3-9" data-name="Path 3" d="M128.918,36.207H8.595A8.478,8.478,0,0,0,0,44.563v72.415a2.826,2.826,0,0,0,2.865,2.785H134.648a2.826,2.826,0,0,0,2.865-2.785V44.563A8.478,8.478,0,0,0,128.918,36.207Z" transform="translate(0 -13.926)" fill="#a7e4ff"/>
        </g>
        <g id="lego_1_10" data-name="lego (1)" transform="translate(269.787 25.502)">
          <g id="Group_1-10" data-name="Group 1" transform="translate(17.189)">
            <path id="Path_1-10" data-name="Path 1" d="M48.224,13.926H25.306a8.478,8.478,0,0,0-8.595,8.356V38.993a2.826,2.826,0,0,0,2.865,2.785H53.954a2.826,2.826,0,0,0,2.865-2.785V22.281a8.478,8.478,0,0,0-8.595-8.356Z" transform="translate(-16.711 -13.926)" fill="#a7e4ff"/>
            <path id="Path_2-10" data-name="Path 2" d="M109.5,13.926H86.58a8.478,8.478,0,0,0-8.595,8.356V38.993a2.826,2.826,0,0,0,2.865,2.785h34.378a2.826,2.826,0,0,0,2.865-2.785V22.281a8.478,8.478,0,0,0-8.595-8.356Z" transform="translate(-14.959 -13.926)" fill="#a7e4ff"/>
          </g>
          <path id="Path_3-10" data-name="Path 3" d="M128.918,36.207H8.595A8.478,8.478,0,0,0,0,44.563v72.415a2.826,2.826,0,0,0,2.865,2.785H134.648a2.826,2.826,0,0,0,2.865-2.785V44.563A8.478,8.478,0,0,0,128.918,36.207Z" transform="translate(0 -13.926)" fill="#a7e4ff"/>
        </g>
        <g id="lego_1_11" data-name="lego (1)" transform="translate(134.423 25.502)">
          <g id="Group_1-11" data-name="Group 1" transform="translate(17.189)">
            <path id="Path_1-11" data-name="Path 1" d="M48.224,13.926H25.306a8.478,8.478,0,0,0-8.595,8.356V38.993a2.826,2.826,0,0,0,2.865,2.785H53.954a2.826,2.826,0,0,0,2.865-2.785V22.281a8.478,8.478,0,0,0-8.595-8.356Z" transform="translate(-16.711 -13.926)" fill="#b6e9ff"/>
            <path id="Path_2-11" data-name="Path 2" d="M109.5,13.926H86.58a8.478,8.478,0,0,0-8.595,8.356V38.993a2.826,2.826,0,0,0,2.865,2.785h34.378a2.826,2.826,0,0,0,2.865-2.785V22.281a8.478,8.478,0,0,0-8.595-8.356Z" transform="translate(-14.959 -13.926)" fill="#b6e9ff"/>
          </g>
          <path id="Path_3-11" data-name="Path 3" d="M128.918,36.207H8.595A8.478,8.478,0,0,0,0,44.563v72.415a2.826,2.826,0,0,0,2.865,2.785H134.648a2.826,2.826,0,0,0,2.865-2.785V44.563A8.478,8.478,0,0,0,128.918,36.207Z" transform="translate(0 -13.926)" fill="#b6e9ff"/>
        </g>
        <g id="lego_1_12" data-name="lego (1)" transform="translate(404.345 25.502)">
          <g id="Group_1-12" data-name="Group 1" transform="translate(17.189)">
            <path id="Path_1-12" data-name="Path 1" d="M48.224,13.926H25.306a8.478,8.478,0,0,0-8.595,8.356V38.993a2.826,2.826,0,0,0,2.865,2.785H53.954a2.826,2.826,0,0,0,2.865-2.785V22.281a8.478,8.478,0,0,0-8.595-8.356Z" transform="translate(-16.711 -13.926)" fill="#b6e9ff"/>
            <path id="Path_2-12" data-name="Path 2" d="M109.5,13.926H86.58a8.478,8.478,0,0,0-8.595,8.356V38.993a2.826,2.826,0,0,0,2.865,2.785h34.378a2.826,2.826,0,0,0,2.865-2.785V22.281a8.478,8.478,0,0,0-8.595-8.356Z" transform="translate(-14.959 -13.926)" fill="#b6e9ff"/>
          </g>
          <path id="Path_3-12" data-name="Path 3" d="M128.918,36.207H8.595A8.478,8.478,0,0,0,0,44.563v72.415a2.826,2.826,0,0,0,2.865,2.785H134.648a2.826,2.826,0,0,0,2.865-2.785V44.563A8.478,8.478,0,0,0,128.918,36.207Z" transform="translate(0 -13.926)" fill="#b6e9ff"/>
        </g>
        <g id="lego_1_13" data-name="lego (1)" transform="translate(-2.15 -51.091)">
          <g id="Group_1-13" data-name="Group 1" transform="translate(17.189)">
            <path id="Path_1-13" data-name="Path 1" d="M48.224,13.926H25.306a8.478,8.478,0,0,0-8.595,8.356V38.993a2.826,2.826,0,0,0,2.865,2.785H53.954a2.826,2.826,0,0,0,2.865-2.785V22.281a8.478,8.478,0,0,0-8.595-8.356Z" transform="translate(-16.711 -13.926)" fill="#b6e9ff"/>
            <path id="Path_2-13" data-name="Path 2" d="M109.5,13.926H86.58a8.478,8.478,0,0,0-8.595,8.356V38.993a2.826,2.826,0,0,0,2.865,2.785h34.378a2.826,2.826,0,0,0,2.865-2.785V22.281a8.478,8.478,0,0,0-8.595-8.356Z" transform="translate(-14.959 -13.926)" fill="#b6e9ff"/>
          </g>
          <path id="Path_3-13" data-name="Path 3" d="M128.918,36.207H8.595A8.478,8.478,0,0,0,0,44.563v72.415a2.826,2.826,0,0,0,2.865,2.785H134.648a2.826,2.826,0,0,0,2.865-2.785V44.563A8.478,8.478,0,0,0,128.918,36.207Z" transform="translate(0 -13.926)" fill="#b6e9ff"/>
        </g>
        <g id="lego_1_14" data-name="lego (1)" transform="translate(269.652 -51.091)">
          <g id="Group_1-14" data-name="Group 1" transform="translate(17.189)">
            <path id="Path_1-14" data-name="Path 1" d="M48.224,13.926H25.306a8.478,8.478,0,0,0-8.595,8.356V38.993a2.826,2.826,0,0,0,2.865,2.785H53.954a2.826,2.826,0,0,0,2.865-2.785V22.281a8.478,8.478,0,0,0-8.595-8.356Z" transform="translate(-16.711 -13.926)" fill="#b6e9ff"/>
            <path id="Path_2-14" data-name="Path 2" d="M109.5,13.926H86.58a8.478,8.478,0,0,0-8.595,8.356V38.993a2.826,2.826,0,0,0,2.865,2.785h34.378a2.826,2.826,0,0,0,2.865-2.785V22.281a8.478,8.478,0,0,0-8.595-8.356Z" transform="translate(-14.959 -13.926)" fill="#b6e9ff"/>
          </g>
          <path id="Path_3-14" data-name="Path 3" d="M128.918,36.207H8.595A8.478,8.478,0,0,0,0,44.563v72.415a2.826,2.826,0,0,0,2.865,2.785H134.648a2.826,2.826,0,0,0,2.865-2.785V44.563A8.478,8.478,0,0,0,128.918,36.207Z" transform="translate(0 -13.926)" fill="#b6e9ff"/>
        </g>
        <g id="lego_1_15" data-name="lego (1)" transform="translate(134.289 -51.091)">
          <g id="Group_1-15" data-name="Group 1" transform="translate(17.189)">
            <path id="Path_1-15" data-name="Path 1" d="M48.224,13.926H25.306a8.478,8.478,0,0,0-8.595,8.356V38.993a2.826,2.826,0,0,0,2.865,2.785H53.954a2.826,2.826,0,0,0,2.865-2.785V22.281a8.478,8.478,0,0,0-8.595-8.356Z" transform="translate(-16.711 -13.926)" fill="#a7e4ff"/>
            <path id="Path_2-15" data-name="Path 2" d="M109.5,13.926H86.58a8.478,8.478,0,0,0-8.595,8.356V38.993a2.826,2.826,0,0,0,2.865,2.785h34.378a2.826,2.826,0,0,0,2.865-2.785V22.281a8.478,8.478,0,0,0-8.595-8.356Z" transform="translate(-14.959 -13.926)" fill="#a7e4ff"/>
          </g>
          <path id="Path_3-15" data-name="Path 3" d="M128.918,36.207H8.595A8.478,8.478,0,0,0,0,44.563v72.415a2.826,2.826,0,0,0,2.865,2.785H134.648a2.826,2.826,0,0,0,2.865-2.785V44.563A8.478,8.478,0,0,0,128.918,36.207Z" transform="translate(0 -13.926)" fill="#a7e4ff"/>
        </g>
        <g id="lego_1_16" data-name="lego (1)" transform="translate(404.211 -51.091)">
          <g id="Group_1-16" data-name="Group 1" transform="translate(17.189)">
            <path id="Path_1-16" data-name="Path 1" d="M48.224,13.926H25.306a8.478,8.478,0,0,0-8.595,8.356V38.993a2.826,2.826,0,0,0,2.865,2.785H53.954a2.826,2.826,0,0,0,2.865-2.785V22.281a8.478,8.478,0,0,0-8.595-8.356Z" transform="translate(-16.711 -13.926)" fill="#a7e4ff"/>
            <path id="Path_2-16" data-name="Path 2" d="M109.5,13.926H86.58a8.478,8.478,0,0,0-8.595,8.356V38.993a2.826,2.826,0,0,0,2.865,2.785h34.378a2.826,2.826,0,0,0,2.865-2.785V22.281a8.478,8.478,0,0,0-8.595-8.356Z" transform="translate(-14.959 -13.926)" fill="#a7e4ff"/>
          </g>
          <path id="Path_3-16" data-name="Path 3" d="M128.918,36.207H8.595A8.478,8.478,0,0,0,0,44.563v72.415a2.826,2.826,0,0,0,2.865,2.785H134.648a2.826,2.826,0,0,0,2.865-2.785V44.563A8.478,8.478,0,0,0,128.918,36.207Z" transform="translate(0 -13.926)" fill="#a7e4ff"/>
        </g>
      </g>
    </g>
    <text id="BASICS" transform="translate(177 339)" fill="#054863" font-size="45" font-family="Rockwell-Bold, Rockwell" font-weight="700"><tspan x="0" y="0">BASICS</tspan></text>
    <rect id="Rectangle_4" data-name="Rectangle 4" width="77" height="33" rx="16.5" transform="translate(148 362)" fill="#a7e4ff"/>
    <rect id="Rectangle_5" data-name="Rectangle 5" width="120" height="33" rx="16.5" transform="translate(243 362)" fill="#a7e4ff"/>
    <text id="CSS" transform="translate(167 387)" fill="#054863" font-size="22" font-family="Rockwell"><tspan x="0" y="0">CSS</tspan></text>
    <text id="Beginners" transform="translate(252 387)" fill="#054863" font-size="22" font-family="Rockwell"><tspan x="0" y="0">Beginners</tspan></text>
  </g>
</svg>
