<svg xmlns="http://www.w3.org/2000/svg" xmlns:xlink="http://www.w3.org/1999/xlink" width="1920" height="1080" viewBox="0 0 1920 1080">
  <defs>
    <clipPath id="clip-cssDefaultExpert">
      <rect width="1920" height="1080"/>
    </clipPath>
  </defs>
  <g id="cssDefaultExpert" clip-path="url(#clip-cssDefaultExpert)">
    <rect width="1920" height="1080" fill="#fff"/>
    <g id="lego_1_" data-name="lego (1)" transform="translate(-6.001 624.333)">
      <g id="Group_1" data-name="Group 1">
        <path id="Path_1" data-name="Path 1" d="M181.333,53.333H96a32,32,0,0,0-32,32v64A10.667,10.667,0,0,0,74.667,160h128a10.667,10.667,0,0,0,10.667-10.667v-64A32,32,0,0,0,181.333,53.333Z" fill="#216f27"/>
        <path id="Path_2" data-name="Path 2" d="M416,53.333H330.667a32,32,0,0,0-32,32v64A10.667,10.667,0,0,0,309.334,160h128A10.667,10.667,0,0,0,448,149.333v-64A32,32,0,0,0,416,53.333Z" fill="#216f27"/>
      </g>
      <path id="Path_3" data-name="Path 3" d="M480,138.667H32a32,32,0,0,0-32,32V448a10.667,10.667,0,0,0,10.667,10.667H501.334A10.667,10.667,0,0,0,512,448V170.667A32,32,0,0,0,480,138.667Z" fill="#28822f"/>
    </g>
    <g id="lego_1_2" data-name="lego (1)" transform="translate(1005.999 624.333)">
      <g id="Group_1-2" data-name="Group 1">
        <path id="Path_1-2" data-name="Path 1" d="M181.333,53.333H96a32,32,0,0,0-32,32v64A10.667,10.667,0,0,0,74.667,160h128a10.667,10.667,0,0,0,10.667-10.667v-64A32,32,0,0,0,181.333,53.333Z" fill="#216f27"/>
        <path id="Path_2-2" data-name="Path 2" d="M416,53.333H330.667a32,32,0,0,0-32,32v64A10.667,10.667,0,0,0,309.334,160h128A10.667,10.667,0,0,0,448,149.333v-64A32,32,0,0,0,416,53.333Z" fill="#216f27"/>
      </g>
      <path id="Path_3-2" data-name="Path 3" d="M480,138.667H32a32,32,0,0,0-32,32V448a10.667,10.667,0,0,0,10.667,10.667H501.334A10.667,10.667,0,0,0,512,448V170.667A32,32,0,0,0,480,138.667Z" fill="#28822f"/>
    </g>
    <g id="lego_1_3" data-name="lego (1)" transform="translate(-94.002 338.333)">
      <g id="Group_1-3" data-name="Group 1">
        <path id="Path_1-3" data-name="Path 1" d="M181.333,53.333H96a32,32,0,0,0-32,32v64A10.667,10.667,0,0,0,74.667,160h128a10.667,10.667,0,0,0,10.667-10.667v-64A32,32,0,0,0,181.333,53.333Z" fill="#216f27"/>
        <path id="Path_2-3" data-name="Path 2" d="M416,53.333H330.667a32,32,0,0,0-32,32v64A10.667,10.667,0,0,0,309.334,160h128A10.667,10.667,0,0,0,448,149.333v-64A32,32,0,0,0,416,53.333Z" fill="#216f27"/>
      </g>
      <path id="Path_3-3" data-name="Path 3" d="M480,138.667H32a32,32,0,0,0-32,32V448a10.667,10.667,0,0,0,10.667,10.667H501.334A10.667,10.667,0,0,0,512,448V170.667A32,32,0,0,0,480,138.667Z" fill="#2b9834"/>
    </g>
    <g id="lego_1_4" data-name="lego (1)" transform="translate(502 624.333)">
      <g id="Group_1-4" data-name="Group 1">
        <path id="Path_1-4" data-name="Path 1" d="M181.333,53.333H96a32,32,0,0,0-32,32v64A10.667,10.667,0,0,0,74.667,160h128a10.667,10.667,0,0,0,10.667-10.667v-64A32,32,0,0,0,181.333,53.333Z" fill="#2c7131"/>
        <path id="Path_2-4" data-name="Path 2" d="M416,53.333H330.667a32,32,0,0,0-32,32v64A10.667,10.667,0,0,0,309.334,160h128A10.667,10.667,0,0,0,448,149.333v-64A32,32,0,0,0,416,53.333Z" fill="#2c7131"/>
      </g>
      <path id="Path_3-4" data-name="Path 3" d="M480,138.667H32a32,32,0,0,0-32,32V448a10.667,10.667,0,0,0,10.667,10.667H501.334A10.667,10.667,0,0,0,512,448V170.667A32,32,0,0,0,480,138.667Z" fill="#2c7131"/>
    </g>
    <g id="lego_1_5" data-name="lego (1)" transform="translate(917.998 338.333)">
      <g id="Group_1-5" data-name="Group 1">
        <path id="Path_1-5" data-name="Path 1" d="M181.333,53.333H96a32,32,0,0,0-32,32v64A10.667,10.667,0,0,0,74.667,160h128a10.667,10.667,0,0,0,10.667-10.667v-64A32,32,0,0,0,181.333,53.333Z" fill="#216f27"/>
        <path id="Path_2-5" data-name="Path 2" d="M416,53.333H330.667a32,32,0,0,0-32,32v64A10.667,10.667,0,0,0,309.334,160h128A10.667,10.667,0,0,0,448,149.333v-64A32,32,0,0,0,416,53.333Z" fill="#216f27"/>
      </g>
      <path id="Path_3-5" data-name="Path 3" d="M480,138.667H32a32,32,0,0,0-32,32V448a10.667,10.667,0,0,0,10.667,10.667H501.334A10.667,10.667,0,0,0,512,448V170.667A32,32,0,0,0,480,138.667Z" fill="#2b9834"/>
    </g>
    <g id="lego_1_6" data-name="lego (1)" transform="translate(1507 624.333)">
      <g id="Group_1-6" data-name="Group 1">
        <path id="Path_1-6" data-name="Path 1" d="M181.333,53.333H96a32,32,0,0,0-32,32v64A10.667,10.667,0,0,0,74.667,160h128a10.667,10.667,0,0,0,10.667-10.667v-64A32,32,0,0,0,181.333,53.333Z" fill="#26692b"/>
        <path id="Path_2-6" data-name="Path 2" d="M416,53.333H330.667a32,32,0,0,0-32,32v64A10.667,10.667,0,0,0,309.334,160h128A10.667,10.667,0,0,0,448,149.333v-64A32,32,0,0,0,416,53.333Z" fill="#26692b"/>
      </g>
      <path id="Path_3-6" data-name="Path 3" d="M480,138.667H32a32,32,0,0,0-32,32V448a10.667,10.667,0,0,0,10.667,10.667H501.334A10.667,10.667,0,0,0,512,448V170.667A32,32,0,0,0,480,138.667Z" fill="#2c7131"/>
    </g>
    <g id="lego_1_7" data-name="lego (1)" transform="translate(413.999 338.333)">
      <g id="Group_1-7" data-name="Group 1">
        <path id="Path_1-7" data-name="Path 1" d="M181.333,53.333H96a32,32,0,0,0-32,32v64A10.667,10.667,0,0,0,74.667,160h128a10.667,10.667,0,0,0,10.667-10.667v-64A32,32,0,0,0,181.333,53.333Z" fill="#26692b"/>
        <path id="Path_2-7" data-name="Path 2" d="M416,53.333H330.667a32,32,0,0,0-32,32v64A10.667,10.667,0,0,0,309.334,160h128A10.667,10.667,0,0,0,448,149.333v-64A32,32,0,0,0,416,53.333Z" fill="#26692b"/>
      </g>
      <path id="Path_3-7" data-name="Path 3" d="M480,138.667H32a32,32,0,0,0-32,32V448a10.667,10.667,0,0,0,10.667,10.667H501.334A10.667,10.667,0,0,0,512,448V170.667A32,32,0,0,0,480,138.667Z" fill="#22a62d"/>
    </g>
    <g id="lego_1_8" data-name="lego (1)" transform="translate(1418.999 338.333)">
      <g id="Group_1-8" data-name="Group 1">
        <path id="Path_1-8" data-name="Path 1" d="M181.333,53.333H96a32,32,0,0,0-32,32v64A10.667,10.667,0,0,0,74.667,160h128a10.667,10.667,0,0,0,10.667-10.667v-64A32,32,0,0,0,181.333,53.333Z" fill="#26692b"/>
        <path id="Path_2-8" data-name="Path 2" d="M416,53.333H330.667a32,32,0,0,0-32,32v64A10.667,10.667,0,0,0,309.334,160h128A10.667,10.667,0,0,0,448,149.333v-64A32,32,0,0,0,416,53.333Z" fill="#26692b"/>
      </g>
      <path id="Path_3-8" data-name="Path 3" d="M480,138.667H32a32,32,0,0,0-32,32V448a10.667,10.667,0,0,0,10.667,10.667H501.334A10.667,10.667,0,0,0,512,448V170.667A32,32,0,0,0,480,138.667Z" fill="#22a62d"/>
    </g>
    <g id="lego_1_9" data-name="lego (1)" transform="translate(-6.502 46.333)">
      <g id="Group_1-9" data-name="Group 1">
        <path id="Path_1-9" data-name="Path 1" d="M181.333,53.333H96a32,32,0,0,0-32,32v64A10.667,10.667,0,0,0,74.667,160h128a10.667,10.667,0,0,0,10.667-10.667v-64A32,32,0,0,0,181.333,53.333Z" fill="#216f27"/>
        <path id="Path_2-9" data-name="Path 2" d="M416,53.333H330.667a32,32,0,0,0-32,32v64A10.667,10.667,0,0,0,309.334,160h128A10.667,10.667,0,0,0,448,149.333v-64A32,32,0,0,0,416,53.333Z" fill="#216f27"/>
      </g>
      <path id="Path_3-9" data-name="Path 3" d="M480,138.667H32a32,32,0,0,0-32,32V448a10.667,10.667,0,0,0,10.667,10.667H501.334A10.667,10.667,0,0,0,512,448V170.667A32,32,0,0,0,480,138.667Z" fill="#8df4ff"/>
    </g>
    <g id="lego_1_10" data-name="lego (1)" transform="translate(1005.498 46.333)">
      <g id="Group_1-10" data-name="Group 1">
        <path id="Path_1-10" data-name="Path 1" d="M181.333,53.333H96a32,32,0,0,0-32,32v64A10.667,10.667,0,0,0,74.667,160h128a10.667,10.667,0,0,0,10.667-10.667v-64A32,32,0,0,0,181.333,53.333Z" fill="#216f27"/>
        <path id="Path_2-10" data-name="Path 2" d="M416,53.333H330.667a32,32,0,0,0-32,32v64A10.667,10.667,0,0,0,309.334,160h128A10.667,10.667,0,0,0,448,149.333v-64A32,32,0,0,0,416,53.333Z" fill="#216f27"/>
      </g>
      <path id="Path_3-10" data-name="Path 3" d="M480,138.667H32a32,32,0,0,0-32,32V448a10.667,10.667,0,0,0,10.667,10.667H501.334A10.667,10.667,0,0,0,512,448V170.667A32,32,0,0,0,480,138.667Z" fill="#8df4ff"/>
    </g>
    <g id="lego_1_11" data-name="lego (1)" transform="translate(503.499 46.333)">
      <g id="Group_1-11" data-name="Group 1">
        <path id="Path_1-11" data-name="Path 1" d="M181.333,53.333H96a32,32,0,0,0-32,32v64A10.667,10.667,0,0,0,74.667,160h128a10.667,10.667,0,0,0,10.667-10.667v-64A32,32,0,0,0,181.333,53.333Z" fill="#26692b"/>
        <path id="Path_2-11" data-name="Path 2" d="M416,53.333H330.667a32,32,0,0,0-32,32v64A10.667,10.667,0,0,0,309.334,160h128A10.667,10.667,0,0,0,448,149.333v-64A32,32,0,0,0,416,53.333Z" fill="#26692b"/>
      </g>
      <path id="Path_3-11" data-name="Path 3" d="M480,138.667H32a32,32,0,0,0-32,32V448a10.667,10.667,0,0,0,10.667,10.667H501.334A10.667,10.667,0,0,0,512,448V170.667A32,32,0,0,0,480,138.667Z" fill="#7af2ff"/>
    </g>
    <g id="lego_1_12" data-name="lego (1)" transform="translate(1506.499 46.333)">
      <g id="Group_1-12" data-name="Group 1">
        <path id="Path_1-12" data-name="Path 1" d="M181.333,53.333H96a32,32,0,0,0-32,32v64A10.667,10.667,0,0,0,74.667,160h128a10.667,10.667,0,0,0,10.667-10.667v-64A32,32,0,0,0,181.333,53.333Z" fill="#26692b"/>
        <path id="Path_2-12" data-name="Path 2" d="M416,53.333H330.667a32,32,0,0,0-32,32v64A10.667,10.667,0,0,0,309.334,160h128A10.667,10.667,0,0,0,448,149.333v-64A32,32,0,0,0,416,53.333Z" fill="#26692b"/>
      </g>
      <path id="Path_3-12" data-name="Path 3" d="M480,138.667H32a32,32,0,0,0-32,32V448a10.667,10.667,0,0,0,10.667,10.667H501.334A10.667,10.667,0,0,0,512,448V170.667A32,32,0,0,0,480,138.667Z" fill="#7af2ff"/>
    </g>
    <g id="lego_1_13" data-name="lego (1)" transform="translate(-86.501 -240.667)">
      <g id="Group_1-13" data-name="Group 1">
        <path id="Path_1-13" data-name="Path 1" d="M181.333,53.333H96a32,32,0,0,0-32,32v64A10.667,10.667,0,0,0,74.667,160h128a10.667,10.667,0,0,0,10.667-10.667v-64A32,32,0,0,0,181.333,53.333Z" fill="#216f27"/>
        <path id="Path_2-13" data-name="Path 2" d="M416,53.333H330.667a32,32,0,0,0-32,32v64A10.667,10.667,0,0,0,309.334,160h128A10.667,10.667,0,0,0,448,149.333v-64A32,32,0,0,0,416,53.333Z" fill="#216f27"/>
      </g>
      <path id="Path_3-13" data-name="Path 3" d="M480,138.667H32a32,32,0,0,0-32,32V448a10.667,10.667,0,0,0,10.667,10.667H501.334A10.667,10.667,0,0,0,512,448V170.667A32,32,0,0,0,480,138.667Z" fill="#bff8fe"/>
    </g>
    <g id="lego_1_14" data-name="lego (1)" transform="translate(925.499 -240.667)">
      <g id="Group_1-14" data-name="Group 1">
        <path id="Path_1-14" data-name="Path 1" d="M181.333,53.333H96a32,32,0,0,0-32,32v64A10.667,10.667,0,0,0,74.667,160h128a10.667,10.667,0,0,0,10.667-10.667v-64A32,32,0,0,0,181.333,53.333Z" fill="#216f27"/>
        <path id="Path_2-14" data-name="Path 2" d="M416,53.333H330.667a32,32,0,0,0-32,32v64A10.667,10.667,0,0,0,309.334,160h128A10.667,10.667,0,0,0,448,149.333v-64A32,32,0,0,0,416,53.333Z" fill="#216f27"/>
      </g>
      <path id="Path_3-14" data-name="Path 3" d="M480,138.667H32a32,32,0,0,0-32,32V448a10.667,10.667,0,0,0,10.667,10.667H501.334A10.667,10.667,0,0,0,512,448V170.667A32,32,0,0,0,480,138.667Z" fill="#bff8fe"/>
    </g>
    <g id="lego_1_15" data-name="lego (1)" transform="translate(423.5 -240.667)">
      <g id="Group_1-15" data-name="Group 1">
        <path id="Path_1-15" data-name="Path 1" d="M181.333,53.333H96a32,32,0,0,0-32,32v64A10.667,10.667,0,0,0,74.667,160h128a10.667,10.667,0,0,0,10.667-10.667v-64A32,32,0,0,0,181.333,53.333Z" fill="#26692b"/>
        <path id="Path_2-15" data-name="Path 2" d="M416,53.333H330.667a32,32,0,0,0-32,32v64A10.667,10.667,0,0,0,309.334,160h128A10.667,10.667,0,0,0,448,149.333v-64A32,32,0,0,0,416,53.333Z" fill="#26692b"/>
      </g>
      <path id="Path_3-15" data-name="Path 3" d="M480,138.667H32a32,32,0,0,0-32,32V448a10.667,10.667,0,0,0,10.667,10.667H501.334A10.667,10.667,0,0,0,512,448V170.667A32,32,0,0,0,480,138.667Z" fill="#d4fbff"/>
    </g>
    <g id="lego_1_16" data-name="lego (1)" transform="translate(1426.5 -240.667)">
      <g id="Group_1-16" data-name="Group 1">
        <path id="Path_1-16" data-name="Path 1" d="M181.333,53.333H96a32,32,0,0,0-32,32v64A10.667,10.667,0,0,0,74.667,160h128a10.667,10.667,0,0,0,10.667-10.667v-64A32,32,0,0,0,181.333,53.333Z" fill="#26692b"/>
        <path id="Path_2-16" data-name="Path 2" d="M416,53.333H330.667a32,32,0,0,0-32,32v64A10.667,10.667,0,0,0,309.334,160h128A10.667,10.667,0,0,0,448,149.333v-64A32,32,0,0,0,416,53.333Z" fill="#26692b"/>
      </g>
      <path id="Path_3-16" data-name="Path 3" d="M480,138.667H32a32,32,0,0,0-32,32V448a10.667,10.667,0,0,0,10.667,10.667H501.334A10.667,10.667,0,0,0,512,448V170.667A32,32,0,0,0,480,138.667Z" fill="#d4fbff"/>
    </g>
    <g id="castle_1_" data-name="castle (1)" transform="translate(1357 22.5)">
      <path id="Path_34" data-name="Path 34" d="M256,24h64V64H256Z" fill="#aae79a"/>
      <path id="Path_35" data-name="Path 35" d="M256,24h16V64H256Z" fill="#00cebb"/>
      <path id="Path_36" data-name="Path 36" d="M320,160v32H192V160l64-64Z" fill="#ffe462"/>
      <path id="Path_37" data-name="Path 37" d="M256,96l-12,12,52,52h24Z" fill="#ffc45e"/>
      <path id="Path_38" data-name="Path 38" d="M192,160H320v32H192Z" fill="#f696c3"/>
      <path id="Path_39" data-name="Path 39" d="M296,160h24v32H296Z" fill="#f05475"/>
      <path id="Path_40" data-name="Path 40" d="M208,192h96V328H208Z" fill="#ffe462"/>
      <path id="Path_41" data-name="Path 41" d="M208,192h96v16H208Z" fill="#ffc45e"/>
      <path id="Path_42" data-name="Path 42" d="M288,192h16V328H288Z" fill="#ffc45e"/>
      <path id="Path_43" data-name="Path 43" d="M272,272H240V240a16,16,0,0,1,32,0Z" fill="#fff"/>
      <path id="Path_44" data-name="Path 44" d="M48,248H80v32H48Z" fill="#ffe462"/>
      <path id="Path_45" data-name="Path 45" d="M64,248H80v32H64Z" fill="#ffc45e"/>
      <path id="Path_46" data-name="Path 46" d="M112,248h32v32H112Z" fill="#ffe462"/>
      <path id="Path_47" data-name="Path 47" d="M128,248h16v32H128Z" fill="#ffc45e"/>
      <path id="Path_48" data-name="Path 48" d="M48,280h96V488H48Z" fill="#ffe462"/>
      <path id="Path_49" data-name="Path 49" d="M128,280h16V488H128Z" fill="#ffc45e"/>
      <path id="Path_50" data-name="Path 50" d="M112,392H80V360a16,16,0,0,1,32,0Z" fill="#fff"/>
      <path id="Path_51" data-name="Path 51" d="M48,280h96v32H48Z" fill="#f696c3"/>
      <path id="Path_52" data-name="Path 52" d="M128,280h16v32H128Z" fill="#f05475"/>
      <path id="Path_53" data-name="Path 53" d="M368,248h32v32H368Z" fill="#ffe462"/>
      <path id="Path_54" data-name="Path 54" d="M384,248h16v32H384Z" fill="#ffc45e"/>
      <path id="Path_55" data-name="Path 55" d="M432,248h32v32H432Z" fill="#ffe462"/>
      <path id="Path_56" data-name="Path 56" d="M448,248h16v32H448Z" fill="#ffc45e"/>
      <path id="Path_57" data-name="Path 57" d="M368,280h96V488H368Z" fill="#ffe462"/>
      <path id="Path_58" data-name="Path 58" d="M448,280h16V488H448Z" fill="#ffc45e"/>
      <path id="Path_59" data-name="Path 59" d="M368,280h96v32H368Z" fill="#f696c3"/>
      <path id="Path_60" data-name="Path 60" d="M448,280h16v32H448Z" fill="#f05475"/>
      <path id="Path_61" data-name="Path 61" d="M368,488V304H336v24H304V304H272v24H240V304H208v24H176V304H144V488Z" fill="#ffe462"/>
      <path id="Path_62" data-name="Path 62" d="M352,304h16V488H352Z" fill="#ffc45e"/>
      <path id="Path_63" data-name="Path 63" d="M192,456H320v32H192Z" fill="#f696c3"/>
      <path id="Path_64" data-name="Path 64" d="M296,456h24v32H296Z" fill="#f05475"/>
      <path id="Path_65" data-name="Path 65" d="M208,456V360h96v96" fill="#aae79a"/>
      <path id="Path_66" data-name="Path 66" d="M288,456V360h16v96" fill="#00cebb"/>
      <path id="Path_67" data-name="Path 67" d="M432,392H400V360a16,16,0,0,1,32,0Z" fill="#fff"/>
      <g id="Group_14" data-name="Group 14">
        <path id="Path_68" data-name="Path 68" d="M80,456.5H96v15H80Z" fill="#fff"/>
      </g>
      <g id="Group_17" data-name="Group 17">
        <g id="Group_15" data-name="Group 15">
          <path id="Path_69" data-name="Path 69" d="M400,456.5h16v15H400Z" fill="#fff"/>
        </g>
        <g id="Group_16" data-name="Group 16">
          <path id="Path_70" data-name="Path 70" d="M96,336.5A23.527,23.527,0,0,0,72.5,360v39.5h47V360A23.527,23.527,0,0,0,96,336.5Zm8.5,48h-17V360a8.5,8.5,0,0,1,17,0Z"/>
          <path id="Path_71" data-name="Path 71" d="M439.5,360a23.5,23.5,0,0,0-47,0v39.5h47Zm-15,24.5h-17V360a8.5,8.5,0,0,1,17,0Z"/>
          <path id="Path_72" data-name="Path 72" d="M232.5,240v39.5h47V240a23.5,23.5,0,0,0-47,0Zm32,0v24.5h-17V240a8.5,8.5,0,0,1,17,0Z"/>
          <path id="Path_73" data-name="Path 73" d="M471.5,480.5v-240h-47v32h-17v-32h-47v56h-32v24h-17V264h-15v32.5h-32v24h-17v-24h-32v-97h81V248h15V199.5h16V156.894l-64-64V71.5h64v-55h-79V92.894l-64,64V199.5h16v121h-17v-24h-32v-56h-47v32h-17v-32h-47v240H0v15H512v-15Zm-208-449h49v25h-49ZM256,106.606,301.894,152.5H210.107ZM199.5,184.5v-17h113v17Zm-80,71h17v17h-17Zm-64,0h17v17h-17Zm0,32h81v17h-81Zm257,193h-113v-17h113Zm-97-32v-81h33v81Zm48,0v-81h33v81Zm97-129v161h-33v-32h-16v-96h-111v96h-16v32h-33V408h-15v72.5h-81v-161h81V392h15V311.5h17v24h47v-24h17v24h47v-24h17v24h47v-24h17Zm15-64h17v17h-17Zm81,225h-81v-161h81Zm0-176h-81v-17h81Zm0-32h-17v-17h17Z"/>
          <path id="Path_74" data-name="Path 74" d="M64,440.5H80v15H64Z"/>
          <path id="Path_75" data-name="Path 75" d="M384,440.5h16v15H384Z"/>
        </g>
      </g>
    </g>
    <g id="castle_2_" data-name="castle (2)" transform="translate(133 97.76)">
      <path id="Path_76" data-name="Path 76" d="M33.413,237.131l34.13-68.267,34.137,68.267" fill="#ed5481"/>
      <path id="Path_77" data-name="Path 77" d="M101.685,243.959a6.827,6.827,0,0,1-6.112-3.775l-28.03-56.055L39.518,240.183a6.826,6.826,0,0,1-12.211-6.105l34.13-68.267c2.311-4.625,9.9-4.627,12.211,0l34.137,68.267a6.828,6.828,0,0,1-6.1,9.881Z"/>
      <rect id="Rectangle_1" data-name="Rectangle 1" width="430.08" height="13.653" transform="translate(0 406.187)"/>
      <path id="Path_78" data-name="Path 78" d="M27.307,235.52h88.746V413.013H27.307V235.52" fill="#eac583"/>
      <path id="Path_79" data-name="Path 79" d="M116.053,419.84H27.307a6.828,6.828,0,0,1-6.827-6.827V235.52a6.828,6.828,0,0,1,6.827-6.827h88.747a6.828,6.828,0,0,1,6.827,6.827V413.013A6.829,6.829,0,0,1,116.053,419.84Zm-81.92-13.653h75.093V242.347H34.133Z"/>
      <path id="Path_91" data-name="Path 91" d="M116.053,419.84H27.307a6.828,6.828,0,0,1-6.827-6.827V235.52a6.828,6.828,0,0,1,6.827-6.827h88.747a6.828,6.828,0,0,1,6.827,6.827V413.013A6.829,6.829,0,0,1,116.053,419.84Zm-81.92-13.653h75.093V242.347H34.133Z"/>
      <rect id="Rectangle_2" data-name="Rectangle 2" width="109.227" height="13.653" transform="translate(6.827 228.693)"/>
      <rect id="Rectangle_3" data-name="Rectangle 3" width="13.653" height="34.133" transform="translate(61.44 139.947)"/>
      <path id="Path_80" data-name="Path 80" d="M333.786,237.131l34.13-68.267,34.137,68.267" fill="#ed5481"/>
      <path id="Path_81" data-name="Path 81" d="M402.058,243.959a6.827,6.827,0,0,1-6.112-3.775l-28.03-56.055-28.025,56.054a6.826,6.826,0,0,1-12.211-6.105l34.13-68.267c2.311-4.625,9.9-4.627,12.211,0l34.137,68.267a6.828,6.828,0,0,1-6.1,9.881Z"/>
      <rect id="Rectangle_4" data-name="Rectangle 4" width="13.653" height="47.787" transform="translate(68.267 276.48)"/>
      <path id="Path_82" data-name="Path 82" d="M320.853,235.52H409.6V413.013H320.853V235.52" fill="#eac583"/>
      <path id="Path_83" data-name="Path 83" d="M409.6,419.84H320.853a6.828,6.828,0,0,1-6.827-6.827V235.52a6.828,6.828,0,0,1,6.827-6.827H409.6a6.828,6.828,0,0,1,6.827,6.827V413.013A6.828,6.828,0,0,1,409.6,419.84Zm-81.92-13.653h75.093V242.347H327.68Z"/>
      <rect id="Rectangle_5" data-name="Rectangle 5" width="109.227" height="13.653" transform="translate(320.853 228.693)"/>
      <rect id="Rectangle_6" data-name="Rectangle 6" width="13.653" height="34.133" transform="translate(361.813 139.947)"/>
      <rect id="Rectangle_7" data-name="Rectangle 7" width="13.653" height="47.787" transform="translate(354.987 276.48)"/>
      <rect id="Rectangle_8" data-name="Rectangle 8" width="204.8" height="327.68" transform="translate(116.053 85.333)" fill="#eac583"/>
      <path id="Path_84" data-name="Path 84" d="M320.853,419.84h-204.8a6.828,6.828,0,0,1-6.827-6.827V85.333a6.828,6.828,0,0,1,6.827-6.827h204.8a6.828,6.828,0,0,1,6.827,6.827v327.68A6.828,6.828,0,0,1,320.853,419.84ZM122.88,406.187H314.027V92.16H122.88Z"/>
      <path id="Path_85" data-name="Path 85" d="M218.45,139.947h.007c11.266,0,20.477,11.015,20.477,24.486v43.781h-40.96V164.433c0-13.471,9.21-24.486,20.476-24.486Z" fill="#fbad4a"/>
      <path id="Path_86" data-name="Path 86" d="M238.933,215.04h-40.96a6.828,6.828,0,0,1-6.827-6.827V164.432c0-17.266,12.249-31.312,27.3-31.312s27.308,14.046,27.308,31.312v43.781A6.826,6.826,0,0,1,238.933,215.04ZM204.8,201.387h27.307V164.433c0-9.573-6.252-17.659-13.65-17.659h-.005c-7.4,0-13.652,8.086-13.652,17.659v36.954Z"/>
      <path id="Path_87" data-name="Path 87" d="M170.667,406.187V318.625c0-26.947,21.487-48.971,47.775-48.971h.017c26.288,0,47.782,22.025,47.782,48.971v87.562" fill="#997843"/>
      <path id="Path_88" data-name="Path 88" d="M266.24,413.013a6.828,6.828,0,0,1-6.827-6.827V318.624c0-23.238-18.372-42.144-40.957-42.144s-40.963,18.906-40.963,42.144v87.562a6.827,6.827,0,0,1-13.654,0V318.624c0-30.768,24.494-55.8,54.6-55.8,30.128,0,54.625,25.03,54.625,55.8v87.562A6.824,6.824,0,0,1,266.24,413.013Z"/>
      <rect id="Rectangle_9" data-name="Rectangle 9" width="13.653" height="136.533" transform="translate(211.627 269.653)"/>
      <path id="Path_89" data-name="Path 89" d="M95.573,17.067H143.36V44.373h54.613V17.067h40.96V44.373h54.614V17.067h47.786V85.333H95.573Z" fill="#eac583"/>
      <path id="Path_90" data-name="Path 90" d="M341.333,92.16H95.573a6.828,6.828,0,0,1-6.827-6.827V17.067a6.828,6.828,0,0,1,6.827-6.827H143.36a6.828,6.828,0,0,1,6.827,6.827v20.48h40.96V17.067a6.828,6.828,0,0,1,6.827-6.827h40.96a6.828,6.828,0,0,1,6.827,6.827v20.48h40.96V17.067a6.828,6.828,0,0,1,6.827-6.827h47.787a6.828,6.828,0,0,1,6.827,6.827V85.334A6.83,6.83,0,0,1,341.333,92.16ZM102.4,78.507H334.507V23.893H300.374v20.48a6.828,6.828,0,0,1-6.827,6.827H238.934a6.828,6.828,0,0,1-6.827-6.827V23.893H204.8v20.48a6.828,6.828,0,0,1-6.827,6.827H143.36a6.828,6.828,0,0,1-6.827-6.827V23.893H102.4Z"/>
    </g>
  </g>
</svg>
