<svg xmlns="http://www.w3.org/2000/svg" xmlns:xlink="http://www.w3.org/1999/xlink" width="1920" height="1080" viewBox="0 0 1920 1080">
  <defs>
    <clipPath id="clip-cssDefaultIntermediar">
      <rect width="1920" height="1080"/>
    </clipPath>
  </defs>
  <g id="cssDefaultIntermediar" clip-path="url(#clip-cssDefaultIntermediar)">
    <rect width="1920" height="1080" fill="#fff"/>
    <g id="lego_1_" data-name="lego (1)" transform="translate(-6.001 624.333)">
      <g id="Group_1" data-name="Group 1">
        <path id="Path_1" data-name="Path 1" d="M181.333,53.333H96a32,32,0,0,0-32,32v64A10.667,10.667,0,0,0,74.667,160h128a10.667,10.667,0,0,0,10.667-10.667v-64A32,32,0,0,0,181.333,53.333Z" fill="#746232"/>
        <path id="Path_2" data-name="Path 2" d="M416,53.333H330.667a32,32,0,0,0-32,32v64A10.667,10.667,0,0,0,309.334,160h128A10.667,10.667,0,0,0,448,149.333v-64A32,32,0,0,0,416,53.333Z" fill="#746232"/>
      </g>
      <path id="Path_3" data-name="Path 3" d="M480,138.667H32a32,32,0,0,0-32,32V448a10.667,10.667,0,0,0,10.667,10.667H501.334A10.667,10.667,0,0,0,512,448V170.667A32,32,0,0,0,480,138.667Z" fill="#746232"/>
    </g>
    <g id="lego_1_2" data-name="lego (1)" transform="translate(1005.999 624.333)">
      <g id="Group_1-2" data-name="Group 1">
        <path id="Path_1-2" data-name="Path 1" d="M181.333,53.333H96a32,32,0,0,0-32,32v64A10.667,10.667,0,0,0,74.667,160h128a10.667,10.667,0,0,0,10.667-10.667v-64A32,32,0,0,0,181.333,53.333Z" fill="#746232"/>
        <path id="Path_2-2" data-name="Path 2" d="M416,53.333H330.667a32,32,0,0,0-32,32v64A10.667,10.667,0,0,0,309.334,160h128A10.667,10.667,0,0,0,448,149.333v-64A32,32,0,0,0,416,53.333Z" fill="#746232"/>
      </g>
      <path id="Path_3-2" data-name="Path 3" d="M480,138.667H32a32,32,0,0,0-32,32V448a10.667,10.667,0,0,0,10.667,10.667H501.334A10.667,10.667,0,0,0,512,448V170.667A32,32,0,0,0,480,138.667Z" fill="#746232"/>
    </g>
    <g id="lego_1_3" data-name="lego (1)" transform="translate(-94.002 338.333)">
      <g id="Group_1-3" data-name="Group 1">
        <path id="Path_1-3" data-name="Path 1" d="M181.333,53.333H96a32,32,0,0,0-32,32v64A10.667,10.667,0,0,0,74.667,160h128a10.667,10.667,0,0,0,10.667-10.667v-64A32,32,0,0,0,181.333,53.333Z" fill="#89753f"/>
        <path id="Path_2-3" data-name="Path 2" d="M416,53.333H330.667a32,32,0,0,0-32,32v64A10.667,10.667,0,0,0,309.334,160h128A10.667,10.667,0,0,0,448,149.333v-64A32,32,0,0,0,416,53.333Z" fill="#89753f"/>
      </g>
      <path id="Path_3-3" data-name="Path 3" d="M480,138.667H32a32,32,0,0,0-32,32V448a10.667,10.667,0,0,0,10.667,10.667H501.334A10.667,10.667,0,0,0,512,448V170.667A32,32,0,0,0,480,138.667Z" fill="#89753f"/>
    </g>
    <g id="lego_1_4" data-name="lego (1)" transform="translate(502 624.333)">
      <g id="Group_1-4" data-name="Group 1">
        <path id="Path_1-4" data-name="Path 1" d="M181.333,53.333H96a32,32,0,0,0-32,32v64A10.667,10.667,0,0,0,74.667,160h128a10.667,10.667,0,0,0,10.667-10.667v-64A32,32,0,0,0,181.333,53.333Z" fill="#695726"/>
        <path id="Path_2-4" data-name="Path 2" d="M416,53.333H330.667a32,32,0,0,0-32,32v64A10.667,10.667,0,0,0,309.334,160h128A10.667,10.667,0,0,0,448,149.333v-64A32,32,0,0,0,416,53.333Z" fill="#695726"/>
      </g>
      <path id="Path_3-4" data-name="Path 3" d="M480,138.667H32a32,32,0,0,0-32,32V448a10.667,10.667,0,0,0,10.667,10.667H501.334A10.667,10.667,0,0,0,512,448V170.667A32,32,0,0,0,480,138.667Z" fill="#695726"/>
    </g>
    <g id="lego_1_5" data-name="lego (1)" transform="translate(917.998 338.333)">
      <g id="Group_1-5" data-name="Group 1">
        <path id="Path_1-5" data-name="Path 1" d="M181.333,53.333H96a32,32,0,0,0-32,32v64A10.667,10.667,0,0,0,74.667,160h128a10.667,10.667,0,0,0,10.667-10.667v-64A32,32,0,0,0,181.333,53.333Z" fill="#89753f"/>
        <path id="Path_2-5" data-name="Path 2" d="M416,53.333H330.667a32,32,0,0,0-32,32v64A10.667,10.667,0,0,0,309.334,160h128A10.667,10.667,0,0,0,448,149.333v-64A32,32,0,0,0,416,53.333Z" fill="#89753f"/>
      </g>
      <path id="Path_3-5" data-name="Path 3" d="M480,138.667H32a32,32,0,0,0-32,32V448a10.667,10.667,0,0,0,10.667,10.667H501.334A10.667,10.667,0,0,0,512,448V170.667A32,32,0,0,0,480,138.667Z" fill="#89753f"/>
    </g>
    <g id="lego_1_6" data-name="lego (1)" transform="translate(1507 624.333)">
      <g id="Group_1-6" data-name="Group 1">
        <path id="Path_1-6" data-name="Path 1" d="M181.333,53.333H96a32,32,0,0,0-32,32v64A10.667,10.667,0,0,0,74.667,160h128a10.667,10.667,0,0,0,10.667-10.667v-64A32,32,0,0,0,181.333,53.333Z" fill="#695726"/>
        <path id="Path_2-6" data-name="Path 2" d="M416,53.333H330.667a32,32,0,0,0-32,32v64A10.667,10.667,0,0,0,309.334,160h128A10.667,10.667,0,0,0,448,149.333v-64A32,32,0,0,0,416,53.333Z" fill="#695726"/>
      </g>
      <path id="Path_3-6" data-name="Path 3" d="M480,138.667H32a32,32,0,0,0-32,32V448a10.667,10.667,0,0,0,10.667,10.667H501.334A10.667,10.667,0,0,0,512,448V170.667A32,32,0,0,0,480,138.667Z" fill="#695726"/>
    </g>
    <g id="lego_1_7" data-name="lego (1)" transform="translate(413.999 338.333)">
      <g id="Group_1-7" data-name="Group 1">
        <path id="Path_1-7" data-name="Path 1" d="M181.333,53.333H96a32,32,0,0,0-32,32v64A10.667,10.667,0,0,0,74.667,160h128a10.667,10.667,0,0,0,10.667-10.667v-64A32,32,0,0,0,181.333,53.333Z" fill="#968046"/>
        <path id="Path_2-7" data-name="Path 2" d="M416,53.333H330.667a32,32,0,0,0-32,32v64A10.667,10.667,0,0,0,309.334,160h128A10.667,10.667,0,0,0,448,149.333v-64A32,32,0,0,0,416,53.333Z" fill="#968046"/>
      </g>
      <path id="Path_3-7" data-name="Path 3" d="M480,138.667H32a32,32,0,0,0-32,32V448a10.667,10.667,0,0,0,10.667,10.667H501.334A10.667,10.667,0,0,0,512,448V170.667A32,32,0,0,0,480,138.667Z" fill="#968046"/>
    </g>
    <g id="lego_1_8" data-name="lego (1)" transform="translate(1418.999 338.333)">
      <g id="Group_1-8" data-name="Group 1">
        <path id="Path_1-8" data-name="Path 1" d="M181.333,53.333H96a32,32,0,0,0-32,32v64A10.667,10.667,0,0,0,74.667,160h128a10.667,10.667,0,0,0,10.667-10.667v-64A32,32,0,0,0,181.333,53.333Z" fill="#968046"/>
        <path id="Path_2-8" data-name="Path 2" d="M416,53.333H330.667a32,32,0,0,0-32,32v64A10.667,10.667,0,0,0,309.334,160h128A10.667,10.667,0,0,0,448,149.333v-64A32,32,0,0,0,416,53.333Z" fill="#968046"/>
      </g>
      <path id="Path_3-8" data-name="Path 3" d="M480,138.667H32a32,32,0,0,0-32,32V448a10.667,10.667,0,0,0,10.667,10.667H501.334A10.667,10.667,0,0,0,512,448V170.667A32,32,0,0,0,480,138.667Z" fill="#968046"/>
    </g>
    <g id="lego_1_9" data-name="lego (1)" transform="translate(-6.502 46.333)">
      <g id="Group_1-9" data-name="Group 1">
        <path id="Path_1-9" data-name="Path 1" d="M181.333,53.333H96a32,32,0,0,0-32,32v64A10.667,10.667,0,0,0,74.667,160h128a10.667,10.667,0,0,0,10.667-10.667v-64A32,32,0,0,0,181.333,53.333Z" fill="#ece285"/>
        <path id="Path_2-9" data-name="Path 2" d="M416,53.333H330.667a32,32,0,0,0-32,32v64A10.667,10.667,0,0,0,309.334,160h128A10.667,10.667,0,0,0,448,149.333v-64A32,32,0,0,0,416,53.333Z" fill="#ece285"/>
      </g>
      <path id="Path_3-9" data-name="Path 3" d="M480,138.667H32a32,32,0,0,0-32,32V448a10.667,10.667,0,0,0,10.667,10.667H501.334A10.667,10.667,0,0,0,512,448V170.667A32,32,0,0,0,480,138.667Z" fill="#ece285"/>
    </g>
    <g id="lego_1_10" data-name="lego (1)" transform="translate(1005.498 46.333)">
      <g id="Group_1-10" data-name="Group 1">
        <path id="Path_1-10" data-name="Path 1" d="M181.333,53.333H96a32,32,0,0,0-32,32v64A10.667,10.667,0,0,0,74.667,160h128a10.667,10.667,0,0,0,10.667-10.667v-64A32,32,0,0,0,181.333,53.333Z" fill="#ece285"/>
        <path id="Path_2-10" data-name="Path 2" d="M416,53.333H330.667a32,32,0,0,0-32,32v64A10.667,10.667,0,0,0,309.334,160h128A10.667,10.667,0,0,0,448,149.333v-64A32,32,0,0,0,416,53.333Z" fill="#ece285"/>
      </g>
      <path id="Path_3-10" data-name="Path 3" d="M480,138.667H32a32,32,0,0,0-32,32V448a10.667,10.667,0,0,0,10.667,10.667H501.334A10.667,10.667,0,0,0,512,448V170.667A32,32,0,0,0,480,138.667Z" fill="#ece285"/>
    </g>
    <g id="lego_1_11" data-name="lego (1)" transform="translate(503.499 46.333)">
      <g id="Group_1-11" data-name="Group 1">
        <path id="Path_1-11" data-name="Path 1" d="M181.333,53.333H96a32,32,0,0,0-32,32v64A10.667,10.667,0,0,0,74.667,160h128a10.667,10.667,0,0,0,10.667-10.667v-64A32,32,0,0,0,181.333,53.333Z" fill="#e9dd6f"/>
        <path id="Path_2-11" data-name="Path 2" d="M416,53.333H330.667a32,32,0,0,0-32,32v64A10.667,10.667,0,0,0,309.334,160h128A10.667,10.667,0,0,0,448,149.333v-64A32,32,0,0,0,416,53.333Z" fill="#e9dd6f"/>
      </g>
      <path id="Path_3-11" data-name="Path 3" d="M480,138.667H32a32,32,0,0,0-32,32V448a10.667,10.667,0,0,0,10.667,10.667H501.334A10.667,10.667,0,0,0,512,448V170.667A32,32,0,0,0,480,138.667Z" fill="#e9dd6f"/>
    </g>
    <g id="lego_1_12" data-name="lego (1)" transform="translate(1506.499 46.333)">
      <g id="Group_1-12" data-name="Group 1">
        <path id="Path_1-12" data-name="Path 1" d="M181.333,53.333H96a32,32,0,0,0-32,32v64A10.667,10.667,0,0,0,74.667,160h128a10.667,10.667,0,0,0,10.667-10.667v-64A32,32,0,0,0,181.333,53.333Z" fill="#e9dd6f"/>
        <path id="Path_2-12" data-name="Path 2" d="M416,53.333H330.667a32,32,0,0,0-32,32v64A10.667,10.667,0,0,0,309.334,160h128A10.667,10.667,0,0,0,448,149.333v-64A32,32,0,0,0,416,53.333Z" fill="#e9dd6f"/>
      </g>
      <path id="Path_3-12" data-name="Path 3" d="M480,138.667H32a32,32,0,0,0-32,32V448a10.667,10.667,0,0,0,10.667,10.667H501.334A10.667,10.667,0,0,0,512,448V170.667A32,32,0,0,0,480,138.667Z" fill="#e9dd6f"/>
    </g>
    <g id="lego_1_13" data-name="lego (1)" transform="translate(-86.501 -240.667)">
      <g id="Group_1-13" data-name="Group 1">
        <path id="Path_1-13" data-name="Path 1" d="M181.333,53.333H96a32,32,0,0,0-32,32v64A10.667,10.667,0,0,0,74.667,160h128a10.667,10.667,0,0,0,10.667-10.667v-64A32,32,0,0,0,181.333,53.333Z" fill="#f0e797"/>
        <path id="Path_2-13" data-name="Path 2" d="M416,53.333H330.667a32,32,0,0,0-32,32v64A10.667,10.667,0,0,0,309.334,160h128A10.667,10.667,0,0,0,448,149.333v-64A32,32,0,0,0,416,53.333Z" fill="#f0e797"/>
      </g>
      <path id="Path_3-13" data-name="Path 3" d="M480,138.667H32a32,32,0,0,0-32,32V448a10.667,10.667,0,0,0,10.667,10.667H501.334A10.667,10.667,0,0,0,512,448V170.667A32,32,0,0,0,480,138.667Z" fill="#f0e797"/>
    </g>
    <g id="lego_1_14" data-name="lego (1)" transform="translate(925.499 -240.667)">
      <g id="Group_1-14" data-name="Group 1">
        <path id="Path_1-14" data-name="Path 1" d="M181.333,53.333H96a32,32,0,0,0-32,32v64A10.667,10.667,0,0,0,74.667,160h128a10.667,10.667,0,0,0,10.667-10.667v-64A32,32,0,0,0,181.333,53.333Z" fill="#f0e797"/>
        <path id="Path_2-14" data-name="Path 2" d="M416,53.333H330.667a32,32,0,0,0-32,32v64A10.667,10.667,0,0,0,309.334,160h128A10.667,10.667,0,0,0,448,149.333v-64A32,32,0,0,0,416,53.333Z" fill="#f0e797"/>
      </g>
      <path id="Path_3-14" data-name="Path 3" d="M480,138.667H32a32,32,0,0,0-32,32V448a10.667,10.667,0,0,0,10.667,10.667H501.334A10.667,10.667,0,0,0,512,448V170.667A32,32,0,0,0,480,138.667Z" fill="#f0e797"/>
    </g>
    <g id="lego_1_15" data-name="lego (1)" transform="translate(423.5 -240.667)">
      <g id="Group_1-15" data-name="Group 1">
        <path id="Path_1-15" data-name="Path 1" d="M181.333,53.333H96a32,32,0,0,0-32,32v64A10.667,10.667,0,0,0,74.667,160h128a10.667,10.667,0,0,0,10.667-10.667v-64A32,32,0,0,0,181.333,53.333Z" fill="#f0eab2"/>
        <path id="Path_2-15" data-name="Path 2" d="M416,53.333H330.667a32,32,0,0,0-32,32v64A10.667,10.667,0,0,0,309.334,160h128A10.667,10.667,0,0,0,448,149.333v-64A32,32,0,0,0,416,53.333Z" fill="#f0eab2"/>
      </g>
      <path id="Path_3-15" data-name="Path 3" d="M480,138.667H32a32,32,0,0,0-32,32V448a10.667,10.667,0,0,0,10.667,10.667H501.334A10.667,10.667,0,0,0,512,448V170.667A32,32,0,0,0,480,138.667Z" fill="#f0eab2"/>
    </g>
    <g id="lego_1_16" data-name="lego (1)" transform="translate(1426.5 -240.667)">
      <g id="Group_1-16" data-name="Group 1">
        <path id="Path_1-16" data-name="Path 1" d="M181.333,53.333H96a32,32,0,0,0-32,32v64A10.667,10.667,0,0,0,74.667,160h128a10.667,10.667,0,0,0,10.667-10.667v-64A32,32,0,0,0,181.333,53.333Z" fill="#f0eab2"/>
        <path id="Path_2-16" data-name="Path 2" d="M416,53.333H330.667a32,32,0,0,0-32,32v64A10.667,10.667,0,0,0,309.334,160h128A10.667,10.667,0,0,0,448,149.333v-64A32,32,0,0,0,416,53.333Z" fill="#f0eab2"/>
      </g>
      <path id="Path_3-16" data-name="Path 3" d="M480,138.667H32a32,32,0,0,0-32,32V448a10.667,10.667,0,0,0,10.667,10.667H501.334A10.667,10.667,0,0,0,512,448V170.667A32,32,0,0,0,480,138.667Z" fill="#f0eab2"/>
    </g>
    <g id="lego_1_17" data-name="lego (1)" transform="translate(318 -3)">
      <g id="Group_1-17" data-name="Group 1" transform="translate(64 53.333)">
        <path id="Path_1-17" data-name="Path 1" d="M181.333,53.333H96a32,32,0,0,0-32,32v64A10.667,10.667,0,0,0,74.667,160h128a10.667,10.667,0,0,0,10.667-10.667v-64A32,32,0,0,0,181.333,53.333Z" transform="translate(-75.71 -53.333)" fill="#0b2b6a"/>
        <path id="Path_2-17" data-name="Path 2" d="M416,53.333H330.667a32,32,0,0,0-32,32v64A10.667,10.667,0,0,0,309.334,160h128A10.667,10.667,0,0,0,448,149.333v-64A32,32,0,0,0,416,53.333Z" transform="translate(-310.377 -53.333)" fill="#0b2b6a"/>
      </g>
      <path id="Path_3-17" data-name="Path 3" d="M238.044,138.667H15.87c-8.764,0-15.87,14.327-15.87,32V448c0,5.891,2.369,10.667,5.29,10.667H248.624c2.921,0,5.29-4.776,5.29-10.667V170.667C253.914,152.994,246.808,138.667,238.044,138.667Z" fill="#0b2b6a"/>
    </g>
    <g id="lego_1_18" data-name="lego (1)" transform="translate(833.5 -3)">
      <g id="Group_1-18" data-name="Group 1" transform="translate(64 53.333)">
        <path id="Path_1-18" data-name="Path 1" d="M181.333,53.333H96a32,32,0,0,0-32,32v64A10.667,10.667,0,0,0,74.667,160h128a10.667,10.667,0,0,0,10.667-10.667v-64A32,32,0,0,0,181.333,53.333Z" transform="translate(-75.71 -53.333)" fill="#0b2b6a"/>
        <path id="Path_2-18" data-name="Path 2" d="M416,53.333H330.667a32,32,0,0,0-32,32v64A10.667,10.667,0,0,0,309.334,160h128A10.667,10.667,0,0,0,448,149.333v-64A32,32,0,0,0,416,53.333Z" transform="translate(-310.377 -53.333)" fill="#0b2b6a"/>
      </g>
      <path id="Path_3-18" data-name="Path 3" d="M238.044,138.667H15.87c-8.764,0-15.87,14.327-15.87,32V448c0,5.891,2.369,10.667,5.29,10.667H248.624c2.921,0,5.29-4.776,5.29-10.667V170.667C253.914,152.994,246.808,138.667,238.044,138.667Z" fill="#0b2b6a"/>
    </g>
    <g id="lego_1_19" data-name="lego (1)" transform="translate(1348.914 -3)">
      <g id="Group_1-19" data-name="Group 1" transform="translate(64 53.333)">
        <path id="Path_1-19" data-name="Path 1" d="M181.333,53.333H96a32,32,0,0,0-32,32v64A10.667,10.667,0,0,0,74.667,160h128a10.667,10.667,0,0,0,10.667-10.667v-64A32,32,0,0,0,181.333,53.333Z" transform="translate(-75.71 -53.333)" fill="#0b2b6a"/>
        <path id="Path_2-19" data-name="Path 2" d="M416,53.333H330.667a32,32,0,0,0-32,32v64A10.667,10.667,0,0,0,309.334,160h128A10.667,10.667,0,0,0,448,149.333v-64A32,32,0,0,0,416,53.333Z" transform="translate(-310.377 -53.333)" fill="#0b2b6a"/>
      </g>
      <path id="Path_3-19" data-name="Path 3" d="M238.044,138.667H15.87c-8.764,0-15.87,14.327-15.87,32V448c0,5.891,2.369,10.667,5.29,10.667H248.624c2.921,0,5.29-4.776,5.29-10.667V170.667C253.914,152.994,246.808,138.667,238.044,138.667Z" fill="#0b2b6a"/>
    </g>
    <g id="Group_18" data-name="Group 18" transform="translate(387 -106.06)">
      <path id="Polygon_1" data-name="Polygon 1" d="M15.775,0,31.551,24.565H0Z" transform="translate(119 271.17)" fill="#e6ff00"/>
      <path id="Polygon_2" data-name="Polygon 2" d="M15.775,0,31.551,24.565H0Z" transform="matrix(0.545, 0.839, -0.839, 0.545, 139.818, 265.11)" fill="#e6ff00"/>
    </g>
    <g id="Group_19" data-name="Group 19" transform="translate(229.999 17.303)">
      <path id="Polygon_1-2" data-name="Polygon 1" d="M15.775,0,31.551,24.565H0Z" transform="translate(119 271.17)" fill="#e6ff00"/>
      <path id="Polygon_2-2" data-name="Polygon 2" d="M15.775,0,31.551,24.565H0Z" transform="matrix(0.545, 0.839, -0.839, 0.545, 139.818, 265.11)" fill="#e6ff00"/>
    </g>
    <g id="Group_20" data-name="Group 20" transform="translate(387 4.303)">
      <path id="Polygon_1-3" data-name="Polygon 1" d="M15.775,0,31.551,24.565H0Z" transform="translate(119 271.17)" fill="#e6ff00"/>
      <path id="Polygon_2-3" data-name="Polygon 2" d="M15.775,0,31.551,24.565H0Z" transform="matrix(0.545, 0.839, -0.839, 0.545, 139.818, 265.11)" fill="#e6ff00"/>
    </g>
    <g id="Group_21" data-name="Group 21" transform="translate(249 -91.95)">
      <path id="Polygon_1-4" data-name="Polygon 1" d="M15.775,0,31.551,24.565H0Z" transform="translate(119 271.17)" fill="#e6ff00"/>
      <path id="Polygon_2-4" data-name="Polygon 2" d="M15.775,0,31.551,24.565H0Z" transform="matrix(0.545, 0.839, -0.839, 0.545, 139.818, 265.11)" fill="#e6ff00"/>
    </g>
    <g id="Group_23" data-name="Group 23" transform="translate(886.498 -111.87)">
      <path id="Polygon_1-5" data-name="Polygon 1" d="M15.775,0,31.551,24.565H0Z" transform="translate(119 271.17)" fill="#e6ff00"/>
      <path id="Polygon_2-5" data-name="Polygon 2" d="M15.775,0,31.551,24.565H0Z" transform="matrix(0.545, 0.839, -0.839, 0.545, 139.818, 265.11)" fill="#e6ff00"/>
    </g>
    <g id="Group_25" data-name="Group 25" transform="translate(896.5 75.13)">
      <path id="Polygon_1-6" data-name="Polygon 1" d="M15.775,0,31.551,24.565H0Z" transform="translate(119 271.17)" fill="#e6ff00"/>
      <path id="Polygon_2-6" data-name="Polygon 2" d="M15.775,0,31.551,24.565H0Z" transform="matrix(0.545, 0.839, -0.839, 0.545, 139.818, 265.11)" fill="#e6ff00"/>
    </g>
    <g id="Group_26" data-name="Group 26" transform="translate(749.996 -106.06)">
      <path id="Polygon_1-7" data-name="Polygon 1" d="M15.775,0,31.551,24.565H0Z" transform="translate(119 271.17)" fill="#e6ff00"/>
      <path id="Polygon_2-7" data-name="Polygon 2" d="M15.775,0,31.551,24.565H0Z" transform="matrix(0.545, 0.839, -0.839, 0.545, 139.818, 265.11)" fill="#e6ff00"/>
    </g>
    <g id="Group_27" data-name="Group 27" transform="translate(1302.999 -185.364)">
      <path id="Polygon_1-8" data-name="Polygon 1" d="M15.775,0,31.551,24.565H0Z" transform="translate(119 271.17)" fill="#e6ff00"/>
      <path id="Polygon_2-8" data-name="Polygon 2" d="M15.775,0,31.551,24.565H0Z" transform="matrix(0.545, 0.839, -0.839, 0.545, 139.818, 265.11)" fill="#e6ff00"/>
    </g>
    <g id="Group_29" data-name="Group 29" transform="translate(1261.496 66.796)">
      <path id="Polygon_1-9" data-name="Polygon 1" d="M15.775,0,31.551,24.565H0Z" transform="translate(119 271.17)" fill="#e6ff00"/>
      <path id="Polygon_2-9" data-name="Polygon 2" d="M15.775,0,31.551,24.565H0Z" transform="matrix(0.545, 0.839, -0.839, 0.545, 139.818, 265.11)" fill="#e6ff00"/>
    </g>
    <g id="Group_31" data-name="Group 31" transform="translate(1280.498 -72.03)">
      <path id="Polygon_1-10" data-name="Polygon 1" d="M15.775,0,31.551,24.565H0Z" transform="translate(119 271.17)" fill="#e6ff00"/>
      <path id="Polygon_2-10" data-name="Polygon 2" d="M15.775,0,31.551,24.565H0Z" transform="matrix(0.545, 0.839, -0.839, 0.545, 139.818, 265.11)" fill="#e6ff00"/>
    </g>
    <g id="Group_32" data-name="Group 32" transform="translate(1378.997 126.556)">
      <path id="Polygon_1-11" data-name="Polygon 1" d="M15.775,0,31.551,24.565H0Z" transform="translate(119 271.17)" fill="#e6ff00"/>
      <path id="Polygon_2-11" data-name="Polygon 2" d="M15.775,0,31.551,24.565H0Z" transform="matrix(0.545, 0.839, -0.839, 0.545, 139.818, 265.11)" fill="#e6ff00"/>
    </g>
    <g id="Group_30" data-name="Group 30" transform="translate(1417 -66.22)">
      <path id="Polygon_1-12" data-name="Polygon 1" d="M15.775,0,31.551,24.565H0Z" transform="translate(119 271.17)" fill="#e6ff00"/>
      <path id="Polygon_2-12" data-name="Polygon 2" d="M15.775,0,31.551,24.565H0Z" transform="matrix(0.545, 0.839, -0.839, 0.545, 139.818, 265.11)" fill="#e6ff00"/>
    </g>
    <g id="Group_28" data-name="Group 28" transform="translate(816.501 -12.11)">
      <path id="Polygon_1-13" data-name="Polygon 1" d="M15.775,0,31.551,24.565H0Z" transform="translate(119 271.17)" fill="#e6ff00"/>
      <path id="Polygon_2-13" data-name="Polygon 2" d="M15.775,0,31.551,24.565H0Z" transform="matrix(0.545, 0.839, -0.839, 0.545, 139.818, 265.11)" fill="#e6ff00"/>
    </g>
    <g id="Group_24" data-name="Group 24" transform="translate(768.998 86.716)">
      <path id="Polygon_1-14" data-name="Polygon 1" d="M15.775,0,31.551,24.565H0Z" transform="translate(119 271.17)" fill="#e6ff00"/>
      <path id="Polygon_2-14" data-name="Polygon 2" d="M15.775,0,31.551,24.565H0Z" transform="matrix(0.545, 0.839, -0.839, 0.545, 139.818, 265.11)" fill="#e6ff00"/>
    </g>
    <g id="Group_22" data-name="Group 22" transform="translate(298.999 106.636)">
      <path id="Polygon_1-15" data-name="Polygon 1" d="M15.775,0,31.551,24.565H0Z" transform="translate(119 271.17)" fill="#e6ff00"/>
      <path id="Polygon_2-15" data-name="Polygon 2" d="M15.775,0,31.551,24.565H0Z" transform="matrix(0.545, 0.839, -0.839, 0.545, 139.818, 265.11)" fill="#e6ff00"/>
    </g>
  </g>
</svg>
