<svg xmlns="http://www.w3.org/2000/svg" xmlns:xlink="http://www.w3.org/1999/xlink" width="510" height="525" viewBox="0 0 510 525">
  <defs>
    <linearGradient id="linear-gradient" x1="0.5" x2="0.5" y2="1" gradientUnits="objectBoundingBox">
      <stop offset="0" stop-color="#d3eef9"/>
      <stop offset="1" stop-color="#bff8bf"/>
    </linearGradient>
    <clipPath id="clip-path">
      <rect id="Rectangle_18" data-name="Rectangle 18" width="521" height="282" transform="translate(0.276)" fill="#fff" stroke="#707070" stroke-width="1"/>
    </clipPath>
    <clipPath id="clip-path-2">
      <rect id="Rectangle_20" data-name="Rectangle 20" width="512.341" height="282"/>
    </clipPath>
    <clipPath id="clip-cssExpGames">
      <rect width="510" height="525"/>
    </clipPath>
  </defs>
  <g id="cssExpGames" clip-path="url(#clip-cssExpGames)">
    <rect width="510" height="525" fill="url(#linear-gradient)"/>
    <g id="Mask_Group_6" data-name="Mask Group 6" transform="translate(-5.276)" clip-path="url(#clip-path)">
      <g id="Web_1920_1" data-name="Web 1920 – 1" transform="translate(4.425)" clip-path="url(#clip-path-2)">
        <rect id="Rectangle_19" data-name="Rectangle 19" width="512.341" height="282" fill="#fff"/>
        <g id="lego_1_" data-name="lego (1)" transform="translate(-1.601 176.946)">
          <g id="Group_1" data-name="Group 1" transform="translate(17.078)">
            <path id="Path_1" data-name="Path 1" d="M48.021,13.926H25.25a8.449,8.449,0,0,0-8.539,8.356V38.993a2.816,2.816,0,0,0,2.846,2.785H53.714a2.816,2.816,0,0,0,2.846-2.785V22.281a8.449,8.449,0,0,0-8.539-8.356Z" transform="translate(-16.711 -13.926)" fill="#216f27"/>
            <path id="Path_2" data-name="Path 2" d="M109.295,13.926H86.524a8.449,8.449,0,0,0-8.539,8.356V38.993a2.816,2.816,0,0,0,2.846,2.785h34.156a2.816,2.816,0,0,0,2.846-2.785V22.281a8.449,8.449,0,0,0-8.539-8.356Z" transform="translate(-15.366 -13.926)" fill="#216f27"/>
          </g>
          <path id="Path_3" data-name="Path 3" d="M128.085,36.207H8.539A8.449,8.449,0,0,0,0,44.563v72.415a2.816,2.816,0,0,0,2.846,2.785H133.778a2.816,2.816,0,0,0,2.846-2.785V44.563A8.449,8.449,0,0,0,128.085,36.207Z" transform="translate(0 -13.926)" fill="#28822f"/>
        </g>
        <g id="lego_1_2" data-name="lego (1)" transform="translate(268.445 176.946)">
          <g id="Group_1-2" data-name="Group 1" transform="translate(17.078)">
            <path id="Path_1-2" data-name="Path 1" d="M48.021,13.926H25.25a8.449,8.449,0,0,0-8.539,8.356V38.993a2.816,2.816,0,0,0,2.846,2.785H53.714a2.816,2.816,0,0,0,2.846-2.785V22.281a8.449,8.449,0,0,0-8.539-8.356Z" transform="translate(-16.711 -13.926)" fill="#216f27"/>
            <path id="Path_2-2" data-name="Path 2" d="M109.295,13.926H86.524a8.449,8.449,0,0,0-8.539,8.356V38.993a2.816,2.816,0,0,0,2.846,2.785h34.156a2.816,2.816,0,0,0,2.846-2.785V22.281a8.449,8.449,0,0,0-8.539-8.356Z" transform="translate(-15.366 -13.926)" fill="#216f27"/>
          </g>
          <path id="Path_3-2" data-name="Path 3" d="M128.085,36.207H8.539A8.449,8.449,0,0,0,0,44.563v72.415a2.816,2.816,0,0,0,2.846,2.785H133.778a2.816,2.816,0,0,0,2.846-2.785V44.563A8.449,8.449,0,0,0,128.085,36.207Z" transform="translate(0 -13.926)" fill="#28822f"/>
        </g>
        <g id="lego_1_3" data-name="lego (1)" transform="translate(-25.084 102.268)">
          <g id="Group_1-3" data-name="Group 1" transform="translate(17.078)">
            <path id="Path_1-3" data-name="Path 1" d="M48.021,13.926H25.25a8.449,8.449,0,0,0-8.539,8.356V38.993a2.816,2.816,0,0,0,2.846,2.785H53.714a2.816,2.816,0,0,0,2.846-2.785V22.281a8.449,8.449,0,0,0-8.539-8.356Z" transform="translate(-16.711 -13.926)" fill="#216f27"/>
            <path id="Path_2-3" data-name="Path 2" d="M109.295,13.926H86.524a8.449,8.449,0,0,0-8.539,8.356V38.993a2.816,2.816,0,0,0,2.846,2.785h34.156a2.816,2.816,0,0,0,2.846-2.785V22.281a8.449,8.449,0,0,0-8.539-8.356Z" transform="translate(-15.366 -13.926)" fill="#216f27"/>
          </g>
          <path id="Path_3-3" data-name="Path 3" d="M128.085,36.207H8.539A8.449,8.449,0,0,0,0,44.563v72.415a2.816,2.816,0,0,0,2.846,2.785H133.778a2.816,2.816,0,0,0,2.846-2.785V44.563A8.449,8.449,0,0,0,128.085,36.207Z" transform="translate(0 -13.926)" fill="#2b9834"/>
        </g>
        <g id="lego_1_4" data-name="lego (1)" transform="translate(133.956 176.946)">
          <g id="Group_1-4" data-name="Group 1" transform="translate(17.078)">
            <path id="Path_1-4" data-name="Path 1" d="M48.021,13.926H25.25a8.449,8.449,0,0,0-8.539,8.356V38.993a2.816,2.816,0,0,0,2.846,2.785H53.714a2.816,2.816,0,0,0,2.846-2.785V22.281a8.449,8.449,0,0,0-8.539-8.356Z" transform="translate(-16.711 -13.926)" fill="#26692b"/>
            <path id="Path_2-4" data-name="Path 2" d="M109.295,13.926H86.524a8.449,8.449,0,0,0-8.539,8.356V38.993a2.816,2.816,0,0,0,2.846,2.785h34.156a2.816,2.816,0,0,0,2.846-2.785V22.281a8.449,8.449,0,0,0-8.539-8.356Z" transform="translate(-15.366 -13.926)" fill="#26692b"/>
          </g>
          <path id="Path_3-4" data-name="Path 3" d="M128.085,36.207H8.539A8.449,8.449,0,0,0,0,44.563v72.415a2.816,2.816,0,0,0,2.846,2.785H133.778a2.816,2.816,0,0,0,2.846-2.785V44.563A8.449,8.449,0,0,0,128.085,36.207Z" transform="translate(0 -13.926)" fill="#2c7131"/>
        </g>
        <g id="lego_1_5" data-name="lego (1)" transform="translate(244.963 102.268)">
          <g id="Group_1-5" data-name="Group 1" transform="translate(17.078)">
            <path id="Path_1-5" data-name="Path 1" d="M48.021,13.926H25.25a8.449,8.449,0,0,0-8.539,8.356V38.993a2.816,2.816,0,0,0,2.846,2.785H53.714a2.816,2.816,0,0,0,2.846-2.785V22.281a8.449,8.449,0,0,0-8.539-8.356Z" transform="translate(-16.711 -13.926)" fill="#216f27"/>
            <path id="Path_2-5" data-name="Path 2" d="M109.295,13.926H86.524a8.449,8.449,0,0,0-8.539,8.356V38.993a2.816,2.816,0,0,0,2.846,2.785h34.156a2.816,2.816,0,0,0,2.846-2.785V22.281a8.449,8.449,0,0,0-8.539-8.356Z" transform="translate(-15.366 -13.926)" fill="#216f27"/>
          </g>
          <path id="Path_3-5" data-name="Path 3" d="M128.085,36.207H8.539A8.449,8.449,0,0,0,0,44.563v72.415a2.816,2.816,0,0,0,2.846,2.785H133.778a2.816,2.816,0,0,0,2.846-2.785V44.563A8.449,8.449,0,0,0,128.085,36.207Z" transform="translate(0 -13.926)" fill="#2b9834"/>
        </g>
        <g id="lego_1_6" data-name="lego (1)" transform="translate(402.135 176.946)">
          <g id="Group_1-6" data-name="Group 1" transform="translate(17.078)">
            <path id="Path_1-6" data-name="Path 1" d="M48.021,13.926H25.25a8.449,8.449,0,0,0-8.539,8.356V38.993a2.816,2.816,0,0,0,2.846,2.785H53.714a2.816,2.816,0,0,0,2.846-2.785V22.281a8.449,8.449,0,0,0-8.539-8.356Z" transform="translate(-16.711 -13.926)" fill="#26692b"/>
            <path id="Path_2-6" data-name="Path 2" d="M109.295,13.926H86.524a8.449,8.449,0,0,0-8.539,8.356V38.993a2.816,2.816,0,0,0,2.846,2.785h34.156a2.816,2.816,0,0,0,2.846-2.785V22.281a8.449,8.449,0,0,0-8.539-8.356Z" transform="translate(-15.366 -13.926)" fill="#26692b"/>
          </g>
          <path id="Path_3-6" data-name="Path 3" d="M128.085,36.207H8.539A8.449,8.449,0,0,0,0,44.563v72.415a2.816,2.816,0,0,0,2.846,2.785H133.778a2.816,2.816,0,0,0,2.846-2.785V44.563A8.449,8.449,0,0,0,128.085,36.207Z" transform="translate(0 -13.926)" fill="#2c7131"/>
        </g>
        <g id="lego_1_7" data-name="lego (1)" transform="translate(110.473 102.268)">
          <g id="Group_1-7" data-name="Group 1" transform="translate(17.078)">
            <path id="Path_1-7" data-name="Path 1" d="M48.021,13.926H25.25a8.449,8.449,0,0,0-8.539,8.356V38.993a2.816,2.816,0,0,0,2.846,2.785H53.714a2.816,2.816,0,0,0,2.846-2.785V22.281a8.449,8.449,0,0,0-8.539-8.356Z" transform="translate(-16.711 -13.926)" fill="#26692b"/>
            <path id="Path_2-7" data-name="Path 2" d="M109.295,13.926H86.524a8.449,8.449,0,0,0-8.539,8.356V38.993a2.816,2.816,0,0,0,2.846,2.785h34.156a2.816,2.816,0,0,0,2.846-2.785V22.281a8.449,8.449,0,0,0-8.539-8.356Z" transform="translate(-15.366 -13.926)" fill="#26692b"/>
          </g>
          <path id="Path_3-7" data-name="Path 3" d="M128.085,36.207H8.539A8.449,8.449,0,0,0,0,44.563v72.415a2.816,2.816,0,0,0,2.846,2.785H133.778a2.816,2.816,0,0,0,2.846-2.785V44.563A8.449,8.449,0,0,0,128.085,36.207Z" transform="translate(0 -13.926)" fill="#22a62d"/>
        </g>
        <g id="lego_1_8" data-name="lego (1)" transform="translate(378.652 102.268)">
          <g id="Group_1-8" data-name="Group 1" transform="translate(17.078)">
            <path id="Path_1-8" data-name="Path 1" d="M48.021,13.926H25.25a8.449,8.449,0,0,0-8.539,8.356V38.993a2.816,2.816,0,0,0,2.846,2.785H53.714a2.816,2.816,0,0,0,2.846-2.785V22.281a8.449,8.449,0,0,0-8.539-8.356Z" transform="translate(-16.711 -13.926)" fill="#26692b"/>
            <path id="Path_2-8" data-name="Path 2" d="M109.295,13.926H86.524a8.449,8.449,0,0,0-8.539,8.356V38.993a2.816,2.816,0,0,0,2.846,2.785h34.156a2.816,2.816,0,0,0,2.846-2.785V22.281a8.449,8.449,0,0,0-8.539-8.356Z" transform="translate(-15.366 -13.926)" fill="#26692b"/>
          </g>
          <path id="Path_3-8" data-name="Path 3" d="M128.085,36.207H8.539A8.449,8.449,0,0,0,0,44.563v72.415a2.816,2.816,0,0,0,2.846,2.785H133.778a2.816,2.816,0,0,0,2.846-2.785V44.563A8.449,8.449,0,0,0,128.085,36.207Z" transform="translate(0 -13.926)" fill="#22a62d"/>
        </g>
        <g id="lego_1_9" data-name="lego (1)" transform="translate(-1.735 26.024)">
          <g id="Group_1-9" data-name="Group 1" transform="translate(17.078)">
            <path id="Path_1-9" data-name="Path 1" d="M48.021,13.926H25.25a8.449,8.449,0,0,0-8.539,8.356V38.993a2.816,2.816,0,0,0,2.846,2.785H53.714a2.816,2.816,0,0,0,2.846-2.785V22.281a8.449,8.449,0,0,0-8.539-8.356Z" transform="translate(-16.711 -13.926)" fill="#216f27"/>
            <path id="Path_2-9" data-name="Path 2" d="M109.295,13.926H86.524a8.449,8.449,0,0,0-8.539,8.356V38.993a2.816,2.816,0,0,0,2.846,2.785h34.156a2.816,2.816,0,0,0,2.846-2.785V22.281a8.449,8.449,0,0,0-8.539-8.356Z" transform="translate(-15.366 -13.926)" fill="#216f27"/>
          </g>
          <path id="Path_3-9" data-name="Path 3" d="M128.085,36.207H8.539A8.449,8.449,0,0,0,0,44.563v72.415a2.816,2.816,0,0,0,2.846,2.785H133.778a2.816,2.816,0,0,0,2.846-2.785V44.563A8.449,8.449,0,0,0,128.085,36.207Z" transform="translate(0 -13.926)" fill="#8df4ff"/>
        </g>
        <g id="lego_1_10" data-name="lego (1)" transform="translate(268.312 26.024)">
          <g id="Group_1-10" data-name="Group 1" transform="translate(17.078)">
            <path id="Path_1-10" data-name="Path 1" d="M48.021,13.926H25.25a8.449,8.449,0,0,0-8.539,8.356V38.993a2.816,2.816,0,0,0,2.846,2.785H53.714a2.816,2.816,0,0,0,2.846-2.785V22.281a8.449,8.449,0,0,0-8.539-8.356Z" transform="translate(-16.711 -13.926)" fill="#216f27"/>
            <path id="Path_2-10" data-name="Path 2" d="M109.295,13.926H86.524a8.449,8.449,0,0,0-8.539,8.356V38.993a2.816,2.816,0,0,0,2.846,2.785h34.156a2.816,2.816,0,0,0,2.846-2.785V22.281a8.449,8.449,0,0,0-8.539-8.356Z" transform="translate(-15.366 -13.926)" fill="#216f27"/>
          </g>
          <path id="Path_3-10" data-name="Path 3" d="M128.085,36.207H8.539A8.449,8.449,0,0,0,0,44.563v72.415a2.816,2.816,0,0,0,2.846,2.785H133.778a2.816,2.816,0,0,0,2.846-2.785V44.563A8.449,8.449,0,0,0,128.085,36.207Z" transform="translate(0 -13.926)" fill="#8df4ff"/>
        </g>
        <g id="lego_1_11" data-name="lego (1)" transform="translate(134.356 26.024)">
          <g id="Group_1-11" data-name="Group 1" transform="translate(17.078)">
            <path id="Path_1-11" data-name="Path 1" d="M48.021,13.926H25.25a8.449,8.449,0,0,0-8.539,8.356V38.993a2.816,2.816,0,0,0,2.846,2.785H53.714a2.816,2.816,0,0,0,2.846-2.785V22.281a8.449,8.449,0,0,0-8.539-8.356Z" transform="translate(-16.711 -13.926)" fill="#26692b"/>
            <path id="Path_2-11" data-name="Path 2" d="M109.295,13.926H86.524a8.449,8.449,0,0,0-8.539,8.356V38.993a2.816,2.816,0,0,0,2.846,2.785h34.156a2.816,2.816,0,0,0,2.846-2.785V22.281a8.449,8.449,0,0,0-8.539-8.356Z" transform="translate(-15.366 -13.926)" fill="#26692b"/>
          </g>
          <path id="Path_3-11" data-name="Path 3" d="M128.085,36.207H8.539A8.449,8.449,0,0,0,0,44.563v72.415a2.816,2.816,0,0,0,2.846,2.785H133.778a2.816,2.816,0,0,0,2.846-2.785V44.563A8.449,8.449,0,0,0,128.085,36.207Z" transform="translate(0 -13.926)" fill="#7af2ff"/>
        </g>
        <g id="lego_1_12" data-name="lego (1)" transform="translate(402.001 26.024)">
          <g id="Group_1-12" data-name="Group 1" transform="translate(17.078)">
            <path id="Path_1-12" data-name="Path 1" d="M48.021,13.926H25.25a8.449,8.449,0,0,0-8.539,8.356V38.993a2.816,2.816,0,0,0,2.846,2.785H53.714a2.816,2.816,0,0,0,2.846-2.785V22.281a8.449,8.449,0,0,0-8.539-8.356Z" transform="translate(-16.711 -13.926)" fill="#26692b"/>
            <path id="Path_2-12" data-name="Path 2" d="M109.295,13.926H86.524a8.449,8.449,0,0,0-8.539,8.356V38.993a2.816,2.816,0,0,0,2.846,2.785h34.156a2.816,2.816,0,0,0,2.846-2.785V22.281a8.449,8.449,0,0,0-8.539-8.356Z" transform="translate(-15.366 -13.926)" fill="#26692b"/>
          </g>
          <path id="Path_3-12" data-name="Path 3" d="M128.085,36.207H8.539A8.449,8.449,0,0,0,0,44.563v72.415a2.816,2.816,0,0,0,2.846,2.785H133.778a2.816,2.816,0,0,0,2.846-2.785V44.563A8.449,8.449,0,0,0,128.085,36.207Z" transform="translate(0 -13.926)" fill="#7af2ff"/>
        </g>
        <g id="lego_1_13" data-name="lego (1)" transform="translate(-23.082 -48.915)">
          <g id="Group_1-13" data-name="Group 1" transform="translate(17.078)">
            <path id="Path_1-13" data-name="Path 1" d="M48.021,13.926H25.25a8.449,8.449,0,0,0-8.539,8.356V38.993a2.816,2.816,0,0,0,2.846,2.785H53.714a2.816,2.816,0,0,0,2.846-2.785V22.281a8.449,8.449,0,0,0-8.539-8.356Z" transform="translate(-16.711 -13.926)" fill="#216f27"/>
            <path id="Path_2-13" data-name="Path 2" d="M109.295,13.926H86.524a8.449,8.449,0,0,0-8.539,8.356V38.993a2.816,2.816,0,0,0,2.846,2.785h34.156a2.816,2.816,0,0,0,2.846-2.785V22.281a8.449,8.449,0,0,0-8.539-8.356Z" transform="translate(-15.366 -13.926)" fill="#216f27"/>
          </g>
          <path id="Path_3-13" data-name="Path 3" d="M128.085,36.207H8.539A8.449,8.449,0,0,0,0,44.563v72.415a2.816,2.816,0,0,0,2.846,2.785H133.778a2.816,2.816,0,0,0,2.846-2.785V44.563A8.449,8.449,0,0,0,128.085,36.207Z" transform="translate(0 -13.926)" fill="#bff8fe"/>
        </g>
        <g id="lego_1_14" data-name="lego (1)" transform="translate(246.964 -48.915)">
          <g id="Group_1-14" data-name="Group 1" transform="translate(17.078)">
            <path id="Path_1-14" data-name="Path 1" d="M48.021,13.926H25.25a8.449,8.449,0,0,0-8.539,8.356V38.993a2.816,2.816,0,0,0,2.846,2.785H53.714a2.816,2.816,0,0,0,2.846-2.785V22.281a8.449,8.449,0,0,0-8.539-8.356Z" transform="translate(-16.711 -13.926)" fill="#216f27"/>
            <path id="Path_2-14" data-name="Path 2" d="M109.295,13.926H86.524a8.449,8.449,0,0,0-8.539,8.356V38.993a2.816,2.816,0,0,0,2.846,2.785h34.156a2.816,2.816,0,0,0,2.846-2.785V22.281a8.449,8.449,0,0,0-8.539-8.356Z" transform="translate(-15.366 -13.926)" fill="#216f27"/>
          </g>
          <path id="Path_3-14" data-name="Path 3" d="M128.085,36.207H8.539A8.449,8.449,0,0,0,0,44.563v72.415a2.816,2.816,0,0,0,2.846,2.785H133.778a2.816,2.816,0,0,0,2.846-2.785V44.563A8.449,8.449,0,0,0,128.085,36.207Z" transform="translate(0 -13.926)" fill="#bff8fe"/>
        </g>
        <g id="lego_1_15" data-name="lego (1)" transform="translate(113.009 -48.915)">
          <g id="Group_1-15" data-name="Group 1" transform="translate(17.078)">
            <path id="Path_1-15" data-name="Path 1" d="M48.021,13.926H25.25a8.449,8.449,0,0,0-8.539,8.356V38.993a2.816,2.816,0,0,0,2.846,2.785H53.714a2.816,2.816,0,0,0,2.846-2.785V22.281a8.449,8.449,0,0,0-8.539-8.356Z" transform="translate(-16.711 -13.926)" fill="#26692b"/>
            <path id="Path_2-15" data-name="Path 2" d="M109.295,13.926H86.524a8.449,8.449,0,0,0-8.539,8.356V38.993a2.816,2.816,0,0,0,2.846,2.785h34.156a2.816,2.816,0,0,0,2.846-2.785V22.281a8.449,8.449,0,0,0-8.539-8.356Z" transform="translate(-15.366 -13.926)" fill="#26692b"/>
          </g>
          <path id="Path_3-15" data-name="Path 3" d="M128.085,36.207H8.539A8.449,8.449,0,0,0,0,44.563v72.415a2.816,2.816,0,0,0,2.846,2.785H133.778a2.816,2.816,0,0,0,2.846-2.785V44.563A8.449,8.449,0,0,0,128.085,36.207Z" transform="translate(0 -13.926)" fill="#d4fbff"/>
        </g>
        <g id="lego_1_16" data-name="lego (1)" transform="translate(380.654 -48.915)">
          <g id="Group_1-16" data-name="Group 1" transform="translate(17.078)">
            <path id="Path_1-16" data-name="Path 1" d="M48.021,13.926H25.25a8.449,8.449,0,0,0-8.539,8.356V38.993a2.816,2.816,0,0,0,2.846,2.785H53.714a2.816,2.816,0,0,0,2.846-2.785V22.281a8.449,8.449,0,0,0-8.539-8.356Z" transform="translate(-16.711 -13.926)" fill="#26692b"/>
            <path id="Path_2-16" data-name="Path 2" d="M109.295,13.926H86.524a8.449,8.449,0,0,0-8.539,8.356V38.993a2.816,2.816,0,0,0,2.846,2.785h34.156a2.816,2.816,0,0,0,2.846-2.785V22.281a8.449,8.449,0,0,0-8.539-8.356Z" transform="translate(-15.366 -13.926)" fill="#26692b"/>
          </g>
          <path id="Path_3-16" data-name="Path 3" d="M128.085,36.207H8.539A8.449,8.449,0,0,0,0,44.563v72.415a2.816,2.816,0,0,0,2.846,2.785H133.778a2.816,2.816,0,0,0,2.846-2.785V44.563A8.449,8.449,0,0,0,128.085,36.207Z" transform="translate(0 -13.926)" fill="#d4fbff"/>
        </g>
        <g id="castle_1_" data-name="castle (1)" transform="translate(362.108 10.183)">
          <path id="Path_34" data-name="Path 34" d="M66.844,6.267H83.922V16.711H66.844Z" transform="translate(1.468 -4.308)" fill="#aae79a"/>
          <path id="Path_35" data-name="Path 35" d="M66.844,6.267h4.27V16.711h-4.27Z" transform="translate(1.468 -4.308)" fill="#00cebb"/>
          <path id="Path_36" data-name="Path 36" d="M84.289,41.778v8.356H50.133V41.778L67.211,25.067Z" transform="translate(1.101 -4.308)" fill="#ffe462"/>
          <path id="Path_37" data-name="Path 37" d="M66.913,25.067l-3.2,3.133L77.587,41.778h6.4Z" transform="translate(1.399 -4.308)" fill="#ffc45e"/>
          <path id="Path_38" data-name="Path 38" d="M50.133,41.778H84.289v8.356H50.133Z" transform="translate(1.101 -4.308)" fill="#f696c3"/>
          <path id="Path_39" data-name="Path 39" d="M77.289,41.778h6.4v8.356h-6.4Z" transform="translate(1.697 -4.308)" fill="#f05475"/>
          <path id="Path_40" data-name="Path 40" d="M54.311,50.133H79.928V85.644H54.311Z" transform="translate(1.193 -4.308)" fill="#ffe462"/>
          <path id="Path_41" data-name="Path 41" d="M54.311,50.133H79.928v4.178H54.311Z" transform="translate(1.193 -4.308)" fill="#ffc45e"/>
          <path id="Path_42" data-name="Path 42" d="M75.2,50.133h4.27V85.644H75.2Z" transform="translate(1.651 -4.308)" fill="#ffc45e"/>
          <path id="Path_43" data-name="Path 43" d="M71.206,71.022H62.667V62.667a4.271,4.271,0,0,1,8.539,0Z" transform="translate(1.376 -4.308)" fill="#fff"/>
          <path id="Path_44" data-name="Path 44" d="M12.533,64.756h8.539v8.356H12.533Z" transform="translate(0.275 -4.308)" fill="#ffe462"/>
          <path id="Path_45" data-name="Path 45" d="M16.711,64.756h4.27v8.356h-4.27Z" transform="translate(0.367 -4.308)" fill="#ffc45e"/>
          <path id="Path_46" data-name="Path 46" d="M29.244,64.756h8.539v8.356H29.244Z" transform="translate(0.642 -4.308)" fill="#ffe462"/>
          <path id="Path_47" data-name="Path 47" d="M33.422,64.756h4.27v8.356h-4.27Z" transform="translate(0.734 -4.308)" fill="#ffc45e"/>
          <path id="Path_48" data-name="Path 48" d="M12.533,73.111H38.15v54.311H12.533Z" transform="translate(0.275 -4.308)" fill="#ffe462"/>
          <path id="Path_49" data-name="Path 49" d="M33.422,73.111h4.27v54.311h-4.27Z" transform="translate(0.734 -4.308)" fill="#ffc45e"/>
          <path id="Path_50" data-name="Path 50" d="M29.428,102.356H20.889V94a4.271,4.271,0,0,1,8.539,0Z" transform="translate(0.459 -4.308)" fill="#fff"/>
          <path id="Path_51" data-name="Path 51" d="M12.533,73.111H38.15v8.356H12.533Z" transform="translate(0.275 -4.308)" fill="#f696c3"/>
          <path id="Path_52" data-name="Path 52" d="M33.422,73.111h4.27v8.356h-4.27Z" transform="translate(0.734 -4.308)" fill="#f05475"/>
          <path id="Path_53" data-name="Path 53" d="M96.089,64.756h8.539v8.356H96.089Z" transform="translate(2.11 -4.308)" fill="#ffe462"/>
          <path id="Path_54" data-name="Path 54" d="M100.267,64.756h4.27v8.356h-4.27Z" transform="translate(2.202 -4.308)" fill="#ffc45e"/>
          <path id="Path_55" data-name="Path 55" d="M112.8,64.756h8.539v8.356H112.8Z" transform="translate(2.477 -4.308)" fill="#ffe462"/>
          <path id="Path_56" data-name="Path 56" d="M116.978,64.756h4.27v8.356h-4.27Z" transform="translate(2.569 -4.308)" fill="#ffc45e"/>
          <path id="Path_57" data-name="Path 57" d="M96.089,73.111h25.617v54.311H96.089Z" transform="translate(2.11 -4.308)" fill="#ffe462"/>
          <path id="Path_58" data-name="Path 58" d="M116.978,73.111h4.27v54.311h-4.27Z" transform="translate(2.569 -4.308)" fill="#ffc45e"/>
          <path id="Path_59" data-name="Path 59" d="M96.089,73.111h25.617v8.356H96.089Z" transform="translate(2.11 -4.308)" fill="#f696c3"/>
          <path id="Path_60" data-name="Path 60" d="M116.978,73.111h4.27v8.356h-4.27Z" transform="translate(2.569 -4.308)" fill="#f05475"/>
          <path id="Path_61" data-name="Path 61" d="M97.373,127.422V79.378H88.834v6.267H80.3V79.378H71.756v6.267H63.217V79.378H54.678v6.267H46.139V79.378H37.6v48.044Z" transform="translate(0.826 -4.308)" fill="#ffe462"/>
          <path id="Path_62" data-name="Path 62" d="M91.911,79.378h4.27v48.044h-4.27Z" transform="translate(2.018 -4.308)" fill="#ffc45e"/>
          <path id="Path_63" data-name="Path 63" d="M50.133,119.067H84.289v8.356H50.133Z" transform="translate(1.101 -4.308)" fill="#f696c3"/>
          <path id="Path_64" data-name="Path 64" d="M77.289,119.067h6.4v8.356h-6.4Z" transform="translate(1.697 -4.308)" fill="#f05475"/>
          <path id="Path_65" data-name="Path 65" d="M54.311,119.067V94H79.928v25.067" transform="translate(1.193 -4.308)" fill="#aae79a"/>
          <path id="Path_66" data-name="Path 66" d="M75.2,119.067V94h4.27v25.067" transform="translate(1.651 -4.308)" fill="#00cebb"/>
          <path id="Path_67" data-name="Path 67" d="M112.983,102.356h-8.539V94a4.271,4.271,0,0,1,8.539,0Z" transform="translate(2.293 -4.308)" fill="#fff"/>
          <g id="Group_14" data-name="Group 14" transform="translate(21.348 114.889)">
            <path id="Path_68" data-name="Path 68" d="M20.889,119.2h4.27v3.917h-4.27Z" transform="translate(-20.889 -119.197)" fill="#fff"/>
          </g>
          <g id="Group_17" data-name="Group 17">
            <g id="Group_15" data-name="Group 15" transform="translate(106.738 114.889)">
              <path id="Path_69" data-name="Path 69" d="M104.444,119.2h4.27v3.917h-4.27Z" transform="translate(-104.444 -119.197)" fill="#fff"/>
            </g>
            <g id="Group_16" data-name="Group 16">
              <path id="Path_70" data-name="Path 70" d="M25.2,87.864A6.212,6.212,0,0,0,18.931,94v10.314H31.472V94A6.212,6.212,0,0,0,25.2,87.864ZM27.47,100.4H22.933V94a2.269,2.269,0,0,1,4.536,0Z" transform="translate(0.416 -4.308)"/>
              <path id="Path_71" data-name="Path 71" d="M115.028,94a6.272,6.272,0,0,0-12.542,0v10.314h12.542Zm-4,6.4h-4.536V94a2.269,2.269,0,0,1,4.536,0Z" transform="translate(2.25 -4.308)"/>
              <path id="Path_72" data-name="Path 72" d="M60.708,62.667V72.981H73.25V62.667a6.272,6.272,0,0,0-12.542,0Zm8.539,0v6.4H64.711v-6.4a2.269,2.269,0,0,1,4.536,0Z" transform="translate(1.333 -4.308)"/>
              <path id="Path_73" data-name="Path 73" d="M125.817,125.464V62.8H113.275v8.356h-4.536V62.8H96.2V77.419H87.658v6.267H83.122V68.933h-4v8.486H70.58v6.267H66.044V77.419H57.5V52.092H79.119V64.756h4V52.092h4.27V40.967L70.314,24.256V18.669H87.392V4.308H66.311V24.256L49.233,40.967V52.092H53.5V83.686H48.966V77.419H40.427V62.8H27.885v8.356H23.349V62.8H10.807v62.667H0v3.917H136.624v-3.917ZM70.314,8.225H83.389v6.528H70.314Zm-2,19.611L80.559,39.819H56.066ZM53.235,48.175V43.736H83.389v4.439ZM31.888,66.714h4.536v4.439H31.888Zm-17.078,0h4.536v4.439H14.81Zm0,8.356H36.424v4.439H14.81Zm68.579,50.394H53.235v-4.439H83.389ZM57.5,117.108V95.958h8.806v21.15Zm12.809,0V95.958h8.806v21.15ZM96.2,83.425v42.039H87.392v-8.356h-4.27V92.042H53.5v25.067h-4.27v8.356H40.427V106.533h-4v18.931H14.81V83.425H36.424v18.931h4V81.336h4.536V87.6H57.5V81.336h4.536V87.6H74.583V81.336h4.536V87.6H91.661V81.336H96.2Zm4-16.711h4.536v4.439H100.2Zm21.614,58.75H100.2V83.425h21.614Zm0-45.956H100.2V75.069h21.614Zm0-8.356h-4.536V66.714h4.536Z" transform="translate(0 -4.308)"/>
              <path id="Path_74" data-name="Path 74" d="M16.711,115.019h4.27v3.917h-4.27Z" transform="translate(0.367 -4.308)"/>
              <path id="Path_75" data-name="Path 75" d="M100.267,115.019h4.27v3.917h-4.27Z" transform="translate(2.202 -4.308)"/>
            </g>
          </g>
        </g>
        <g id="castle_2_" data-name="castle (2)" transform="translate(35.49 28.2)">
          <path id="Path_76" data-name="Path 76" d="M8.725,61.918l9.107-17.825,9.109,17.825" transform="translate(0.192 -2.674)" fill="#ed5481"/>
          <path id="Path_77" data-name="Path 77" d="M26.982,63.7a1.826,1.826,0,0,1-1.631-.986l-7.48-14.637L10.393,62.714a1.84,1.84,0,0,1-2.444.8,1.765,1.765,0,0,1-.815-2.391L16.242,43.3a1.918,1.918,0,0,1,3.258,0L28.609,61.12a1.75,1.75,0,0,1-.079,1.734A1.831,1.831,0,0,1,26.982,63.7Z" transform="translate(0.152 -2.674)"/>
          <rect id="Rectangle_1" data-name="Rectangle 1" width="114.764" height="3.565" transform="translate(0 103.386)"/>
          <path id="Path_78" data-name="Path 78" d="M7.13,61.5H30.812v46.345H7.13V61.5" transform="translate(0.157 -2.674)" fill="#eac583"/>
          <path id="Path_79" data-name="Path 79" d="M30.851,109.625H7.169a1.8,1.8,0,0,1-1.822-1.782V61.5a1.8,1.8,0,0,1,1.821-1.783H30.851A1.8,1.8,0,0,1,32.673,61.5v46.346a1.8,1.8,0,0,1-1.822,1.783ZM8.991,106.06H29.029V63.279H8.991Z" transform="translate(0.117 -2.674)"/>
          <path id="Path_91" data-name="Path 91" d="M30.851,109.625H7.169a1.8,1.8,0,0,1-1.822-1.782V61.5a1.8,1.8,0,0,1,1.821-1.783H30.851A1.8,1.8,0,0,1,32.673,61.5v46.346a1.8,1.8,0,0,1-1.822,1.783ZM8.991,106.06H29.029V63.279H8.991Z" transform="translate(0.117 -2.674)"/>
          <rect id="Rectangle_2" data-name="Rectangle 2" width="29.147" height="3.565" transform="translate(1.822 57.041)"/>
          <rect id="Rectangle_3" data-name="Rectangle 3" width="3.643" height="8.913" transform="translate(16.395 33.868)"/>
          <path id="Path_80" data-name="Path 80" d="M87.155,61.918l9.107-17.825,9.109,17.825" transform="translate(1.914 -2.674)" fill="#ed5481"/>
          <path id="Path_81" data-name="Path 81" d="M105.412,63.7a1.826,1.826,0,0,1-1.631-.986L96.3,48.078,88.823,62.714a1.84,1.84,0,0,1-2.444.8,1.765,1.765,0,0,1-.815-2.391L94.672,43.3a1.918,1.918,0,0,1,3.258,0L107.04,61.12a1.75,1.75,0,0,1-.079,1.734,1.831,1.831,0,0,1-1.548.846Z" transform="translate(1.875 -2.674)"/>
          <rect id="Rectangle_4" data-name="Rectangle 4" width="3.643" height="12.478" transform="translate(18.217 69.518)"/>
          <path id="Path_82" data-name="Path 82" d="M83.778,61.5H107.46v46.345H83.778V61.5" transform="translate(1.84 -2.674)" fill="#eac583"/>
          <path id="Path_83" data-name="Path 83" d="M107.5,109.625H83.817A1.8,1.8,0,0,1,82,107.843V61.5a1.8,1.8,0,0,1,1.821-1.783H107.5a1.8,1.8,0,0,1,1.822,1.782v46.346a1.8,1.8,0,0,1-1.821,1.783Zm-21.86-3.565h20.038V63.279H85.639Z" transform="translate(1.8 -2.674)"/>
          <rect id="Rectangle_5" data-name="Rectangle 5" width="29.147" height="3.565" transform="translate(85.618 57.041)"/>
          <rect id="Rectangle_6" data-name="Rectangle 6" width="3.643" height="8.913" transform="translate(96.548 33.868)"/>
          <rect id="Rectangle_7" data-name="Rectangle 7" width="3.643" height="12.478" transform="translate(94.726 69.518)"/>
          <rect id="Rectangle_8" data-name="Rectangle 8" width="54.65" height="85.561" transform="translate(30.968 19.608)" fill="#eac583"/>
          <path id="Path_84" data-name="Path 84" d="M84.992,109.625H30.342a1.8,1.8,0,0,1-1.822-1.782V22.281A1.8,1.8,0,0,1,30.342,20.5h54.65a1.8,1.8,0,0,1,1.822,1.782v85.561a1.8,1.8,0,0,1-1.821,1.783ZM32.164,106.06H83.17v-82H32.164Z" transform="translate(0.626 -2.674)"/>
          <path id="Path_85" data-name="Path 85" d="M57.157,36.542h0c3.006,0,5.464,2.876,5.464,6.394V54.367H51.693V42.935c0-3.517,2.458-6.394,5.464-6.394Z" transform="translate(1.135 -2.674)" fill="#fbad4a"/>
          <path id="Path_86" data-name="Path 86" d="M62.662,56.149H51.732a1.8,1.8,0,0,1-1.822-1.782V42.935c0-4.508,3.269-8.176,7.285-8.176s7.287,3.668,7.287,8.176V54.367a1.8,1.8,0,0,1-1.82,1.783Zm-9.108-3.565h7.287V42.935c0-2.5-1.668-4.611-3.642-4.611h0c-1.975,0-3.643,2.111-3.643,4.611v9.649Z" transform="translate(1.096 -2.674)"/>
          <path id="Path_87" data-name="Path 87" d="M44.563,106.06V83.2A12.8,12.8,0,0,1,57.312,70.41h0A12.8,12.8,0,0,1,70.066,83.2V106.06" transform="translate(0.978 -2.674)" fill="#997843"/>
          <path id="Path_88" data-name="Path 88" d="M70.105,107.842a1.8,1.8,0,0,1-1.822-1.782V83.2a10.93,10.93,0,1,0-21.86,0V106.06a1.822,1.822,0,0,1-3.643,0V83.2a14.573,14.573,0,0,1,29.146,0V106.06a1.8,1.8,0,0,1-1.821,1.783Z" transform="translate(0.939 -2.674)"/>
          <rect id="Rectangle_9" data-name="Rectangle 9" width="3.643" height="35.65" transform="translate(56.471 67.736)"/>
          <path id="Path_89" data-name="Path 89" d="M24.955,4.456H37.707v7.13H52.28V4.456H63.21v7.13H77.783V4.456H90.535V22.281H24.955Z" transform="translate(0.548 -2.674)" fill="#eac583"/>
          <path id="Path_90" data-name="Path 90" d="M90.574,24.064H24.994a1.8,1.8,0,0,1-1.822-1.782V4.456a1.8,1.8,0,0,1,1.821-1.783H37.746a1.8,1.8,0,0,1,1.822,1.782V9.8H50.5V4.456a1.8,1.8,0,0,1,1.821-1.783h10.93a1.8,1.8,0,0,1,1.822,1.782V9.8H76V4.456a1.8,1.8,0,0,1,1.821-1.783H90.575A1.8,1.8,0,0,1,92.4,4.456V22.282a1.8,1.8,0,0,1-1.822,1.782ZM26.816,20.5H88.753V6.239H79.644v5.348a1.8,1.8,0,0,1-1.821,1.783H63.249a1.8,1.8,0,0,1-1.822-1.782V6.239H54.141v5.348a1.8,1.8,0,0,1-1.821,1.783H37.746a1.8,1.8,0,0,1-1.822-1.782V6.239H26.816Z" transform="translate(0.509 -2.674)"/>
        </g>
      </g>
    </g>
    <text id="FLEX" transform="translate(194 339)" fill="#054863" font-size="45" font-family="Rockwell-Bold, Rockwell" font-weight="700"><tspan x="0" y="0">FLEX</tspan></text>
    <rect id="Rectangle_4-2" data-name="Rectangle 4" width="77" height="33" rx="16.5" transform="translate(161 362)" fill="#245c28"/>
    <rect id="Rectangle_5-2" data-name="Rectangle 5" width="94" height="33" rx="16.5" transform="translate(256 362)" fill="#245c28"/>
    <text id="CSS" transform="translate(180 387)" fill="#fff" font-size="22" font-family="Rockwell"><tspan x="0" y="0">CSS</tspan></text>
    <text id="Expert" transform="translate(269 387)" fill="#fff" font-size="22" font-family="Rockwell"><tspan x="0" y="0">Expert</tspan></text>
  </g>
</svg>
