<svg xmlns="http://www.w3.org/2000/svg" xmlns:xlink="http://www.w3.org/1999/xlink" width="510" height="525" viewBox="0 0 510 525">
  <defs>
    <clipPath id="clip-path">
      <rect id="Rectangle_15" data-name="Rectangle 15" width="520" height="282" transform="translate(-0.4)" fill="#fff" stroke="#707070" stroke-width="1"/>
    </clipPath>
    <clipPath id="clip-path-2">
      <rect id="Rectangle_17" data-name="Rectangle 17" width="511.159" height="282"/>
    </clipPath>
    <clipPath id="clip-cssIntGames">
      <rect width="510" height="525"/>
    </clipPath>
  </defs>
  <g id="cssIntGames" clip-path="url(#clip-cssIntGames)">
    <rect width="510" height="525" fill="#f7f3cf"/>
    <g id="Mask_Group_5" data-name="Mask Group 5" transform="translate(-4.6)" clip-path="url(#clip-path)">
      <g id="cssDefaultIntermediar" transform="translate(4.422)" clip-path="url(#clip-path-2)">
        <rect id="Rectangle_16" data-name="Rectangle 16" width="511.159" height="282" fill="#fff"/>
        <g id="lego_1_" data-name="lego (1)" transform="translate(-1.598 176.946)">
          <g id="Group_1" data-name="Group 1" transform="translate(17.039)">
            <path id="Path_1" data-name="Path 1" d="M47.949,13.926H25.23a8.439,8.439,0,0,0-8.519,8.356V38.993a2.813,2.813,0,0,0,2.84,2.785H53.628a2.813,2.813,0,0,0,2.84-2.785V22.281a8.439,8.439,0,0,0-8.52-8.356Z" transform="translate(-16.711 -13.926)" fill="#746232"/>
            <path id="Path_2" data-name="Path 2" d="M109.223,13.926H86.5a8.439,8.439,0,0,0-8.519,8.356V38.993a2.813,2.813,0,0,0,2.84,2.785H114.9a2.813,2.813,0,0,0,2.84-2.785V22.281a8.439,8.439,0,0,0-8.519-8.356Z" transform="translate(-15.51 -13.926)" fill="#746232"/>
          </g>
          <path id="Path_3" data-name="Path 3" d="M127.79,36.207H8.519A8.439,8.439,0,0,0,0,44.563v72.415a2.813,2.813,0,0,0,2.84,2.785H133.47a2.813,2.813,0,0,0,2.84-2.785V44.563A8.439,8.439,0,0,0,127.79,36.207Z" transform="translate(0 -13.926)" fill="#746232"/>
        </g>
        <g id="lego_1_2" data-name="lego (1)" transform="translate(267.826 176.946)">
          <g id="Group_1-2" data-name="Group 1" transform="translate(17.039)">
            <path id="Path_1-2" data-name="Path 1" d="M47.949,13.926H25.23a8.439,8.439,0,0,0-8.519,8.356V38.993a2.813,2.813,0,0,0,2.84,2.785H53.628a2.813,2.813,0,0,0,2.84-2.785V22.281a8.439,8.439,0,0,0-8.52-8.356Z" transform="translate(-16.711 -13.926)" fill="#746232"/>
            <path id="Path_2-2" data-name="Path 2" d="M109.223,13.926H86.5a8.439,8.439,0,0,0-8.519,8.356V38.993a2.813,2.813,0,0,0,2.84,2.785H114.9a2.813,2.813,0,0,0,2.84-2.785V22.281a8.439,8.439,0,0,0-8.519-8.356Z" transform="translate(-15.51 -13.926)" fill="#746232"/>
          </g>
          <path id="Path_3-2" data-name="Path 3" d="M127.79,36.207H8.519A8.439,8.439,0,0,0,0,44.563v72.415a2.813,2.813,0,0,0,2.84,2.785H133.47a2.813,2.813,0,0,0,2.84-2.785V44.563A8.439,8.439,0,0,0,127.79,36.207Z" transform="translate(0 -13.926)" fill="#746232"/>
        </g>
        <g id="lego_1_3" data-name="lego (1)" transform="translate(-25.026 102.268)">
          <g id="Group_1-3" data-name="Group 1" transform="translate(17.039)">
            <path id="Path_1-3" data-name="Path 1" d="M47.949,13.926H25.23a8.439,8.439,0,0,0-8.519,8.356V38.993a2.813,2.813,0,0,0,2.84,2.785H53.628a2.813,2.813,0,0,0,2.84-2.785V22.281a8.439,8.439,0,0,0-8.52-8.356Z" transform="translate(-16.711 -13.926)" fill="#89753f"/>
            <path id="Path_2-3" data-name="Path 2" d="M109.223,13.926H86.5a8.439,8.439,0,0,0-8.519,8.356V38.993a2.813,2.813,0,0,0,2.84,2.785H114.9a2.813,2.813,0,0,0,2.84-2.785V22.281a8.439,8.439,0,0,0-8.519-8.356Z" transform="translate(-15.51 -13.926)" fill="#89753f"/>
          </g>
          <path id="Path_3-3" data-name="Path 3" d="M127.79,36.207H8.519A8.439,8.439,0,0,0,0,44.563v72.415a2.813,2.813,0,0,0,2.84,2.785H133.47a2.813,2.813,0,0,0,2.84-2.785V44.563A8.439,8.439,0,0,0,127.79,36.207Z" transform="translate(0 -13.926)" fill="#89753f"/>
        </g>
        <g id="lego_1_4" data-name="lego (1)" transform="translate(133.647 176.946)">
          <g id="Group_1-4" data-name="Group 1" transform="translate(17.039)">
            <path id="Path_1-4" data-name="Path 1" d="M47.949,13.926H25.23a8.439,8.439,0,0,0-8.519,8.356V38.993a2.813,2.813,0,0,0,2.84,2.785H53.628a2.813,2.813,0,0,0,2.84-2.785V22.281a8.439,8.439,0,0,0-8.52-8.356Z" transform="translate(-16.711 -13.926)" fill="#695726"/>
            <path id="Path_2-4" data-name="Path 2" d="M109.223,13.926H86.5a8.439,8.439,0,0,0-8.519,8.356V38.993a2.813,2.813,0,0,0,2.84,2.785H114.9a2.813,2.813,0,0,0,2.84-2.785V22.281a8.439,8.439,0,0,0-8.519-8.356Z" transform="translate(-15.51 -13.926)" fill="#695726"/>
          </g>
          <path id="Path_3-4" data-name="Path 3" d="M127.79,36.207H8.519A8.439,8.439,0,0,0,0,44.563v72.415a2.813,2.813,0,0,0,2.84,2.785H133.47a2.813,2.813,0,0,0,2.84-2.785V44.563A8.439,8.439,0,0,0,127.79,36.207Z" transform="translate(0 -13.926)" fill="#695726"/>
        </g>
        <g id="lego_1_5" data-name="lego (1)" transform="translate(244.398 102.268)">
          <g id="Group_1-5" data-name="Group 1" transform="translate(17.039)">
            <path id="Path_1-5" data-name="Path 1" d="M47.949,13.926H25.23a8.439,8.439,0,0,0-8.519,8.356V38.993a2.813,2.813,0,0,0,2.84,2.785H53.628a2.813,2.813,0,0,0,2.84-2.785V22.281a8.439,8.439,0,0,0-8.52-8.356Z" transform="translate(-16.711 -13.926)" fill="#89753f"/>
            <path id="Path_2-5" data-name="Path 2" d="M109.223,13.926H86.5a8.439,8.439,0,0,0-8.519,8.356V38.993a2.813,2.813,0,0,0,2.84,2.785H114.9a2.813,2.813,0,0,0,2.84-2.785V22.281a8.439,8.439,0,0,0-8.519-8.356Z" transform="translate(-15.51 -13.926)" fill="#89753f"/>
          </g>
          <path id="Path_3-5" data-name="Path 3" d="M127.79,36.207H8.519A8.439,8.439,0,0,0,0,44.563v72.415a2.813,2.813,0,0,0,2.84,2.785H133.47a2.813,2.813,0,0,0,2.84-2.785V44.563A8.439,8.439,0,0,0,127.79,36.207Z" transform="translate(0 -13.926)" fill="#89753f"/>
        </g>
        <g id="lego_1_6" data-name="lego (1)" transform="translate(401.207 176.946)">
          <g id="Group_1-6" data-name="Group 1" transform="translate(17.039)">
            <path id="Path_1-6" data-name="Path 1" d="M47.949,13.926H25.23a8.439,8.439,0,0,0-8.519,8.356V38.993a2.813,2.813,0,0,0,2.84,2.785H53.628a2.813,2.813,0,0,0,2.84-2.785V22.281a8.439,8.439,0,0,0-8.52-8.356Z" transform="translate(-16.711 -13.926)" fill="#695726"/>
            <path id="Path_2-6" data-name="Path 2" d="M109.223,13.926H86.5a8.439,8.439,0,0,0-8.519,8.356V38.993a2.813,2.813,0,0,0,2.84,2.785H114.9a2.813,2.813,0,0,0,2.84-2.785V22.281a8.439,8.439,0,0,0-8.519-8.356Z" transform="translate(-15.51 -13.926)" fill="#695726"/>
          </g>
          <path id="Path_3-6" data-name="Path 3" d="M127.79,36.207H8.519A8.439,8.439,0,0,0,0,44.563v72.415a2.813,2.813,0,0,0,2.84,2.785H133.47a2.813,2.813,0,0,0,2.84-2.785V44.563A8.439,8.439,0,0,0,127.79,36.207Z" transform="translate(0 -13.926)" fill="#695726"/>
        </g>
        <g id="lego_1_7" data-name="lego (1)" transform="translate(110.218 102.268)">
          <g id="Group_1-7" data-name="Group 1" transform="translate(17.039)">
            <path id="Path_1-7" data-name="Path 1" d="M47.949,13.926H25.23a8.439,8.439,0,0,0-8.519,8.356V38.993a2.813,2.813,0,0,0,2.84,2.785H53.628a2.813,2.813,0,0,0,2.84-2.785V22.281a8.439,8.439,0,0,0-8.52-8.356Z" transform="translate(-16.711 -13.926)" fill="#968046"/>
            <path id="Path_2-7" data-name="Path 2" d="M109.223,13.926H86.5a8.439,8.439,0,0,0-8.519,8.356V38.993a2.813,2.813,0,0,0,2.84,2.785H114.9a2.813,2.813,0,0,0,2.84-2.785V22.281a8.439,8.439,0,0,0-8.519-8.356Z" transform="translate(-15.51 -13.926)" fill="#968046"/>
          </g>
          <path id="Path_3-7" data-name="Path 3" d="M127.79,36.207H8.519A8.439,8.439,0,0,0,0,44.563v72.415a2.813,2.813,0,0,0,2.84,2.785H133.47a2.813,2.813,0,0,0,2.84-2.785V44.563A8.439,8.439,0,0,0,127.79,36.207Z" transform="translate(0 -13.926)" fill="#968046"/>
        </g>
        <g id="lego_1_8" data-name="lego (1)" transform="translate(377.778 102.268)">
          <g id="Group_1-8" data-name="Group 1" transform="translate(17.039)">
            <path id="Path_1-8" data-name="Path 1" d="M47.949,13.926H25.23a8.439,8.439,0,0,0-8.519,8.356V38.993a2.813,2.813,0,0,0,2.84,2.785H53.628a2.813,2.813,0,0,0,2.84-2.785V22.281a8.439,8.439,0,0,0-8.52-8.356Z" transform="translate(-16.711 -13.926)" fill="#968046"/>
            <path id="Path_2-8" data-name="Path 2" d="M109.223,13.926H86.5a8.439,8.439,0,0,0-8.519,8.356V38.993a2.813,2.813,0,0,0,2.84,2.785H114.9a2.813,2.813,0,0,0,2.84-2.785V22.281a8.439,8.439,0,0,0-8.519-8.356Z" transform="translate(-15.51 -13.926)" fill="#968046"/>
          </g>
          <path id="Path_3-8" data-name="Path 3" d="M127.79,36.207H8.519A8.439,8.439,0,0,0,0,44.563v72.415a2.813,2.813,0,0,0,2.84,2.785H133.47a2.813,2.813,0,0,0,2.84-2.785V44.563A8.439,8.439,0,0,0,127.79,36.207Z" transform="translate(0 -13.926)" fill="#968046"/>
        </g>
        <g id="lego_1_9" data-name="lego (1)" transform="translate(-1.731 26.024)">
          <g id="Group_1-9" data-name="Group 1" transform="translate(17.039)">
            <path id="Path_1-9" data-name="Path 1" d="M47.949,13.926H25.23a8.439,8.439,0,0,0-8.519,8.356V38.993a2.813,2.813,0,0,0,2.84,2.785H53.628a2.813,2.813,0,0,0,2.84-2.785V22.281a8.439,8.439,0,0,0-8.52-8.356Z" transform="translate(-16.711 -13.926)" fill="#ece285"/>
            <path id="Path_2-9" data-name="Path 2" d="M109.223,13.926H86.5a8.439,8.439,0,0,0-8.519,8.356V38.993a2.813,2.813,0,0,0,2.84,2.785H114.9a2.813,2.813,0,0,0,2.84-2.785V22.281a8.439,8.439,0,0,0-8.519-8.356Z" transform="translate(-15.51 -13.926)" fill="#ece285"/>
          </g>
          <path id="Path_3-9" data-name="Path 3" d="M127.79,36.207H8.519A8.439,8.439,0,0,0,0,44.563v72.415a2.813,2.813,0,0,0,2.84,2.785H133.47a2.813,2.813,0,0,0,2.84-2.785V44.563A8.439,8.439,0,0,0,127.79,36.207Z" transform="translate(0 -13.926)" fill="#ece285"/>
        </g>
        <g id="lego_1_10" data-name="lego (1)" transform="translate(267.693 26.024)">
          <g id="Group_1-10" data-name="Group 1" transform="translate(17.039)">
            <path id="Path_1-10" data-name="Path 1" d="M47.949,13.926H25.23a8.439,8.439,0,0,0-8.519,8.356V38.993a2.813,2.813,0,0,0,2.84,2.785H53.628a2.813,2.813,0,0,0,2.84-2.785V22.281a8.439,8.439,0,0,0-8.52-8.356Z" transform="translate(-16.711 -13.926)" fill="#ece285"/>
            <path id="Path_2-10" data-name="Path 2" d="M109.223,13.926H86.5a8.439,8.439,0,0,0-8.519,8.356V38.993a2.813,2.813,0,0,0,2.84,2.785H114.9a2.813,2.813,0,0,0,2.84-2.785V22.281a8.439,8.439,0,0,0-8.519-8.356Z" transform="translate(-15.51 -13.926)" fill="#ece285"/>
          </g>
          <path id="Path_3-10" data-name="Path 3" d="M127.79,36.207H8.519A8.439,8.439,0,0,0,0,44.563v72.415a2.813,2.813,0,0,0,2.84,2.785H133.47a2.813,2.813,0,0,0,2.84-2.785V44.563A8.439,8.439,0,0,0,127.79,36.207Z" transform="translate(0 -13.926)" fill="#ece285"/>
        </g>
        <g id="lego_1_11" data-name="lego (1)" transform="translate(134.046 26.024)">
          <g id="Group_1-11" data-name="Group 1" transform="translate(17.039)">
            <path id="Path_1-11" data-name="Path 1" d="M47.949,13.926H25.23a8.439,8.439,0,0,0-8.519,8.356V38.993a2.813,2.813,0,0,0,2.84,2.785H53.628a2.813,2.813,0,0,0,2.84-2.785V22.281a8.439,8.439,0,0,0-8.52-8.356Z" transform="translate(-16.711 -13.926)" fill="#e9dd6f"/>
            <path id="Path_2-11" data-name="Path 2" d="M109.223,13.926H86.5a8.439,8.439,0,0,0-8.519,8.356V38.993a2.813,2.813,0,0,0,2.84,2.785H114.9a2.813,2.813,0,0,0,2.84-2.785V22.281a8.439,8.439,0,0,0-8.519-8.356Z" transform="translate(-15.51 -13.926)" fill="#e9dd6f"/>
          </g>
          <path id="Path_3-11" data-name="Path 3" d="M127.79,36.207H8.519A8.439,8.439,0,0,0,0,44.563v72.415a2.813,2.813,0,0,0,2.84,2.785H133.47a2.813,2.813,0,0,0,2.84-2.785V44.563A8.439,8.439,0,0,0,127.79,36.207Z" transform="translate(0 -13.926)" fill="#e9dd6f"/>
        </g>
        <g id="lego_1_12" data-name="lego (1)" transform="translate(401.073 26.024)">
          <g id="Group_1-12" data-name="Group 1" transform="translate(17.039)">
            <path id="Path_1-12" data-name="Path 1" d="M47.949,13.926H25.23a8.439,8.439,0,0,0-8.519,8.356V38.993a2.813,2.813,0,0,0,2.84,2.785H53.628a2.813,2.813,0,0,0,2.84-2.785V22.281a8.439,8.439,0,0,0-8.52-8.356Z" transform="translate(-16.711 -13.926)" fill="#e9dd6f"/>
            <path id="Path_2-12" data-name="Path 2" d="M109.223,13.926H86.5a8.439,8.439,0,0,0-8.519,8.356V38.993a2.813,2.813,0,0,0,2.84,2.785H114.9a2.813,2.813,0,0,0,2.84-2.785V22.281a8.439,8.439,0,0,0-8.519-8.356Z" transform="translate(-15.51 -13.926)" fill="#e9dd6f"/>
          </g>
          <path id="Path_3-12" data-name="Path 3" d="M127.79,36.207H8.519A8.439,8.439,0,0,0,0,44.563v72.415a2.813,2.813,0,0,0,2.84,2.785H133.47a2.813,2.813,0,0,0,2.84-2.785V44.563A8.439,8.439,0,0,0,127.79,36.207Z" transform="translate(0 -13.926)" fill="#e9dd6f"/>
        </g>
        <g id="lego_1_13" data-name="lego (1)" transform="translate(-23.029 -48.915)">
          <g id="Group_1-13" data-name="Group 1" transform="translate(17.039)">
            <path id="Path_1-13" data-name="Path 1" d="M47.949,13.926H25.23a8.439,8.439,0,0,0-8.519,8.356V38.993a2.813,2.813,0,0,0,2.84,2.785H53.628a2.813,2.813,0,0,0,2.84-2.785V22.281a8.439,8.439,0,0,0-8.52-8.356Z" transform="translate(-16.711 -13.926)" fill="#f0e797"/>
            <path id="Path_2-13" data-name="Path 2" d="M109.223,13.926H86.5a8.439,8.439,0,0,0-8.519,8.356V38.993a2.813,2.813,0,0,0,2.84,2.785H114.9a2.813,2.813,0,0,0,2.84-2.785V22.281a8.439,8.439,0,0,0-8.519-8.356Z" transform="translate(-15.51 -13.926)" fill="#f0e797"/>
          </g>
          <path id="Path_3-13" data-name="Path 3" d="M127.79,36.207H8.519A8.439,8.439,0,0,0,0,44.563v72.415a2.813,2.813,0,0,0,2.84,2.785H133.47a2.813,2.813,0,0,0,2.84-2.785V44.563A8.439,8.439,0,0,0,127.79,36.207Z" transform="translate(0 -13.926)" fill="#f0e797"/>
        </g>
        <g id="lego_1_14" data-name="lego (1)" transform="translate(246.394 -48.915)">
          <g id="Group_1-14" data-name="Group 1" transform="translate(17.039)">
            <path id="Path_1-14" data-name="Path 1" d="M47.949,13.926H25.23a8.439,8.439,0,0,0-8.519,8.356V38.993a2.813,2.813,0,0,0,2.84,2.785H53.628a2.813,2.813,0,0,0,2.84-2.785V22.281a8.439,8.439,0,0,0-8.52-8.356Z" transform="translate(-16.711 -13.926)" fill="#f0e797"/>
            <path id="Path_2-14" data-name="Path 2" d="M109.223,13.926H86.5a8.439,8.439,0,0,0-8.519,8.356V38.993a2.813,2.813,0,0,0,2.84,2.785H114.9a2.813,2.813,0,0,0,2.84-2.785V22.281a8.439,8.439,0,0,0-8.519-8.356Z" transform="translate(-15.51 -13.926)" fill="#f0e797"/>
          </g>
          <path id="Path_3-14" data-name="Path 3" d="M127.79,36.207H8.519A8.439,8.439,0,0,0,0,44.563v72.415a2.813,2.813,0,0,0,2.84,2.785H133.47a2.813,2.813,0,0,0,2.84-2.785V44.563A8.439,8.439,0,0,0,127.79,36.207Z" transform="translate(0 -13.926)" fill="#f0e797"/>
        </g>
        <g id="lego_1_15" data-name="lego (1)" transform="translate(112.748 -48.915)">
          <g id="Group_1-15" data-name="Group 1" transform="translate(17.039)">
            <path id="Path_1-15" data-name="Path 1" d="M47.949,13.926H25.23a8.439,8.439,0,0,0-8.519,8.356V38.993a2.813,2.813,0,0,0,2.84,2.785H53.628a2.813,2.813,0,0,0,2.84-2.785V22.281a8.439,8.439,0,0,0-8.52-8.356Z" transform="translate(-16.711 -13.926)" fill="#f0eab2"/>
            <path id="Path_2-15" data-name="Path 2" d="M109.223,13.926H86.5a8.439,8.439,0,0,0-8.519,8.356V38.993a2.813,2.813,0,0,0,2.84,2.785H114.9a2.813,2.813,0,0,0,2.84-2.785V22.281a8.439,8.439,0,0,0-8.519-8.356Z" transform="translate(-15.51 -13.926)" fill="#f0eab2"/>
          </g>
          <path id="Path_3-15" data-name="Path 3" d="M127.79,36.207H8.519A8.439,8.439,0,0,0,0,44.563v72.415a2.813,2.813,0,0,0,2.84,2.785H133.47a2.813,2.813,0,0,0,2.84-2.785V44.563A8.439,8.439,0,0,0,127.79,36.207Z" transform="translate(0 -13.926)" fill="#f0eab2"/>
        </g>
        <g id="lego_1_16" data-name="lego (1)" transform="translate(379.775 -48.915)">
          <g id="Group_1-16" data-name="Group 1" transform="translate(17.039)">
            <path id="Path_1-16" data-name="Path 1" d="M47.949,13.926H25.23a8.439,8.439,0,0,0-8.519,8.356V38.993a2.813,2.813,0,0,0,2.84,2.785H53.628a2.813,2.813,0,0,0,2.84-2.785V22.281a8.439,8.439,0,0,0-8.52-8.356Z" transform="translate(-16.711 -13.926)" fill="#f0eab2"/>
            <path id="Path_2-16" data-name="Path 2" d="M109.223,13.926H86.5a8.439,8.439,0,0,0-8.519,8.356V38.993a2.813,2.813,0,0,0,2.84,2.785H114.9a2.813,2.813,0,0,0,2.84-2.785V22.281a8.439,8.439,0,0,0-8.519-8.356Z" transform="translate(-15.51 -13.926)" fill="#f0eab2"/>
          </g>
          <path id="Path_3-16" data-name="Path 3" d="M127.79,36.207H8.519A8.439,8.439,0,0,0,0,44.563v72.415a2.813,2.813,0,0,0,2.84,2.785H133.47a2.813,2.813,0,0,0,2.84-2.785V44.563A8.439,8.439,0,0,0,127.79,36.207Z" transform="translate(0 -13.926)" fill="#f0eab2"/>
        </g>
        <g id="lego_1_17" data-name="lego (1)" transform="translate(84.661 13.143)">
          <g id="Group_1-17" data-name="Group 1" transform="translate(13.921)">
            <path id="Path_1-17" data-name="Path 1" d="M47.949,13.926H25.23a8.439,8.439,0,0,0-8.519,8.356V38.993a2.813,2.813,0,0,0,2.84,2.785H53.628a2.813,2.813,0,0,0,2.84-2.785V22.281a8.439,8.439,0,0,0-8.52-8.356Z" transform="translate(-16.711 -13.926)" fill="#0b2b6a"/>
            <path id="Path_2-17" data-name="Path 2" d="M109.223,13.926H86.5a8.439,8.439,0,0,0-8.519,8.356V38.993a2.813,2.813,0,0,0,2.84,2.785H114.9a2.813,2.813,0,0,0,2.84-2.785V22.281a8.439,8.439,0,0,0-8.519-8.356Z" transform="translate(-77.985 -13.926)" fill="#0b2b6a"/>
          </g>
          <path id="Path_3-17" data-name="Path 3" d="M63.374,36.207H4.225C1.892,36.207,0,39.948,0,44.563v72.415c0,1.538.631,2.785,1.408,2.785H66.191c.778,0,1.408-1.247,1.408-2.785V44.563C67.6,39.948,65.707,36.207,63.374,36.207Z" transform="translate(0 -13.926)" fill="#0b2b6a"/>
        </g>
        <g id="lego_1_18" data-name="lego (1)" transform="translate(221.902 13.143)">
          <g id="Group_1-18" data-name="Group 1" transform="translate(13.921)">
            <path id="Path_1-18" data-name="Path 1" d="M47.949,13.926H25.23a8.439,8.439,0,0,0-8.519,8.356V38.993a2.813,2.813,0,0,0,2.84,2.785H53.628a2.813,2.813,0,0,0,2.84-2.785V22.281a8.439,8.439,0,0,0-8.52-8.356Z" transform="translate(-16.711 -13.926)" fill="#0b2b6a"/>
            <path id="Path_2-18" data-name="Path 2" d="M109.223,13.926H86.5a8.439,8.439,0,0,0-8.519,8.356V38.993a2.813,2.813,0,0,0,2.84,2.785H114.9a2.813,2.813,0,0,0,2.84-2.785V22.281a8.439,8.439,0,0,0-8.519-8.356Z" transform="translate(-77.985 -13.926)" fill="#0b2b6a"/>
          </g>
          <path id="Path_3-18" data-name="Path 3" d="M63.374,36.207H4.225C1.892,36.207,0,39.948,0,44.563v72.415c0,1.538.631,2.785,1.408,2.785H66.191c.778,0,1.408-1.247,1.408-2.785V44.563C67.6,39.948,65.707,36.207,63.374,36.207Z" transform="translate(0 -13.926)" fill="#0b2b6a"/>
        </g>
        <g id="lego_1_19" data-name="lego (1)" transform="translate(359.12 13.143)">
          <g id="Group_1-19" data-name="Group 1" transform="translate(13.921)">
            <path id="Path_1-19" data-name="Path 1" d="M47.949,13.926H25.23a8.439,8.439,0,0,0-8.519,8.356V38.993a2.813,2.813,0,0,0,2.84,2.785H53.628a2.813,2.813,0,0,0,2.84-2.785V22.281a8.439,8.439,0,0,0-8.52-8.356Z" transform="translate(-16.711 -13.926)" fill="#0b2b6a"/>
            <path id="Path_2-19" data-name="Path 2" d="M109.223,13.926H86.5a8.439,8.439,0,0,0-8.519,8.356V38.993a2.813,2.813,0,0,0,2.84,2.785H114.9a2.813,2.813,0,0,0,2.84-2.785V22.281a8.439,8.439,0,0,0-8.519-8.356Z" transform="translate(-77.985 -13.926)" fill="#0b2b6a"/>
          </g>
          <path id="Path_3-19" data-name="Path 3" d="M63.374,36.207H4.225C1.892,36.207,0,39.948,0,44.563v72.415c0,1.538.631,2.785,1.408,2.785H66.191c.778,0,1.408-1.247,1.408-2.785V44.563C67.6,39.948,65.707,36.207,63.374,36.207Z" transform="translate(0 -13.926)" fill="#0b2b6a"/>
        </g>
        <g id="Group_18" data-name="Group 18" transform="translate(134.712 41.498)">
          <path id="Polygon_1" data-name="Polygon 1" d="M4.2,0,8.4,6.414H0Z" transform="translate(0 1.614)" fill="#e6ff00"/>
          <path id="Polygon_2" data-name="Polygon 2" d="M4.171-.02,8.259,6.449l-8.29.074Z" transform="matrix(0.545, 0.839, -0.839, 0.545, 5.542, 0)" fill="#e6ff00"/>
        </g>
        <g id="Group_19" data-name="Group 19" transform="translate(92.914 73.71)">
          <path id="Polygon_1-2" data-name="Polygon 1" d="M4.2,0,8.4,6.414H0Z" transform="translate(0 1.614)" fill="#e6ff00"/>
          <path id="Polygon_2-2" data-name="Polygon 2" d="M4.171-.02,8.259,6.449l-8.29.074Z" transform="matrix(0.545, 0.839, -0.839, 0.545, 5.542, 0)" fill="#e6ff00"/>
        </g>
        <g id="Group_20" data-name="Group 20" transform="translate(134.712 70.315)">
          <path id="Polygon_1-3" data-name="Polygon 1" d="M4.2,0,8.4,6.414H0Z" transform="translate(0 1.614)" fill="#e6ff00"/>
          <path id="Polygon_2-3" data-name="Polygon 2" d="M4.171-.02,8.259,6.449l-8.29.074Z" transform="matrix(0.545, 0.839, -0.839, 0.545, 5.542, 0)" fill="#e6ff00"/>
        </g>
        <g id="Group_21" data-name="Group 21" transform="translate(97.972 45.183)">
          <path id="Polygon_1-4" data-name="Polygon 1" d="M4.2,0,8.4,6.414H0Z" transform="translate(0 1.614)" fill="#e6ff00"/>
          <path id="Polygon_2-4" data-name="Polygon 2" d="M4.171-.02,8.259,6.449l-8.29.074Z" transform="matrix(0.545, 0.839, -0.839, 0.545, 5.542, 0)" fill="#e6ff00"/>
        </g>
        <g id="Group_23" data-name="Group 23" transform="translate(267.693 39.981)">
          <path id="Polygon_1-5" data-name="Polygon 1" d="M4.2,0,8.4,6.414H0Z" transform="translate(0 1.614)" fill="#e6ff00"/>
          <path id="Polygon_2-5" data-name="Polygon 2" d="M4.171-.02,8.259,6.449l-8.29.074Z" transform="matrix(0.545, 0.839, -0.839, 0.545, 5.542, 0)" fill="#e6ff00"/>
        </g>
        <g id="Group_25" data-name="Group 25" transform="translate(270.355 88.809)">
          <path id="Polygon_1-6" data-name="Polygon 1" d="M4.2,0,8.4,6.414H0Z" transform="translate(0 1.614)" fill="#e6ff00"/>
          <path id="Polygon_2-6" data-name="Polygon 2" d="M4.171-.02,8.259,6.449l-8.29.074Z" transform="matrix(0.545, 0.839, -0.839, 0.545, 5.542, 0)" fill="#e6ff00"/>
        </g>
        <g id="Group_26" data-name="Group 26" transform="translate(231.352 41.498)">
          <path id="Polygon_1-7" data-name="Polygon 1" d="M4.2,0,8.4,6.414H0Z" transform="translate(0 1.614)" fill="#e6ff00"/>
          <path id="Polygon_2-7" data-name="Polygon 2" d="M4.171-.02,8.259,6.449l-8.29.074Z" transform="matrix(0.545, 0.839, -0.839, 0.545, 5.542, 0)" fill="#e6ff00"/>
        </g>
        <g id="Group_27" data-name="Group 27" transform="translate(378.577 20.791)">
          <path id="Polygon_1-8" data-name="Polygon 1" d="M4.2,0,8.4,6.414H0Z" transform="translate(0 1.614)" fill="#e6ff00"/>
          <path id="Polygon_2-8" data-name="Polygon 2" d="M4.171-.02,8.259,6.449l-8.29.074Z" transform="matrix(0.545, 0.839, -0.839, 0.545, 5.542, 0)" fill="#e6ff00"/>
        </g>
        <g id="Group_29" data-name="Group 29" transform="translate(367.528 86.633)">
          <path id="Polygon_1-9" data-name="Polygon 1" d="M4.2,0,8.4,6.414H0Z" transform="translate(0 1.614)" fill="#e6ff00"/>
          <path id="Polygon_2-9" data-name="Polygon 2" d="M4.171-.02,8.259,6.449l-8.29.074Z" transform="matrix(0.545, 0.839, -0.839, 0.545, 5.542, 0)" fill="#e6ff00"/>
        </g>
        <g id="Group_31" data-name="Group 31" transform="translate(372.587 50.384)">
          <path id="Polygon_1-10" data-name="Polygon 1" d="M4.2,0,8.4,6.414H0Z" transform="translate(0 1.614)" fill="#e6ff00"/>
          <path id="Polygon_2-10" data-name="Polygon 2" d="M4.171-.02,8.259,6.449l-8.29.074Z" transform="matrix(0.545, 0.839, -0.839, 0.545, 5.542, 0)" fill="#e6ff00"/>
        </g>
        <g id="Group_32" data-name="Group 32" transform="translate(398.81 102.237)">
          <path id="Polygon_1-11" data-name="Polygon 1" d="M4.2,0,8.4,6.414H0Z" transform="translate(0 1.614)" fill="#e6ff00"/>
          <path id="Polygon_2-11" data-name="Polygon 2" d="M4.171-.02,8.259,6.449l-8.29.074Z" transform="matrix(0.545, 0.839, -0.839, 0.545, 5.542, 0)" fill="#e6ff00"/>
        </g>
        <g id="Group_30" data-name="Group 30" transform="translate(408.927 51.901)">
          <path id="Polygon_1-12" data-name="Polygon 1" d="M4.2,0,8.4,6.414H0Z" transform="translate(0 1.614)" fill="#e6ff00"/>
          <path id="Polygon_2-12" data-name="Polygon 2" d="M4.171-.02,8.259,6.449l-8.29.074Z" transform="matrix(0.545, 0.839, -0.839, 0.545, 5.542, 0)" fill="#e6ff00"/>
        </g>
        <g id="Group_28" data-name="Group 28" transform="translate(249.057 66.03)">
          <path id="Polygon_1-13" data-name="Polygon 1" d="M4.2,0,8.4,6.414H0Z" transform="translate(0 1.614)" fill="#e6ff00"/>
          <path id="Polygon_2-13" data-name="Polygon 2" d="M4.171-.02,8.259,6.449l-8.29.074Z" transform="matrix(0.545, 0.839, -0.839, 0.545, 5.542, 0)" fill="#e6ff00"/>
        </g>
        <g id="Group_24" data-name="Group 24" transform="translate(236.411 91.834)">
          <path id="Polygon_1-14" data-name="Polygon 1" d="M4.2,0,8.4,6.414H0Z" transform="translate(0 1.614)" fill="#e6ff00"/>
          <path id="Polygon_2-14" data-name="Polygon 2" d="M4.171-.02,8.259,6.449l-8.29.074Z" transform="matrix(0.545, 0.839, -0.839, 0.545, 5.542, 0)" fill="#e6ff00"/>
        </g>
        <g id="Group_22" data-name="Group 22" transform="translate(111.283 97.036)">
          <path id="Polygon_1-15" data-name="Polygon 1" d="M4.2,0,8.4,6.414H0Z" transform="translate(0 1.614)" fill="#e6ff00"/>
          <path id="Polygon_2-15" data-name="Polygon 2" d="M4.171-.02,8.259,6.449l-8.29.074Z" transform="matrix(0.545, 0.839, -0.839, 0.545, 5.542, 0)" fill="#e6ff00"/>
        </g>
      </g>
    </g>
    <text id="SELECTING" transform="translate(120 339)" fill="#695726" font-size="45" font-family="Rockwell-Bold, Rockwell" font-weight="700"><tspan x="0" y="0">SELECTING</tspan></text>
    <rect id="Rectangle_4" data-name="Rectangle 4" width="77" height="33" rx="16.5" transform="translate(134 362)" fill="#968046"/>
    <rect id="Rectangle_5" data-name="Rectangle 5" width="148" height="33" rx="16.5" transform="translate(229 362)" fill="#968046"/>
    <text id="CSS" transform="translate(153 387)" fill="#fff" font-size="22" font-family="Rockwell"><tspan x="0" y="0">CSS</tspan></text>
    <text id="Intermediate" transform="translate(238 387)" fill="#fff" font-size="22" font-family="Rockwell"><tspan x="0" y="0">Intermediate</tspan></text>
  </g>
</svg>
