<svg xmlns="http://www.w3.org/2000/svg" xmlns:xlink="http://www.w3.org/1999/xlink" width="510" height="525" viewBox="0 0 510 525">
  <defs>
    <linearGradient id="linear-gradient" x1="0.5" x2="0.5" y2="1" gradientUnits="objectBoundingBox">
      <stop offset="0" stop-color="#d3eef9"/>
      <stop offset="0.48" stop-color="#f7f3cf"/>
      <stop offset="1" stop-color="#bff8bf"/>
    </linearGradient>
    <clipPath id="clip-path">
      <rect id="Rectangle_29" data-name="Rectangle 29" width="295" height="162" transform="translate(-0.032 -0.063)" fill="#fff" stroke="#707070" stroke-width="1"/>
    </clipPath>
    <clipPath id="clip-path-2">
      <rect id="Rectangle_28" data-name="Rectangle 28" width="289.247" height="161.772"/>
    </clipPath>
    <clipPath id="clip-path-3">
      <rect id="Rectangle_32" data-name="Rectangle 32" width="286" height="155" transform="translate(-0.4 -0.114)" fill="#fff" stroke="#707070" stroke-width="1"/>
    </clipPath>
    <clipPath id="clip-path-4">
      <rect id="Rectangle_31" data-name="Rectangle 31" width="280.988" height="155.018"/>
    </clipPath>
    <clipPath id="clip-path-5">
      <rect id="Rectangle_35" data-name="Rectangle 35" width="302" height="164" transform="translate(0.276)" fill="#fff" stroke="#707070" stroke-width="1"/>
    </clipPath>
    <clipPath id="clip-path-6">
      <rect id="Rectangle_34" data-name="Rectangle 34" width="299.066" height="164.61"/>
    </clipPath>
    <clipPath id="clip-cssLevels">
      <rect width="510" height="525"/>
    </clipPath>
  </defs>
  <g id="cssLevels" clip-path="url(#clip-cssLevels)">
    <rect width="510" height="525" fill="url(#linear-gradient)"/>
    <g id="Mask_Group_9" data-name="Mask Group 9" transform="translate(7.032 109.063)" clip-path="url(#clip-path)" style="mix-blend-mode: color;isolation: isolate">
      <g id="cssDefaultBeginner" transform="translate(2.486 -0.003)" clip-path="url(#clip-path-2)">
        <rect id="Rectangle_27" data-name="Rectangle 27" width="289.247" height="161.772" fill="#fff"/>
        <g id="lego_1_" data-name="lego (1)" transform="translate(-0.904 101.507)">
          <g id="Group_1" data-name="Group 1" transform="translate(9.642)">
            <path id="Path_1" data-name="Path 1" d="M34.387,13.926H21.532a4.807,4.807,0,0,0-4.821,4.793v9.587a1.6,1.6,0,0,0,1.607,1.6H37.6a1.6,1.6,0,0,0,1.607-1.6V18.719a4.807,4.807,0,0,0-4.821-4.793Z" transform="translate(-16.711 -13.926)" fill="#a7e4ff"/>
            <path id="Path_2" data-name="Path 2" d="M95.661,13.926H82.806a4.807,4.807,0,0,0-4.821,4.793v9.587a1.6,1.6,0,0,0,1.607,1.6H98.875a1.6,1.6,0,0,0,1.607-1.6V18.719a4.807,4.807,0,0,0-4.821-4.793Z" transform="translate(-42.633 -13.926)" fill="#a7e4ff"/>
          </g>
          <path id="Path_3" data-name="Path 3" d="M72.312,36.208H4.821A4.807,4.807,0,0,0,0,41V82.542a1.6,1.6,0,0,0,1.607,1.6H75.526a1.6,1.6,0,0,0,1.607-1.6V41A4.807,4.807,0,0,0,72.312,36.208Z" transform="translate(0 -23.425)" fill="#a7e4ff"/>
        </g>
        <g id="lego_1_2" data-name="lego (1)" transform="translate(151.553 101.507)">
          <g id="Group_1-2" data-name="Group 1" transform="translate(9.642)">
            <path id="Path_1-2" data-name="Path 1" d="M34.387,13.926H21.532a4.807,4.807,0,0,0-4.821,4.793v9.587a1.6,1.6,0,0,0,1.607,1.6H37.6a1.6,1.6,0,0,0,1.607-1.6V18.719a4.807,4.807,0,0,0-4.821-4.793Z" transform="translate(-16.711 -13.926)" fill="#a7e4ff"/>
            <path id="Path_2-2" data-name="Path 2" d="M95.661,13.926H82.806a4.807,4.807,0,0,0-4.821,4.793v9.587a1.6,1.6,0,0,0,1.607,1.6H98.875a1.6,1.6,0,0,0,1.607-1.6V18.719a4.807,4.807,0,0,0-4.821-4.793Z" transform="translate(-42.633 -13.926)" fill="#a7e4ff"/>
          </g>
          <path id="Path_3-2" data-name="Path 3" d="M72.312,36.208H4.821A4.807,4.807,0,0,0,0,41V82.542a1.6,1.6,0,0,0,1.607,1.6H75.526a1.6,1.6,0,0,0,1.607-1.6V41A4.807,4.807,0,0,0,72.312,36.208Z" transform="translate(0 -23.425)" fill="#a7e4ff"/>
        </g>
        <g id="lego_1_3" data-name="lego (1)" transform="translate(-1.055 58.817)">
          <g id="Group_1-3" data-name="Group 1" transform="translate(9.642)">
            <path id="Path_1-3" data-name="Path 1" d="M34.387,13.926H21.532a4.807,4.807,0,0,0-4.821,4.793v9.587a1.6,1.6,0,0,0,1.607,1.6H37.6a1.6,1.6,0,0,0,1.607-1.6V18.719a4.807,4.807,0,0,0-4.821-4.793Z" transform="translate(-16.711 -13.926)" fill="#b6e9ff"/>
            <path id="Path_2-3" data-name="Path 2" d="M95.661,13.926H82.806a4.807,4.807,0,0,0-4.821,4.793v9.587a1.6,1.6,0,0,0,1.607,1.6H98.875a1.6,1.6,0,0,0,1.607-1.6V18.719a4.807,4.807,0,0,0-4.821-4.793Z" transform="translate(-42.633 -13.926)" fill="#b6e9ff"/>
          </g>
          <path id="Path_3-3" data-name="Path 3" d="M72.312,36.208H4.821A4.807,4.807,0,0,0,0,41V82.542a1.6,1.6,0,0,0,1.607,1.6H75.526a1.6,1.6,0,0,0,1.607-1.6V41A4.807,4.807,0,0,0,72.312,36.208Z" transform="translate(0 -23.425)" fill="#b6e9ff"/>
        </g>
        <g id="lego_1_4" data-name="lego (1)" transform="translate(75.626 101.507)">
          <g id="Group_1-4" data-name="Group 1" transform="translate(9.642)">
            <path id="Path_1-4" data-name="Path 1" d="M34.387,13.926H21.532a4.807,4.807,0,0,0-4.821,4.793v9.587a1.6,1.6,0,0,0,1.607,1.6H37.6a1.6,1.6,0,0,0,1.607-1.6V18.719a4.807,4.807,0,0,0-4.821-4.793Z" transform="translate(-16.711 -13.926)" fill="#b6e9ff"/>
            <path id="Path_2-4" data-name="Path 2" d="M95.661,13.926H82.806a4.807,4.807,0,0,0-4.821,4.793v9.587a1.6,1.6,0,0,0,1.607,1.6H98.875a1.6,1.6,0,0,0,1.607-1.6V18.719a4.807,4.807,0,0,0-4.821-4.793Z" transform="translate(-42.633 -13.926)" fill="#b6e9ff"/>
          </g>
          <path id="Path_3-4" data-name="Path 3" d="M72.312,36.208H4.821A4.807,4.807,0,0,0,0,41V82.542a1.6,1.6,0,0,0,1.607,1.6H75.526a1.6,1.6,0,0,0,1.607-1.6V41A4.807,4.807,0,0,0,72.312,36.208Z" transform="translate(0 -23.425)" fill="#b6e9ff"/>
        </g>
        <g id="lego_1_5" data-name="lego (1)" transform="translate(151.402 58.817)">
          <g id="Group_1-5" data-name="Group 1" transform="translate(9.642)">
            <path id="Path_1-5" data-name="Path 1" d="M34.387,13.926H21.532a4.807,4.807,0,0,0-4.821,4.793v9.587a1.6,1.6,0,0,0,1.607,1.6H37.6a1.6,1.6,0,0,0,1.607-1.6V18.719a4.807,4.807,0,0,0-4.821-4.793Z" transform="translate(-16.711 -13.926)" fill="#b6e9ff"/>
            <path id="Path_2-5" data-name="Path 2" d="M95.661,13.926H82.806a4.807,4.807,0,0,0-4.821,4.793v9.587a1.6,1.6,0,0,0,1.607,1.6H98.875a1.6,1.6,0,0,0,1.607-1.6V18.719a4.807,4.807,0,0,0-4.821-4.793Z" transform="translate(-42.633 -13.926)" fill="#b6e9ff"/>
          </g>
          <path id="Path_3-5" data-name="Path 3" d="M72.312,36.208H4.821A4.807,4.807,0,0,0,0,41V82.542a1.6,1.6,0,0,0,1.607,1.6H75.526a1.6,1.6,0,0,0,1.607-1.6V41A4.807,4.807,0,0,0,72.312,36.208Z" transform="translate(0 -23.425)" fill="#b6e9ff"/>
        </g>
        <g id="lego_1_6" data-name="lego (1)" transform="translate(227.029 101.507)">
          <g id="Group_1-6" data-name="Group 1" transform="translate(9.642)">
            <path id="Path_1-6" data-name="Path 1" d="M34.387,13.926H21.532a4.807,4.807,0,0,0-4.821,4.793v9.587a1.6,1.6,0,0,0,1.607,1.6H37.6a1.6,1.6,0,0,0,1.607-1.6V18.719a4.807,4.807,0,0,0-4.821-4.793Z" transform="translate(-16.711 -13.926)" fill="#b6e9ff"/>
            <path id="Path_2-6" data-name="Path 2" d="M95.661,13.926H82.806a4.807,4.807,0,0,0-4.821,4.793v9.587a1.6,1.6,0,0,0,1.607,1.6H98.875a1.6,1.6,0,0,0,1.607-1.6V18.719a4.807,4.807,0,0,0-4.821-4.793Z" transform="translate(-42.633 -13.926)" fill="#b6e9ff"/>
          </g>
          <path id="Path_3-6" data-name="Path 3" d="M72.312,36.208H4.821A4.807,4.807,0,0,0,0,41V82.542a1.6,1.6,0,0,0,1.607,1.6H75.526a1.6,1.6,0,0,0,1.607-1.6V41A4.807,4.807,0,0,0,72.312,36.208Z" transform="translate(0 -23.425)" fill="#b6e9ff"/>
        </g>
        <g id="lego_1_7" data-name="lego (1)" transform="translate(75.475 58.817)">
          <g id="Group_1-7" data-name="Group 1" transform="translate(9.642)">
            <path id="Path_1-7" data-name="Path 1" d="M34.387,13.926H21.532a4.807,4.807,0,0,0-4.821,4.793v9.587a1.6,1.6,0,0,0,1.607,1.6H37.6a1.6,1.6,0,0,0,1.607-1.6V18.719a4.807,4.807,0,0,0-4.821-4.793Z" transform="translate(-16.711 -13.926)" fill="#a7e4ff"/>
            <path id="Path_2-7" data-name="Path 2" d="M95.661,13.926H82.806a4.807,4.807,0,0,0-4.821,4.793v9.587a1.6,1.6,0,0,0,1.607,1.6H98.875a1.6,1.6,0,0,0,1.607-1.6V18.719a4.807,4.807,0,0,0-4.821-4.793Z" transform="translate(-42.633 -13.926)" fill="#a7e4ff"/>
          </g>
          <path id="Path_3-7" data-name="Path 3" d="M72.312,36.208H4.821A4.807,4.807,0,0,0,0,41V82.542a1.6,1.6,0,0,0,1.607,1.6H75.526a1.6,1.6,0,0,0,1.607-1.6V41A4.807,4.807,0,0,0,72.312,36.208Z" transform="translate(0 -23.425)" fill="#a7e4ff"/>
        </g>
        <g id="lego_1_8" data-name="lego (1)" transform="translate(226.878 58.817)">
          <g id="Group_1-8" data-name="Group 1" transform="translate(9.642)">
            <path id="Path_1-8" data-name="Path 1" d="M34.387,13.926H21.532a4.807,4.807,0,0,0-4.821,4.793v9.587a1.6,1.6,0,0,0,1.607,1.6H37.6a1.6,1.6,0,0,0,1.607-1.6V18.719a4.807,4.807,0,0,0-4.821-4.793Z" transform="translate(-16.711 -13.926)" fill="#a7e4ff"/>
            <path id="Path_2-8" data-name="Path 2" d="M95.661,13.926H82.806a4.807,4.807,0,0,0-4.821,4.793v9.587a1.6,1.6,0,0,0,1.607,1.6H98.875a1.6,1.6,0,0,0,1.607-1.6V18.719a4.807,4.807,0,0,0-4.821-4.793Z" transform="translate(-42.633 -13.926)" fill="#a7e4ff"/>
          </g>
          <path id="Path_3-8" data-name="Path 3" d="M72.312,36.208H4.821A4.807,4.807,0,0,0,0,41V82.542a1.6,1.6,0,0,0,1.607,1.6H75.526a1.6,1.6,0,0,0,1.607-1.6V41A4.807,4.807,0,0,0,72.312,36.208Z" transform="translate(0 -23.425)" fill="#a7e4ff"/>
        </g>
        <g id="lego_1_9" data-name="lego (1)" transform="translate(-1.13 14.629)">
          <g id="Group_1-9" data-name="Group 1" transform="translate(9.642)">
            <path id="Path_1-9" data-name="Path 1" d="M34.387,13.926H21.532a4.807,4.807,0,0,0-4.821,4.793v9.587a1.6,1.6,0,0,0,1.607,1.6H37.6a1.6,1.6,0,0,0,1.607-1.6V18.719a4.807,4.807,0,0,0-4.821-4.793Z" transform="translate(-16.711 -13.926)" fill="#a7e4ff"/>
            <path id="Path_2-9" data-name="Path 2" d="M95.661,13.926H82.806a4.807,4.807,0,0,0-4.821,4.793v9.587a1.6,1.6,0,0,0,1.607,1.6H98.875a1.6,1.6,0,0,0,1.607-1.6V18.719a4.807,4.807,0,0,0-4.821-4.793Z" transform="translate(-42.633 -13.926)" fill="#a7e4ff"/>
          </g>
          <path id="Path_3-9" data-name="Path 3" d="M72.312,36.208H4.821A4.807,4.807,0,0,0,0,41V82.542a1.6,1.6,0,0,0,1.607,1.6H75.526a1.6,1.6,0,0,0,1.607-1.6V41A4.807,4.807,0,0,0,72.312,36.208Z" transform="translate(0 -23.425)" fill="#a7e4ff"/>
        </g>
        <g id="lego_1_10" data-name="lego (1)" transform="translate(151.327 14.629)">
          <g id="Group_1-10" data-name="Group 1" transform="translate(9.642)">
            <path id="Path_1-10" data-name="Path 1" d="M34.387,13.926H21.532a4.807,4.807,0,0,0-4.821,4.793v9.587a1.6,1.6,0,0,0,1.607,1.6H37.6a1.6,1.6,0,0,0,1.607-1.6V18.719a4.807,4.807,0,0,0-4.821-4.793Z" transform="translate(-16.711 -13.926)" fill="#a7e4ff"/>
            <path id="Path_2-10" data-name="Path 2" d="M95.661,13.926H82.806a4.807,4.807,0,0,0-4.821,4.793v9.587a1.6,1.6,0,0,0,1.607,1.6H98.875a1.6,1.6,0,0,0,1.607-1.6V18.719a4.807,4.807,0,0,0-4.821-4.793Z" transform="translate(-42.633 -13.926)" fill="#a7e4ff"/>
          </g>
          <path id="Path_3-10" data-name="Path 3" d="M72.312,36.208H4.821A4.807,4.807,0,0,0,0,41V82.542a1.6,1.6,0,0,0,1.607,1.6H75.526a1.6,1.6,0,0,0,1.607-1.6V41A4.807,4.807,0,0,0,72.312,36.208Z" transform="translate(0 -23.425)" fill="#a7e4ff"/>
        </g>
        <g id="lego_1_11" data-name="lego (1)" transform="translate(75.4 14.629)">
          <g id="Group_1-11" data-name="Group 1" transform="translate(9.642)">
            <path id="Path_1-11" data-name="Path 1" d="M34.387,13.926H21.532a4.807,4.807,0,0,0-4.821,4.793v9.587a1.6,1.6,0,0,0,1.607,1.6H37.6a1.6,1.6,0,0,0,1.607-1.6V18.719a4.807,4.807,0,0,0-4.821-4.793Z" transform="translate(-16.711 -13.926)" fill="#b6e9ff"/>
            <path id="Path_2-11" data-name="Path 2" d="M95.661,13.926H82.806a4.807,4.807,0,0,0-4.821,4.793v9.587a1.6,1.6,0,0,0,1.607,1.6H98.875a1.6,1.6,0,0,0,1.607-1.6V18.719a4.807,4.807,0,0,0-4.821-4.793Z" transform="translate(-42.633 -13.926)" fill="#b6e9ff"/>
          </g>
          <path id="Path_3-11" data-name="Path 3" d="M72.312,36.208H4.821A4.807,4.807,0,0,0,0,41V82.542a1.6,1.6,0,0,0,1.607,1.6H75.526a1.6,1.6,0,0,0,1.607-1.6V41A4.807,4.807,0,0,0,72.312,36.208Z" transform="translate(0 -23.425)" fill="#b6e9ff"/>
        </g>
        <g id="lego_1_12" data-name="lego (1)" transform="translate(226.802 14.629)">
          <g id="Group_1-12" data-name="Group 1" transform="translate(9.642)">
            <path id="Path_1-12" data-name="Path 1" d="M34.387,13.926H21.532a4.807,4.807,0,0,0-4.821,4.793v9.587a1.6,1.6,0,0,0,1.607,1.6H37.6a1.6,1.6,0,0,0,1.607-1.6V18.719a4.807,4.807,0,0,0-4.821-4.793Z" transform="translate(-16.711 -13.926)" fill="#b6e9ff"/>
            <path id="Path_2-12" data-name="Path 2" d="M95.661,13.926H82.806a4.807,4.807,0,0,0-4.821,4.793v9.587a1.6,1.6,0,0,0,1.607,1.6H98.875a1.6,1.6,0,0,0,1.607-1.6V18.719a4.807,4.807,0,0,0-4.821-4.793Z" transform="translate(-42.633 -13.926)" fill="#b6e9ff"/>
          </g>
          <path id="Path_3-12" data-name="Path 3" d="M72.312,36.208H4.821A4.807,4.807,0,0,0,0,41V82.542a1.6,1.6,0,0,0,1.607,1.6H75.526a1.6,1.6,0,0,0,1.607-1.6V41A4.807,4.807,0,0,0,72.312,36.208Z" transform="translate(0 -23.425)" fill="#b6e9ff"/>
        </g>
        <g id="lego_1_13" data-name="lego (1)" transform="translate(-1.206 -29.309)">
          <g id="Group_1-13" data-name="Group 1" transform="translate(9.642)">
            <path id="Path_1-13" data-name="Path 1" d="M34.387,13.926H21.532a4.807,4.807,0,0,0-4.821,4.793v9.587a1.6,1.6,0,0,0,1.607,1.6H37.6a1.6,1.6,0,0,0,1.607-1.6V18.719a4.807,4.807,0,0,0-4.821-4.793Z" transform="translate(-16.711 -13.926)" fill="#b6e9ff"/>
            <path id="Path_2-13" data-name="Path 2" d="M95.661,13.926H82.806a4.807,4.807,0,0,0-4.821,4.793v9.587a1.6,1.6,0,0,0,1.607,1.6H98.875a1.6,1.6,0,0,0,1.607-1.6V18.719a4.807,4.807,0,0,0-4.821-4.793Z" transform="translate(-42.633 -13.926)" fill="#b6e9ff"/>
          </g>
          <path id="Path_3-13" data-name="Path 3" d="M72.312,36.208H4.821A4.807,4.807,0,0,0,0,41V82.542a1.6,1.6,0,0,0,1.607,1.6H75.526a1.6,1.6,0,0,0,1.607-1.6V41A4.807,4.807,0,0,0,72.312,36.208Z" transform="translate(0 -23.425)" fill="#b6e9ff"/>
        </g>
        <g id="lego_1_14" data-name="lego (1)" transform="translate(151.251 -29.309)">
          <g id="Group_1-14" data-name="Group 1" transform="translate(9.642)">
            <path id="Path_1-14" data-name="Path 1" d="M34.387,13.926H21.532a4.807,4.807,0,0,0-4.821,4.793v9.587a1.6,1.6,0,0,0,1.607,1.6H37.6a1.6,1.6,0,0,0,1.607-1.6V18.719a4.807,4.807,0,0,0-4.821-4.793Z" transform="translate(-16.711 -13.926)" fill="#b6e9ff"/>
            <path id="Path_2-14" data-name="Path 2" d="M95.661,13.926H82.806a4.807,4.807,0,0,0-4.821,4.793v9.587a1.6,1.6,0,0,0,1.607,1.6H98.875a1.6,1.6,0,0,0,1.607-1.6V18.719a4.807,4.807,0,0,0-4.821-4.793Z" transform="translate(-42.633 -13.926)" fill="#b6e9ff"/>
          </g>
          <path id="Path_3-14" data-name="Path 3" d="M72.312,36.208H4.821A4.807,4.807,0,0,0,0,41V82.542a1.6,1.6,0,0,0,1.607,1.6H75.526a1.6,1.6,0,0,0,1.607-1.6V41A4.807,4.807,0,0,0,72.312,36.208Z" transform="translate(0 -23.425)" fill="#b6e9ff"/>
        </g>
        <g id="lego_1_15" data-name="lego (1)" transform="translate(75.324 -29.309)">
          <g id="Group_1-15" data-name="Group 1" transform="translate(9.642)">
            <path id="Path_1-15" data-name="Path 1" d="M34.387,13.926H21.532a4.807,4.807,0,0,0-4.821,4.793v9.587a1.6,1.6,0,0,0,1.607,1.6H37.6a1.6,1.6,0,0,0,1.607-1.6V18.719a4.807,4.807,0,0,0-4.821-4.793Z" transform="translate(-16.711 -13.926)" fill="#a7e4ff"/>
            <path id="Path_2-15" data-name="Path 2" d="M95.661,13.926H82.806a4.807,4.807,0,0,0-4.821,4.793v9.587a1.6,1.6,0,0,0,1.607,1.6H98.875a1.6,1.6,0,0,0,1.607-1.6V18.719a4.807,4.807,0,0,0-4.821-4.793Z" transform="translate(-42.633 -13.926)" fill="#a7e4ff"/>
          </g>
          <path id="Path_3-15" data-name="Path 3" d="M72.312,36.208H4.821A4.807,4.807,0,0,0,0,41V82.542a1.6,1.6,0,0,0,1.607,1.6H75.526a1.6,1.6,0,0,0,1.607-1.6V41A4.807,4.807,0,0,0,72.312,36.208Z" transform="translate(0 -23.425)" fill="#a7e4ff"/>
        </g>
        <g id="lego_1_16" data-name="lego (1)" transform="translate(226.727 -29.309)">
          <g id="Group_1-16" data-name="Group 1" transform="translate(9.642)">
            <path id="Path_1-16" data-name="Path 1" d="M34.387,13.926H21.532a4.807,4.807,0,0,0-4.821,4.793v9.587a1.6,1.6,0,0,0,1.607,1.6H37.6a1.6,1.6,0,0,0,1.607-1.6V18.719a4.807,4.807,0,0,0-4.821-4.793Z" transform="translate(-16.711 -13.926)" fill="#a7e4ff"/>
            <path id="Path_2-16" data-name="Path 2" d="M95.661,13.926H82.806a4.807,4.807,0,0,0-4.821,4.793v9.587a1.6,1.6,0,0,0,1.607,1.6H98.875a1.6,1.6,0,0,0,1.607-1.6V18.719a4.807,4.807,0,0,0-4.821-4.793Z" transform="translate(-42.633 -13.926)" fill="#a7e4ff"/>
          </g>
          <path id="Path_3-16" data-name="Path 3" d="M72.312,36.208H4.821A4.807,4.807,0,0,0,0,41V82.542a1.6,1.6,0,0,0,1.607,1.6H75.526a1.6,1.6,0,0,0,1.607-1.6V41A4.807,4.807,0,0,0,72.312,36.208Z" transform="translate(0 -23.425)" fill="#a7e4ff"/>
        </g>
      </g>
    </g>
    <g id="Mask_Group_10" data-name="Mask Group 10" transform="translate(210.4 225.114)" clip-path="url(#clip-path-3)" style="mix-blend-mode: color;isolation: isolate">
      <g id="cssDefaultIntermediar" transform="translate(2.251 -0.019)" clip-path="url(#clip-path-4)">
        <rect id="Rectangle_30" data-name="Rectangle 30" width="280.988" height="155.018" fill="#fff"/>
        <g id="lego_1_17" data-name="lego (1)" transform="translate(-0.878 97.269)">
          <g id="Group_1-17" data-name="Group 1" transform="translate(9.366)">
            <path id="Path_1-17" data-name="Path 1" d="M33.883,13.926H21.394a4.639,4.639,0,0,0-4.683,4.593v9.186a1.546,1.546,0,0,0,1.561,1.531H37a1.546,1.546,0,0,0,1.561-1.531V18.519a4.639,4.639,0,0,0-4.683-4.593Z" transform="translate(-16.711 -13.926)" fill="#746232"/>
            <path id="Path_2-17" data-name="Path 2" d="M95.157,13.926H82.668a4.639,4.639,0,0,0-4.683,4.593v9.186a1.546,1.546,0,0,0,1.561,1.531H98.279a1.546,1.546,0,0,0,1.561-1.531V18.519a4.639,4.639,0,0,0-4.683-4.593Z" transform="translate(-43.642 -13.926)" fill="#746232"/>
          </g>
          <path id="Path_3-17" data-name="Path 3" d="M70.247,36.207H4.683A4.639,4.639,0,0,0,0,40.8V80.608a1.546,1.546,0,0,0,1.561,1.531H73.369a1.546,1.546,0,0,0,1.561-1.531V40.8A4.639,4.639,0,0,0,70.247,36.207Z" transform="translate(0 -23.959)" fill="#746232"/>
        </g>
        <g id="lego_1_18" data-name="lego (1)" transform="translate(147.226 97.269)">
          <g id="Group_1-18" data-name="Group 1" transform="translate(9.366)">
            <path id="Path_1-18" data-name="Path 1" d="M33.883,13.926H21.394a4.639,4.639,0,0,0-4.683,4.593v9.186a1.546,1.546,0,0,0,1.561,1.531H37a1.546,1.546,0,0,0,1.561-1.531V18.519a4.639,4.639,0,0,0-4.683-4.593Z" transform="translate(-16.711 -13.926)" fill="#746232"/>
            <path id="Path_2-18" data-name="Path 2" d="M95.157,13.926H82.668a4.639,4.639,0,0,0-4.683,4.593v9.186a1.546,1.546,0,0,0,1.561,1.531H98.279a1.546,1.546,0,0,0,1.561-1.531V18.519a4.639,4.639,0,0,0-4.683-4.593Z" transform="translate(-43.642 -13.926)" fill="#746232"/>
          </g>
          <path id="Path_3-18" data-name="Path 3" d="M70.247,36.207H4.683A4.639,4.639,0,0,0,0,40.8V80.608a1.546,1.546,0,0,0,1.561,1.531H73.369a1.546,1.546,0,0,0,1.561-1.531V40.8A4.639,4.639,0,0,0,70.247,36.207Z" transform="translate(0 -23.959)" fill="#746232"/>
        </g>
        <g id="lego_1_19" data-name="lego (1)" transform="translate(-13.757 56.218)">
          <g id="Group_1-19" data-name="Group 1" transform="translate(9.366)">
            <path id="Path_1-19" data-name="Path 1" d="M33.883,13.926H21.394a4.639,4.639,0,0,0-4.683,4.593v9.186a1.546,1.546,0,0,0,1.561,1.531H37a1.546,1.546,0,0,0,1.561-1.531V18.519a4.639,4.639,0,0,0-4.683-4.593Z" transform="translate(-16.711 -13.926)" fill="#89753f"/>
            <path id="Path_2-19" data-name="Path 2" d="M95.157,13.926H82.668a4.639,4.639,0,0,0-4.683,4.593v9.186a1.546,1.546,0,0,0,1.561,1.531H98.279a1.546,1.546,0,0,0,1.561-1.531V18.519a4.639,4.639,0,0,0-4.683-4.593Z" transform="translate(-43.642 -13.926)" fill="#89753f"/>
          </g>
          <path id="Path_3-19" data-name="Path 3" d="M70.247,36.207H4.683A4.639,4.639,0,0,0,0,40.8V80.608a1.546,1.546,0,0,0,1.561,1.531H73.369a1.546,1.546,0,0,0,1.561-1.531V40.8A4.639,4.639,0,0,0,70.247,36.207Z" transform="translate(0 -23.959)" fill="#89753f"/>
        </g>
        <g id="lego_1_20" data-name="lego (1)" transform="translate(73.467 97.269)">
          <g id="Group_1-20" data-name="Group 1" transform="translate(9.366)">
            <path id="Path_1-20" data-name="Path 1" d="M33.883,13.926H21.394a4.639,4.639,0,0,0-4.683,4.593v9.186a1.546,1.546,0,0,0,1.561,1.531H37a1.546,1.546,0,0,0,1.561-1.531V18.519a4.639,4.639,0,0,0-4.683-4.593Z" transform="translate(-16.711 -13.926)" fill="#695726"/>
            <path id="Path_2-20" data-name="Path 2" d="M95.157,13.926H82.668a4.639,4.639,0,0,0-4.683,4.593v9.186a1.546,1.546,0,0,0,1.561,1.531H98.279a1.546,1.546,0,0,0,1.561-1.531V18.519a4.639,4.639,0,0,0-4.683-4.593Z" transform="translate(-43.642 -13.926)" fill="#695726"/>
          </g>
          <path id="Path_3-20" data-name="Path 3" d="M70.247,36.207H4.683A4.639,4.639,0,0,0,0,40.8V80.608a1.546,1.546,0,0,0,1.561,1.531H73.369a1.546,1.546,0,0,0,1.561-1.531V40.8A4.639,4.639,0,0,0,70.247,36.207Z" transform="translate(0 -23.959)" fill="#695726"/>
        </g>
        <g id="lego_1_21" data-name="lego (1)" transform="translate(134.347 56.218)">
          <g id="Group_1-21" data-name="Group 1" transform="translate(9.366)">
            <path id="Path_1-21" data-name="Path 1" d="M33.883,13.926H21.394a4.639,4.639,0,0,0-4.683,4.593v9.186a1.546,1.546,0,0,0,1.561,1.531H37a1.546,1.546,0,0,0,1.561-1.531V18.519a4.639,4.639,0,0,0-4.683-4.593Z" transform="translate(-16.711 -13.926)" fill="#89753f"/>
            <path id="Path_2-21" data-name="Path 2" d="M95.157,13.926H82.668a4.639,4.639,0,0,0-4.683,4.593v9.186a1.546,1.546,0,0,0,1.561,1.531H98.279a1.546,1.546,0,0,0,1.561-1.531V18.519a4.639,4.639,0,0,0-4.683-4.593Z" transform="translate(-43.642 -13.926)" fill="#89753f"/>
          </g>
          <path id="Path_3-21" data-name="Path 3" d="M70.247,36.207H4.683A4.639,4.639,0,0,0,0,40.8V80.608a1.546,1.546,0,0,0,1.561,1.531H73.369a1.546,1.546,0,0,0,1.561-1.531V40.8A4.639,4.639,0,0,0,70.247,36.207Z" transform="translate(0 -23.959)" fill="#89753f"/>
        </g>
        <g id="lego_1_22" data-name="lego (1)" transform="translate(220.547 97.269)">
          <g id="Group_1-22" data-name="Group 1" transform="translate(9.366)">
            <path id="Path_1-22" data-name="Path 1" d="M33.883,13.926H21.394a4.639,4.639,0,0,0-4.683,4.593v9.186a1.546,1.546,0,0,0,1.561,1.531H37a1.546,1.546,0,0,0,1.561-1.531V18.519a4.639,4.639,0,0,0-4.683-4.593Z" transform="translate(-16.711 -13.926)" fill="#695726"/>
            <path id="Path_2-22" data-name="Path 2" d="M95.157,13.926H82.668a4.639,4.639,0,0,0-4.683,4.593v9.186a1.546,1.546,0,0,0,1.561,1.531H98.279a1.546,1.546,0,0,0,1.561-1.531V18.519a4.639,4.639,0,0,0-4.683-4.593Z" transform="translate(-43.642 -13.926)" fill="#695726"/>
          </g>
          <path id="Path_3-22" data-name="Path 3" d="M70.247,36.207H4.683A4.639,4.639,0,0,0,0,40.8V80.608a1.546,1.546,0,0,0,1.561,1.531H73.369a1.546,1.546,0,0,0,1.561-1.531V40.8A4.639,4.639,0,0,0,70.247,36.207Z" transform="translate(0 -23.959)" fill="#695726"/>
        </g>
        <g id="lego_1_23" data-name="lego (1)" transform="translate(60.588 56.218)">
          <g id="Group_1-23" data-name="Group 1" transform="translate(9.366)">
            <path id="Path_1-23" data-name="Path 1" d="M33.883,13.926H21.394a4.639,4.639,0,0,0-4.683,4.593v9.186a1.546,1.546,0,0,0,1.561,1.531H37a1.546,1.546,0,0,0,1.561-1.531V18.519a4.639,4.639,0,0,0-4.683-4.593Z" transform="translate(-16.711 -13.926)" fill="#968046"/>
            <path id="Path_2-23" data-name="Path 2" d="M95.157,13.926H82.668a4.639,4.639,0,0,0-4.683,4.593v9.186a1.546,1.546,0,0,0,1.561,1.531H98.279a1.546,1.546,0,0,0,1.561-1.531V18.519a4.639,4.639,0,0,0-4.683-4.593Z" transform="translate(-43.642 -13.926)" fill="#968046"/>
          </g>
          <path id="Path_3-23" data-name="Path 3" d="M70.247,36.207H4.683A4.639,4.639,0,0,0,0,40.8V80.608a1.546,1.546,0,0,0,1.561,1.531H73.369a1.546,1.546,0,0,0,1.561-1.531V40.8A4.639,4.639,0,0,0,70.247,36.207Z" transform="translate(0 -23.959)" fill="#968046"/>
        </g>
        <g id="lego_1_24" data-name="lego (1)" transform="translate(207.668 56.218)">
          <g id="Group_1-24" data-name="Group 1" transform="translate(9.366)">
            <path id="Path_1-24" data-name="Path 1" d="M33.883,13.926H21.394a4.639,4.639,0,0,0-4.683,4.593v9.186a1.546,1.546,0,0,0,1.561,1.531H37a1.546,1.546,0,0,0,1.561-1.531V18.519a4.639,4.639,0,0,0-4.683-4.593Z" transform="translate(-16.711 -13.926)" fill="#968046"/>
            <path id="Path_2-24" data-name="Path 2" d="M95.157,13.926H82.668a4.639,4.639,0,0,0-4.683,4.593v9.186a1.546,1.546,0,0,0,1.561,1.531H98.279a1.546,1.546,0,0,0,1.561-1.531V18.519a4.639,4.639,0,0,0-4.683-4.593Z" transform="translate(-43.642 -13.926)" fill="#968046"/>
          </g>
          <path id="Path_3-24" data-name="Path 3" d="M70.247,36.207H4.683A4.639,4.639,0,0,0,0,40.8V80.608a1.546,1.546,0,0,0,1.561,1.531H73.369a1.546,1.546,0,0,0,1.561-1.531V40.8A4.639,4.639,0,0,0,70.247,36.207Z" transform="translate(0 -23.959)" fill="#968046"/>
        </g>
        <g id="lego_1_25" data-name="lego (1)" transform="translate(-0.952 14.306)">
          <g id="Group_1-25" data-name="Group 1" transform="translate(9.366)">
            <path id="Path_1-25" data-name="Path 1" d="M33.883,13.926H21.394a4.639,4.639,0,0,0-4.683,4.593v9.186a1.546,1.546,0,0,0,1.561,1.531H37a1.546,1.546,0,0,0,1.561-1.531V18.519a4.639,4.639,0,0,0-4.683-4.593Z" transform="translate(-16.711 -13.926)" fill="#ece285"/>
            <path id="Path_2-25" data-name="Path 2" d="M95.157,13.926H82.668a4.639,4.639,0,0,0-4.683,4.593v9.186a1.546,1.546,0,0,0,1.561,1.531H98.279a1.546,1.546,0,0,0,1.561-1.531V18.519a4.639,4.639,0,0,0-4.683-4.593Z" transform="translate(-43.642 -13.926)" fill="#ece285"/>
          </g>
          <path id="Path_3-25" data-name="Path 3" d="M70.247,36.207H4.683A4.639,4.639,0,0,0,0,40.8V80.608a1.546,1.546,0,0,0,1.561,1.531H73.369a1.546,1.546,0,0,0,1.561-1.531V40.8A4.639,4.639,0,0,0,70.247,36.207Z" transform="translate(0 -23.959)" fill="#ece285"/>
        </g>
        <g id="lego_1_26" data-name="lego (1)" transform="translate(147.153 14.306)">
          <g id="Group_1-26" data-name="Group 1" transform="translate(9.366)">
            <path id="Path_1-26" data-name="Path 1" d="M33.883,13.926H21.394a4.639,4.639,0,0,0-4.683,4.593v9.186a1.546,1.546,0,0,0,1.561,1.531H37a1.546,1.546,0,0,0,1.561-1.531V18.519a4.639,4.639,0,0,0-4.683-4.593Z" transform="translate(-16.711 -13.926)" fill="#ece285"/>
            <path id="Path_2-26" data-name="Path 2" d="M95.157,13.926H82.668a4.639,4.639,0,0,0-4.683,4.593v9.186a1.546,1.546,0,0,0,1.561,1.531H98.279a1.546,1.546,0,0,0,1.561-1.531V18.519a4.639,4.639,0,0,0-4.683-4.593Z" transform="translate(-43.642 -13.926)" fill="#ece285"/>
          </g>
          <path id="Path_3-26" data-name="Path 3" d="M70.247,36.207H4.683A4.639,4.639,0,0,0,0,40.8V80.608a1.546,1.546,0,0,0,1.561,1.531H73.369a1.546,1.546,0,0,0,1.561-1.531V40.8A4.639,4.639,0,0,0,70.247,36.207Z" transform="translate(0 -23.959)" fill="#ece285"/>
        </g>
        <g id="lego_1_27" data-name="lego (1)" transform="translate(73.686 14.306)">
          <g id="Group_1-27" data-name="Group 1" transform="translate(9.366)">
            <path id="Path_1-27" data-name="Path 1" d="M33.883,13.926H21.394a4.639,4.639,0,0,0-4.683,4.593v9.186a1.546,1.546,0,0,0,1.561,1.531H37a1.546,1.546,0,0,0,1.561-1.531V18.519a4.639,4.639,0,0,0-4.683-4.593Z" transform="translate(-16.711 -13.926)" fill="#e9dd6f"/>
            <path id="Path_2-27" data-name="Path 2" d="M95.157,13.926H82.668a4.639,4.639,0,0,0-4.683,4.593v9.186a1.546,1.546,0,0,0,1.561,1.531H98.279a1.546,1.546,0,0,0,1.561-1.531V18.519a4.639,4.639,0,0,0-4.683-4.593Z" transform="translate(-43.642 -13.926)" fill="#e9dd6f"/>
          </g>
          <path id="Path_3-27" data-name="Path 3" d="M70.247,36.207H4.683A4.639,4.639,0,0,0,0,40.8V80.608a1.546,1.546,0,0,0,1.561,1.531H73.369a1.546,1.546,0,0,0,1.561-1.531V40.8A4.639,4.639,0,0,0,70.247,36.207Z" transform="translate(0 -23.959)" fill="#e9dd6f"/>
        </g>
        <g id="lego_1_28" data-name="lego (1)" transform="translate(220.473 14.306)">
          <g id="Group_1-28" data-name="Group 1" transform="translate(9.366)">
            <path id="Path_1-28" data-name="Path 1" d="M33.883,13.926H21.394a4.639,4.639,0,0,0-4.683,4.593v9.186a1.546,1.546,0,0,0,1.561,1.531H37a1.546,1.546,0,0,0,1.561-1.531V18.519a4.639,4.639,0,0,0-4.683-4.593Z" transform="translate(-16.711 -13.926)" fill="#e9dd6f"/>
            <path id="Path_2-28" data-name="Path 2" d="M95.157,13.926H82.668a4.639,4.639,0,0,0-4.683,4.593v9.186a1.546,1.546,0,0,0,1.561,1.531H98.279a1.546,1.546,0,0,0,1.561-1.531V18.519a4.639,4.639,0,0,0-4.683-4.593Z" transform="translate(-43.642 -13.926)" fill="#e9dd6f"/>
          </g>
          <path id="Path_3-28" data-name="Path 3" d="M70.247,36.207H4.683A4.639,4.639,0,0,0,0,40.8V80.608a1.546,1.546,0,0,0,1.561,1.531H73.369a1.546,1.546,0,0,0,1.561-1.531V40.8A4.639,4.639,0,0,0,70.247,36.207Z" transform="translate(0 -23.959)" fill="#e9dd6f"/>
        </g>
        <g id="lego_1_29" data-name="lego (1)" transform="translate(-12.659 -26.889)">
          <g id="Group_1-29" data-name="Group 1" transform="translate(9.366)">
            <path id="Path_1-29" data-name="Path 1" d="M33.883,13.926H21.394a4.639,4.639,0,0,0-4.683,4.593v9.186a1.546,1.546,0,0,0,1.561,1.531H37a1.546,1.546,0,0,0,1.561-1.531V18.519a4.639,4.639,0,0,0-4.683-4.593Z" transform="translate(-16.711 -13.926)" fill="#f0e797"/>
            <path id="Path_2-29" data-name="Path 2" d="M95.157,13.926H82.668a4.639,4.639,0,0,0-4.683,4.593v9.186a1.546,1.546,0,0,0,1.561,1.531H98.279a1.546,1.546,0,0,0,1.561-1.531V18.519a4.639,4.639,0,0,0-4.683-4.593Z" transform="translate(-43.642 -13.926)" fill="#f0e797"/>
          </g>
          <path id="Path_3-29" data-name="Path 3" d="M70.247,36.207H4.683A4.639,4.639,0,0,0,0,40.8V80.608a1.546,1.546,0,0,0,1.561,1.531H73.369a1.546,1.546,0,0,0,1.561-1.531V40.8A4.639,4.639,0,0,0,70.247,36.207Z" transform="translate(0 -23.959)" fill="#f0e797"/>
        </g>
        <g id="lego_1_30" data-name="lego (1)" transform="translate(135.445 -26.889)">
          <g id="Group_1-30" data-name="Group 1" transform="translate(9.366)">
            <path id="Path_1-30" data-name="Path 1" d="M33.883,13.926H21.394a4.639,4.639,0,0,0-4.683,4.593v9.186a1.546,1.546,0,0,0,1.561,1.531H37a1.546,1.546,0,0,0,1.561-1.531V18.519a4.639,4.639,0,0,0-4.683-4.593Z" transform="translate(-16.711 -13.926)" fill="#f0e797"/>
            <path id="Path_2-30" data-name="Path 2" d="M95.157,13.926H82.668a4.639,4.639,0,0,0-4.683,4.593v9.186a1.546,1.546,0,0,0,1.561,1.531H98.279a1.546,1.546,0,0,0,1.561-1.531V18.519a4.639,4.639,0,0,0-4.683-4.593Z" transform="translate(-43.642 -13.926)" fill="#f0e797"/>
          </g>
          <path id="Path_3-30" data-name="Path 3" d="M70.247,36.207H4.683A4.639,4.639,0,0,0,0,40.8V80.608a1.546,1.546,0,0,0,1.561,1.531H73.369a1.546,1.546,0,0,0,1.561-1.531V40.8A4.639,4.639,0,0,0,70.247,36.207Z" transform="translate(0 -23.959)" fill="#f0e797"/>
        </g>
        <g id="lego_1_31" data-name="lego (1)" transform="translate(61.978 -26.889)">
          <g id="Group_1-31" data-name="Group 1" transform="translate(9.366)">
            <path id="Path_1-31" data-name="Path 1" d="M33.883,13.926H21.394a4.639,4.639,0,0,0-4.683,4.593v9.186a1.546,1.546,0,0,0,1.561,1.531H37a1.546,1.546,0,0,0,1.561-1.531V18.519a4.639,4.639,0,0,0-4.683-4.593Z" transform="translate(-16.711 -13.926)" fill="#f0eab2"/>
            <path id="Path_2-31" data-name="Path 2" d="M95.157,13.926H82.668a4.639,4.639,0,0,0-4.683,4.593v9.186a1.546,1.546,0,0,0,1.561,1.531H98.279a1.546,1.546,0,0,0,1.561-1.531V18.519a4.639,4.639,0,0,0-4.683-4.593Z" transform="translate(-43.642 -13.926)" fill="#f0eab2"/>
          </g>
          <path id="Path_3-31" data-name="Path 3" d="M70.247,36.207H4.683A4.639,4.639,0,0,0,0,40.8V80.608a1.546,1.546,0,0,0,1.561,1.531H73.369a1.546,1.546,0,0,0,1.561-1.531V40.8A4.639,4.639,0,0,0,70.247,36.207Z" transform="translate(0 -23.959)" fill="#f0eab2"/>
        </g>
        <g id="lego_1_32" data-name="lego (1)" transform="translate(208.765 -26.889)">
          <g id="Group_1-32" data-name="Group 1" transform="translate(9.366)">
            <path id="Path_1-32" data-name="Path 1" d="M33.883,13.926H21.394a4.639,4.639,0,0,0-4.683,4.593v9.186a1.546,1.546,0,0,0,1.561,1.531H37a1.546,1.546,0,0,0,1.561-1.531V18.519a4.639,4.639,0,0,0-4.683-4.593Z" transform="translate(-16.711 -13.926)" fill="#f0eab2"/>
            <path id="Path_2-32" data-name="Path 2" d="M95.157,13.926H82.668a4.639,4.639,0,0,0-4.683,4.593v9.186a1.546,1.546,0,0,0,1.561,1.531H98.279a1.546,1.546,0,0,0,1.561-1.531V18.519a4.639,4.639,0,0,0-4.683-4.593Z" transform="translate(-43.642 -13.926)" fill="#f0eab2"/>
          </g>
          <path id="Path_3-32" data-name="Path 3" d="M70.247,36.207H4.683A4.639,4.639,0,0,0,0,40.8V80.608a1.546,1.546,0,0,0,1.561,1.531H73.369a1.546,1.546,0,0,0,1.561-1.531V40.8A4.639,4.639,0,0,0,70.247,36.207Z" transform="translate(0 -23.959)" fill="#f0eab2"/>
        </g>
        <g id="lego_1_33" data-name="lego (1)" transform="translate(46.539 7.225)">
          <g id="Group_1-33" data-name="Group 1" transform="translate(7.653)">
            <path id="Path_1-33" data-name="Path 1" d="M33.883,13.926H21.394a4.639,4.639,0,0,0-4.683,4.593v9.186a1.546,1.546,0,0,0,1.561,1.531H37a1.546,1.546,0,0,0,1.561-1.531V18.519a4.639,4.639,0,0,0-4.683-4.593Z" transform="translate(-16.711 -13.926)" fill="#0b2b6a"/>
            <path id="Path_2-33" data-name="Path 2" d="M95.157,13.926H82.668a4.639,4.639,0,0,0-4.683,4.593v9.186a1.546,1.546,0,0,0,1.561,1.531H98.279a1.546,1.546,0,0,0,1.561-1.531V18.519a4.639,4.639,0,0,0-4.683-4.593Z" transform="translate(-77.985 -13.926)" fill="#0b2b6a"/>
          </g>
          <path id="Path_3-33" data-name="Path 3" d="M34.837,36.207H2.323C1.04,36.207,0,38.264,0,40.8V80.608c0,.846.347,1.531.774,1.531H36.386c.427,0,.774-.686.774-1.531V40.8C37.16,38.264,36.12,36.207,34.837,36.207Z" transform="translate(0 -23.959)" fill="#0b2b6a"/>
        </g>
        <g id="lego_1_34" data-name="lego (1)" transform="translate(121.981 7.225)">
          <g id="Group_1-34" data-name="Group 1" transform="translate(7.653)">
            <path id="Path_1-34" data-name="Path 1" d="M33.883,13.926H21.394a4.639,4.639,0,0,0-4.683,4.593v9.186a1.546,1.546,0,0,0,1.561,1.531H37a1.546,1.546,0,0,0,1.561-1.531V18.519a4.639,4.639,0,0,0-4.683-4.593Z" transform="translate(-16.711 -13.926)" fill="#0b2b6a"/>
            <path id="Path_2-34" data-name="Path 2" d="M95.157,13.926H82.668a4.639,4.639,0,0,0-4.683,4.593v9.186a1.546,1.546,0,0,0,1.561,1.531H98.279a1.546,1.546,0,0,0,1.561-1.531V18.519a4.639,4.639,0,0,0-4.683-4.593Z" transform="translate(-77.985 -13.926)" fill="#0b2b6a"/>
          </g>
          <path id="Path_3-34" data-name="Path 3" d="M34.837,36.207H2.323C1.04,36.207,0,38.264,0,40.8V80.608c0,.846.347,1.531.774,1.531H36.386c.427,0,.774-.686.774-1.531V40.8C37.16,38.264,36.12,36.207,34.837,36.207Z" transform="translate(0 -23.959)" fill="#0b2b6a"/>
        </g>
        <g id="lego_1_35" data-name="lego (1)" transform="translate(197.411 7.225)">
          <g id="Group_1-35" data-name="Group 1" transform="translate(7.653)">
            <path id="Path_1-35" data-name="Path 1" d="M33.883,13.926H21.394a4.639,4.639,0,0,0-4.683,4.593v9.186a1.546,1.546,0,0,0,1.561,1.531H37a1.546,1.546,0,0,0,1.561-1.531V18.519a4.639,4.639,0,0,0-4.683-4.593Z" transform="translate(-16.711 -13.926)" fill="#0b2b6a"/>
            <path id="Path_2-35" data-name="Path 2" d="M95.157,13.926H82.668a4.639,4.639,0,0,0-4.683,4.593v9.186a1.546,1.546,0,0,0,1.561,1.531H98.279a1.546,1.546,0,0,0,1.561-1.531V18.519a4.639,4.639,0,0,0-4.683-4.593Z" transform="translate(-77.985 -13.926)" fill="#0b2b6a"/>
          </g>
          <path id="Path_3-35" data-name="Path 3" d="M34.837,36.207H2.323C1.04,36.207,0,38.264,0,40.8V80.608c0,.846.347,1.531.774,1.531H36.386c.427,0,.774-.686.774-1.531V40.8C37.16,38.264,36.12,36.207,34.837,36.207Z" transform="translate(0 -23.959)" fill="#0b2b6a"/>
        </g>
        <g id="Group_18" data-name="Group 18" transform="translate(74.052 22.792)">
          <path id="Polygon_1" data-name="Polygon 1" d="M2.309,0,4.617,3.526H0Z" transform="translate(0 0.907)" fill="#e6ff00"/>
          <path id="Polygon_2" data-name="Polygon 2" d="M2.31,0,4.557,3.556,0,3.6Z" transform="matrix(0.545, 0.839, -0.839, 0.545, 3.046, 0)" fill="#e6ff00"/>
        </g>
        <g id="Group_19" data-name="Group 19" transform="translate(51.075 40.499)">
          <path id="Polygon_1-2" data-name="Polygon 1" d="M2.309,0,4.617,3.526H0Z" transform="translate(0 0.907)" fill="#e6ff00"/>
          <path id="Polygon_2-2" data-name="Polygon 2" d="M2.31,0,4.557,3.556,0,3.6Z" transform="matrix(0.545, 0.839, -0.839, 0.545, 3.046, 0)" fill="#e6ff00"/>
        </g>
        <g id="Group_20" data-name="Group 20" transform="translate(74.052 38.633)">
          <path id="Polygon_1-3" data-name="Polygon 1" d="M2.309,0,4.617,3.526H0Z" transform="translate(0 0.907)" fill="#e6ff00"/>
          <path id="Polygon_2-3" data-name="Polygon 2" d="M2.31,0,4.557,3.556,0,3.6Z" transform="matrix(0.545, 0.839, -0.839, 0.545, 3.046, 0)" fill="#e6ff00"/>
        </g>
        <g id="Group_21" data-name="Group 21" transform="translate(53.856 24.817)">
          <path id="Polygon_1-4" data-name="Polygon 1" d="M2.309,0,4.617,3.526H0Z" transform="translate(0 0.907)" fill="#e6ff00"/>
          <path id="Polygon_2-4" data-name="Polygon 2" d="M2.31,0,4.557,3.556,0,3.6Z" transform="matrix(0.545, 0.839, -0.839, 0.545, 3.046, 0)" fill="#e6ff00"/>
        </g>
        <g id="Group_23" data-name="Group 23" transform="translate(147.153 21.958)">
          <path id="Polygon_1-5" data-name="Polygon 1" d="M2.309,0,4.617,3.526H0Z" transform="translate(0 0.907)" fill="#e6ff00"/>
          <path id="Polygon_2-5" data-name="Polygon 2" d="M2.31,0,4.557,3.556,0,3.6Z" transform="matrix(0.545, 0.839, -0.839, 0.545, 3.046, 0)" fill="#e6ff00"/>
        </g>
        <g id="Group_25" data-name="Group 25" transform="translate(148.616 48.799)">
          <path id="Polygon_1-6" data-name="Polygon 1" d="M2.309,0,4.617,3.526H0Z" transform="translate(0 0.907)" fill="#e6ff00"/>
          <path id="Polygon_2-6" data-name="Polygon 2" d="M2.31,0,4.557,3.556,0,3.6Z" transform="matrix(0.545, 0.839, -0.839, 0.545, 3.046, 0)" fill="#e6ff00"/>
        </g>
        <g id="Group_26" data-name="Group 26" transform="translate(127.176 22.792)">
          <path id="Polygon_1-7" data-name="Polygon 1" d="M2.309,0,4.617,3.526H0Z" transform="translate(0 0.907)" fill="#e6ff00"/>
          <path id="Polygon_2-7" data-name="Polygon 2" d="M2.31,0,4.557,3.556,0,3.6Z" transform="matrix(0.545, 0.839, -0.839, 0.545, 3.046, 0)" fill="#e6ff00"/>
        </g>
        <g id="Group_27" data-name="Group 27" transform="translate(208.107 11.409)">
          <path id="Polygon_1-8" data-name="Polygon 1" d="M2.309,0,4.617,3.526H0Z" transform="translate(0 0.907)" fill="#e6ff00"/>
          <path id="Polygon_2-8" data-name="Polygon 2" d="M2.31,0,4.557,3.556,0,3.6Z" transform="matrix(0.545, 0.839, -0.839, 0.545, 3.046, 0)" fill="#e6ff00"/>
        </g>
        <g id="Group_29" data-name="Group 29" transform="translate(202.033 47.603)">
          <path id="Polygon_1-9" data-name="Polygon 1" d="M2.309,0,4.617,3.526H0Z" transform="translate(0 0.907)" fill="#e6ff00"/>
          <path id="Polygon_2-9" data-name="Polygon 2" d="M2.31,0,4.557,3.556,0,3.6Z" transform="matrix(0.545, 0.839, -0.839, 0.545, 3.046, 0)" fill="#e6ff00"/>
        </g>
        <g id="Group_31" data-name="Group 31" transform="translate(204.814 27.676)">
          <path id="Polygon_1-10" data-name="Polygon 1" d="M2.309,0,4.617,3.526H0Z" transform="translate(0 0.907)" fill="#e6ff00"/>
          <path id="Polygon_2-10" data-name="Polygon 2" d="M2.31,0,4.557,3.556,0,3.6Z" transform="matrix(0.545, 0.839, -0.839, 0.545, 3.046, 0)" fill="#e6ff00"/>
        </g>
        <g id="Group_32" data-name="Group 32" transform="translate(219.229 56.18)">
          <path id="Polygon_1-11" data-name="Polygon 1" d="M2.309,0,4.617,3.526H0Z" transform="translate(0 0.907)" fill="#e6ff00"/>
          <path id="Polygon_2-11" data-name="Polygon 2" d="M2.31,0,4.557,3.556,0,3.6Z" transform="matrix(0.545, 0.839, -0.839, 0.545, 3.046, 0)" fill="#e6ff00"/>
        </g>
        <g id="Group_30" data-name="Group 30" transform="translate(224.791 28.51)">
          <path id="Polygon_1-12" data-name="Polygon 1" d="M2.309,0,4.617,3.526H0Z" transform="translate(0 0.907)" fill="#e6ff00"/>
          <path id="Polygon_2-12" data-name="Polygon 2" d="M2.31,0,4.557,3.556,0,3.6Z" transform="matrix(0.545, 0.839, -0.839, 0.545, 3.046, 0)" fill="#e6ff00"/>
        </g>
        <g id="Group_28" data-name="Group 28" transform="translate(136.909 36.277)">
          <path id="Polygon_1-13" data-name="Polygon 1" d="M2.309,0,4.617,3.526H0Z" transform="translate(0 0.907)" fill="#e6ff00"/>
          <path id="Polygon_2-13" data-name="Polygon 2" d="M2.31,0,4.557,3.556,0,3.6Z" transform="matrix(0.545, 0.839, -0.839, 0.545, 3.046, 0)" fill="#e6ff00"/>
        </g>
        <g id="Group_24" data-name="Group 24" transform="translate(129.957 50.462)">
          <path id="Polygon_1-14" data-name="Polygon 1" d="M2.309,0,4.617,3.526H0Z" transform="translate(0 0.907)" fill="#e6ff00"/>
          <path id="Polygon_2-14" data-name="Polygon 2" d="M2.31,0,4.557,3.556,0,3.6Z" transform="matrix(0.545, 0.839, -0.839, 0.545, 3.046, 0)" fill="#e6ff00"/>
        </g>
        <g id="Group_22" data-name="Group 22" transform="translate(61.173 53.321)">
          <path id="Polygon_1-15" data-name="Polygon 1" d="M2.309,0,4.617,3.526H0Z" transform="translate(0 0.907)" fill="#e6ff00"/>
          <path id="Polygon_2-15" data-name="Polygon 2" d="M2.31,0,4.557,3.556,0,3.6Z" transform="matrix(0.545, 0.839, -0.839, 0.545, 3.046, 0)" fill="#e6ff00"/>
        </g>
      </g>
    </g>
    <text id="_..._with_your_favourite_lego_heroes..." data-name="... with your
favourite lego
heroes..." transform="translate(354 277)" font-size="32" font-family="Rockwell"><tspan x="-86.883" y="0">... with your</tspan><tspan x="-102.375" y="37">favourite lego</tspan><tspan x="-64.703" y="74">heroes...</tspan></text>
    <g id="Mask_Group_11" data-name="Mask Group 11" transform="translate(6.724 353)" clip-path="url(#clip-path-5)" style="mix-blend-mode: color;isolation: isolate">
      <g id="Web_1920_1" data-name="Web 1920 – 1" transform="translate(2.698)" clip-path="url(#clip-path-6)">
        <rect id="Rectangle_33" data-name="Rectangle 33" width="299.066" height="164.61" fill="#fff"/>
        <g id="lego_1_36" data-name="lego (1)" transform="translate(-0.935 103.288)">
          <g id="Group_1-36" data-name="Group 1" transform="translate(9.969)">
            <path id="Path_1-36" data-name="Path 1" d="M34.987,13.926H21.7A4.932,4.932,0,0,0,16.711,18.8v9.755a1.644,1.644,0,0,0,1.662,1.626H38.31a1.644,1.644,0,0,0,1.662-1.626V18.8a4.932,4.932,0,0,0-4.985-4.877Z" transform="translate(-16.711 -13.926)" fill="#216f27"/>
            <path id="Path_2-36" data-name="Path 2" d="M96.261,13.926H82.97A4.932,4.932,0,0,0,77.985,18.8v9.755a1.644,1.644,0,0,0,1.662,1.626H99.584a1.644,1.644,0,0,0,1.661-1.626V18.8a4.932,4.932,0,0,0-4.984-4.877Z" transform="translate(-41.433 -13.926)" fill="#216f27"/>
          </g>
          <path id="Path_3-36" data-name="Path 3" d="M74.766,36.207H4.984A4.932,4.932,0,0,0,0,41.085v42.27a1.644,1.644,0,0,0,1.662,1.626H78.089a1.644,1.644,0,0,0,1.661-1.626V41.085A4.932,4.932,0,0,0,74.766,36.207Z" transform="translate(0 -23.201)" fill="#28822f"/>
        </g>
        <g id="lego_1_37" data-name="lego (1)" transform="translate(156.698 103.288)">
          <g id="Group_1-37" data-name="Group 1" transform="translate(9.969)">
            <path id="Path_1-37" data-name="Path 1" d="M34.987,13.926H21.7A4.932,4.932,0,0,0,16.711,18.8v9.755a1.644,1.644,0,0,0,1.662,1.626H38.31a1.644,1.644,0,0,0,1.662-1.626V18.8a4.932,4.932,0,0,0-4.985-4.877Z" transform="translate(-16.711 -13.926)" fill="#216f27"/>
            <path id="Path_2-37" data-name="Path 2" d="M96.261,13.926H82.97A4.932,4.932,0,0,0,77.985,18.8v9.755a1.644,1.644,0,0,0,1.662,1.626H99.584a1.644,1.644,0,0,0,1.661-1.626V18.8a4.932,4.932,0,0,0-4.984-4.877Z" transform="translate(-41.433 -13.926)" fill="#216f27"/>
          </g>
          <path id="Path_3-37" data-name="Path 3" d="M74.766,36.207H4.984A4.932,4.932,0,0,0,0,41.085v42.27a1.644,1.644,0,0,0,1.662,1.626H78.089a1.644,1.644,0,0,0,1.661-1.626V41.085A4.932,4.932,0,0,0,74.766,36.207Z" transform="translate(0 -23.201)" fill="#28822f"/>
        </g>
        <g id="lego_1_38" data-name="lego (1)" transform="translate(-14.642 59.696)">
          <g id="Group_1-38" data-name="Group 1" transform="translate(9.969)">
            <path id="Path_1-38" data-name="Path 1" d="M34.987,13.926H21.7A4.932,4.932,0,0,0,16.711,18.8v9.755a1.644,1.644,0,0,0,1.662,1.626H38.31a1.644,1.644,0,0,0,1.662-1.626V18.8a4.932,4.932,0,0,0-4.985-4.877Z" transform="translate(-16.711 -13.926)" fill="#216f27"/>
            <path id="Path_2-38" data-name="Path 2" d="M96.261,13.926H82.97A4.932,4.932,0,0,0,77.985,18.8v9.755a1.644,1.644,0,0,0,1.662,1.626H99.584a1.644,1.644,0,0,0,1.661-1.626V18.8a4.932,4.932,0,0,0-4.984-4.877Z" transform="translate(-41.433 -13.926)" fill="#216f27"/>
          </g>
          <path id="Path_3-38" data-name="Path 3" d="M74.766,36.207H4.984A4.932,4.932,0,0,0,0,41.085v42.27a1.644,1.644,0,0,0,1.662,1.626H78.089a1.644,1.644,0,0,0,1.661-1.626V41.085A4.932,4.932,0,0,0,74.766,36.207Z" transform="translate(0 -23.201)" fill="#2b9834"/>
        </g>
        <g id="lego_1_39" data-name="lego (1)" transform="translate(78.193 103.288)">
          <g id="Group_1-39" data-name="Group 1" transform="translate(9.969)">
            <path id="Path_1-39" data-name="Path 1" d="M34.987,13.926H21.7A4.932,4.932,0,0,0,16.711,18.8v9.755a1.644,1.644,0,0,0,1.662,1.626H38.31a1.644,1.644,0,0,0,1.662-1.626V18.8a4.932,4.932,0,0,0-4.985-4.877Z" transform="translate(-16.711 -13.926)" fill="#26692b"/>
            <path id="Path_2-39" data-name="Path 2" d="M96.261,13.926H82.97A4.932,4.932,0,0,0,77.985,18.8v9.755a1.644,1.644,0,0,0,1.662,1.626H99.584a1.644,1.644,0,0,0,1.661-1.626V18.8a4.932,4.932,0,0,0-4.984-4.877Z" transform="translate(-41.433 -13.926)" fill="#26692b"/>
          </g>
          <path id="Path_3-39" data-name="Path 3" d="M74.766,36.207H4.984A4.932,4.932,0,0,0,0,41.085v42.27a1.644,1.644,0,0,0,1.662,1.626H78.089a1.644,1.644,0,0,0,1.661-1.626V41.085A4.932,4.932,0,0,0,74.766,36.207Z" transform="translate(0 -23.201)" fill="#2c7131"/>
        </g>
        <g id="lego_1_40" data-name="lego (1)" transform="translate(142.99 59.696)">
          <g id="Group_1-40" data-name="Group 1" transform="translate(9.969)">
            <path id="Path_1-40" data-name="Path 1" d="M34.987,13.926H21.7A4.932,4.932,0,0,0,16.711,18.8v9.755a1.644,1.644,0,0,0,1.662,1.626H38.31a1.644,1.644,0,0,0,1.662-1.626V18.8a4.932,4.932,0,0,0-4.985-4.877Z" transform="translate(-16.711 -13.926)" fill="#216f27"/>
            <path id="Path_2-40" data-name="Path 2" d="M96.261,13.926H82.97A4.932,4.932,0,0,0,77.985,18.8v9.755a1.644,1.644,0,0,0,1.662,1.626H99.584a1.644,1.644,0,0,0,1.661-1.626V18.8a4.932,4.932,0,0,0-4.984-4.877Z" transform="translate(-41.433 -13.926)" fill="#216f27"/>
          </g>
          <path id="Path_3-40" data-name="Path 3" d="M74.766,36.207H4.984A4.932,4.932,0,0,0,0,41.085v42.27a1.644,1.644,0,0,0,1.662,1.626H78.089a1.644,1.644,0,0,0,1.661-1.626V41.085A4.932,4.932,0,0,0,74.766,36.207Z" transform="translate(0 -23.201)" fill="#2b9834"/>
        </g>
        <g id="lego_1_41" data-name="lego (1)" transform="translate(234.735 103.288)">
          <g id="Group_1-41" data-name="Group 1" transform="translate(9.969)">
            <path id="Path_1-41" data-name="Path 1" d="M34.987,13.926H21.7A4.932,4.932,0,0,0,16.711,18.8v9.755a1.644,1.644,0,0,0,1.662,1.626H38.31a1.644,1.644,0,0,0,1.662-1.626V18.8a4.932,4.932,0,0,0-4.985-4.877Z" transform="translate(-16.711 -13.926)" fill="#26692b"/>
            <path id="Path_2-41" data-name="Path 2" d="M96.261,13.926H82.97A4.932,4.932,0,0,0,77.985,18.8v9.755a1.644,1.644,0,0,0,1.662,1.626H99.584a1.644,1.644,0,0,0,1.661-1.626V18.8a4.932,4.932,0,0,0-4.984-4.877Z" transform="translate(-41.433 -13.926)" fill="#26692b"/>
          </g>
          <path id="Path_3-41" data-name="Path 3" d="M74.766,36.207H4.984A4.932,4.932,0,0,0,0,41.085v42.27a1.644,1.644,0,0,0,1.662,1.626H78.089a1.644,1.644,0,0,0,1.661-1.626V41.085A4.932,4.932,0,0,0,74.766,36.207Z" transform="translate(0 -23.201)" fill="#2c7131"/>
        </g>
        <g id="lego_1_42" data-name="lego (1)" transform="translate(64.486 59.696)">
          <g id="Group_1-42" data-name="Group 1" transform="translate(9.969)">
            <path id="Path_1-42" data-name="Path 1" d="M34.987,13.926H21.7A4.932,4.932,0,0,0,16.711,18.8v9.755a1.644,1.644,0,0,0,1.662,1.626H38.31a1.644,1.644,0,0,0,1.662-1.626V18.8a4.932,4.932,0,0,0-4.985-4.877Z" transform="translate(-16.711 -13.926)" fill="#26692b"/>
            <path id="Path_2-42" data-name="Path 2" d="M96.261,13.926H82.97A4.932,4.932,0,0,0,77.985,18.8v9.755a1.644,1.644,0,0,0,1.662,1.626H99.584a1.644,1.644,0,0,0,1.661-1.626V18.8a4.932,4.932,0,0,0-4.984-4.877Z" transform="translate(-41.433 -13.926)" fill="#26692b"/>
          </g>
          <path id="Path_3-42" data-name="Path 3" d="M74.766,36.207H4.984A4.932,4.932,0,0,0,0,41.085v42.27a1.644,1.644,0,0,0,1.662,1.626H78.089a1.644,1.644,0,0,0,1.661-1.626V41.085A4.932,4.932,0,0,0,74.766,36.207Z" transform="translate(0 -23.201)" fill="#22a62d"/>
        </g>
        <g id="lego_1_43" data-name="lego (1)" transform="translate(221.028 59.696)">
          <g id="Group_1-43" data-name="Group 1" transform="translate(9.969)">
            <path id="Path_1-43" data-name="Path 1" d="M34.987,13.926H21.7A4.932,4.932,0,0,0,16.711,18.8v9.755a1.644,1.644,0,0,0,1.662,1.626H38.31a1.644,1.644,0,0,0,1.662-1.626V18.8a4.932,4.932,0,0,0-4.985-4.877Z" transform="translate(-16.711 -13.926)" fill="#26692b"/>
            <path id="Path_2-43" data-name="Path 2" d="M96.261,13.926H82.97A4.932,4.932,0,0,0,77.985,18.8v9.755a1.644,1.644,0,0,0,1.662,1.626H99.584a1.644,1.644,0,0,0,1.661-1.626V18.8a4.932,4.932,0,0,0-4.984-4.877Z" transform="translate(-41.433 -13.926)" fill="#26692b"/>
          </g>
          <path id="Path_3-43" data-name="Path 3" d="M74.766,36.207H4.984A4.932,4.932,0,0,0,0,41.085v42.27a1.644,1.644,0,0,0,1.662,1.626H78.089a1.644,1.644,0,0,0,1.661-1.626V41.085A4.932,4.932,0,0,0,74.766,36.207Z" transform="translate(0 -23.201)" fill="#22a62d"/>
        </g>
        <g id="lego_1_44" data-name="lego (1)" transform="translate(-1.013 15.191)">
          <g id="Group_1-44" data-name="Group 1" transform="translate(9.969)">
            <path id="Path_1-44" data-name="Path 1" d="M34.987,13.926H21.7A4.932,4.932,0,0,0,16.711,18.8v9.755a1.644,1.644,0,0,0,1.662,1.626H38.31a1.644,1.644,0,0,0,1.662-1.626V18.8a4.932,4.932,0,0,0-4.985-4.877Z" transform="translate(-16.711 -13.926)" fill="#216f27"/>
            <path id="Path_2-44" data-name="Path 2" d="M96.261,13.926H82.97A4.932,4.932,0,0,0,77.985,18.8v9.755a1.644,1.644,0,0,0,1.662,1.626H99.584a1.644,1.644,0,0,0,1.661-1.626V18.8a4.932,4.932,0,0,0-4.984-4.877Z" transform="translate(-41.433 -13.926)" fill="#216f27"/>
          </g>
          <path id="Path_3-44" data-name="Path 3" d="M74.766,36.207H4.984A4.932,4.932,0,0,0,0,41.085v42.27a1.644,1.644,0,0,0,1.662,1.626H78.089a1.644,1.644,0,0,0,1.661-1.626V41.085A4.932,4.932,0,0,0,74.766,36.207Z" transform="translate(0 -23.201)" fill="#8df4ff"/>
        </g>
        <g id="lego_1_45" data-name="lego (1)" transform="translate(156.62 15.191)">
          <g id="Group_1-45" data-name="Group 1" transform="translate(9.969)">
            <path id="Path_1-45" data-name="Path 1" d="M34.987,13.926H21.7A4.932,4.932,0,0,0,16.711,18.8v9.755a1.644,1.644,0,0,0,1.662,1.626H38.31a1.644,1.644,0,0,0,1.662-1.626V18.8a4.932,4.932,0,0,0-4.985-4.877Z" transform="translate(-16.711 -13.926)" fill="#216f27"/>
            <path id="Path_2-45" data-name="Path 2" d="M96.261,13.926H82.97A4.932,4.932,0,0,0,77.985,18.8v9.755a1.644,1.644,0,0,0,1.662,1.626H99.584a1.644,1.644,0,0,0,1.661-1.626V18.8a4.932,4.932,0,0,0-4.984-4.877Z" transform="translate(-41.433 -13.926)" fill="#216f27"/>
          </g>
          <path id="Path_3-45" data-name="Path 3" d="M74.766,36.207H4.984A4.932,4.932,0,0,0,0,41.085v42.27a1.644,1.644,0,0,0,1.662,1.626H78.089a1.644,1.644,0,0,0,1.661-1.626V41.085A4.932,4.932,0,0,0,74.766,36.207Z" transform="translate(0 -23.201)" fill="#8df4ff"/>
        </g>
        <g id="lego_1_46" data-name="lego (1)" transform="translate(78.427 15.191)">
          <g id="Group_1-46" data-name="Group 1" transform="translate(9.969)">
            <path id="Path_1-46" data-name="Path 1" d="M34.987,13.926H21.7A4.932,4.932,0,0,0,16.711,18.8v9.755a1.644,1.644,0,0,0,1.662,1.626H38.31a1.644,1.644,0,0,0,1.662-1.626V18.8a4.932,4.932,0,0,0-4.985-4.877Z" transform="translate(-16.711 -13.926)" fill="#26692b"/>
            <path id="Path_2-46" data-name="Path 2" d="M96.261,13.926H82.97A4.932,4.932,0,0,0,77.985,18.8v9.755a1.644,1.644,0,0,0,1.662,1.626H99.584a1.644,1.644,0,0,0,1.661-1.626V18.8a4.932,4.932,0,0,0-4.984-4.877Z" transform="translate(-41.433 -13.926)" fill="#26692b"/>
          </g>
          <path id="Path_3-46" data-name="Path 3" d="M74.766,36.207H4.984A4.932,4.932,0,0,0,0,41.085v42.27a1.644,1.644,0,0,0,1.662,1.626H78.089a1.644,1.644,0,0,0,1.661-1.626V41.085A4.932,4.932,0,0,0,74.766,36.207Z" transform="translate(0 -23.201)" fill="#7af2ff"/>
        </g>
        <g id="lego_1_47" data-name="lego (1)" transform="translate(234.657 15.191)">
          <g id="Group_1-47" data-name="Group 1" transform="translate(9.969)">
            <path id="Path_1-47" data-name="Path 1" d="M34.987,13.926H21.7A4.932,4.932,0,0,0,16.711,18.8v9.755a1.644,1.644,0,0,0,1.662,1.626H38.31a1.644,1.644,0,0,0,1.662-1.626V18.8a4.932,4.932,0,0,0-4.985-4.877Z" transform="translate(-16.711 -13.926)" fill="#26692b"/>
            <path id="Path_2-47" data-name="Path 2" d="M96.261,13.926H82.97A4.932,4.932,0,0,0,77.985,18.8v9.755a1.644,1.644,0,0,0,1.662,1.626H99.584a1.644,1.644,0,0,0,1.661-1.626V18.8a4.932,4.932,0,0,0-4.984-4.877Z" transform="translate(-41.433 -13.926)" fill="#26692b"/>
          </g>
          <path id="Path_3-47" data-name="Path 3" d="M74.766,36.207H4.984A4.932,4.932,0,0,0,0,41.085v42.27a1.644,1.644,0,0,0,1.662,1.626H78.089a1.644,1.644,0,0,0,1.661-1.626V41.085A4.932,4.932,0,0,0,74.766,36.207Z" transform="translate(0 -23.201)" fill="#7af2ff"/>
        </g>
        <g id="lego_1_48" data-name="lego (1)" transform="translate(-13.474 -28.553)">
          <g id="Group_1-48" data-name="Group 1" transform="translate(9.969)">
            <path id="Path_1-48" data-name="Path 1" d="M34.987,13.926H21.7A4.932,4.932,0,0,0,16.711,18.8v9.755a1.644,1.644,0,0,0,1.662,1.626H38.31a1.644,1.644,0,0,0,1.662-1.626V18.8a4.932,4.932,0,0,0-4.985-4.877Z" transform="translate(-16.711 -13.926)" fill="#216f27"/>
            <path id="Path_2-48" data-name="Path 2" d="M96.261,13.926H82.97A4.932,4.932,0,0,0,77.985,18.8v9.755a1.644,1.644,0,0,0,1.662,1.626H99.584a1.644,1.644,0,0,0,1.661-1.626V18.8a4.932,4.932,0,0,0-4.984-4.877Z" transform="translate(-41.433 -13.926)" fill="#216f27"/>
          </g>
          <path id="Path_3-48" data-name="Path 3" d="M74.766,36.207H4.984A4.932,4.932,0,0,0,0,41.085v42.27a1.644,1.644,0,0,0,1.662,1.626H78.089a1.644,1.644,0,0,0,1.661-1.626V41.085A4.932,4.932,0,0,0,74.766,36.207Z" transform="translate(0 -23.201)" fill="#bff8fe"/>
        </g>
        <g id="lego_1_49" data-name="lego (1)" transform="translate(144.159 -28.553)">
          <g id="Group_1-49" data-name="Group 1" transform="translate(9.969)">
            <path id="Path_1-49" data-name="Path 1" d="M34.987,13.926H21.7A4.932,4.932,0,0,0,16.711,18.8v9.755a1.644,1.644,0,0,0,1.662,1.626H38.31a1.644,1.644,0,0,0,1.662-1.626V18.8a4.932,4.932,0,0,0-4.985-4.877Z" transform="translate(-16.711 -13.926)" fill="#216f27"/>
            <path id="Path_2-49" data-name="Path 2" d="M96.261,13.926H82.97A4.932,4.932,0,0,0,77.985,18.8v9.755a1.644,1.644,0,0,0,1.662,1.626H99.584a1.644,1.644,0,0,0,1.661-1.626V18.8a4.932,4.932,0,0,0-4.984-4.877Z" transform="translate(-41.433 -13.926)" fill="#216f27"/>
          </g>
          <path id="Path_3-49" data-name="Path 3" d="M74.766,36.207H4.984A4.932,4.932,0,0,0,0,41.085v42.27a1.644,1.644,0,0,0,1.662,1.626H78.089a1.644,1.644,0,0,0,1.661-1.626V41.085A4.932,4.932,0,0,0,74.766,36.207Z" transform="translate(0 -23.201)" fill="#bff8fe"/>
        </g>
        <g id="lego_1_50" data-name="lego (1)" transform="translate(65.966 -28.553)">
          <g id="Group_1-50" data-name="Group 1" transform="translate(9.969)">
            <path id="Path_1-50" data-name="Path 1" d="M34.987,13.926H21.7A4.932,4.932,0,0,0,16.711,18.8v9.755a1.644,1.644,0,0,0,1.662,1.626H38.31a1.644,1.644,0,0,0,1.662-1.626V18.8a4.932,4.932,0,0,0-4.985-4.877Z" transform="translate(-16.711 -13.926)" fill="#26692b"/>
            <path id="Path_2-50" data-name="Path 2" d="M96.261,13.926H82.97A4.932,4.932,0,0,0,77.985,18.8v9.755a1.644,1.644,0,0,0,1.662,1.626H99.584a1.644,1.644,0,0,0,1.661-1.626V18.8a4.932,4.932,0,0,0-4.984-4.877Z" transform="translate(-41.433 -13.926)" fill="#26692b"/>
          </g>
          <path id="Path_3-50" data-name="Path 3" d="M74.766,36.207H4.984A4.932,4.932,0,0,0,0,41.085v42.27a1.644,1.644,0,0,0,1.662,1.626H78.089a1.644,1.644,0,0,0,1.661-1.626V41.085A4.932,4.932,0,0,0,74.766,36.207Z" transform="translate(0 -23.201)" fill="#d4fbff"/>
        </g>
        <g id="lego_1_51" data-name="lego (1)" transform="translate(222.196 -28.553)">
          <g id="Group_1-51" data-name="Group 1" transform="translate(9.969)">
            <path id="Path_1-51" data-name="Path 1" d="M34.987,13.926H21.7A4.932,4.932,0,0,0,16.711,18.8v9.755a1.644,1.644,0,0,0,1.662,1.626H38.31a1.644,1.644,0,0,0,1.662-1.626V18.8a4.932,4.932,0,0,0-4.985-4.877Z" transform="translate(-16.711 -13.926)" fill="#26692b"/>
            <path id="Path_2-51" data-name="Path 2" d="M96.261,13.926H82.97A4.932,4.932,0,0,0,77.985,18.8v9.755a1.644,1.644,0,0,0,1.662,1.626H99.584a1.644,1.644,0,0,0,1.661-1.626V18.8a4.932,4.932,0,0,0-4.984-4.877Z" transform="translate(-41.433 -13.926)" fill="#26692b"/>
          </g>
          <path id="Path_3-51" data-name="Path 3" d="M74.766,36.207H4.984A4.932,4.932,0,0,0,0,41.085v42.27a1.644,1.644,0,0,0,1.662,1.626H78.089a1.644,1.644,0,0,0,1.661-1.626V41.085A4.932,4.932,0,0,0,74.766,36.207Z" transform="translate(0 -23.201)" fill="#d4fbff"/>
        </g>
        <g id="castle_1_" data-name="castle (1)" transform="translate(211.371 5.944)">
          <path id="Path_34" data-name="Path 34" d="M66.844,6.267h9.969v6.1H66.844Z" transform="translate(-26.969 -5.124)" fill="#aae79a"/>
          <path id="Path_35" data-name="Path 35" d="M66.844,6.267h2.492v6.1H66.844Z" transform="translate(-26.969 -5.124)" fill="#00cebb"/>
          <path id="Path_36" data-name="Path 36" d="M70.071,34.821V39.7H50.133V34.821L60.1,25.067Z" transform="translate(-20.227 -12.95)" fill="#ffe462"/>
          <path id="Path_37" data-name="Path 37" d="M65.58,25.067,63.711,26.9l8.1,7.926h3.738Z" transform="translate(-25.705 -12.95)" fill="#ffc45e"/>
          <path id="Path_38" data-name="Path 38" d="M50.133,41.778H70.071v4.877H50.133Z" transform="translate(-20.227 -19.906)" fill="#f696c3"/>
          <path id="Path_39" data-name="Path 39" d="M77.289,41.778h3.738v4.877H77.289Z" transform="translate(-31.183 -19.906)" fill="#f05475"/>
          <path id="Path_40" data-name="Path 40" d="M54.311,50.133H69.264V70.862H54.311Z" transform="translate(-21.912 -23.384)" fill="#ffe462"/>
          <path id="Path_41" data-name="Path 41" d="M54.311,50.133H69.264v2.439H54.311Z" transform="translate(-21.912 -23.384)" fill="#ffc45e"/>
          <path id="Path_42" data-name="Path 42" d="M75.2,50.133h2.492V70.862H75.2Z" transform="translate(-30.34 -23.384)" fill="#ffc45e"/>
          <path id="Path_43" data-name="Path 43" d="M67.651,65.8H62.667V60.928a2.493,2.493,0,0,1,4.984,0Z" transform="translate(-25.283 -26.862)" fill="#fff"/>
          <path id="Path_44" data-name="Path 44" d="M12.533,64.756h4.984v4.877H12.533Z" transform="translate(-5.057 -29.471)" fill="#ffe462"/>
          <path id="Path_45" data-name="Path 45" d="M16.711,64.756H19.2v4.877H16.711Z" transform="translate(-6.742 -29.471)" fill="#ffc45e"/>
          <path id="Path_46" data-name="Path 46" d="M29.244,64.756h4.984v4.877H29.244Z" transform="translate(-11.799 -29.471)" fill="#ffe462"/>
          <path id="Path_47" data-name="Path 47" d="M33.422,64.756h2.492v4.877H33.422Z" transform="translate(-13.485 -29.471)" fill="#ffc45e"/>
          <path id="Path_48" data-name="Path 48" d="M12.533,73.111H27.487v31.7H12.533Z" transform="translate(-5.057 -32.949)" fill="#ffe462"/>
          <path id="Path_49" data-name="Path 49" d="M33.422,73.111h2.492v31.7H33.422Z" transform="translate(-13.485 -32.949)" fill="#ffc45e"/>
          <path id="Path_50" data-name="Path 50" d="M25.873,97.138H20.889V92.261a2.493,2.493,0,0,1,4.984,0Z" transform="translate(-8.428 -39.906)" fill="#fff"/>
          <path id="Path_51" data-name="Path 51" d="M12.533,73.111H27.487v4.877H12.533Z" transform="translate(-5.057 -32.949)" fill="#f696c3"/>
          <path id="Path_52" data-name="Path 52" d="M33.422,73.111h2.492v4.877H33.422Z" transform="translate(-13.485 -32.949)" fill="#f05475"/>
          <path id="Path_53" data-name="Path 53" d="M96.089,64.756h4.984v4.877H96.089Z" transform="translate(-38.768 -29.471)" fill="#ffe462"/>
          <path id="Path_54" data-name="Path 54" d="M100.267,64.756h2.492v4.877h-2.492Z" transform="translate(-40.454 -29.471)" fill="#ffc45e"/>
          <path id="Path_55" data-name="Path 55" d="M112.8,64.756h4.984v4.877H112.8Z" transform="translate(-45.51 -29.471)" fill="#ffe462"/>
          <path id="Path_56" data-name="Path 56" d="M116.978,64.756h2.492v4.877h-2.492Z" transform="translate(-47.196 -29.471)" fill="#ffc45e"/>
          <path id="Path_57" data-name="Path 57" d="M96.089,73.111h14.953v31.7H96.089Z" transform="translate(-38.768 -32.949)" fill="#ffe462"/>
          <path id="Path_58" data-name="Path 58" d="M116.978,73.111h2.492v31.7h-2.492Z" transform="translate(-47.196 -32.949)" fill="#ffc45e"/>
          <path id="Path_59" data-name="Path 59" d="M96.089,73.111h14.953v4.877H96.089Z" transform="translate(-38.768 -32.949)" fill="#f696c3"/>
          <path id="Path_60" data-name="Path 60" d="M116.978,73.111h2.492v4.877h-2.492Z" transform="translate(-47.196 -32.949)" fill="#f05475"/>
          <path id="Path_61" data-name="Path 61" d="M72.491,107.422V79.378H67.507v3.658H62.522V79.378H57.538v3.658H52.553V79.378H47.569v3.658H42.584V79.378H37.6v28.045Z" transform="translate(-15.17 -35.558)" fill="#ffe462"/>
          <path id="Path_62" data-name="Path 62" d="M91.911,79.378H94.4v28.045H91.911Z" transform="translate(-37.082 -35.558)" fill="#ffc45e"/>
          <path id="Path_63" data-name="Path 63" d="M50.133,119.067H70.071v4.877H50.133Z" transform="translate(-20.227 -52.08)" fill="#f696c3"/>
          <path id="Path_64" data-name="Path 64" d="M77.289,119.067h3.738v4.877H77.289Z" transform="translate(-31.183 -52.08)" fill="#f05475"/>
          <path id="Path_65" data-name="Path 65" d="M54.311,108.632V94H69.264v14.632" transform="translate(-21.912 -41.645)" fill="#aae79a"/>
          <path id="Path_66" data-name="Path 66" d="M75.2,108.632V94h2.492v14.632" transform="translate(-30.34 -41.645)" fill="#00cebb"/>
          <path id="Path_67" data-name="Path 67" d="M109.429,97.138h-4.984V92.261a2.493,2.493,0,0,1,4.984,0Z" transform="translate(-42.139 -39.906)" fill="#fff"/>
          <g id="Group_14" data-name="Group 14" transform="translate(12.461 67.063)">
            <path id="Path_68" data-name="Path 68" d="M20.889,119.2h2.492v2.286H20.889Z" transform="translate(-20.889 -119.197)" fill="#fff"/>
          </g>
          <g id="Group_17" data-name="Group 17">
            <g id="Group_15" data-name="Group 15" transform="translate(62.305 67.063)">
              <path id="Path_69" data-name="Path 69" d="M104.444,119.2h2.492v2.286h-2.492Z" transform="translate(-104.444 -119.197)" fill="#fff"/>
            </g>
            <g id="Group_16" data-name="Group 16">
              <path id="Path_70" data-name="Path 70" d="M22.591,87.864a3.626,3.626,0,0,0-3.66,3.582v6.02h7.321v-6.02a3.626,3.626,0,0,0-3.66-3.582Zm1.324,7.316H21.267V91.446a1.324,1.324,0,0,1,2.648,0Z" transform="translate(-7.638 -39.091)"/>
              <path id="Path_71" data-name="Path 71" d="M109.807,91.446a3.661,3.661,0,0,0-7.321,0v6.02h7.321Zm-2.336,3.734h-2.648V91.446a1.324,1.324,0,0,1,2.648,0Z" transform="translate(-41.349 -39.091)"/>
              <path id="Path_72" data-name="Path 72" d="M60.708,60.112v6.02h7.321v-6.02a3.661,3.661,0,0,0-7.321,0Zm4.984,0v3.734H63.045V60.112a1.324,1.324,0,0,1,2.648,0Z" transform="translate(-24.493 -26.047)"/>
              <path id="Path_73" data-name="Path 73" d="M73.442,75.03V38.45H66.122v4.877H63.474V38.45H56.153v8.535H51.168v3.658H48.52V42.031H46.184v4.954H41.2v3.658H38.551V46.985H33.567V32.2H46.184v7.392H48.52V32.2h2.492V25.707l-9.969-9.755V12.691h9.969V4.308H38.707V15.952l-9.969,9.755V32.2h2.492V50.643H28.583V46.985H23.6V38.45H16.277v4.877H13.629V38.45H6.308V75.03H0v2.286H79.751V75.03ZM41.044,6.595h7.632v3.81H41.044ZM39.875,18.042l7.149,7h-14.3Zm-8.8,11.872V27.323h17.6v2.591ZM18.614,40.736h2.648v2.591H18.614Zm-9.969,0h2.648v2.591H8.645Zm0,4.877H21.262V48.2H8.645ZM48.676,75.03h-17.6V72.439h17.6ZM33.567,70.152V57.807h5.14V70.152Zm7.477,0V57.807h5.14V70.152ZM56.153,50.491V75.03h-5.14V70.152H48.52V55.52H31.231V70.152H28.738V75.03H23.6V63.979H21.262V75.03H8.645V50.491H21.262v11.05H23.6V49.271h2.648v3.658h7.321V49.271h2.648v3.658h7.321V49.271h2.648v3.658H53.5V49.271h2.648Zm2.336-9.755h2.648v2.591H58.489ZM71.106,75.03H58.489V50.491H71.106Zm0-26.825H58.489V45.613H71.106Zm0-4.877H68.458V40.736h2.648Z" transform="translate(0 -4.308)"/>
              <path id="Path_74" data-name="Path 74" d="M16.711,115.019H19.2v2.286H16.711Z" transform="translate(-6.742 -50.395)"/>
              <path id="Path_75" data-name="Path 75" d="M100.267,115.019h2.492v2.286h-2.492Z" transform="translate(-40.454 -50.395)"/>
            </g>
          </g>
        </g>
        <g id="castle_2_" data-name="castle (2)" transform="translate(20.717 16.461)">
          <path id="Path_76" data-name="Path 76" d="M8.725,54.5l5.316-10.405L19.358,54.5" transform="translate(-3.52 -19.915)" fill="#ed5481"/>
          <path id="Path_77" data-name="Path 77" d="M18.639,54.829a1.066,1.066,0,0,1-.952-.575L13.321,45.71,8.956,54.254a1.074,1.074,0,0,1-1.426.465,1.03,1.03,0,0,1-.476-1.4L12.37,42.918a1.12,1.12,0,0,1,1.9,0L19.59,53.323a1.021,1.021,0,0,1-.046,1.012A1.069,1.069,0,0,1,18.639,54.829Z" transform="translate(-2.801 -19.206)"/>
          <rect id="Rectangle_1" data-name="Rectangle 1" width="66.991" height="2.081" transform="translate(0 60.349)"/>
          <path id="Path_78" data-name="Path 78" d="M7.13,61.5H20.954V88.55H7.13V61.5" transform="translate(-2.877 -27.16)" fill="#eac583"/>
          <path id="Path_79" data-name="Path 79" d="M20.234,88.848H6.411a1.052,1.052,0,0,1-1.063-1.04V60.755a1.052,1.052,0,0,1,1.063-1.041H20.234a1.052,1.052,0,0,1,1.063,1.04V87.808a1.052,1.052,0,0,1-1.064,1.041ZM7.474,86.767h11.7V61.8H7.474Z" transform="translate(-2.158 -26.418)"/>
          <path id="Path_91" data-name="Path 91" d="M20.234,88.848H6.411a1.052,1.052,0,0,1-1.063-1.04V60.755a1.052,1.052,0,0,1,1.063-1.041H20.234a1.052,1.052,0,0,1,1.063,1.04V87.808a1.052,1.052,0,0,1-1.064,1.041ZM7.474,86.767h11.7V61.8H7.474Z" transform="translate(-2.158 -26.418)"/>
          <rect id="Rectangle_2" data-name="Rectangle 2" width="17.014" height="2.081" transform="translate(1.063 33.296)"/>
          <rect id="Rectangle_3" data-name="Rectangle 3" width="2.127" height="5.202" transform="translate(9.57 19.77)"/>
          <path id="Path_80" data-name="Path 80" d="M87.155,54.5l5.316-10.405L97.789,54.5" transform="translate(-35.164 -19.915)" fill="#ed5481"/>
          <path id="Path_81" data-name="Path 81" d="M97.07,54.829a1.066,1.066,0,0,1-.952-.575L91.752,45.71l-4.365,8.544a1.074,1.074,0,0,1-1.426.465,1.03,1.03,0,0,1-.476-1.4L90.8,42.918a1.12,1.12,0,0,1,1.9,0L98.02,53.323a1.021,1.021,0,0,1-.046,1.012A1.069,1.069,0,0,1,97.07,54.829Z" transform="translate(-34.444 -19.206)"/>
          <rect id="Rectangle_4" data-name="Rectangle 4" width="2.127" height="7.284" transform="translate(10.633 40.579)"/>
          <path id="Path_82" data-name="Path 82" d="M83.778,61.5H97.6V88.55H83.778V61.5" transform="translate(-33.801 -27.16)" fill="#eac583"/>
          <path id="Path_83" data-name="Path 83" d="M96.883,88.848H83.059A1.052,1.052,0,0,1,82,87.808V60.755a1.052,1.052,0,0,1,1.063-1.041H96.883a1.052,1.052,0,0,1,1.063,1.04V87.808a1.052,1.052,0,0,1-1.063,1.041Zm-12.76-2.081h11.7V61.8h-11.7Z" transform="translate(-33.082 -26.418)"/>
          <rect id="Rectangle_5" data-name="Rectangle 5" width="17.014" height="2.081" transform="translate(49.977 33.296)"/>
          <rect id="Rectangle_6" data-name="Rectangle 6" width="2.127" height="5.202" transform="translate(56.357 19.77)"/>
          <rect id="Rectangle_7" data-name="Rectangle 7" width="2.127" height="7.284" transform="translate(55.294 40.579)"/>
          <rect id="Rectangle_8" data-name="Rectangle 8" width="31.9" height="49.944" transform="translate(18.077 11.445)" fill="#eac583"/>
          <path id="Path_84" data-name="Path 84" d="M61.484,72.524h-31.9a1.052,1.052,0,0,1-1.063-1.04V21.539A1.052,1.052,0,0,1,29.583,20.5h31.9a1.052,1.052,0,0,1,1.063,1.04V71.483a1.052,1.052,0,0,1-1.063,1.041ZM30.647,70.443H60.421V22.58H30.647Z" transform="translate(-11.507 -10.094)"/>
          <path id="Path_85" data-name="Path 85" d="M54.883,36.542h0a3.5,3.5,0,0,1,3.19,3.732v6.673h-6.38V40.274A3.5,3.5,0,0,1,54.883,36.542Z" transform="translate(-20.856 -16.772)" fill="#fbad4a"/>
          <path id="Path_86" data-name="Path 86" d="M57.354,47.245h-6.38A1.052,1.052,0,0,1,49.91,46.2V39.532a4.54,4.54,0,0,1,4.252-4.772,4.541,4.541,0,0,1,4.254,4.772V46.2a1.052,1.052,0,0,1-1.063,1.041Zm-5.317-2.081h4.253V39.532a2.493,2.493,0,0,0-2.126-2.692h0a2.493,2.493,0,0,0-2.126,2.692v5.632Z" transform="translate(-20.137 -16.03)"/>
          <path id="Path_87" data-name="Path 87" d="M44.563,91.22V77.874A7.472,7.472,0,0,1,52,70.41h0a7.473,7.473,0,0,1,7.443,7.464V91.22" transform="translate(-17.979 -30.871)" fill="#997843"/>
          <path id="Path_88" data-name="Path 88" d="M58.731,91.518a1.052,1.052,0,0,1-1.063-1.04V77.131a6.38,6.38,0,1,0-12.76,0V90.477a1.064,1.064,0,0,1-2.127,0V77.131a8.507,8.507,0,0,1,17.013,0V90.477A1.052,1.052,0,0,1,58.731,91.518Z" transform="translate(-17.26 -30.128)"/>
          <rect id="Rectangle_9" data-name="Rectangle 9" width="2.127" height="20.81" transform="translate(32.964 39.539)"/>
          <path id="Path_89" data-name="Path 89" d="M24.955,4.456H32.4V8.618h8.507V4.456h6.38V8.618h8.507V4.456h7.443v10.4H24.955Z" transform="translate(-10.068 -3.416)" fill="#eac583"/>
          <path id="Path_90" data-name="Path 90" d="M62.516,15.16H24.236a1.052,1.052,0,0,1-1.063-1.04V3.714a1.052,1.052,0,0,1,1.063-1.041h7.444a1.052,1.052,0,0,1,1.063,1.04V6.836h6.38V3.714a1.052,1.052,0,0,1,1.063-1.041h6.38a1.052,1.052,0,0,1,1.063,1.04V6.836h6.38V3.714a1.052,1.052,0,0,1,1.063-1.041h7.444a1.052,1.052,0,0,1,1.063,1.04V14.119a1.053,1.053,0,0,1-1.064,1.04ZM25.3,13.079H61.453V4.755H56.136V7.876a1.052,1.052,0,0,1-1.063,1.041H46.566A1.052,1.052,0,0,1,45.5,7.876V4.755H41.25V7.876a1.052,1.052,0,0,1-1.063,1.041H31.679a1.052,1.052,0,0,1-1.063-1.04V4.755H25.3Z" transform="translate(-9.349 -2.674)"/>
        </g>
      </g>
    </g>
    <text id="CSS_LEVELS" data-name="CSS LEVELS" transform="translate(121 74)" fill="#0b2b6a" font-size="45" font-family="Rockwell-Bold, Rockwell" font-weight="700"><tspan x="0" y="0">CSS LEVELS</tspan></text>
    <text id="Start_your_CSS_adventure_..." data-name="Start your CSS
adventure ..." transform="translate(155 182)" font-size="32" font-family="Rockwell"><tspan x="-104.313" y="0">Start your CSS</tspan><tspan x="-93.203" y="37">adventure ...</tspan></text>
    <text id="_..._by_helping_them_build_their_world_and_bring_everyone_together_" data-name="... by helping them
build their world
and bring everyone
together!" transform="translate(158 390)" font-size="32" font-family="Rockwell"><tspan x="-139.234" y="0">... by helping them</tspan><tspan x="-124.055" y="37">build their world</tspan><tspan x="-146.727" y="74">and bring everyone</tspan><tspan x="-67.688" y="111">together!</tspan></text>
  </g>
</svg>
