<?xml version="1.0" encoding="UTF-8" standalone="no"?>
<svg
   xmlns:dc="http://purl.org/dc/elements/1.1/"
   xmlns:cc="http://creativecommons.org/ns#"
   xmlns:rdf="http://www.w3.org/1999/02/22-rdf-syntax-ns#"
   xmlns:svg="http://www.w3.org/2000/svg"
   xmlns="http://www.w3.org/2000/svg"
   xmlns:sodipodi="http://sodipodi.sourceforge.net/DTD/sodipodi-0.dtd"
   xmlns:inkscape="http://www.inkscape.org/namespaces/inkscape"
   id="Layer_1"
   enable-background="new 0 0 480.063 480.063"
   height="512"
   viewBox="0 0 480.063 480.063"
   width="512"
   version="1.1"
   sodipodi:docname="emi.svg"
   inkscape:version="1.0.2-2 (e86c870879, 2021-01-15)">
  <metadata
     id="metadata27">
    <rdf:RDF>
      <cc:Work
         rdf:about="">
        <dc:format>image/svg+xml</dc:format>
        <dc:type
           rdf:resource="http://purl.org/dc/dcmitype/StillImage" />
      </cc:Work>
    </rdf:RDF>
  </metadata>
  <defs
     id="defs25" />
  <sodipodi:namedview
     pagecolor="#ffffff"
     bordercolor="#666666"
     borderopacity="1"
     objecttolerance="10"
     gridtolerance="10"
     guidetolerance="10"
     inkscape:pageopacity="0"
     inkscape:pageshadow="2"
     inkscape:window-width="1920"
     inkscape:window-height="1001"
     id="namedview23"
     showgrid="false"
     inkscape:zoom="1.1711456"
     inkscape:cx="80.147375"
     inkscape:cy="309.64842"
     inkscape:window-x="-9"
     inkscape:window-y="-9"
     inkscape:window-maximized="1"
     inkscape:current-layer="Layer_1" />
  <path
     d="m 359.99804,383.96842 v 30.58352 c 0,3.44318 -2.78882,6.232 -6.232,6.232 H 126.29818 c -3.44318,0 -6.232,-2.78882 -6.232,-6.232 v -30.58352 c 0,-32.08699 26.0108,-58.0822 58.10557,-58.08999 11.34224,-0.007 21.32902,-5.8425 27.07803,-14.69193 5.7755,-8.87593 5.18035,-16.59425 5.18035,-22.83248 l 0.11685,-0.28823 c -27.96609,-11.57593 -47.63582,-39.12914 -47.63582,-71.27846 v -2.43826 c -11.10465,0 -19.475,-8.77543 -19.475,-19.11665 V 162.8572 c -0.24927,-11.27213 0.26487,-51.02447 28.9788,-78.702327 33.38791,-32.180471 86.29756,-29.547453 124.62434,-12.331564 1.2464,0.56088 1.20745,2.344789 -0.0546,2.866719 l -9.99456,4.113118 c -1.49568,0.615409 -1.17629,2.819977 0.42844,2.991358 l 4.85317,0.521929 c 23.23756,2.485009 44.82363,15.104801 58.20685,36.106627 0.35834,0.56867 0.25707,1.43336 -0.20254,1.92414 -8.2574,8.73257 -12.86908,20.32409 -12.86908,32.37521 v 42.51001 c 0,10.55544 -8.5612,19.11665 -19.11664,19.11665 h -1.13735 v 2.43826 c 0,32.14932 -19.66973,59.70253 -47.63582,71.27846 l 0.11686,0.28823 c 0,6.05828 -0.64424,13.88178 5.18034,22.83248 5.74902,8.84943 15.73579,14.68414 27.07803,14.69193 32.09478,0.007 58.10557,26.003 58.10557,58.08999 z"
     fill="#ffdfba"
     id="path2"
     style="stroke-width:0.778999" />
  <path
     d="m 359.99727,383.96842 v 30.58352 c 0,3.44162 -2.79038,6.232 -6.232,6.232 H 126.29741 c -3.44162,0 -6.232,-2.79038 -6.232,-6.232 v -30.58352 c 0,-32.08699 26.01469,-58.07831 58.10168,-58.08999 11.34535,-0.004 21.33446,-5.84561 27.08192,-14.69193 20.06236,17.13955 49.49062,17.14967 69.56466,0 5.74668,8.84632 15.73657,14.68803 27.08192,14.69193 32.08699,0.0117 58.10168,26.003 58.10168,58.08999 z"
     fill="#fe4f60"
     id="path4"
     style="fill:#4522e3;fill-opacity:1;stroke-width:0.778999" />
  <path
     d="m 350.47477,118.42696 c 0.36146,0.56788 0.26019,1.42791 -0.20176,1.91712 -8.25506,8.73881 -12.86673,20.32643 -12.86673,32.37833 v 42.51001 c 0,9.65024 -7.27041,19.11665 -20.25399,19.11665 v -48.11881 c 0,-20.65127 -16.7407,-37.39197 -37.39199,-37.39197 h -79.45794 c -20.65128,0 -37.39199,16.7407 -37.39199,37.39197 v 48.11881 c -11.10463,0 -19.47498,-8.77543 -19.47498,-19.11665 V 162.8572 c -0.24928,-11.27213 0.26486,-51.02447 28.97878,-78.702327 33.38636,-32.181251 86.30069,-29.546674 124.62201,-12.329227 1.24718,0.560101 1.21368,2.344789 -0.0506,2.865161 l -9.99535,4.114675 c -1.49412,0.615409 -1.17941,2.817641 0.42689,2.9898 l 4.85473,0.521151 c 23.24067,2.482672 44.82129,15.102464 58.20295,36.110527 z"
     fill="#42434d"
     id="path6"
     style="fill:#7a4d0b;fill-opacity:1;stroke-width:0.778999" />
  <path
     d="m 317.15306,216.78733 c 0,42.60816 -34.54707,77.12096 -77.12095,77.12096 -40.11225,0 -77.12095,-31.18414 -77.12095,-79.55922 v -48.11881 c 0,-20.65127 16.7407,-37.39197 37.39197,-37.39197 h 79.45796 c 20.65128,0 37.39197,16.7407 37.39197,37.39197 z"
     fill="#ffebd2"
     id="path8"
     style="stroke-width:0.778999" />
  <path
     d="m 222.57006,266.58722 c 12.67977,7.93255 2.68131,27.3865 -11.1989,21.8151 -28.53787,-11.45441 -48.46,-39.2647 -48.46,-71.61499 v -50.55707 c 0,-7.85543 2.42269,-15.14531 6.56151,-21.16386 5.07441,-7.37946 16.80847,-4.11934 16.80847,5.58388 v 50.55706 c 0,28.44127 14.95056,52.02938 36.28892,65.37988 z"
     fill="#fff3e4"
     id="path10"
     style="stroke-width:0.778999" />
  <path
     d="m 270.51436,301.14519 c -19.19221,8.03383 -40.28362,8.65703 -60.9645,0 1.05632,-4.38264 0.88027,-7.22132 0.88027,-12.79117 l 0.11685,-0.28823 c 18.75987,7.78688 40.17378,7.80246 58.97026,0 l 0.11686,0.28823 c 0,5.57219 -0.17607,8.41008 0.88026,12.79117 z"
     fill="#ffd6a6"
     id="path12"
     style="stroke-width:0.778999" />
  <path
     d="m 209.55843,344.69672 c -2.88074,0.90598 -5.97026,1.40532 -9.28256,1.43414 -32.16956,0.28355 -58.39848,25.72022 -58.39848,57.89135 v 5.85574 c 0,6.02322 -4.88277,10.90599 -10.906,10.90599 h -4.67399 c -3.44162,0 -6.23199,-2.79038 -6.23199,-6.232 v -30.58352 c 0,-32.08777 26.01469,-58.07831 58.10168,-58.08999 11.34535,-0.004 21.33445,-5.84561 27.08192,-14.69193 2.31674,1.97866 4.79707,3.75711 7.40983,5.31433 11.49259,6.84819 9.66116,24.18326 -3.10041,28.19589 z"
     fill="#ff6d7a"
     id="path14"
     style="fill:#4b25f6;fill-opacity:1;stroke-width:0.778999" />
  <path
     d="m 270.50502,344.69672 c 2.88073,0.90598 5.97025,1.40532 9.28255,1.43414 32.16957,0.28355 58.39849,25.72022 58.39849,57.89135 v 5.85574 c 0,6.02322 4.88276,10.90599 10.90598,10.90599 h 4.674 c 3.44162,0 6.232,-2.79038 6.232,-6.232 v -30.58352 c 0,-32.08777 -26.01469,-58.07831 -58.10168,-58.08999 -11.34535,-0.004 -21.33447,-5.84561 -27.08192,-14.69193 -2.31674,1.97866 -4.79708,3.75711 -7.40985,5.31433 -11.49257,6.84819 -9.66115,24.18326 3.10043,28.19589 z"
     fill="#e84857"
     id="path16"
     style="fill:#3d1ec7;fill-opacity:1;stroke-width:0.778999" />
  <path
     d="m 296.98476,74.690028 c -9.15947,3.769578 -10.46507,4.600771 -13.63872,4.108443 -51.16001,-7.930215 -96.04597,13.237539 -111.28943,62.932259 v 0.007 c -5.70228,6.55918 -9.14545,15.12817 -9.14545,24.49175 v 29.2304 c 0,12.61044 -19.475,13.48838 -19.475,-0.22824 v -32.37523 c -0.24927,-11.27212 0.26487,-51.02447 28.9788,-78.702321 33.38791,-32.180471 86.29756,-29.547452 124.62434,-12.331563 1.2464,0.56088 1.20745,2.344788 -0.0546,2.866718 z"
     fill="#4d4e59"
     id="path18"
     style="fill:#684109;fill-opacity:1;stroke-width:0.778999" />
  <path
     d="m 366.23004,383.97076 v 36.81318 c 0,3.44162 -2.79038,6.232 -6.232,6.232 -3.44162,0 -6.232,-2.79038 -6.232,-6.232 v -36.81318 c 0,-28.66329 -23.19471,-51.85956 -51.86033,-51.85877 -13.56316,0 -25.86902,-6.90973 -32.91975,-18.48411 -1.79014,-2.93916 -0.85923,-6.77418 2.08071,-8.56432 2.93916,-1.79092 6.7734,-0.85923 8.56433,2.08071 4.76903,7.82972 13.09575,12.50372 22.27471,12.50372 35.5512,-0.002 64.32433,28.76845 64.32433,64.32277 z M 257.47702,321.50045 c 0.73305,3.36295 -1.39907,6.68304 -4.76201,7.41608 -16.40106,3.57327 -33.08178,-0.004 -46.36295,-9.06911 -13.14795,14.08976 -30.51808,12.26457 -28.19277,12.26457 -28.66329,-7.9e-4 -51.86033,23.19315 -51.86033,51.85877 v 36.81318 c 0,3.44162 -2.79038,6.232 -6.232,6.232 -3.44162,0 -6.232,-2.79038 -6.232,-6.232 v -36.81318 c 0,-35.55042 28.76768,-64.32277 64.32278,-64.32277 14.38189,0 26.04117,-11.58762 26.04117,-25.97341 v -1.64134 c -27.20188,-13.00696 -46.29516,-40.33972 -47.45899,-72.16885 -11.19422,-2.69145 -19.53497,-12.71095 -19.53497,-24.63197 v -32.30745 c -0.34042,-15.8137 2.00749,-55.42037 30.88578,-83.257135 35.6587,-34.374134 92.8435,-32.190598 134.89233,-11.948296 4.09832,1.974765 4.72074,7.511893 1.31729,10.379391 21.30174,5.195927 39.67056,18.290909 51.47161,37.03208 0.60919,0.96518 1.72472,2.48034 1.43336,4.89757 -0.18072,1.50425 -0.62865,2.77714 -1.7878,3.95343 -7.59525,7.70274 -11.77769,17.90997 -11.77769,28.74196 v 42.51 c 0,3.44163 -2.79038,6.232 -6.232,6.232 -3.44162,0 -6.232,-2.79037 -6.232,-6.232 v -42.51 c 0,-12.49282 4.26815,-24.35074 12.10721,-33.87635 -11.94829,-17.08814 -30.58975,-28.078263 -51.67259,-30.335803 l -10.95351,-1.173174 c -6.40494,-0.68552 -7.66147,-9.509248 -1.70913,-11.959201 l 4.9817,-2.051105 C 219.04976,50.710085 149.66816,75.841389 149.66816,162.8572 v 32.37522 c 0,4.94508 2.84803,9.24282 7.011,11.40143 V 166.2326 c 0,-24.05395 19.57003,-43.62398 43.62397,-43.62398 h 79.45796 c 24.05394,0 43.62397,19.56848 43.62397,43.62164 v 51.02681 c 0,54.19812 -52.96262,95.36512 -106.85537,79.49924 -0.35055,4.44653 -1.45751,8.73726 -3.26089,12.72574 10.48378,7.19951 23.72288,10.10362 36.79215,7.25559 3.36294,-0.73225 6.68304,1.39987 7.41607,4.76281 z M 240.03211,287.6724 c 39.08864,0 70.88896,-31.80033 70.88896,-70.88896 v -50.55318 c 0,-17.18005 -13.97836,-31.15764 -31.15998,-31.15764 h -79.45796 c -17.18161,0 -31.15997,13.97837 -31.15997,31.15998 v 50.55084 c 0,39.08863 31.80031,70.88896 70.88895,70.88896 z m 63.09896,107.40456 h -18.69599 c -3.44162,0 -6.232,2.79038 -6.232,6.232 0,3.44161 2.79038,6.23199 6.232,6.23199 h 18.69599 c 3.44162,0 6.232,-2.79038 6.232,-6.23199 0,-3.44162 -2.79038,-6.232 -6.232,-6.232 z"
     id="path20"
     style="stroke-width:0.778999" />
  <path
     id="path870"
     style="fill:#4522e3;fill-opacity:1;stroke-width:0.830823"
     d="M 134.69922 447.88867 C 131.0748 447.88867 128.1341 450.79162 128.06055 454.39844 A 236.0738 236.0738 0 0 0 256 492.07422 A 236.0738 236.0738 0 0 0 383.93945 454.39844 C 383.8659 450.79162 380.9252 447.88867 377.30078 447.88867 L 134.69922 447.88867 z "
     transform="scale(0.93762305)" />
  <circle
     style="fill:none;fill-opacity:1;stroke:#000000;stroke-width:14.0643;stroke-linecap:round;stroke-linejoin:round;stroke-miterlimit:4;stroke-dasharray:none"
     id="path856"
     cx="240.03149"
     cy="240.03149"
     r="221.34824" />
</svg>
