<svg xmlns="http://www.w3.org/2000/svg" xmlns:xlink="http://www.w3.org/1999/xlink" width="510" height="525" viewBox="0 0 510 525">
  <defs>
    <clipPath id="clip-path">
      <rect id="Rectangle_9" data-name="Rectangle 9" width="520" height="283" transform="translate(0.458)" fill="#fff" stroke="#707070" stroke-width="1"/>
    </clipPath>
    <clipPath id="clip-path-2">
      <rect id="Rectangle_11" data-name="Rectangle 11" width="513.12" height="283"/>
    </clipPath>
    <clipPath id="clip-htmlExpGames">
      <rect width="510" height="525"/>
    </clipPath>
  </defs>
  <g id="htmlExpGames" clip-path="url(#clip-htmlExpGames)">
    <rect width="510" height="525" fill="#fab9b9"/>
    <g id="Mask_Group_3" data-name="Mask Group 3" transform="translate(-4.458)" clip-path="url(#clip-path)">
      <g id="htmlDefaultExpert" transform="translate(3.508)" clip-path="url(#clip-path-2)">
        <rect id="Rectangle_10" data-name="Rectangle 10" width="513.12" height="283" fill="#fff"/>
        <g id="lego_1_" data-name="lego (1)" transform="translate(-1.604 177.574)">
          <g id="Group_1" data-name="Group 1" transform="translate(17.104)">
            <path id="Path_1" data-name="Path 1" d="M48.128,13.975H25.322A8.47,8.47,0,0,0,16.77,22.36v16.77a2.823,2.823,0,0,0,2.851,2.8H53.829a2.823,2.823,0,0,0,2.851-2.8V22.36a8.47,8.47,0,0,0-8.552-8.385Z" transform="translate(-16.77 -13.975)" fill="#e83434"/>
            <path id="Path_2" data-name="Path 2" d="M109.619,13.975H86.814a8.47,8.47,0,0,0-8.552,8.385v16.77a2.823,2.823,0,0,0,2.851,2.8h34.208a2.823,2.823,0,0,0,2.85-2.795V22.36a8.47,8.47,0,0,0-8.552-8.385Z" transform="translate(-15.547 -13.975)" fill="#e83434"/>
          </g>
          <path id="Path_3" data-name="Path 3" d="M128.28,36.336H8.552A8.47,8.47,0,0,0,0,44.721v72.672a2.823,2.823,0,0,0,2.851,2.8H133.982a2.823,2.823,0,0,0,2.85-2.795V44.721A8.47,8.47,0,0,0,128.28,36.336Z" transform="translate(0 -13.975)" fill="#e83434"/>
        </g>
        <g id="lego_1_2" data-name="lego (1)" transform="translate(268.853 177.574)">
          <g id="Group_1-2" data-name="Group 1" transform="translate(17.104)">
            <path id="Path_1-2" data-name="Path 1" d="M48.128,13.975H25.322A8.47,8.47,0,0,0,16.77,22.36v16.77a2.823,2.823,0,0,0,2.851,2.8H53.829a2.823,2.823,0,0,0,2.851-2.8V22.36a8.47,8.47,0,0,0-8.552-8.385Z" transform="translate(-16.77 -13.975)" fill="#e83434"/>
            <path id="Path_2-2" data-name="Path 2" d="M109.619,13.975H86.814a8.47,8.47,0,0,0-8.552,8.385v16.77a2.823,2.823,0,0,0,2.851,2.8h34.208a2.823,2.823,0,0,0,2.85-2.795V22.36a8.47,8.47,0,0,0-8.552-8.385Z" transform="translate(-15.547 -13.975)" fill="#e83434"/>
          </g>
          <path id="Path_3-2" data-name="Path 3" d="M128.28,36.336H8.552A8.47,8.47,0,0,0,0,44.721v72.672a2.823,2.823,0,0,0,2.851,2.8H133.982a2.823,2.823,0,0,0,2.85-2.795V44.721A8.47,8.47,0,0,0,128.28,36.336Z" transform="translate(0 -13.975)" fill="#e83434"/>
        </g>
        <g id="lego_1_3" data-name="lego (1)" transform="translate(-1.872 102.893)">
          <g id="Group_1-3" data-name="Group 1" transform="translate(17.104)">
            <path id="Path_1-3" data-name="Path 1" d="M48.128,13.975H25.322A8.47,8.47,0,0,0,16.77,22.36v16.77a2.823,2.823,0,0,0,2.851,2.8H53.829a2.823,2.823,0,0,0,2.851-2.8V22.36a8.47,8.47,0,0,0-8.552-8.385Z" transform="translate(-16.77 -13.975)" fill="#df3131"/>
            <path id="Path_2-3" data-name="Path 2" d="M109.619,13.975H86.814a8.47,8.47,0,0,0-8.552,8.385v16.77a2.823,2.823,0,0,0,2.851,2.8h34.208a2.823,2.823,0,0,0,2.85-2.795V22.36a8.47,8.47,0,0,0-8.552-8.385Z" transform="translate(-15.547 -13.975)" fill="#df3131"/>
          </g>
          <path id="Path_3-3" data-name="Path 3" d="M128.28,36.336H8.552A8.47,8.47,0,0,0,0,44.721v72.672a2.823,2.823,0,0,0,2.851,2.8H133.982a2.823,2.823,0,0,0,2.85-2.795V44.721A8.47,8.47,0,0,0,128.28,36.336Z" transform="translate(0 -13.975)" fill="#df3131"/>
        </g>
        <g id="lego_1_4" data-name="lego (1)" transform="translate(134.16 177.574)">
          <g id="Group_1-4" data-name="Group 1" transform="translate(17.104)">
            <path id="Path_1-4" data-name="Path 1" d="M48.128,13.975H25.322A8.47,8.47,0,0,0,16.77,22.36v16.77a2.823,2.823,0,0,0,2.851,2.8H53.829a2.823,2.823,0,0,0,2.851-2.8V22.36a8.47,8.47,0,0,0-8.552-8.385Z" transform="translate(-16.77 -13.975)" fill="#df3131"/>
            <path id="Path_2-4" data-name="Path 2" d="M109.619,13.975H86.814a8.47,8.47,0,0,0-8.552,8.385v16.77a2.823,2.823,0,0,0,2.851,2.8h34.208a2.823,2.823,0,0,0,2.85-2.795V22.36a8.47,8.47,0,0,0-8.552-8.385Z" transform="translate(-15.547 -13.975)" fill="#df3131"/>
          </g>
          <path id="Path_3-4" data-name="Path 3" d="M128.28,36.336H8.552A8.47,8.47,0,0,0,0,44.721v72.672a2.823,2.823,0,0,0,2.851,2.8H133.982a2.823,2.823,0,0,0,2.85-2.795V44.721A8.47,8.47,0,0,0,128.28,36.336Z" transform="translate(0 -13.975)" fill="#df3131"/>
        </g>
        <g id="lego_1_5" data-name="lego (1)" transform="translate(268.586 102.893)">
          <g id="Group_1-5" data-name="Group 1" transform="translate(17.104)">
            <path id="Path_1-5" data-name="Path 1" d="M48.128,13.975H25.322A8.47,8.47,0,0,0,16.77,22.36v16.77a2.823,2.823,0,0,0,2.851,2.8H53.829a2.823,2.823,0,0,0,2.851-2.8V22.36a8.47,8.47,0,0,0-8.552-8.385Z" transform="translate(-16.77 -13.975)" fill="#df3131"/>
            <path id="Path_2-5" data-name="Path 2" d="M109.619,13.975H86.814a8.47,8.47,0,0,0-8.552,8.385v16.77a2.823,2.823,0,0,0,2.851,2.8h34.208a2.823,2.823,0,0,0,2.85-2.795V22.36a8.47,8.47,0,0,0-8.552-8.385Z" transform="translate(-15.547 -13.975)" fill="#df3131"/>
          </g>
          <path id="Path_3-5" data-name="Path 3" d="M128.28,36.336H8.552A8.47,8.47,0,0,0,0,44.721v72.672a2.823,2.823,0,0,0,2.851,2.8H133.982a2.823,2.823,0,0,0,2.85-2.795V44.721A8.47,8.47,0,0,0,128.28,36.336Z" transform="translate(0 -13.975)" fill="#df3131"/>
        </g>
        <g id="lego_1_6" data-name="lego (1)" transform="translate(402.746 177.574)">
          <g id="Group_1-6" data-name="Group 1" transform="translate(17.104)">
            <path id="Path_1-6" data-name="Path 1" d="M48.128,13.975H25.322A8.47,8.47,0,0,0,16.77,22.36v16.77a2.823,2.823,0,0,0,2.851,2.8H53.829a2.823,2.823,0,0,0,2.851-2.8V22.36a8.47,8.47,0,0,0-8.552-8.385Z" transform="translate(-16.77 -13.975)" fill="#df3131"/>
            <path id="Path_2-6" data-name="Path 2" d="M109.619,13.975H86.814a8.47,8.47,0,0,0-8.552,8.385v16.77a2.823,2.823,0,0,0,2.851,2.8h34.208a2.823,2.823,0,0,0,2.85-2.795V22.36a8.47,8.47,0,0,0-8.552-8.385Z" transform="translate(-15.547 -13.975)" fill="#df3131"/>
          </g>
          <path id="Path_3-6" data-name="Path 3" d="M128.28,36.336H8.552A8.47,8.47,0,0,0,0,44.721v72.672a2.823,2.823,0,0,0,2.851,2.8H133.982a2.823,2.823,0,0,0,2.85-2.795V44.721A8.47,8.47,0,0,0,128.28,36.336Z" transform="translate(0 -13.975)" fill="#df3131"/>
        </g>
        <g id="lego_1_7" data-name="lego (1)" transform="translate(133.892 102.893)">
          <g id="Group_1-7" data-name="Group 1" transform="translate(17.104)">
            <path id="Path_1-7" data-name="Path 1" d="M48.128,13.975H25.322A8.47,8.47,0,0,0,16.77,22.36v16.77a2.823,2.823,0,0,0,2.851,2.8H53.829a2.823,2.823,0,0,0,2.851-2.8V22.36a8.47,8.47,0,0,0-8.552-8.385Z" transform="translate(-16.77 -13.975)" fill="#e83434"/>
            <path id="Path_2-7" data-name="Path 2" d="M109.619,13.975H86.814a8.47,8.47,0,0,0-8.552,8.385v16.77a2.823,2.823,0,0,0,2.851,2.8h34.208a2.823,2.823,0,0,0,2.85-2.795V22.36a8.47,8.47,0,0,0-8.552-8.385Z" transform="translate(-15.547 -13.975)" fill="#e83434"/>
          </g>
          <path id="Path_3-7" data-name="Path 3" d="M128.28,36.336H8.552A8.47,8.47,0,0,0,0,44.721v72.672a2.823,2.823,0,0,0,2.851,2.8H133.982a2.823,2.823,0,0,0,2.85-2.795V44.721A8.47,8.47,0,0,0,128.28,36.336Z" transform="translate(0 -13.975)" fill="#e83434"/>
        </g>
        <g id="lego_1_8" data-name="lego (1)" transform="translate(402.478 102.893)">
          <g id="Group_1-8" data-name="Group 1" transform="translate(17.104)">
            <path id="Path_1-8" data-name="Path 1" d="M48.128,13.975H25.322A8.47,8.47,0,0,0,16.77,22.36v16.77a2.823,2.823,0,0,0,2.851,2.8H53.829a2.823,2.823,0,0,0,2.851-2.8V22.36a8.47,8.47,0,0,0-8.552-8.385Z" transform="translate(-16.77 -13.975)" fill="#e83434"/>
            <path id="Path_2-8" data-name="Path 2" d="M109.619,13.975H86.814a8.47,8.47,0,0,0-8.552,8.385v16.77a2.823,2.823,0,0,0,2.851,2.8h34.208a2.823,2.823,0,0,0,2.85-2.795V22.36a8.47,8.47,0,0,0-8.552-8.385Z" transform="translate(-15.547 -13.975)" fill="#e83434"/>
          </g>
          <path id="Path_3-8" data-name="Path 3" d="M128.28,36.336H8.552A8.47,8.47,0,0,0,0,44.721v72.672a2.823,2.823,0,0,0,2.851,2.8H133.982a2.823,2.823,0,0,0,2.85-2.795V44.721A8.47,8.47,0,0,0,128.28,36.336Z" transform="translate(0 -13.975)" fill="#e83434"/>
        </g>
        <g id="lego_1_9" data-name="lego (1)" transform="translate(-2.005 25.592)">
          <g id="Group_1-9" data-name="Group 1" transform="translate(17.104)">
            <path id="Path_1-9" data-name="Path 1" d="M48.128,13.975H25.322A8.47,8.47,0,0,0,16.77,22.36v16.77a2.823,2.823,0,0,0,2.851,2.8H53.829a2.823,2.823,0,0,0,2.851-2.8V22.36a8.47,8.47,0,0,0-8.552-8.385Z" transform="translate(-16.77 -13.975)" fill="#e83434"/>
            <path id="Path_2-9" data-name="Path 2" d="M109.619,13.975H86.814a8.47,8.47,0,0,0-8.552,8.385v16.77a2.823,2.823,0,0,0,2.851,2.8h34.208a2.823,2.823,0,0,0,2.85-2.795V22.36a8.47,8.47,0,0,0-8.552-8.385Z" transform="translate(-15.547 -13.975)" fill="#e83434"/>
          </g>
          <path id="Path_3-9" data-name="Path 3" d="M128.28,36.336H8.552A8.47,8.47,0,0,0,0,44.721v72.672a2.823,2.823,0,0,0,2.851,2.8H133.982a2.823,2.823,0,0,0,2.85-2.795V44.721A8.47,8.47,0,0,0,128.28,36.336Z" transform="translate(0 -13.975)" fill="#e83434"/>
        </g>
        <g id="lego_1_10" data-name="lego (1)" transform="translate(268.452 25.592)">
          <g id="Group_1-10" data-name="Group 1" transform="translate(17.104)">
            <path id="Path_1-10" data-name="Path 1" d="M48.128,13.975H25.322A8.47,8.47,0,0,0,16.77,22.36v16.77a2.823,2.823,0,0,0,2.851,2.8H53.829a2.823,2.823,0,0,0,2.851-2.8V22.36a8.47,8.47,0,0,0-8.552-8.385Z" transform="translate(-16.77 -13.975)" fill="#e83434"/>
            <path id="Path_2-10" data-name="Path 2" d="M109.619,13.975H86.814a8.47,8.47,0,0,0-8.552,8.385v16.77a2.823,2.823,0,0,0,2.851,2.8h34.208a2.823,2.823,0,0,0,2.85-2.795V22.36a8.47,8.47,0,0,0-8.552-8.385Z" transform="translate(-15.547 -13.975)" fill="#e83434"/>
          </g>
          <path id="Path_3-10" data-name="Path 3" d="M128.28,36.336H8.552A8.47,8.47,0,0,0,0,44.721v72.672a2.823,2.823,0,0,0,2.851,2.8H133.982a2.823,2.823,0,0,0,2.85-2.795V44.721A8.47,8.47,0,0,0,128.28,36.336Z" transform="translate(0 -13.975)" fill="#e83434"/>
        </g>
        <g id="lego_1_11" data-name="lego (1)" transform="translate(133.758 25.592)">
          <g id="Group_1-11" data-name="Group 1" transform="translate(17.104)">
            <path id="Path_1-11" data-name="Path 1" d="M48.128,13.975H25.322A8.47,8.47,0,0,0,16.77,22.36v16.77a2.823,2.823,0,0,0,2.851,2.8H53.829a2.823,2.823,0,0,0,2.851-2.8V22.36a8.47,8.47,0,0,0-8.552-8.385Z" transform="translate(-16.77 -13.975)" fill="#df3131"/>
            <path id="Path_2-11" data-name="Path 2" d="M109.619,13.975H86.814a8.47,8.47,0,0,0-8.552,8.385v16.77a2.823,2.823,0,0,0,2.851,2.8h34.208a2.823,2.823,0,0,0,2.85-2.795V22.36a8.47,8.47,0,0,0-8.552-8.385Z" transform="translate(-15.547 -13.975)" fill="#df3131"/>
          </g>
          <path id="Path_3-11" data-name="Path 3" d="M128.28,36.336H8.552A8.47,8.47,0,0,0,0,44.721v72.672a2.823,2.823,0,0,0,2.851,2.8H133.982a2.823,2.823,0,0,0,2.85-2.795V44.721A8.47,8.47,0,0,0,128.28,36.336Z" transform="translate(0 -13.975)" fill="#df3131"/>
        </g>
        <g id="lego_1_12" data-name="lego (1)" transform="translate(402.344 25.592)">
          <g id="Group_1-12" data-name="Group 1" transform="translate(17.104)">
            <path id="Path_1-12" data-name="Path 1" d="M48.128,13.975H25.322A8.47,8.47,0,0,0,16.77,22.36v16.77a2.823,2.823,0,0,0,2.851,2.8H53.829a2.823,2.823,0,0,0,2.851-2.8V22.36a8.47,8.47,0,0,0-8.552-8.385Z" transform="translate(-16.77 -13.975)" fill="#df3131"/>
            <path id="Path_2-12" data-name="Path 2" d="M109.619,13.975H86.814a8.47,8.47,0,0,0-8.552,8.385v16.77a2.823,2.823,0,0,0,2.851,2.8h34.208a2.823,2.823,0,0,0,2.85-2.795V22.36a8.47,8.47,0,0,0-8.552-8.385Z" transform="translate(-15.547 -13.975)" fill="#df3131"/>
          </g>
          <path id="Path_3-12" data-name="Path 3" d="M128.28,36.336H8.552A8.47,8.47,0,0,0,0,44.721v72.672a2.823,2.823,0,0,0,2.851,2.8H133.982a2.823,2.823,0,0,0,2.85-2.795V44.721A8.47,8.47,0,0,0,128.28,36.336Z" transform="translate(0 -13.975)" fill="#df3131"/>
        </g>
        <g id="lego_1_13" data-name="lego (1)" transform="translate(-2.139 -51.272)">
          <g id="Group_1-13" data-name="Group 1" transform="translate(17.104)">
            <path id="Path_1-13" data-name="Path 1" d="M48.128,13.975H25.322A8.47,8.47,0,0,0,16.77,22.36v16.77a2.823,2.823,0,0,0,2.851,2.8H53.829a2.823,2.823,0,0,0,2.851-2.8V22.36a8.47,8.47,0,0,0-8.552-8.385Z" transform="translate(-16.77 -13.975)" fill="#df3131"/>
            <path id="Path_2-13" data-name="Path 2" d="M109.619,13.975H86.814a8.47,8.47,0,0,0-8.552,8.385v16.77a2.823,2.823,0,0,0,2.851,2.8h34.208a2.823,2.823,0,0,0,2.85-2.795V22.36a8.47,8.47,0,0,0-8.552-8.385Z" transform="translate(-15.547 -13.975)" fill="#df3131"/>
          </g>
          <path id="Path_3-13" data-name="Path 3" d="M128.28,36.336H8.552A8.47,8.47,0,0,0,0,44.721v72.672a2.823,2.823,0,0,0,2.851,2.8H133.982a2.823,2.823,0,0,0,2.85-2.795V44.721A8.47,8.47,0,0,0,128.28,36.336Z" transform="translate(0 -13.975)" fill="#df3131"/>
        </g>
        <g id="lego_1_14" data-name="lego (1)" transform="translate(268.318 -51.272)">
          <g id="Group_1-14" data-name="Group 1" transform="translate(17.104)">
            <path id="Path_1-14" data-name="Path 1" d="M48.128,13.975H25.322A8.47,8.47,0,0,0,16.77,22.36v16.77a2.823,2.823,0,0,0,2.851,2.8H53.829a2.823,2.823,0,0,0,2.851-2.8V22.36a8.47,8.47,0,0,0-8.552-8.385Z" transform="translate(-16.77 -13.975)" fill="#df3131"/>
            <path id="Path_2-14" data-name="Path 2" d="M109.619,13.975H86.814a8.47,8.47,0,0,0-8.552,8.385v16.77a2.823,2.823,0,0,0,2.851,2.8h34.208a2.823,2.823,0,0,0,2.85-2.795V22.36a8.47,8.47,0,0,0-8.552-8.385Z" transform="translate(-15.547 -13.975)" fill="#df3131"/>
          </g>
          <path id="Path_3-14" data-name="Path 3" d="M128.28,36.336H8.552A8.47,8.47,0,0,0,0,44.721v72.672a2.823,2.823,0,0,0,2.851,2.8H133.982a2.823,2.823,0,0,0,2.85-2.795V44.721A8.47,8.47,0,0,0,128.28,36.336Z" transform="translate(0 -13.975)" fill="#df3131"/>
        </g>
        <g id="lego_1_15" data-name="lego (1)" transform="translate(133.624 -51.272)">
          <g id="Group_1-15" data-name="Group 1" transform="translate(17.104)">
            <path id="Path_1-15" data-name="Path 1" d="M48.128,13.975H25.322A8.47,8.47,0,0,0,16.77,22.36v16.77a2.823,2.823,0,0,0,2.851,2.8H53.829a2.823,2.823,0,0,0,2.851-2.8V22.36a8.47,8.47,0,0,0-8.552-8.385Z" transform="translate(-16.77 -13.975)" fill="#e83434"/>
            <path id="Path_2-15" data-name="Path 2" d="M109.619,13.975H86.814a8.47,8.47,0,0,0-8.552,8.385v16.77a2.823,2.823,0,0,0,2.851,2.8h34.208a2.823,2.823,0,0,0,2.85-2.795V22.36a8.47,8.47,0,0,0-8.552-8.385Z" transform="translate(-15.547 -13.975)" fill="#e83434"/>
          </g>
          <path id="Path_3-15" data-name="Path 3" d="M128.28,36.336H8.552A8.47,8.47,0,0,0,0,44.721v72.672a2.823,2.823,0,0,0,2.851,2.8H133.982a2.823,2.823,0,0,0,2.85-2.795V44.721A8.47,8.47,0,0,0,128.28,36.336Z" transform="translate(0 -13.975)" fill="#e83434"/>
        </g>
        <g id="lego_1_16" data-name="lego (1)" transform="translate(402.21 -51.272)">
          <g id="Group_1-16" data-name="Group 1" transform="translate(17.104)">
            <path id="Path_1-16" data-name="Path 1" d="M48.128,13.975H25.322A8.47,8.47,0,0,0,16.77,22.36v16.77a2.823,2.823,0,0,0,2.851,2.8H53.829a2.823,2.823,0,0,0,2.851-2.8V22.36a8.47,8.47,0,0,0-8.552-8.385Z" transform="translate(-16.77 -13.975)" fill="#e83434"/>
            <path id="Path_2-16" data-name="Path 2" d="M109.619,13.975H86.814a8.47,8.47,0,0,0-8.552,8.385v16.77a2.823,2.823,0,0,0,2.851,2.8h34.208a2.823,2.823,0,0,0,2.85-2.795V22.36a8.47,8.47,0,0,0-8.552-8.385Z" transform="translate(-15.547 -13.975)" fill="#e83434"/>
          </g>
          <path id="Path_3-16" data-name="Path 3" d="M128.28,36.336H8.552A8.47,8.47,0,0,0,0,44.721v72.672a2.823,2.823,0,0,0,2.851,2.8H133.982a2.823,2.823,0,0,0,2.85-2.795V44.721A8.47,8.47,0,0,0,128.28,36.336Z" transform="translate(0 -13.975)" fill="#e83434"/>
        </g>
      </g>
    </g>
    <text id="ADVANCED" transform="translate(122 339)" fill="#df3131" font-size="45" font-family="Rockwell-Bold, Rockwell" font-weight="700"><tspan x="0" y="0">ADVANCED</tspan></text>
    <g id="Group_1-17" data-name="Group 1" transform="translate(28)">
      <rect id="Rectangle_4" data-name="Rectangle 4" width="77" height="33" rx="16.5" transform="translate(134 362)" fill="#e83434"/>
      <rect id="Rectangle_5" data-name="Rectangle 5" width="91" height="33" rx="16.5" transform="translate(229 362)" fill="#e83434"/>
      <text id="HTML" transform="translate(143 387)" fill="#fff" font-size="22" font-family="Rockwell"><tspan x="0" y="0">HTML</tspan></text>
      <text id="Expert" transform="translate(241 387)" fill="#fff" font-size="22" font-family="Rockwell"><tspan x="0" y="0">Expert</tspan></text>
    </g>
  </g>
</svg>
