<svg xmlns="http://www.w3.org/2000/svg" xmlns:xlink="http://www.w3.org/1999/xlink" width="1920" height="1080" viewBox="0 0 1920 1080">
  <defs>
    <clipPath id="clip-htmlDefaultBeginner">
      <rect width="1920" height="1080"/>
    </clipPath>
  </defs>
  <g id="htmlDefaultBeginner" clip-path="url(#clip-htmlDefaultBeginner)">
    <rect width="1920" height="1080" fill="#fff"/>
    <g id="lego_1_" data-name="lego (1)" transform="translate(-6.001 624.333)">
      <g id="Group_1" data-name="Group 1">
        <path id="Path_1" data-name="Path 1" d="M181.333,53.333H96a32,32,0,0,0-32,32v64A10.667,10.667,0,0,0,74.667,160h128a10.667,10.667,0,0,0,10.667-10.667v-64A32,32,0,0,0,181.333,53.333Z" fill="#2a9132"/>
        <path id="Path_2" data-name="Path 2" d="M416,53.333H330.667a32,32,0,0,0-32,32v64A10.667,10.667,0,0,0,309.334,160h128A10.667,10.667,0,0,0,448,149.333v-64A32,32,0,0,0,416,53.333Z" fill="#2a9132"/>
      </g>
      <path id="Path_3" data-name="Path 3" d="M480,138.667H32a32,32,0,0,0-32,32V448a10.667,10.667,0,0,0,10.667,10.667H501.334A10.667,10.667,0,0,0,512,448V170.667A32,32,0,0,0,480,138.667Z" fill="#2a9132"/>
    </g>
    <g id="lego_1_2" data-name="lego (1)" transform="translate(1005.999 624.333)">
      <g id="Group_1-2" data-name="Group 1">
        <path id="Path_1-2" data-name="Path 1" d="M181.333,53.333H96a32,32,0,0,0-32,32v64A10.667,10.667,0,0,0,74.667,160h128a10.667,10.667,0,0,0,10.667-10.667v-64A32,32,0,0,0,181.333,53.333Z" fill="#2a9132"/>
        <path id="Path_2-2" data-name="Path 2" d="M416,53.333H330.667a32,32,0,0,0-32,32v64A10.667,10.667,0,0,0,309.334,160h128A10.667,10.667,0,0,0,448,149.333v-64A32,32,0,0,0,416,53.333Z" fill="#2a9132"/>
      </g>
      <path id="Path_3-2" data-name="Path 3" d="M480,138.667H32a32,32,0,0,0-32,32V448a10.667,10.667,0,0,0,10.667,10.667H501.334A10.667,10.667,0,0,0,512,448V170.667A32,32,0,0,0,480,138.667Z" fill="#2a9132"/>
    </g>
    <g id="lego_1_3" data-name="lego (1)" transform="translate(-7.003 339.333)">
      <g id="Group_1-3" data-name="Group 1">
        <path id="Path_1-3" data-name="Path 1" d="M181.333,53.333H96a32,32,0,0,0-32,32v64A10.667,10.667,0,0,0,74.667,160h128a10.667,10.667,0,0,0,10.667-10.667v-64A32,32,0,0,0,181.333,53.333Z" fill="#216f27"/>
        <path id="Path_2-3" data-name="Path 2" d="M416,53.333H330.667a32,32,0,0,0-32,32v64A10.667,10.667,0,0,0,309.334,160h128A10.667,10.667,0,0,0,448,149.333v-64A32,32,0,0,0,416,53.333Z" fill="#216f27"/>
      </g>
      <path id="Path_3-3" data-name="Path 3" d="M480,138.667H32a32,32,0,0,0-32,32V448a10.667,10.667,0,0,0,10.667,10.667H501.334A10.667,10.667,0,0,0,512,448V170.667A32,32,0,0,0,480,138.667Z" fill="#2b9834"/>
    </g>
    <g id="lego_1_4" data-name="lego (1)" transform="translate(502 624.333)">
      <g id="Group_1-4" data-name="Group 1">
        <path id="Path_1-4" data-name="Path 1" d="M181.333,53.333H96a32,32,0,0,0-32,32v64A10.667,10.667,0,0,0,74.667,160h128a10.667,10.667,0,0,0,10.667-10.667v-64A32,32,0,0,0,181.333,53.333Z" fill="#2b9834"/>
        <path id="Path_2-4" data-name="Path 2" d="M416,53.333H330.667a32,32,0,0,0-32,32v64A10.667,10.667,0,0,0,309.334,160h128A10.667,10.667,0,0,0,448,149.333v-64A32,32,0,0,0,416,53.333Z" fill="#2b9834"/>
      </g>
      <path id="Path_3-4" data-name="Path 3" d="M480,138.667H32a32,32,0,0,0-32,32V448a10.667,10.667,0,0,0,10.667,10.667H501.334A10.667,10.667,0,0,0,512,448V170.667A32,32,0,0,0,480,138.667Z" fill="#2b9834"/>
    </g>
    <g id="lego_1_5" data-name="lego (1)" transform="translate(1004.997 339.333)">
      <g id="Group_1-5" data-name="Group 1">
        <path id="Path_1-5" data-name="Path 1" d="M181.333,53.333H96a32,32,0,0,0-32,32v64A10.667,10.667,0,0,0,74.667,160h128a10.667,10.667,0,0,0,10.667-10.667v-64A32,32,0,0,0,181.333,53.333Z" fill="#216f27"/>
        <path id="Path_2-5" data-name="Path 2" d="M416,53.333H330.667a32,32,0,0,0-32,32v64A10.667,10.667,0,0,0,309.334,160h128A10.667,10.667,0,0,0,448,149.333v-64A32,32,0,0,0,416,53.333Z" fill="#216f27"/>
      </g>
      <path id="Path_3-5" data-name="Path 3" d="M480,138.667H32a32,32,0,0,0-32,32V448a10.667,10.667,0,0,0,10.667,10.667H501.334A10.667,10.667,0,0,0,512,448V170.667A32,32,0,0,0,480,138.667Z" fill="#2b9834"/>
    </g>
    <g id="lego_1_6" data-name="lego (1)" transform="translate(1507 624.333)">
      <g id="Group_1-6" data-name="Group 1">
        <path id="Path_1-6" data-name="Path 1" d="M181.333,53.333H96a32,32,0,0,0-32,32v64A10.667,10.667,0,0,0,74.667,160h128a10.667,10.667,0,0,0,10.667-10.667v-64A32,32,0,0,0,181.333,53.333Z" fill="#2b9834"/>
        <path id="Path_2-6" data-name="Path 2" d="M416,53.333H330.667a32,32,0,0,0-32,32v64A10.667,10.667,0,0,0,309.334,160h128A10.667,10.667,0,0,0,448,149.333v-64A32,32,0,0,0,416,53.333Z" fill="#2b9834"/>
      </g>
      <path id="Path_3-6" data-name="Path 3" d="M480,138.667H32a32,32,0,0,0-32,32V448a10.667,10.667,0,0,0,10.667,10.667H501.334A10.667,10.667,0,0,0,512,448V170.667A32,32,0,0,0,480,138.667Z" fill="#2b9834"/>
    </g>
    <g id="lego_1_7" data-name="lego (1)" transform="translate(500.998 339.333)">
      <g id="Group_1-7" data-name="Group 1">
        <path id="Path_1-7" data-name="Path 1" d="M181.333,53.333H96a32,32,0,0,0-32,32v64A10.667,10.667,0,0,0,74.667,160h128a10.667,10.667,0,0,0,10.667-10.667v-64A32,32,0,0,0,181.333,53.333Z" fill="#2a9132"/>
        <path id="Path_2-7" data-name="Path 2" d="M416,53.333H330.667a32,32,0,0,0-32,32v64A10.667,10.667,0,0,0,309.334,160h128A10.667,10.667,0,0,0,448,149.333v-64A32,32,0,0,0,416,53.333Z" fill="#2a9132"/>
      </g>
      <path id="Path_3-7" data-name="Path 3" d="M480,138.667H32a32,32,0,0,0-32,32V448a10.667,10.667,0,0,0,10.667,10.667H501.334A10.667,10.667,0,0,0,512,448V170.667A32,32,0,0,0,480,138.667Z" fill="#2a9132"/>
    </g>
    <g id="lego_1_8" data-name="lego (1)" transform="translate(1505.998 339.333)">
      <g id="Group_1-8" data-name="Group 1">
        <path id="Path_1-8" data-name="Path 1" d="M181.333,53.333H96a32,32,0,0,0-32,32v64A10.667,10.667,0,0,0,74.667,160h128a10.667,10.667,0,0,0,10.667-10.667v-64A32,32,0,0,0,181.333,53.333Z" fill="#2a9132"/>
        <path id="Path_2-8" data-name="Path 2" d="M416,53.333H330.667a32,32,0,0,0-32,32v64A10.667,10.667,0,0,0,309.334,160h128A10.667,10.667,0,0,0,448,149.333v-64A32,32,0,0,0,416,53.333Z" fill="#2a9132"/>
      </g>
      <path id="Path_3-8" data-name="Path 3" d="M480,138.667H32a32,32,0,0,0-32,32V448a10.667,10.667,0,0,0,10.667,10.667H501.334A10.667,10.667,0,0,0,512,448V170.667A32,32,0,0,0,480,138.667Z" fill="#2a9132"/>
    </g>
    <g id="lego_1_9" data-name="lego (1)" transform="translate(-7.504 44.333)">
      <g id="Group_1-9" data-name="Group 1">
        <path id="Path_1-9" data-name="Path 1" d="M181.333,53.333H96a32,32,0,0,0-32,32v64A10.667,10.667,0,0,0,74.667,160h128a10.667,10.667,0,0,0,10.667-10.667v-64A32,32,0,0,0,181.333,53.333Z" fill="#2a9132"/>
        <path id="Path_2-9" data-name="Path 2" d="M416,53.333H330.667a32,32,0,0,0-32,32v64A10.667,10.667,0,0,0,309.334,160h128A10.667,10.667,0,0,0,448,149.333v-64A32,32,0,0,0,416,53.333Z" fill="#2a9132"/>
      </g>
      <path id="Path_3-9" data-name="Path 3" d="M480,138.667H32a32,32,0,0,0-32,32V448a10.667,10.667,0,0,0,10.667,10.667H501.334A10.667,10.667,0,0,0,512,448V170.667A32,32,0,0,0,480,138.667Z" fill="#2a9132"/>
    </g>
    <g id="lego_1_10" data-name="lego (1)" transform="translate(1004.496 44.333)">
      <g id="Group_1-10" data-name="Group 1">
        <path id="Path_1-10" data-name="Path 1" d="M181.333,53.333H96a32,32,0,0,0-32,32v64A10.667,10.667,0,0,0,74.667,160h128a10.667,10.667,0,0,0,10.667-10.667v-64A32,32,0,0,0,181.333,53.333Z" fill="#2a9132"/>
        <path id="Path_2-10" data-name="Path 2" d="M416,53.333H330.667a32,32,0,0,0-32,32v64A10.667,10.667,0,0,0,309.334,160h128A10.667,10.667,0,0,0,448,149.333v-64A32,32,0,0,0,416,53.333Z" fill="#2a9132"/>
      </g>
      <path id="Path_3-10" data-name="Path 3" d="M480,138.667H32a32,32,0,0,0-32,32V448a10.667,10.667,0,0,0,10.667,10.667H501.334A10.667,10.667,0,0,0,512,448V170.667A32,32,0,0,0,480,138.667Z" fill="#2a9132"/>
    </g>
    <g id="lego_1_11" data-name="lego (1)" transform="translate(500.497 44.333)">
      <g id="Group_1-11" data-name="Group 1">
        <path id="Path_1-11" data-name="Path 1" d="M181.333,53.333H96a32,32,0,0,0-32,32v64A10.667,10.667,0,0,0,74.667,160h128a10.667,10.667,0,0,0,10.667-10.667v-64A32,32,0,0,0,181.333,53.333Z" fill="#2b9834"/>
        <path id="Path_2-11" data-name="Path 2" d="M416,53.333H330.667a32,32,0,0,0-32,32v64A10.667,10.667,0,0,0,309.334,160h128A10.667,10.667,0,0,0,448,149.333v-64A32,32,0,0,0,416,53.333Z" fill="#2b9834"/>
      </g>
      <path id="Path_3-11" data-name="Path 3" d="M480,138.667H32a32,32,0,0,0-32,32V448a10.667,10.667,0,0,0,10.667,10.667H501.334A10.667,10.667,0,0,0,512,448V170.667A32,32,0,0,0,480,138.667Z" fill="#2b9834"/>
    </g>
    <g id="lego_1_12" data-name="lego (1)" transform="translate(1505.497 44.333)">
      <g id="Group_1-12" data-name="Group 1">
        <path id="Path_1-12" data-name="Path 1" d="M181.333,53.333H96a32,32,0,0,0-32,32v64A10.667,10.667,0,0,0,74.667,160h128a10.667,10.667,0,0,0,10.667-10.667v-64A32,32,0,0,0,181.333,53.333Z" fill="#2b9834"/>
        <path id="Path_2-12" data-name="Path 2" d="M416,53.333H330.667a32,32,0,0,0-32,32v64A10.667,10.667,0,0,0,309.334,160h128A10.667,10.667,0,0,0,448,149.333v-64A32,32,0,0,0,416,53.333Z" fill="#2b9834"/>
      </g>
      <path id="Path_3-12" data-name="Path 3" d="M480,138.667H32a32,32,0,0,0-32,32V448a10.667,10.667,0,0,0,10.667,10.667H501.334A10.667,10.667,0,0,0,512,448V170.667A32,32,0,0,0,480,138.667Z" fill="#2b9834"/>
    </g>
    <g id="lego_1_13" data-name="lego (1)" transform="translate(-8.005 -249)">
      <g id="Group_1-13" data-name="Group 1">
        <path id="Path_1-13" data-name="Path 1" d="M181.333,53.333H96a32,32,0,0,0-32,32v64A10.667,10.667,0,0,0,74.667,160h128a10.667,10.667,0,0,0,10.667-10.667v-64A32,32,0,0,0,181.333,53.333Z" fill="#216f27"/>
        <path id="Path_2-13" data-name="Path 2" d="M416,53.333H330.667a32,32,0,0,0-32,32v64A10.667,10.667,0,0,0,309.334,160h128A10.667,10.667,0,0,0,448,149.333v-64A32,32,0,0,0,416,53.333Z" fill="#216f27"/>
      </g>
      <path id="Path_3-13" data-name="Path 3" d="M480,138.667H32a32,32,0,0,0-32,32V448a10.667,10.667,0,0,0,10.667,10.667H501.334A10.667,10.667,0,0,0,512,448V170.667A32,32,0,0,0,480,138.667Z" fill="#2b9834"/>
    </g>
    <g id="lego_1_14" data-name="lego (1)" transform="translate(1003.995 -249)">
      <g id="Group_1-14" data-name="Group 1">
        <path id="Path_1-14" data-name="Path 1" d="M181.333,53.333H96a32,32,0,0,0-32,32v64A10.667,10.667,0,0,0,74.667,160h128a10.667,10.667,0,0,0,10.667-10.667v-64A32,32,0,0,0,181.333,53.333Z" fill="#216f27"/>
        <path id="Path_2-14" data-name="Path 2" d="M416,53.333H330.667a32,32,0,0,0-32,32v64A10.667,10.667,0,0,0,309.334,160h128A10.667,10.667,0,0,0,448,149.333v-64A32,32,0,0,0,416,53.333Z" fill="#216f27"/>
      </g>
      <path id="Path_3-14" data-name="Path 3" d="M480,138.667H32a32,32,0,0,0-32,32V448a10.667,10.667,0,0,0,10.667,10.667H501.334A10.667,10.667,0,0,0,512,448V170.667A32,32,0,0,0,480,138.667Z" fill="#2b9834"/>
    </g>
    <g id="lego_1_15" data-name="lego (1)" transform="translate(499.996 -249)">
      <g id="Group_1-15" data-name="Group 1">
        <path id="Path_1-15" data-name="Path 1" d="M181.333,53.333H96a32,32,0,0,0-32,32v64A10.667,10.667,0,0,0,74.667,160h128a10.667,10.667,0,0,0,10.667-10.667v-64A32,32,0,0,0,181.333,53.333Z" fill="#2a9132"/>
        <path id="Path_2-15" data-name="Path 2" d="M416,53.333H330.667a32,32,0,0,0-32,32v64A10.667,10.667,0,0,0,309.334,160h128A10.667,10.667,0,0,0,448,149.333v-64A32,32,0,0,0,416,53.333Z" fill="#2a9132"/>
      </g>
      <path id="Path_3-15" data-name="Path 3" d="M480,138.667H32a32,32,0,0,0-32,32V448a10.667,10.667,0,0,0,10.667,10.667H501.334A10.667,10.667,0,0,0,512,448V170.667A32,32,0,0,0,480,138.667Z" fill="#2a9132"/>
    </g>
    <g id="lego_1_16" data-name="lego (1)" transform="translate(1504.996 -249)">
      <g id="Group_1-16" data-name="Group 1">
        <path id="Path_1-16" data-name="Path 1" d="M181.333,53.333H96a32,32,0,0,0-32,32v64A10.667,10.667,0,0,0,74.667,160h128a10.667,10.667,0,0,0,10.667-10.667v-64A32,32,0,0,0,181.333,53.333Z" fill="#2a9132"/>
        <path id="Path_2-16" data-name="Path 2" d="M416,53.333H330.667a32,32,0,0,0-32,32v64A10.667,10.667,0,0,0,309.334,160h128A10.667,10.667,0,0,0,448,149.333v-64A32,32,0,0,0,416,53.333Z" fill="#2a9132"/>
      </g>
      <path id="Path_3-16" data-name="Path 3" d="M480,138.667H32a32,32,0,0,0-32,32V448a10.667,10.667,0,0,0,10.667,10.667H501.334A10.667,10.667,0,0,0,512,448V170.667A32,32,0,0,0,480,138.667Z" fill="#2a9132"/>
    </g>
  </g>
</svg>
