<svg xmlns="http://www.w3.org/2000/svg" xmlns:xlink="http://www.w3.org/1999/xlink" width="510" height="525" viewBox="0 0 510 525">
  <defs>
    <clipPath id="clip-path">
      <rect id="Rectangle_6" data-name="Rectangle 6" width="523" height="283" transform="translate(0.234)" fill="#fff" stroke="#707070" stroke-width="1"/>
    </clipPath>
    <clipPath id="clip-path-2">
      <rect id="Rectangle_8" data-name="Rectangle 8" width="515.932" height="283"/>
    </clipPath>
    <clipPath id="clip-htmlIntGames">
      <rect width="510" height="525"/>
    </clipPath>
  </defs>
  <g id="htmlIntGames" clip-path="url(#clip-htmlIntGames)">
    <rect width="510" height="525" fill="#f8e38d"/>
    <g id="Mask_Group_2" data-name="Mask Group 2" transform="translate(-7.234)" clip-path="url(#clip-path)">
      <g id="htmlDefaultIntermediate" transform="translate(3.537)" clip-path="url(#clip-path-2)">
        <rect id="Rectangle_7" data-name="Rectangle 7" width="515.932" height="283" fill="#fff"/>
        <g id="lego_1_" data-name="lego (1)" transform="translate(-1.613 177.574)">
          <g id="Group_1" data-name="Group 1" transform="translate(17.198)">
            <path id="Path_1" data-name="Path 1" d="M48.3,13.975H25.369a8.494,8.494,0,0,0-8.6,8.385v16.77a2.831,2.831,0,0,0,2.866,2.8h34.4a2.831,2.831,0,0,0,2.866-2.8V22.36a8.494,8.494,0,0,0-8.6-8.385Z" transform="translate(-16.77 -13.975)" fill="#e0bc2a"/>
            <path id="Path_2" data-name="Path 2" d="M109.791,13.975H86.861a8.494,8.494,0,0,0-8.6,8.385v16.77a2.831,2.831,0,0,0,2.866,2.8h34.4a2.831,2.831,0,0,0,2.866-2.795V22.36a8.494,8.494,0,0,0-8.6-8.385Z" transform="translate(-15.203 -13.975)" fill="#e0bc2a"/>
          </g>
          <path id="Path_3" data-name="Path 3" d="M128.983,36.336H8.6A8.494,8.494,0,0,0,0,44.721v72.672a2.831,2.831,0,0,0,2.866,2.8H134.716a2.831,2.831,0,0,0,2.866-2.795V44.721A8.494,8.494,0,0,0,128.983,36.336Z" transform="translate(0 -13.975)" fill="#e0bc2a"/>
        </g>
        <g id="lego_1_2" data-name="lego (1)" transform="translate(270.327 177.574)">
          <g id="Group_1-2" data-name="Group 1" transform="translate(17.198)">
            <path id="Path_1-2" data-name="Path 1" d="M48.3,13.975H25.369a8.494,8.494,0,0,0-8.6,8.385v16.77a2.831,2.831,0,0,0,2.866,2.8h34.4a2.831,2.831,0,0,0,2.866-2.8V22.36a8.494,8.494,0,0,0-8.6-8.385Z" transform="translate(-16.77 -13.975)" fill="#e0bc2a"/>
            <path id="Path_2-2" data-name="Path 2" d="M109.791,13.975H86.861a8.494,8.494,0,0,0-8.6,8.385v16.77a2.831,2.831,0,0,0,2.866,2.8h34.4a2.831,2.831,0,0,0,2.866-2.795V22.36a8.494,8.494,0,0,0-8.6-8.385Z" transform="translate(-15.203 -13.975)" fill="#e0bc2a"/>
          </g>
          <path id="Path_3-2" data-name="Path 3" d="M128.983,36.336H8.6A8.494,8.494,0,0,0,0,44.721v72.672a2.831,2.831,0,0,0,2.866,2.8H134.716a2.831,2.831,0,0,0,2.866-2.795V44.721A8.494,8.494,0,0,0,128.983,36.336Z" transform="translate(0 -13.975)" fill="#e0bc2a"/>
        </g>
        <g id="lego_1_3" data-name="lego (1)" transform="translate(-1.882 102.893)">
          <g id="Group_1-3" data-name="Group 1" transform="translate(17.198)">
            <path id="Path_1-3" data-name="Path 1" d="M48.3,13.975H25.369a8.494,8.494,0,0,0-8.6,8.385v16.77a2.831,2.831,0,0,0,2.866,2.8h34.4a2.831,2.831,0,0,0,2.866-2.8V22.36a8.494,8.494,0,0,0-8.6-8.385Z" transform="translate(-16.77 -13.975)" fill="#d8b62c"/>
            <path id="Path_2-3" data-name="Path 2" d="M109.791,13.975H86.861a8.494,8.494,0,0,0-8.6,8.385v16.77a2.831,2.831,0,0,0,2.866,2.8h34.4a2.831,2.831,0,0,0,2.866-2.795V22.36a8.494,8.494,0,0,0-8.6-8.385Z" transform="translate(-15.203 -13.975)" fill="#d8b62c"/>
          </g>
          <path id="Path_3-3" data-name="Path 3" d="M128.983,36.336H8.6A8.494,8.494,0,0,0,0,44.721v72.672a2.831,2.831,0,0,0,2.866,2.8H134.716a2.831,2.831,0,0,0,2.866-2.795V44.721A8.494,8.494,0,0,0,128.983,36.336Z" transform="translate(0 -13.975)" fill="#d8b62c"/>
        </g>
        <g id="lego_1_4" data-name="lego (1)" transform="translate(134.895 177.574)">
          <g id="Group_1-4" data-name="Group 1" transform="translate(17.198)">
            <path id="Path_1-4" data-name="Path 1" d="M48.3,13.975H25.369a8.494,8.494,0,0,0-8.6,8.385v16.77a2.831,2.831,0,0,0,2.866,2.8h34.4a2.831,2.831,0,0,0,2.866-2.8V22.36a8.494,8.494,0,0,0-8.6-8.385Z" transform="translate(-16.77 -13.975)" fill="#d8b62c"/>
            <path id="Path_2-4" data-name="Path 2" d="M109.791,13.975H86.861a8.494,8.494,0,0,0-8.6,8.385v16.77a2.831,2.831,0,0,0,2.866,2.8h34.4a2.831,2.831,0,0,0,2.866-2.795V22.36a8.494,8.494,0,0,0-8.6-8.385Z" transform="translate(-15.203 -13.975)" fill="#d8b62c"/>
          </g>
          <path id="Path_3-4" data-name="Path 3" d="M128.983,36.336H8.6A8.494,8.494,0,0,0,0,44.721v72.672a2.831,2.831,0,0,0,2.866,2.8H134.716a2.831,2.831,0,0,0,2.866-2.795V44.721A8.494,8.494,0,0,0,128.983,36.336Z" transform="translate(0 -13.975)" fill="#d8b62c"/>
        </g>
        <g id="lego_1_5" data-name="lego (1)" transform="translate(270.057 102.893)">
          <g id="Group_1-5" data-name="Group 1" transform="translate(17.198)">
            <path id="Path_1-5" data-name="Path 1" d="M48.3,13.975H25.369a8.494,8.494,0,0,0-8.6,8.385v16.77a2.831,2.831,0,0,0,2.866,2.8h34.4a2.831,2.831,0,0,0,2.866-2.8V22.36a8.494,8.494,0,0,0-8.6-8.385Z" transform="translate(-16.77 -13.975)" fill="#d8b62c"/>
            <path id="Path_2-5" data-name="Path 2" d="M109.791,13.975H86.861a8.494,8.494,0,0,0-8.6,8.385v16.77a2.831,2.831,0,0,0,2.866,2.8h34.4a2.831,2.831,0,0,0,2.866-2.795V22.36a8.494,8.494,0,0,0-8.6-8.385Z" transform="translate(-15.203 -13.975)" fill="#d8b62c"/>
          </g>
          <path id="Path_3-5" data-name="Path 3" d="M128.983,36.336H8.6A8.494,8.494,0,0,0,0,44.721v72.672a2.831,2.831,0,0,0,2.866,2.8H134.716a2.831,2.831,0,0,0,2.866-2.795V44.721A8.494,8.494,0,0,0,128.983,36.336Z" transform="translate(0 -13.975)" fill="#d8b62c"/>
        </g>
        <g id="lego_1_6" data-name="lego (1)" transform="translate(404.953 177.574)">
          <g id="Group_1-6" data-name="Group 1" transform="translate(17.198)">
            <path id="Path_1-6" data-name="Path 1" d="M48.3,13.975H25.369a8.494,8.494,0,0,0-8.6,8.385v16.77a2.831,2.831,0,0,0,2.866,2.8h34.4a2.831,2.831,0,0,0,2.866-2.8V22.36a8.494,8.494,0,0,0-8.6-8.385Z" transform="translate(-16.77 -13.975)" fill="#d8b62c"/>
            <path id="Path_2-6" data-name="Path 2" d="M109.791,13.975H86.861a8.494,8.494,0,0,0-8.6,8.385v16.77a2.831,2.831,0,0,0,2.866,2.8h34.4a2.831,2.831,0,0,0,2.866-2.795V22.36a8.494,8.494,0,0,0-8.6-8.385Z" transform="translate(-15.203 -13.975)" fill="#d8b62c"/>
          </g>
          <path id="Path_3-6" data-name="Path 3" d="M128.983,36.336H8.6A8.494,8.494,0,0,0,0,44.721v72.672a2.831,2.831,0,0,0,2.866,2.8H134.716a2.831,2.831,0,0,0,2.866-2.795V44.721A8.494,8.494,0,0,0,128.983,36.336Z" transform="translate(0 -13.975)" fill="#d8b62c"/>
        </g>
        <g id="lego_1_7" data-name="lego (1)" transform="translate(134.626 102.893)">
          <g id="Group_1-7" data-name="Group 1" transform="translate(17.198)">
            <path id="Path_1-7" data-name="Path 1" d="M48.3,13.975H25.369a8.494,8.494,0,0,0-8.6,8.385v16.77a2.831,2.831,0,0,0,2.866,2.8h34.4a2.831,2.831,0,0,0,2.866-2.8V22.36a8.494,8.494,0,0,0-8.6-8.385Z" transform="translate(-16.77 -13.975)" fill="#e0bc2a"/>
            <path id="Path_2-7" data-name="Path 2" d="M109.791,13.975H86.861a8.494,8.494,0,0,0-8.6,8.385v16.77a2.831,2.831,0,0,0,2.866,2.8h34.4a2.831,2.831,0,0,0,2.866-2.795V22.36a8.494,8.494,0,0,0-8.6-8.385Z" transform="translate(-15.203 -13.975)" fill="#e0bc2a"/>
          </g>
          <path id="Path_3-7" data-name="Path 3" d="M128.983,36.336H8.6A8.494,8.494,0,0,0,0,44.721v72.672a2.831,2.831,0,0,0,2.866,2.8H134.716a2.831,2.831,0,0,0,2.866-2.795V44.721A8.494,8.494,0,0,0,128.983,36.336Z" transform="translate(0 -13.975)" fill="#e0bc2a"/>
        </g>
        <g id="lego_1_8" data-name="lego (1)" transform="translate(404.684 102.893)">
          <g id="Group_1-8" data-name="Group 1" transform="translate(17.198)">
            <path id="Path_1-8" data-name="Path 1" d="M48.3,13.975H25.369a8.494,8.494,0,0,0-8.6,8.385v16.77a2.831,2.831,0,0,0,2.866,2.8h34.4a2.831,2.831,0,0,0,2.866-2.8V22.36a8.494,8.494,0,0,0-8.6-8.385Z" transform="translate(-16.77 -13.975)" fill="#e0bc2a"/>
            <path id="Path_2-8" data-name="Path 2" d="M109.791,13.975H86.861a8.494,8.494,0,0,0-8.6,8.385v16.77a2.831,2.831,0,0,0,2.866,2.8h34.4a2.831,2.831,0,0,0,2.866-2.795V22.36a8.494,8.494,0,0,0-8.6-8.385Z" transform="translate(-15.203 -13.975)" fill="#e0bc2a"/>
          </g>
          <path id="Path_3-8" data-name="Path 3" d="M128.983,36.336H8.6A8.494,8.494,0,0,0,0,44.721v72.672a2.831,2.831,0,0,0,2.866,2.8H134.716a2.831,2.831,0,0,0,2.866-2.795V44.721A8.494,8.494,0,0,0,128.983,36.336Z" transform="translate(0 -13.975)" fill="#e0bc2a"/>
        </g>
        <g id="lego_1_9" data-name="lego (1)" transform="translate(-2.016 25.592)">
          <g id="Group_1-9" data-name="Group 1" transform="translate(17.198)">
            <path id="Path_1-9" data-name="Path 1" d="M48.3,13.975H25.369a8.494,8.494,0,0,0-8.6,8.385v16.77a2.831,2.831,0,0,0,2.866,2.8h34.4a2.831,2.831,0,0,0,2.866-2.8V22.36a8.494,8.494,0,0,0-8.6-8.385Z" transform="translate(-16.77 -13.975)" fill="#e0bc2a"/>
            <path id="Path_2-9" data-name="Path 2" d="M109.791,13.975H86.861a8.494,8.494,0,0,0-8.6,8.385v16.77a2.831,2.831,0,0,0,2.866,2.8h34.4a2.831,2.831,0,0,0,2.866-2.795V22.36a8.494,8.494,0,0,0-8.6-8.385Z" transform="translate(-15.203 -13.975)" fill="#e0bc2a"/>
          </g>
          <path id="Path_3-9" data-name="Path 3" d="M128.983,36.336H8.6A8.494,8.494,0,0,0,0,44.721v72.672a2.831,2.831,0,0,0,2.866,2.8H134.716a2.831,2.831,0,0,0,2.866-2.795V44.721A8.494,8.494,0,0,0,128.983,36.336Z" transform="translate(0 -13.975)" fill="#e0bc2a"/>
        </g>
        <g id="lego_1_10" data-name="lego (1)" transform="translate(269.923 25.592)">
          <g id="Group_1-10" data-name="Group 1" transform="translate(17.198)">
            <path id="Path_1-10" data-name="Path 1" d="M48.3,13.975H25.369a8.494,8.494,0,0,0-8.6,8.385v16.77a2.831,2.831,0,0,0,2.866,2.8h34.4a2.831,2.831,0,0,0,2.866-2.8V22.36a8.494,8.494,0,0,0-8.6-8.385Z" transform="translate(-16.77 -13.975)" fill="#e0bc2a"/>
            <path id="Path_2-10" data-name="Path 2" d="M109.791,13.975H86.861a8.494,8.494,0,0,0-8.6,8.385v16.77a2.831,2.831,0,0,0,2.866,2.8h34.4a2.831,2.831,0,0,0,2.866-2.795V22.36a8.494,8.494,0,0,0-8.6-8.385Z" transform="translate(-15.203 -13.975)" fill="#e0bc2a"/>
          </g>
          <path id="Path_3-10" data-name="Path 3" d="M128.983,36.336H8.6A8.494,8.494,0,0,0,0,44.721v72.672a2.831,2.831,0,0,0,2.866,2.8H134.716a2.831,2.831,0,0,0,2.866-2.795V44.721A8.494,8.494,0,0,0,128.983,36.336Z" transform="translate(0 -13.975)" fill="#e0bc2a"/>
        </g>
        <g id="lego_1_11" data-name="lego (1)" transform="translate(134.491 25.592)">
          <g id="Group_1-11" data-name="Group 1" transform="translate(17.198)">
            <path id="Path_1-11" data-name="Path 1" d="M48.3,13.975H25.369a8.494,8.494,0,0,0-8.6,8.385v16.77a2.831,2.831,0,0,0,2.866,2.8h34.4a2.831,2.831,0,0,0,2.866-2.8V22.36a8.494,8.494,0,0,0-8.6-8.385Z" transform="translate(-16.77 -13.975)" fill="#d8b62c"/>
            <path id="Path_2-11" data-name="Path 2" d="M109.791,13.975H86.861a8.494,8.494,0,0,0-8.6,8.385v16.77a2.831,2.831,0,0,0,2.866,2.8h34.4a2.831,2.831,0,0,0,2.866-2.795V22.36a8.494,8.494,0,0,0-8.6-8.385Z" transform="translate(-15.203 -13.975)" fill="#d8b62c"/>
          </g>
          <path id="Path_3-11" data-name="Path 3" d="M128.983,36.336H8.6A8.494,8.494,0,0,0,0,44.721v72.672a2.831,2.831,0,0,0,2.866,2.8H134.716a2.831,2.831,0,0,0,2.866-2.795V44.721A8.494,8.494,0,0,0,128.983,36.336Z" transform="translate(0 -13.975)" fill="#d8b62c"/>
        </g>
        <g id="lego_1_12" data-name="lego (1)" transform="translate(404.549 25.592)">
          <g id="Group_1-12" data-name="Group 1" transform="translate(17.198)">
            <path id="Path_1-12" data-name="Path 1" d="M48.3,13.975H25.369a8.494,8.494,0,0,0-8.6,8.385v16.77a2.831,2.831,0,0,0,2.866,2.8h34.4a2.831,2.831,0,0,0,2.866-2.8V22.36a8.494,8.494,0,0,0-8.6-8.385Z" transform="translate(-16.77 -13.975)" fill="#d8b62c"/>
            <path id="Path_2-12" data-name="Path 2" d="M109.791,13.975H86.861a8.494,8.494,0,0,0-8.6,8.385v16.77a2.831,2.831,0,0,0,2.866,2.8h34.4a2.831,2.831,0,0,0,2.866-2.795V22.36a8.494,8.494,0,0,0-8.6-8.385Z" transform="translate(-15.203 -13.975)" fill="#d8b62c"/>
          </g>
          <path id="Path_3-12" data-name="Path 3" d="M128.983,36.336H8.6A8.494,8.494,0,0,0,0,44.721v72.672a2.831,2.831,0,0,0,2.866,2.8H134.716a2.831,2.831,0,0,0,2.866-2.795V44.721A8.494,8.494,0,0,0,128.983,36.336Z" transform="translate(0 -13.975)" fill="#d8b62c"/>
        </g>
        <g id="lego_1_13" data-name="lego (1)" transform="translate(-2.151 -51.272)">
          <g id="Group_1-13" data-name="Group 1" transform="translate(17.198)">
            <path id="Path_1-13" data-name="Path 1" d="M48.3,13.975H25.369a8.494,8.494,0,0,0-8.6,8.385v16.77a2.831,2.831,0,0,0,2.866,2.8h34.4a2.831,2.831,0,0,0,2.866-2.8V22.36a8.494,8.494,0,0,0-8.6-8.385Z" transform="translate(-16.77 -13.975)" fill="#d8b62c"/>
            <path id="Path_2-13" data-name="Path 2" d="M109.791,13.975H86.861a8.494,8.494,0,0,0-8.6,8.385v16.77a2.831,2.831,0,0,0,2.866,2.8h34.4a2.831,2.831,0,0,0,2.866-2.795V22.36a8.494,8.494,0,0,0-8.6-8.385Z" transform="translate(-15.203 -13.975)" fill="#d8b62c"/>
          </g>
          <path id="Path_3-13" data-name="Path 3" d="M128.983,36.336H8.6A8.494,8.494,0,0,0,0,44.721v72.672a2.831,2.831,0,0,0,2.866,2.8H134.716a2.831,2.831,0,0,0,2.866-2.795V44.721A8.494,8.494,0,0,0,128.983,36.336Z" transform="translate(0 -13.975)" fill="#d8b62c"/>
        </g>
        <g id="lego_1_14" data-name="lego (1)" transform="translate(269.788 -51.272)">
          <g id="Group_1-14" data-name="Group 1" transform="translate(17.198)">
            <path id="Path_1-14" data-name="Path 1" d="M48.3,13.975H25.369a8.494,8.494,0,0,0-8.6,8.385v16.77a2.831,2.831,0,0,0,2.866,2.8h34.4a2.831,2.831,0,0,0,2.866-2.8V22.36a8.494,8.494,0,0,0-8.6-8.385Z" transform="translate(-16.77 -13.975)" fill="#d8b62c"/>
            <path id="Path_2-14" data-name="Path 2" d="M109.791,13.975H86.861a8.494,8.494,0,0,0-8.6,8.385v16.77a2.831,2.831,0,0,0,2.866,2.8h34.4a2.831,2.831,0,0,0,2.866-2.795V22.36a8.494,8.494,0,0,0-8.6-8.385Z" transform="translate(-15.203 -13.975)" fill="#d8b62c"/>
          </g>
          <path id="Path_3-14" data-name="Path 3" d="M128.983,36.336H8.6A8.494,8.494,0,0,0,0,44.721v72.672a2.831,2.831,0,0,0,2.866,2.8H134.716a2.831,2.831,0,0,0,2.866-2.795V44.721A8.494,8.494,0,0,0,128.983,36.336Z" transform="translate(0 -13.975)" fill="#d8b62c"/>
        </g>
        <g id="lego_1_15" data-name="lego (1)" transform="translate(134.356 -51.272)">
          <g id="Group_1-15" data-name="Group 1" transform="translate(17.198)">
            <path id="Path_1-15" data-name="Path 1" d="M48.3,13.975H25.369a8.494,8.494,0,0,0-8.6,8.385v16.77a2.831,2.831,0,0,0,2.866,2.8h34.4a2.831,2.831,0,0,0,2.866-2.8V22.36a8.494,8.494,0,0,0-8.6-8.385Z" transform="translate(-16.77 -13.975)" fill="#e0bc2a"/>
            <path id="Path_2-15" data-name="Path 2" d="M109.791,13.975H86.861a8.494,8.494,0,0,0-8.6,8.385v16.77a2.831,2.831,0,0,0,2.866,2.8h34.4a2.831,2.831,0,0,0,2.866-2.795V22.36a8.494,8.494,0,0,0-8.6-8.385Z" transform="translate(-15.203 -13.975)" fill="#e0bc2a"/>
          </g>
          <path id="Path_3-15" data-name="Path 3" d="M128.983,36.336H8.6A8.494,8.494,0,0,0,0,44.721v72.672a2.831,2.831,0,0,0,2.866,2.8H134.716a2.831,2.831,0,0,0,2.866-2.795V44.721A8.494,8.494,0,0,0,128.983,36.336Z" transform="translate(0 -13.975)" fill="#e0bc2a"/>
        </g>
        <g id="lego_1_16" data-name="lego (1)" transform="translate(404.414 -51.272)">
          <g id="Group_1-16" data-name="Group 1" transform="translate(17.198)">
            <path id="Path_1-16" data-name="Path 1" d="M48.3,13.975H25.369a8.494,8.494,0,0,0-8.6,8.385v16.77a2.831,2.831,0,0,0,2.866,2.8h34.4a2.831,2.831,0,0,0,2.866-2.8V22.36a8.494,8.494,0,0,0-8.6-8.385Z" transform="translate(-16.77 -13.975)" fill="#e0bc2a"/>
            <path id="Path_2-16" data-name="Path 2" d="M109.791,13.975H86.861a8.494,8.494,0,0,0-8.6,8.385v16.77a2.831,2.831,0,0,0,2.866,2.8h34.4a2.831,2.831,0,0,0,2.866-2.795V22.36a8.494,8.494,0,0,0-8.6-8.385Z" transform="translate(-15.203 -13.975)" fill="#e0bc2a"/>
          </g>
          <path id="Path_3-16" data-name="Path 3" d="M128.983,36.336H8.6A8.494,8.494,0,0,0,0,44.721v72.672a2.831,2.831,0,0,0,2.866,2.8H134.716a2.831,2.831,0,0,0,2.866-2.795V44.721A8.494,8.494,0,0,0,128.983,36.336Z" transform="translate(0 -13.975)" fill="#e0bc2a"/>
        </g>
      </g>
    </g>
    <text id="WORKING" transform="translate(133 339)" fill="#d8b62c" font-size="45" font-family="Rockwell-Bold, Rockwell" font-weight="700"><tspan x="0" y="0">WORKING</tspan></text>
    <rect id="Rectangle_4" data-name="Rectangle 4" width="77" height="33" rx="16.5" transform="translate(134 362)" fill="#e0bc2a"/>
    <rect id="Rectangle_5" data-name="Rectangle 5" width="147" height="33" rx="16.5" transform="translate(229 362)" fill="#e0bc2a"/>
    <text id="HTML" transform="translate(143 387)" fill="#fff" font-size="22" font-family="Rockwell"><tspan x="0" y="0">HTML</tspan></text>
    <text id="Intermediate" transform="translate(237 387)" fill="#fff" font-size="22" font-family="Rockwell"><tspan x="0" y="0">Intermediate</tspan></text>
  </g>
</svg>
