<svg xmlns="http://www.w3.org/2000/svg" xmlns:xlink="http://www.w3.org/1999/xlink" width="510" height="525" viewBox="0 0 510 525">
  <defs>
    <clipPath id="clip-path">
      <rect id="Rectangle_1" data-name="Rectangle 1" width="510" height="296" transform="translate(10 183)" fill="#fff" stroke="#707070" stroke-width="1"/>
    </clipPath>
    <clipPath id="clip-path-2">
      <rect id="Rectangle_3" data-name="Rectangle 3" width="510" height="281.795"/>
    </clipPath>
    <clipPath id="clip-htmlBegGames">
      <rect width="510" height="525"/>
    </clipPath>
  </defs>
  <g id="htmlBegGames" clip-path="url(#clip-htmlBegGames)">
    <rect width="510" height="525" fill="#bff8bf"/>
    <text id="BASICS" transform="translate(177 339)" fill="#2a9132" font-size="45" font-family="Rockwell-Bold, Rockwell" font-weight="700"><tspan x="0" y="0">BASICS</tspan></text>
    <g id="Mask_Group_1" data-name="Mask Group 1" transform="translate(-10 -190)" clip-path="url(#clip-path)">
      <g id="htmlDefaultBeginner" transform="translate(10 190.046)" clip-path="url(#clip-path-2)">
        <rect id="Rectangle_2" data-name="Rectangle 2" width="510" height="281.795" fill="#fff"/>
        <g id="lego_1_" data-name="lego (1)" transform="translate(-1.594 176.817)">
          <g id="Group_1" data-name="Group 1" transform="translate(17 0)">
            <path id="Path_1" data-name="Path 1" d="M47.533,13.639H24.867a8.426,8.426,0,0,0-8.5,8.349v16.7A2.809,2.809,0,0,0,19.2,41.47h34a2.809,2.809,0,0,0,2.833-2.783v-16.7a8.426,8.426,0,0,0-8.5-8.349Z" transform="translate(-16.367 -13.639)" fill="#2a9132"/>
            <path id="Path_2" data-name="Path 2" d="M107.544,13.639H84.878a8.426,8.426,0,0,0-8.5,8.349v16.7a2.809,2.809,0,0,0,2.833,2.783h34a2.809,2.809,0,0,0,2.833-2.783v-16.7a8.426,8.426,0,0,0-8.5-8.349Z" transform="translate(-14.044 -13.639)" fill="#2a9132"/>
          </g>
          <path id="Path_3" data-name="Path 3" d="M127.5,35.461H8.5A8.426,8.426,0,0,0,0,43.811v72.362a2.809,2.809,0,0,0,2.833,2.783H133.167A2.809,2.809,0,0,0,136,116.173V43.811A8.426,8.426,0,0,0,127.5,35.461Z" transform="translate(0 -13.196)" fill="#2a9132"/>
        </g>
        <g id="lego_1_2" data-name="lego (1)" transform="translate(267.219 176.817)">
          <g id="Group_1-2" data-name="Group 1" transform="translate(17 0)">
            <path id="Path_1-2" data-name="Path 1" d="M47.533,13.639H24.867a8.426,8.426,0,0,0-8.5,8.349v16.7A2.809,2.809,0,0,0,19.2,41.47h34a2.809,2.809,0,0,0,2.833-2.783v-16.7a8.426,8.426,0,0,0-8.5-8.349Z" transform="translate(-16.367 -13.639)" fill="#2a9132"/>
            <path id="Path_2-2" data-name="Path 2" d="M107.544,13.639H84.878a8.426,8.426,0,0,0-8.5,8.349v16.7a2.809,2.809,0,0,0,2.833,2.783h34a2.809,2.809,0,0,0,2.833-2.783v-16.7a8.426,8.426,0,0,0-8.5-8.349Z" transform="translate(-14.044 -13.639)" fill="#2a9132"/>
          </g>
          <path id="Path_3-2" data-name="Path 3" d="M127.5,35.461H8.5A8.426,8.426,0,0,0,0,43.811v72.362a2.809,2.809,0,0,0,2.833,2.783H133.167A2.809,2.809,0,0,0,136,116.173V43.811A8.426,8.426,0,0,0,127.5,35.461Z" transform="translate(0 -13.196)" fill="#2a9132"/>
        </g>
        <g id="lego_1_3" data-name="lego (1)" transform="translate(-1.86 102.455)">
          <g id="Group_1-3" data-name="Group 1" transform="translate(17 0)">
            <path id="Path_1-3" data-name="Path 1" d="M47.533,13.639H24.867a8.426,8.426,0,0,0-8.5,8.349v16.7A2.809,2.809,0,0,0,19.2,41.47h34a2.809,2.809,0,0,0,2.833-2.783v-16.7a8.426,8.426,0,0,0-8.5-8.349Z" transform="translate(-16.367 -13.639)" fill="#216f27"/>
            <path id="Path_2-3" data-name="Path 2" d="M107.544,13.639H84.878a8.426,8.426,0,0,0-8.5,8.349v16.7a2.809,2.809,0,0,0,2.833,2.783h34a2.809,2.809,0,0,0,2.833-2.783v-16.7a8.426,8.426,0,0,0-8.5-8.349Z" transform="translate(-14.044 -13.639)" fill="#216f27"/>
          </g>
          <path id="Path_3-3" data-name="Path 3" d="M127.5,35.461H8.5A8.426,8.426,0,0,0,0,43.811v72.362a2.809,2.809,0,0,0,2.833,2.783H133.167A2.809,2.809,0,0,0,136,116.173V43.811A8.426,8.426,0,0,0,127.5,35.461Z" transform="translate(0 -13.196)" fill="#2b9834"/>
        </g>
        <g id="lego_1_4" data-name="lego (1)" transform="translate(133.344 176.817)">
          <g id="Group_1-4" data-name="Group 1" transform="translate(17 0)">
            <path id="Path_1-4" data-name="Path 1" d="M47.533,13.639H24.867a8.426,8.426,0,0,0-8.5,8.349v16.7A2.809,2.809,0,0,0,19.2,41.47h34a2.809,2.809,0,0,0,2.833-2.783v-16.7a8.426,8.426,0,0,0-8.5-8.349Z" transform="translate(-16.367 -13.639)" fill="#2b9834"/>
            <path id="Path_2-4" data-name="Path 2" d="M107.544,13.639H84.878a8.426,8.426,0,0,0-8.5,8.349v16.7a2.809,2.809,0,0,0,2.833,2.783h34a2.809,2.809,0,0,0,2.833-2.783v-16.7a8.426,8.426,0,0,0-8.5-8.349Z" transform="translate(-14.044 -13.639)" fill="#2b9834"/>
          </g>
          <path id="Path_3-4" data-name="Path 3" d="M127.5,35.461H8.5A8.426,8.426,0,0,0,0,43.811v72.362a2.809,2.809,0,0,0,2.833,2.783H133.167A2.809,2.809,0,0,0,136,116.173V43.811A8.426,8.426,0,0,0,127.5,35.461Z" transform="translate(0 -13.196)" fill="#2b9834"/>
        </g>
        <g id="lego_1_5" data-name="lego (1)" transform="translate(266.952 102.455)">
          <g id="Group_1-5" data-name="Group 1" transform="translate(17 0)">
            <path id="Path_1-5" data-name="Path 1" d="M47.533,13.639H24.867a8.426,8.426,0,0,0-8.5,8.349v16.7A2.809,2.809,0,0,0,19.2,41.47h34a2.809,2.809,0,0,0,2.833-2.783v-16.7a8.426,8.426,0,0,0-8.5-8.349Z" transform="translate(-16.367 -13.639)" fill="#216f27"/>
            <path id="Path_2-5" data-name="Path 2" d="M107.544,13.639H84.878a8.426,8.426,0,0,0-8.5,8.349v16.7a2.809,2.809,0,0,0,2.833,2.783h34a2.809,2.809,0,0,0,2.833-2.783v-16.7a8.426,8.426,0,0,0-8.5-8.349Z" transform="translate(-14.044 -13.639)" fill="#216f27"/>
          </g>
          <path id="Path_3-5" data-name="Path 3" d="M127.5,35.461H8.5A8.426,8.426,0,0,0,0,43.811v72.362a2.809,2.809,0,0,0,2.833,2.783H133.167A2.809,2.809,0,0,0,136,116.173V43.811A8.426,8.426,0,0,0,127.5,35.461Z" transform="translate(0 -13.196)" fill="#2b9834"/>
        </g>
        <g id="lego_1_6" data-name="lego (1)" transform="translate(400.297 176.817)">
          <g id="Group_1-6" data-name="Group 1" transform="translate(17 0)">
            <path id="Path_1-6" data-name="Path 1" d="M47.533,13.639H24.867a8.426,8.426,0,0,0-8.5,8.349v16.7A2.809,2.809,0,0,0,19.2,41.47h34a2.809,2.809,0,0,0,2.833-2.783v-16.7a8.426,8.426,0,0,0-8.5-8.349Z" transform="translate(-16.367 -13.639)" fill="#2b9834"/>
            <path id="Path_2-6" data-name="Path 2" d="M107.544,13.639H84.878a8.426,8.426,0,0,0-8.5,8.349v16.7a2.809,2.809,0,0,0,2.833,2.783h34a2.809,2.809,0,0,0,2.833-2.783v-16.7a8.426,8.426,0,0,0-8.5-8.349Z" transform="translate(-14.044 -13.639)" fill="#2b9834"/>
          </g>
          <path id="Path_3-6" data-name="Path 3" d="M127.5,35.461H8.5A8.426,8.426,0,0,0,0,43.811v72.362a2.809,2.809,0,0,0,2.833,2.783H133.167A2.809,2.809,0,0,0,136,116.173V43.811A8.426,8.426,0,0,0,127.5,35.461Z" transform="translate(0 -13.196)" fill="#2b9834"/>
        </g>
        <g id="lego_1_7" data-name="lego (1)" transform="translate(133.078 102.455)">
          <g id="Group_1-7" data-name="Group 1" transform="translate(17 0)">
            <path id="Path_1-7" data-name="Path 1" d="M47.533,13.639H24.867a8.426,8.426,0,0,0-8.5,8.349v16.7A2.809,2.809,0,0,0,19.2,41.47h34a2.809,2.809,0,0,0,2.833-2.783v-16.7a8.426,8.426,0,0,0-8.5-8.349Z" transform="translate(-16.367 -13.639)" fill="#2a9132"/>
            <path id="Path_2-7" data-name="Path 2" d="M107.544,13.639H84.878a8.426,8.426,0,0,0-8.5,8.349v16.7a2.809,2.809,0,0,0,2.833,2.783h34a2.809,2.809,0,0,0,2.833-2.783v-16.7a8.426,8.426,0,0,0-8.5-8.349Z" transform="translate(-14.044 -13.639)" fill="#2a9132"/>
          </g>
          <path id="Path_3-7" data-name="Path 3" d="M127.5,35.461H8.5A8.426,8.426,0,0,0,0,43.811v72.362a2.809,2.809,0,0,0,2.833,2.783H133.167A2.809,2.809,0,0,0,136,116.173V43.811A8.426,8.426,0,0,0,127.5,35.461Z" transform="translate(0 -13.196)" fill="#2a9132"/>
        </g>
        <g id="lego_1_8" data-name="lego (1)" transform="translate(400.031 102.455)">
          <g id="Group_1-8" data-name="Group 1" transform="translate(17 0)">
            <path id="Path_1-8" data-name="Path 1" d="M47.533,13.639H24.867a8.426,8.426,0,0,0-8.5,8.349v16.7A2.809,2.809,0,0,0,19.2,41.47h34a2.809,2.809,0,0,0,2.833-2.783v-16.7a8.426,8.426,0,0,0-8.5-8.349Z" transform="translate(-16.367 -13.639)" fill="#2a9132"/>
            <path id="Path_2-8" data-name="Path 2" d="M107.544,13.639H84.878a8.426,8.426,0,0,0-8.5,8.349v16.7a2.809,2.809,0,0,0,2.833,2.783h34a2.809,2.809,0,0,0,2.833-2.783v-16.7a8.426,8.426,0,0,0-8.5-8.349Z" transform="translate(-14.044 -13.639)" fill="#2a9132"/>
          </g>
          <path id="Path_3-8" data-name="Path 3" d="M127.5,35.461H8.5A8.426,8.426,0,0,0,0,43.811v72.362a2.809,2.809,0,0,0,2.833,2.783H133.167A2.809,2.809,0,0,0,136,116.173V43.811A8.426,8.426,0,0,0,127.5,35.461Z" transform="translate(0 -13.196)" fill="#2a9132"/>
        </g>
        <g id="lego_1_9" data-name="lego (1)" transform="translate(-1.993 25.483)">
          <g id="Group_1-9" data-name="Group 1" transform="translate(17 0)">
            <path id="Path_1-9" data-name="Path 1" d="M47.533,13.639H24.867a8.426,8.426,0,0,0-8.5,8.349v16.7A2.809,2.809,0,0,0,19.2,41.47h34a2.809,2.809,0,0,0,2.833-2.783v-16.7a8.426,8.426,0,0,0-8.5-8.349Z" transform="translate(-16.367 -13.639)" fill="#2a9132"/>
            <path id="Path_2-9" data-name="Path 2" d="M107.544,13.639H84.878a8.426,8.426,0,0,0-8.5,8.349v16.7a2.809,2.809,0,0,0,2.833,2.783h34a2.809,2.809,0,0,0,2.833-2.783v-16.7a8.426,8.426,0,0,0-8.5-8.349Z" transform="translate(-14.044 -13.639)" fill="#2a9132"/>
          </g>
          <path id="Path_3-9" data-name="Path 3" d="M127.5,35.461H8.5A8.426,8.426,0,0,0,0,43.811v72.362a2.809,2.809,0,0,0,2.833,2.783H133.167A2.809,2.809,0,0,0,136,116.173V43.811A8.426,8.426,0,0,0,127.5,35.461Z" transform="translate(0 -13.196)" fill="#2a9132"/>
        </g>
        <g id="lego_1_10" data-name="lego (1)" transform="translate(266.819 25.483)">
          <g id="Group_1-10" data-name="Group 1" transform="translate(17 0)">
            <path id="Path_1-10" data-name="Path 1" d="M47.533,13.639H24.867a8.426,8.426,0,0,0-8.5,8.349v16.7A2.809,2.809,0,0,0,19.2,41.47h34a2.809,2.809,0,0,0,2.833-2.783v-16.7a8.426,8.426,0,0,0-8.5-8.349Z" transform="translate(-16.367 -13.639)" fill="#2a9132"/>
            <path id="Path_2-10" data-name="Path 2" d="M107.544,13.639H84.878a8.426,8.426,0,0,0-8.5,8.349v16.7a2.809,2.809,0,0,0,2.833,2.783h34a2.809,2.809,0,0,0,2.833-2.783v-16.7a8.426,8.426,0,0,0-8.5-8.349Z" transform="translate(-14.044 -13.639)" fill="#2a9132"/>
          </g>
          <path id="Path_3-10" data-name="Path 3" d="M127.5,35.461H8.5A8.426,8.426,0,0,0,0,43.811v72.362a2.809,2.809,0,0,0,2.833,2.783H133.167A2.809,2.809,0,0,0,136,116.173V43.811A8.426,8.426,0,0,0,127.5,35.461Z" transform="translate(0 -13.196)" fill="#2a9132"/>
        </g>
        <g id="lego_1_11" data-name="lego (1)" transform="translate(132.945 25.483)">
          <g id="Group_1-11" data-name="Group 1" transform="translate(17 0)">
            <path id="Path_1-11" data-name="Path 1" d="M47.533,13.639H24.867a8.426,8.426,0,0,0-8.5,8.349v16.7A2.809,2.809,0,0,0,19.2,41.47h34a2.809,2.809,0,0,0,2.833-2.783v-16.7a8.426,8.426,0,0,0-8.5-8.349Z" transform="translate(-16.367 -13.639)" fill="#2b9834"/>
            <path id="Path_2-11" data-name="Path 2" d="M107.544,13.639H84.878a8.426,8.426,0,0,0-8.5,8.349v16.7a2.809,2.809,0,0,0,2.833,2.783h34a2.809,2.809,0,0,0,2.833-2.783v-16.7a8.426,8.426,0,0,0-8.5-8.349Z" transform="translate(-14.044 -13.639)" fill="#2b9834"/>
          </g>
          <path id="Path_3-11" data-name="Path 3" d="M127.5,35.461H8.5A8.426,8.426,0,0,0,0,43.811v72.362a2.809,2.809,0,0,0,2.833,2.783H133.167A2.809,2.809,0,0,0,136,116.173V43.811A8.426,8.426,0,0,0,127.5,35.461Z" transform="translate(0 -13.196)" fill="#2b9834"/>
        </g>
        <g id="lego_1_12" data-name="lego (1)" transform="translate(399.898 25.483)">
          <g id="Group_1-12" data-name="Group 1" transform="translate(17 0)">
            <path id="Path_1-12" data-name="Path 1" d="M47.533,13.639H24.867a8.426,8.426,0,0,0-8.5,8.349v16.7A2.809,2.809,0,0,0,19.2,41.47h34a2.809,2.809,0,0,0,2.833-2.783v-16.7a8.426,8.426,0,0,0-8.5-8.349Z" transform="translate(-16.367 -13.639)" fill="#2b9834"/>
            <path id="Path_2-12" data-name="Path 2" d="M107.544,13.639H84.878a8.426,8.426,0,0,0-8.5,8.349v16.7a2.809,2.809,0,0,0,2.833,2.783h34a2.809,2.809,0,0,0,2.833-2.783v-16.7a8.426,8.426,0,0,0-8.5-8.349Z" transform="translate(-14.044 -13.639)" fill="#2b9834"/>
          </g>
          <path id="Path_3-12" data-name="Path 3" d="M127.5,35.461H8.5A8.426,8.426,0,0,0,0,43.811v72.362a2.809,2.809,0,0,0,2.833,2.783H133.167A2.809,2.809,0,0,0,136,116.173V43.811A8.426,8.426,0,0,0,127.5,35.461Z" transform="translate(0 -13.196)" fill="#2b9834"/>
        </g>
        <g id="lego_1_13" data-name="lego (1)" transform="translate(-2.126 -51.054)">
          <g id="Group_1-13" data-name="Group 1" transform="translate(17 0)">
            <path id="Path_1-13" data-name="Path 1" d="M47.533,13.639H24.867a8.426,8.426,0,0,0-8.5,8.349v16.7A2.809,2.809,0,0,0,19.2,41.47h34a2.809,2.809,0,0,0,2.833-2.783v-16.7a8.426,8.426,0,0,0-8.5-8.349Z" transform="translate(-16.367 -13.639)" fill="#216f27"/>
            <path id="Path_2-13" data-name="Path 2" d="M107.544,13.639H84.878a8.426,8.426,0,0,0-8.5,8.349v16.7a2.809,2.809,0,0,0,2.833,2.783h34a2.809,2.809,0,0,0,2.833-2.783v-16.7a8.426,8.426,0,0,0-8.5-8.349Z" transform="translate(-14.044 -13.639)" fill="#216f27"/>
          </g>
          <path id="Path_3-13" data-name="Path 3" d="M127.5,35.461H8.5A8.426,8.426,0,0,0,0,43.811v72.362a2.809,2.809,0,0,0,2.833,2.783H133.167A2.809,2.809,0,0,0,136,116.173V43.811A8.426,8.426,0,0,0,127.5,35.461Z" transform="translate(0 -13.196)" fill="#2b9834"/>
        </g>
        <g id="lego_1_14" data-name="lego (1)" transform="translate(266.686 -51.054)">
          <g id="Group_1-14" data-name="Group 1" transform="translate(17 0)">
            <path id="Path_1-14" data-name="Path 1" d="M47.533,13.639H24.867a8.426,8.426,0,0,0-8.5,8.349v16.7A2.809,2.809,0,0,0,19.2,41.47h34a2.809,2.809,0,0,0,2.833-2.783v-16.7a8.426,8.426,0,0,0-8.5-8.349Z" transform="translate(-16.367 -13.639)" fill="#216f27"/>
            <path id="Path_2-14" data-name="Path 2" d="M107.544,13.639H84.878a8.426,8.426,0,0,0-8.5,8.349v16.7a2.809,2.809,0,0,0,2.833,2.783h34a2.809,2.809,0,0,0,2.833-2.783v-16.7a8.426,8.426,0,0,0-8.5-8.349Z" transform="translate(-14.044 -13.639)" fill="#216f27"/>
          </g>
          <path id="Path_3-14" data-name="Path 3" d="M127.5,35.461H8.5A8.426,8.426,0,0,0,0,43.811v72.362a2.809,2.809,0,0,0,2.833,2.783H133.167A2.809,2.809,0,0,0,136,116.173V43.811A8.426,8.426,0,0,0,127.5,35.461Z" transform="translate(0 -13.196)" fill="#2b9834"/>
        </g>
        <g id="lego_1_15" data-name="lego (1)" transform="translate(132.811 -51.054)">
          <g id="Group_1-15" data-name="Group 1" transform="translate(17 0)">
            <path id="Path_1-15" data-name="Path 1" d="M47.533,13.639H24.867a8.426,8.426,0,0,0-8.5,8.349v16.7A2.809,2.809,0,0,0,19.2,41.47h34a2.809,2.809,0,0,0,2.833-2.783v-16.7a8.426,8.426,0,0,0-8.5-8.349Z" transform="translate(-16.367 -13.639)" fill="#2a9132"/>
            <path id="Path_2-15" data-name="Path 2" d="M107.544,13.639H84.878a8.426,8.426,0,0,0-8.5,8.349v16.7a2.809,2.809,0,0,0,2.833,2.783h34a2.809,2.809,0,0,0,2.833-2.783v-16.7a8.426,8.426,0,0,0-8.5-8.349Z" transform="translate(-14.044 -13.639)" fill="#2a9132"/>
          </g>
          <path id="Path_3-15" data-name="Path 3" d="M127.5,35.461H8.5A8.426,8.426,0,0,0,0,43.811v72.362a2.809,2.809,0,0,0,2.833,2.783H133.167A2.809,2.809,0,0,0,136,116.173V43.811A8.426,8.426,0,0,0,127.5,35.461Z" transform="translate(0 -13.196)" fill="#2a9132"/>
        </g>
        <g id="lego_1_16" data-name="lego (1)" transform="translate(399.765 -51.054)">
          <g id="Group_1-16" data-name="Group 1" transform="translate(17 0)">
            <path id="Path_1-16" data-name="Path 1" d="M47.533,13.639H24.867a8.426,8.426,0,0,0-8.5,8.349v16.7A2.809,2.809,0,0,0,19.2,41.47h34a2.809,2.809,0,0,0,2.833-2.783v-16.7a8.426,8.426,0,0,0-8.5-8.349Z" transform="translate(-16.367 -13.639)" fill="#2a9132"/>
            <path id="Path_2-16" data-name="Path 2" d="M107.544,13.639H84.878a8.426,8.426,0,0,0-8.5,8.349v16.7a2.809,2.809,0,0,0,2.833,2.783h34a2.809,2.809,0,0,0,2.833-2.783v-16.7a8.426,8.426,0,0,0-8.5-8.349Z" transform="translate(-14.044 -13.639)" fill="#2a9132"/>
          </g>
          <path id="Path_3-16" data-name="Path 3" d="M127.5,35.461H8.5A8.426,8.426,0,0,0,0,43.811v72.362a2.809,2.809,0,0,0,2.833,2.783H133.167A2.809,2.809,0,0,0,136,116.173V43.811A8.426,8.426,0,0,0,127.5,35.461Z" transform="translate(0 -13.196)" fill="#2a9132"/>
        </g>
      </g>
    </g>
    <rect id="Rectangle_4" data-name="Rectangle 4" width="77" height="33" rx="16.5" transform="translate(148 362)" fill="#2b9834"/>
    <rect id="Rectangle_5" data-name="Rectangle 5" width="120" height="33" rx="16.5" transform="translate(243 362)" fill="#2b9834"/>
    <text id="HTML" transform="translate(157 387)" fill="#fff" font-size="22" font-family="Rockwell"><tspan x="0" y="0">HTML</tspan></text>
    <text id="Beginners" transform="translate(252 387)" fill="#fff" font-size="22" font-family="Rockwell"><tspan x="0" y="0">Beginners</tspan></text>
  </g>
</svg>
