<?xml version="1.0" encoding="UTF-8" standalone="no"?>
<svg
   xmlns:dc="http://purl.org/dc/elements/1.1/"
   xmlns:cc="http://creativecommons.org/ns#"
   xmlns:rdf="http://www.w3.org/1999/02/22-rdf-syntax-ns#"
   xmlns:svg="http://www.w3.org/2000/svg"
   xmlns="http://www.w3.org/2000/svg"
   xmlns:sodipodi="http://sodipodi.sourceforge.net/DTD/sodipodi-0.dtd"
   xmlns:inkscape="http://www.inkscape.org/namespaces/inkscape"
   id="Layer_1"
   enable-background="new 0 0 511.939 511.939"
   height="512"
   viewBox="0 0 511.939 511.939"
   width="512"
   version="1.1"
   sodipodi:docname="ioan.svg"
   inkscape:version="1.0.2-2 (e86c870879, 2021-01-15)">
  <metadata
     id="metadata61">
    <rdf:RDF>
      <cc:Work
         rdf:about="">
        <dc:format>image/svg+xml</dc:format>
        <dc:type
           rdf:resource="http://purl.org/dc/dcmitype/StillImage" />
      </cc:Work>
    </rdf:RDF>
  </metadata>
  <defs
     id="defs59" />
  <sodipodi:namedview
     pagecolor="#ffffff"
     bordercolor="#666666"
     borderopacity="1"
     objecttolerance="10"
     gridtolerance="10"
     guidetolerance="10"
     inkscape:pageopacity="0"
     inkscape:pageshadow="2"
     inkscape:window-width="1920"
     inkscape:window-height="1001"
     id="namedview57"
     showgrid="false"
     inkscape:zoom="1.65625"
     inkscape:cx="128.7983"
     inkscape:cy="276.07689"
     inkscape:window-x="-9"
     inkscape:window-y="-9"
     inkscape:window-maximized="1"
     inkscape:current-layer="Layer_1" />
  <path
     d="m 193.35077,156.94158 c -7.29153,3.03368 -12.93655,9.83401 -12.93655,18.11255 0,11.94267 10.50043,21.6971 23.99933,19.65424 l 1.68326,-3.24714 v -33.47374 l -10.23341,-1.91278 z"
     fill="#ffbc85"
     id="path2"
     style="stroke-width:0.765114" />
  <path
     d="m 195.33394,175.05413 c 0,-7.43232 4.55626,-13.66418 10.76287,-17.05746 v -0.009 l -10.23341,-1.91278 -2.51263,0.86687 c -7.29153,3.03368 -12.93655,9.83401 -12.93655,18.11255 0,11.94267 10.50043,21.6971 23.99933,19.65424 l 1.18746,-2.28998 c -6.25175,-3.44072 -10.26707,-9.98244 -10.26707,-17.36426 z"
     fill="#f5a96c"
     id="path4"
     style="stroke-width:0.765114" />
  <path
     d="m 367.30864,300.72181 c -2.29152,-0.88753 -29.70938,-11.50578 -51.25347,-19.84935 l -18.71775,4.37798 h -89.26356 l -12.13241,-4.49198 -51.11498,19.96335 c -12.76975,5.25557 -29.86928,21.79122 -29.86928,46.3292 v 24.77132 l 5.06429,4.03139 h 36.72546 v 66.18238 l 4.27623,4.23414 h 190.08724 l 4.37492,-4.99926 v -65.60854 h 38.44698 l 3.24408,-3.84011 c 0,-13.28007 0,-23.63207 0,-24.77132 7.7e-4,-21.13169 -13.52874,-39.60461 -29.86775,-46.3292 z"
     fill="#fff5f5"
     id="path6"
     style="fill:#ff4b4b;fill-opacity:1;stroke-width:0.765114" />
  <path
     d="m 144.82647,300.72181 c -12.76975,5.25557 -29.86928,21.79122 -29.86928,46.3292 v 24.77132 l 5.06429,4.03139 h 21.2319 c 0,-13.85468 0,-26.57241 0,-35.76908 0,-21.11945 10.32063,-36.33756 18.92433,-45.35825 z"
     fill="#eee1dd"
     id="path8"
     style="fill:#ff3636;fill-opacity:1;stroke-width:0.765114" />
  <path
     d="m 266.22253,292.83885 h -20.79962 l -0.75441,1.0635 v 63.95513 c 0,2.00995 1.62969,3.63965 3.63965,3.63965 h 15.49891 c 2.00996,0 3.63965,-1.6297 3.63965,-3.63965 v -63.95513 z"
     fill="#eee1dd"
     id="path10"
     style="fill:#ff3737;fill-opacity:1;stroke-width:0.765114" />
  <path
     d="m 286.60593,265.69872 -0.0115,-14.352 -3.02909,-1.54554 h -56.76993 l -1.29917,1.33972 v 14.52416 c 0,1.58149 -0.53405,2.70467 -1.27927,3.53405 l 7.7e-4,-7.6e-4 7.6e-4,7.6e-4 h -0.002 v 2.65266 l 19.85012,16.82869 -1.81714,3.77583 1.20965,1.44606 h 25.21663 l -0.31753,-5.22189 19.54025,-17.07352 v -2.39405 c 0,0 7.7e-4,7.6e-4 7.7e-4,7.6e-4 -0.80644,-0.96634 -1.28922,-2.19587 -1.29305,-3.51493 z"
     fill="#ffbc85"
     id="path12"
     style="stroke-width:0.765114" />
  <path
     d="m 256.05799,249.80118 h -29.26255 l -1.29917,1.33972 v 14.52416 c 0,1.58149 -0.53405,2.70467 -1.27927,3.53405 l 7.7e-4,-7.6e-4 7.6e-4,7.6e-4 h -0.002 v 2.65266 l 19.85012,16.82869 -1.81714,3.77583 1.20965,1.44606 h 12.59913 z"
     fill="#f5a96c"
     id="path14"
     style="stroke-width:0.765114" />
  <path
     d="m 156.15169,371.82233 h -41.19375 v 64.49454 c 0,5.49734 4.45603,9.95337 9.95337,9.95337 h 36.11262 v -69.57489 c 0,-2.69167 -2.18134,-4.87302 -4.87224,-4.87302 z"
     fill="#ffbc85"
     id="path16"
     style="stroke-width:0.765114" />
  <path
     d="m 141.25415,371.82233 h -26.29621 v 64.49454 c 0,5.49734 4.45603,9.95337 9.95337,9.95337 h 16.34284 c 0,-19.4974 0,-49.30778 0,-74.44791 z"
     fill="#f5a96c"
     id="path18"
     style="stroke-width:0.765114" />
  <path
     d="m 355.98342,371.82233 c -2.69091,0 -4.87225,2.18135 -4.87225,4.87226 v 69.57488 h 36.11262 c 5.49734,0 9.95337,-4.45603 9.95337,-9.95337 v -64.49377 z"
     fill="#ffbc85"
     id="path20"
     style="stroke-width:0.765114" />
  <path
     d="m 293.00228,81.905312 c 0,0 -16.67795,-23.999334 -50.84794,-13.016886 -13.59302,4.368802 -26.60684,5.777376 -37.35134,5.888318 -16.99012,0.175976 -32.09731,14.08116 -37.77292,30.094996 -8.5953,24.25412 7.41548,50.31773 32.955,53.45776 1.43917,0.17674 2.91737,0.2785 4.42923,0.31063 l 2.81792,1.83322 h 13.45071 l 62.11731,-24.48365 19.7017,9.7552 v 12.90671 h 13.55322 l 3.9786,-1.79496 v -48.32384 c 0,-14.864634 -12.16837,-26.850912 -27.03149,-26.627498 z"
     fill="#9d5e5e"
     id="path22"
     style="fill:#b78540;fill-opacity:1;stroke-width:0.765114" />
  <g
     id="g26"
     transform="matrix(0.76511407,0,0,0.76511407,60.12375,60.192139)"
     style="fill:#a87a3b;fill-opacity:1">
    <path
       d="m 188.545,49.832 c 4.574,-12.908 13.509,-24.834 24.796,-32.721 -8.685,1.324 -16.877,1.875 -24.247,1.952 -22.206,0.23 -41.951,18.404 -49.369,39.334 -11.234,31.7 9.692,65.765 43.072,69.869 1.881,0.231 3.813,0.364 5.789,0.406 l 3.683,2.396 h 17.58 l 18.38,-7.245 C 196.255,115.976 177.22,81.789 188.545,49.832 Z"
       fill="#865151"
       id="path24"
       style="fill:#a87a3b;fill-opacity:1" />
  </g>
  <path
     d="m 308.03448,155.39604 -2.37644,1.15227 v 36.63443 l 2.37644,1.5264 c 13.47595,2.04056 23.99857,-7.69629 23.99857,-19.65501 0,-11.98245 -10.56317,-21.67186 -23.99857,-19.65809 z"
     fill="#ffbc85"
     id="path28"
     style="stroke-width:0.765114" />
  <path
     d="m 320.57776,157.09461 c -3.63123,-1.6978 -7.91664,-2.39252 -12.54328,-1.69857 l -2.37644,1.15227 v 36.63443 l 2.37644,1.5264 c 4.63277,0.70161 8.91587,0.0115 12.54328,-1.68248 z"
     fill="#f5a96c"
     id="path30"
     style="stroke-width:0.765114" />
  <path
     d="m 301.1125,140.51306 -10.62821,-6.18136 c -4.27469,-2.48663 -9.53102,-2.61288 -13.92047,-0.33436 -11.68636,6.06583 -27.29392,13.95644 -42.8112,19.15846 v 51.31849 c 0,8.33669 1.67789,16.45149 4.78731,23.90369 h 57.07675 v -21.23191 l 9.75521,-6.12092 2.66336,-6.31678 v -42.60155 c -0.16297,-4.85923 -2.83246,-9.21426 -6.92275,-11.59376 z"
     fill="#fed1a3"
     id="path32"
     style="stroke-width:0.765114" />
  <path
     d="m 240.01355,228.37798 c -3.41547,-7.56697 -5.26781,-15.90136 -5.26781,-24.48059 v -51.07594 c -10.53027,3.60598 -21.05824,6.01762 -30.33219,5.81945 v 36.06747 l 3.97859,6.69934 6.88604,3.82557 v 23.1447 z"
     fill="#ffbc85"
     id="path34"
     style="stroke-width:0.765114" />
  <path
     d="m 292.98087,209.12313 v 4.93115 c 0,5.58763 -4.52949,10.11711 -10.11711,10.11711 h -3.90667 c -3.14232,0 -6.16529,-1.20046 -8.45146,-3.35579 -2.28616,-2.15533 -5.30912,-3.35579 -8.45144,-3.35579 h -5.83094 -5.83093 c -3.14233,0 -6.1653,1.20046 -8.45146,3.35579 -2.28616,2.15533 -5.30912,3.35579 -8.45144,3.35579 h -3.90667 c -5.58764,0 -10.11711,-4.52948 -10.11711,-10.11711 v -4.93115 c 0,-3.64654 -1.96252,-7.01075 -5.13621,-8.80647 l -9.91664,-5.60829 v 19.75601 c 0,23.44616 19.00697,42.45312 42.45312,42.45312 h 9.35734 9.35735 c 23.44615,0 42.45311,-19.00696 42.45311,-42.45312 0,-6.47898 0,-13.65116 0,-19.75601 l -9.91663,5.60829 c -3.1737,1.79572 -5.13621,5.15993 -5.13621,8.80647 z"
     fill="#9d5e5e"
     id="path36"
     style="fill:#fed1a3;fill-opacity:1;stroke-width:0.765114" />
  <path
     d="m 246.86668,256.9175 h 9.35733 9.35735 c 0.77048,0 1.53635,-0.023 2.29687,-0.0636 -0.44146,-0.21041 -0.88447,-0.42081 -1.31446,-0.63657 -13.681,-6.87073 -23.71547,-18.844 -28.56247,-32.90297 -1.42388,0.56083 -2.95257,0.85693 -4.51035,0.85693 h -3.90667 c -5.58763,0 -10.11711,-4.52948 -10.11711,-10.11711 v -4.93115 c 0,-3.64654 -1.96252,-7.01075 -5.13621,-8.80647 l -9.91665,-5.60829 v 19.75601 c -7.6e-4,23.44616 19.00621,42.45312 42.45237,42.45312 z"
     fill="#865151"
     id="path38"
     style="fill:#ffbc85;fill-opacity:1;stroke-width:0.765114" />
  <path
     d="m 278.52245,311.30014 c 1.95393,2.89384 5.9775,3.46995 8.66488,1.24129 l 34.1675,-28.33402 c -14.57911,-5.64616 -26.6873,-10.33575 -28.20332,-10.92268 -0.97155,-0.37547 -1.79408,-0.99653 -2.43429,-1.76495 l -20.91709,17.34558 c -2.33772,1.93894 -2.82475,5.3348 -1.12474,7.85151 z"
     id="path40"
     style="fill:#ff3737;fill-opacity:1;stroke-width:0.832521" />
  <path
     d="m 224.97719,312.54143 c 2.68738,2.22866 6.71179,1.65255 8.66488,-1.24129 l 9.84623,-14.58244 c 1.7,-2.51671 1.21381,-5.9134 -1.12474,-7.85151 l -20.9379,-17.36222 c -0.35549,0.39628 -0.75177,0.73678 -1.1697,1.02067 l -29.59779,11.55955 z"
     id="path42"
     style="fill:#ff3737;fill-opacity:1;stroke-width:0.832521" />
  <path
     id="path961"
     style="fill:#ff4b4b;fill-opacity:1;stroke-width:0.773876"
     d="m 159.14972,445.05026 -4.43272,4.17986 v 10.91124 a 202.64054,232.9279 0 0 0 101.85191,31.562 202.64054,232.9279 0 0 0 104.18562,-33.14415 v -8.57558 l -4.53667,-4.93337 z" />
  <circle
     style="fill:none;fill-opacity:1;stroke:#000000;stroke-width:14.9982;stroke-linecap:round;stroke-linejoin:round;stroke-miterlimit:4;stroke-dasharray:none"
     id="path856"
     cx="255.9695"
     cy="255.9695"
     r="236.04567" />
  <path
     d="m 195.84351,350.14742 c -3.16987,0 -5.73836,2.56925 -5.73836,5.73835 0,3.16911 2.56849,5.73836 5.73836,5.73836 h 13.36501 c 3.16987,0 5.73836,-2.56925 5.73836,-5.73836 0,-3.1691 -2.56849,-5.73835 -5.73836,-5.73835 z"
     id="path48"
     style="stroke-width:0.765114" />
  <path
     d="m 369.3951,295.29103 c -0.0375,-0.0153 -0.075,-0.0306 -0.11171,-0.0451 l -77.03627,-29.83409 -0.009,-11.01229 c 6.61132,-11.11026 11.1785,-16.78078 14.84427,-26.09126 3.48854,-8.86032 6.59346,-27.79572 6.59346,-27.79572 13.8937,-1.05356 23.99856,-12.34894 23.99856,-25.58465 0,-8.48894 -4.20812,-16.75447 -12.00004,-21.65349 v -14.28927 c 0,-3.16911 -2.56849,-5.73836 -5.73836,-5.73836 -3.16987,0 -5.73836,2.56925 -5.73836,5.73836 v 10.41167 c -0.25172,-0.0237 -0.50344,-0.0444 -0.75669,-0.062 -0.96711,-6.04363 -4.60293,-11.02605 -9.51955,-13.89523 -0.007,-0.004 -0.0138,-0.008 -0.0199,-0.0122 h -7.6e-4 l -10.62897,-6.18136 c -5.94723,-3.45908 -13.21658,-3.70162 -19.44843,-0.46672 -33.33832,17.30841 -78.58563,39.5235 -98.29038,7.66644 -5.55396,-8.97861 -6.71694,-19.83328 -3.19205,-29.7813 4.58456,-12.937311 17.19517,-26.116401 32.424,-26.274015 13.62592,-0.141546 26.76292,-2.215005 39.0476,-6.162993 29.48367,-9.478999 43.80354,10.021464 44.37967,10.827894 1.07346,1.544765 2.83475,2.463667 4.71234,2.463667 0.0283,0 0.0574,0 0.0865,-7.65e-4 11.66416,-0.175211 21.20666,9.208148 21.20666,20.889142 v 3.79956 c 0,3.1691 2.56849,5.73835 5.73836,5.73835 3.16987,0 5.73836,-2.56925 5.73836,-5.73835 v -3.79956 c 0,-17.193641 -13.3237,-31.085817 -29.98636,-32.283986 -12.14771,-13.661877 -32.18911,-20.279348 -55.38737,-12.822547 -11.18597,3.595271 -23.18219,5.483573 -35.65584,5.612877 -18.37881,0.190514 -36.11186,14.137778 -43.12183,33.916746 -4.69398,13.24565 -3.14462,27.69866 4.24944,39.65203 4.01073,6.48434 9.45758,11.74068 15.82103,15.46984 -4.42695,4.61288 -7.01457,10.61902 -7.01457,16.97635 0,13.21812 10.08497,24.53109 23.99934,25.58389 0,0 0.90058,19.55909 4.37619,28.53095 3.63195,9.37543 9.45135,14.62698 16.70576,25.11426 v 11.01381 c -11.32445,4.42313 -65.66362,25.6451 -77.01791,30.0797 -0.0321,0.0122 -0.0643,0.0252 -0.0964,0.0382 -16.098,6.62513 -33.424,25.6099 -33.424,51.63526 v 89.26586 c 0,8.65267 7.03904,15.69172 15.69248,15.69172 h 44.21208 c 3.16987,0 5.73836,-2.56925 5.73836,-5.73835 0,-3.16911 -2.56849,-5.73836 -5.73836,-5.73836 h -2.36187 v -99.34165 c 0,-3.1691 -2.56848,-5.73835 -5.73835,-5.73835 -3.16987,0 -5.73836,2.56925 -5.73836,5.73835 v 24.89452 H 120.5986 V 346.9263 c 0,-22.12175 15.69402,-36.62984 26.27172,-41.00476 l 47.91374,-18.7124 28.93661,23.99551 c 4.40629,3.65648 10.97097,3.43307 15.11253,-0.80719 v 47.33531 c 0,5.1714 4.20737,9.378 9.37877,9.378 h 15.49892 c 5.1714,0 9.378,-4.20736 9.378,-9.378 V 310.3768 c 4.13621,4.25709 10.71236,4.49504 15.1309,0.82862 l 28.80884,-23.88916 48.05222,18.60987 c 13.05897,5.40324 26.26101,21.2059 26.26101,41.00017 v 19.03298 h -34.58928 v -24.89452 c 0,-3.1691 -2.56848,-5.73836 -5.73835,-5.73836 -3.16987,0 -5.73836,2.56926 -5.73836,5.73836 v 99.34164 h -1.98439 c -3.16987,0 -5.73835,2.56926 -5.73835,5.73836 0,3.1691 2.56848,5.73836 5.73835,5.73836 h 43.83537 c 8.65267,0 15.69172,-7.03905 15.69172,-15.69173 v -89.26586 c -7.6e-4,-22.30154 -13.74451,-43.53499 -33.42324,-51.63449 z M 326.19752,174.92864 c 0,7.00386 -5.09336,13.0452 -12.50808,14.04214 -0.005,-4.30529 -0.013,-12.44075 -0.0145,-28.0728 7.51189,1.02526 12.52262,7.10256 12.52262,14.03066 z m -127.63403,14.04214 c -7.4239,-0.99618 -12.50885,-7.04287 -12.50885,-14.04214 0,-4.86459 2.98624,-9.42314 7.74372,-12.01994 0.76664,0.18746 3.14921,0.69014 4.77814,0.91278 -0.002,13.73686 -0.008,21.11792 -0.013,25.1493 z m -43.37585,188.4652 v 62.97118 h -30.37426 c -2.32442,0 -4.21578,-1.8906 -4.21578,-4.21501 v -58.75617 z m 54.8671,-213.32987 c 19.34208,-1.39175 41.75916,-11.43157 59.44401,-20.24492 0,0 3.92503,-1.94416 9.55551,-4.86689 0.0184,-0.009 0.0367,-0.0191 0.0551,-0.0283 2.58226,-1.33742 5.74295,-1.33895 8.39177,0.20199 l 10.6282,6.18135 c 2.4981,1.45296 3.99313,4.13086 4.06888,6.86537 32.77127,124.45374 -118.68722,139.45121 -92.14116,11.89141 z m 20.7277,138.04647 -23.77668,-19.71699 16.47673,-6.43538 16.00007,13.26708 c -0.41699,0.61821 -8.36347,12.38796 -8.70012,12.88529 z m 30.82798,53.48147 h -11.3015 v -56.11806 h 11.3015 z m 3.303,-75.02096 c -2.30529,1.91202 -3.70469,4.69933 -3.99007,7.42696 h -9.90747 c -0.28156,-2.73911 -1.67713,-5.50882 -3.99083,-7.42696 l -16.02072,-13.28544 c 0.0513,-0.33436 0.13236,-1.19358 0.13236,-1.78731 v -5.6167 c 4.91509,1.68478 10.365,2.60751 15.63358,2.60751 h 18.71392 c 5.12856,0 10.479,-0.87989 15.28239,-2.48969 l 0.005,5.54938 c 0,0.008 7.7e-4,0.0145 7.7e-4,0.0222 0.003,0.58838 0.0505,1.16833 0.14001,1.73528 z m 16.2426,21.53949 c -0.33588,-0.49809 -8.28236,-12.26708 -8.70011,-12.88529 l 15.79425,-13.09569 c 16.35891,6.33514 12.07121,4.67485 16.52111,6.39788 z m 110.18485,134.03957 c 0,2.32441 -1.89137,4.21501 -4.21502,4.21501 h -30.37426 v -62.97118 h 34.58928 z"
     id="path50"
     sodipodi:nodetypes="ccccscscsssccccccccccccscsssssccscccscsccccsssssscsssccsccccssssccccsccssscsssssccsccscscccccssccccccccccccccccccccccccccscssccccccccccsscccs"
     style="stroke-width:0.765114" />
</svg>
