<?xml version="1.0" encoding="UTF-8" standalone="no"?>
<svg
   xmlns:dc="http://purl.org/dc/elements/1.1/"
   xmlns:cc="http://creativecommons.org/ns#"
   xmlns:rdf="http://www.w3.org/1999/02/22-rdf-syntax-ns#"
   xmlns:svg="http://www.w3.org/2000/svg"
   xmlns="http://www.w3.org/2000/svg"
   xmlns:sodipodi="http://sodipodi.sourceforge.net/DTD/sodipodi-0.dtd"
   xmlns:inkscape="http://www.inkscape.org/namespaces/inkscape"
   version="1.1"
   id="Capa_1"
   x="0px"
   y="0px"
   viewBox="0 0 1511.8111 1511.8111"
   xml:space="preserve"
   sodipodi:docname="lego.svg"
   inkscape:version="1.0.2-2 (e86c870879, 2021-01-15)"
   width="400mm"
   height="400mm"><metadata
   id="metadata45"><rdf:RDF><cc:Work
       rdf:about=""><dc:format>image/svg+xml</dc:format><dc:type
         rdf:resource="http://purl.org/dc/dcmitype/StillImage" /><dc:title></dc:title></cc:Work></rdf:RDF></metadata><defs
   id="defs43" /><sodipodi:namedview
   pagecolor="#ffffff"
   bordercolor="#666666"
   borderopacity="1"
   objecttolerance="10"
   gridtolerance="10"
   guidetolerance="10"
   inkscape:pageopacity="0"
   inkscape:pageshadow="2"
   inkscape:window-width="1920"
   inkscape:window-height="1001"
   id="namedview41"
   showgrid="false"
   inkscape:zoom="0.2927864"
   inkscape:cx="-396.51806"
   inkscape:cy="777.91025"
   inkscape:window-x="-9"
   inkscape:window-y="-9"
   inkscape:window-maximized="1"
   inkscape:current-layer="Capa_1"
   units="mm" />
















<g
   id="g889"
   transform="matrix(2.9022334,0,0,2.9022334,12.93231,12.933761)"><g
     id="g6"
     style="fill:#f051ff;fill-opacity:1">
	<path
   style="fill:#f051ff;fill-opacity:1"
   d="M 181.333,53.333 H 96 c -17.673,0 -32,14.327 -32,32 v 64 C 64,155.224 68.776,160 74.667,160 h 128 c 5.891,0 10.667,-4.776 10.667,-10.667 v -64 c -0.001,-17.673 -14.328,-32 -32.001,-32 z"
   id="path2" />
	<path
   style="fill:#f051ff;fill-opacity:1"
   d="m 416,53.333 h -85.333 c -17.673,0 -32,14.327 -32,32 v 64 c 0,5.891 4.776,10.667 10.667,10.667 h 128 c 5.891,0 10.667,-4.776 10.667,-10.667 v -64 C 448,67.66 433.673,53.333 416,53.333 Z"
   id="path4" />
</g><path
     style="fill:#f26dff;fill-opacity:1"
     d="M 480,138.667 H 32 c -17.673,0 -32,14.327 -32,32 V 448 c 0,5.891 4.776,10.667 10.667,10.667 h 490.667 c 5.891,0 10.667,-4.776 10.667,-10.667 V 170.667 c -10e-4,-17.673 -14.328,-32 -32.001,-32 z"
     id="path8" /><g
     id="g10">
</g><g
     id="g12">
</g><g
     id="g14">
</g><g
     id="g16">
</g><g
     id="g18">
</g><g
     id="g20">
</g><g
     id="g22">
</g><g
     id="g24">
</g><g
     id="g26">
</g><g
     id="g28">
</g><g
     id="g30">
</g><g
     id="g32">
</g><g
     id="g34">
</g><g
     id="g36">
</g><g
     id="g38">
</g></g>
</svg>
