<?xml version="1.0" encoding="UTF-8" standalone="no"?>
<svg
   xmlns:dc="http://purl.org/dc/elements/1.1/"
   xmlns:cc="http://creativecommons.org/ns#"
   xmlns:rdf="http://www.w3.org/1999/02/22-rdf-syntax-ns#"
   xmlns:svg="http://www.w3.org/2000/svg"
   xmlns="http://www.w3.org/2000/svg"
   xmlns:sodipodi="http://sodipodi.sourceforge.net/DTD/sodipodi-0.dtd"
   xmlns:inkscape="http://www.inkscape.org/namespaces/inkscape"
   width="1920"
   height="1080"
   viewBox="0 0 1920 1080"
   version="1.1"
   id="svg160"
   sodipodi:docname="lvl1CSSI.svg"
   inkscape:version="1.0.2-2 (e86c870879, 2021-01-15)">
  <metadata
     id="metadata164">
    <rdf:RDF>
      <cc:Work
         rdf:about="">
        <dc:format>image/svg+xml</dc:format>
        <dc:type
           rdf:resource="http://purl.org/dc/dcmitype/StillImage" />
      </cc:Work>
    </rdf:RDF>
  </metadata>
  <sodipodi:namedview
     pagecolor="#ffffff"
     bordercolor="#666666"
     borderopacity="1"
     objecttolerance="10"
     gridtolerance="10"
     guidetolerance="10"
     inkscape:pageopacity="0"
     inkscape:pageshadow="2"
     inkscape:window-width="1920"
     inkscape:window-height="1001"
     id="namedview162"
     showgrid="false"
     inkscape:zoom="0.6421875"
     inkscape:cx="960"
     inkscape:cy="540"
     inkscape:window-x="-9"
     inkscape:window-y="-9"
     inkscape:window-maximized="1"
     inkscape:current-layer="svg160" />
  <defs
     id="defs5">
    <clipPath
       id="clip-lvl1CSSI">
      <rect
         width="1920"
         height="1080"
         id="rect2" />
    </clipPath>
  </defs>
  <rect
     width="1920"
     height="1080"
     fill="#ffffff"
     id="rect7"
     x="0"
     y="0" />
  <g
     id="lego_1_"
     data-name="lego (1)"
     transform="translate(-6.001,624.333)">
    <g
       id="Group_1"
       data-name="Group 1">
      <path
         id="Path_1"
         data-name="Path 1"
         d="M 181.333,53.333 H 96 a 32,32 0 0 0 -32,32 v 64 A 10.667,10.667 0 0 0 74.667,160 h 128 a 10.667,10.667 0 0 0 10.667,-10.667 v -64 a 32,32 0 0 0 -32.001,-32 z"
         fill="#746232" />
      <path
         id="Path_2"
         data-name="Path 2"
         d="m 416,53.333 h -85.333 a 32,32 0 0 0 -32,32 v 64 A 10.667,10.667 0 0 0 309.334,160 h 128 A 10.667,10.667 0 0 0 448,149.333 v -64 a 32,32 0 0 0 -32,-32 z"
         fill="#746232" />
    </g>
    <path
       id="Path_3"
       data-name="Path 3"
       d="M 480,138.667 H 32 a 32,32 0 0 0 -32,32 V 448 a 10.667,10.667 0 0 0 10.667,10.667 H 501.334 A 10.667,10.667 0 0 0 512,448 V 170.667 a 32,32 0 0 0 -32,-32 z"
       fill="#746232" />
  </g>
  <g
     id="lego_1_2"
     data-name="lego (1)"
     transform="translate(1005.999,624.333)">
    <g
       id="Group_1-2"
       data-name="Group 1">
      <path
         id="Path_1-2"
         data-name="Path 1"
         d="M 181.333,53.333 H 96 a 32,32 0 0 0 -32,32 v 64 A 10.667,10.667 0 0 0 74.667,160 h 128 a 10.667,10.667 0 0 0 10.667,-10.667 v -64 a 32,32 0 0 0 -32.001,-32 z"
         fill="#746232" />
      <path
         id="Path_2-2"
         data-name="Path 2"
         d="m 416,53.333 h -85.333 a 32,32 0 0 0 -32,32 v 64 A 10.667,10.667 0 0 0 309.334,160 h 128 A 10.667,10.667 0 0 0 448,149.333 v -64 a 32,32 0 0 0 -32,-32 z"
         fill="#746232" />
    </g>
    <path
       id="Path_3-2"
       data-name="Path 3"
       d="M 480,138.667 H 32 a 32,32 0 0 0 -32,32 V 448 a 10.667,10.667 0 0 0 10.667,10.667 H 501.334 A 10.667,10.667 0 0 0 512,448 V 170.667 a 32,32 0 0 0 -32,-32 z"
       fill="#746232" />
  </g>
  <g
     id="lego_1_3"
     data-name="lego (1)"
     transform="translate(-94.002,338.333)">
    <g
       id="Group_1-3"
       data-name="Group 1">
      <path
         id="Path_1-3"
         data-name="Path 1"
         d="M 181.333,53.333 H 96 a 32,32 0 0 0 -32,32 v 64 A 10.667,10.667 0 0 0 74.667,160 h 128 a 10.667,10.667 0 0 0 10.667,-10.667 v -64 a 32,32 0 0 0 -32.001,-32 z"
         fill="#89753f" />
      <path
         id="Path_2-3"
         data-name="Path 2"
         d="m 416,53.333 h -85.333 a 32,32 0 0 0 -32,32 v 64 A 10.667,10.667 0 0 0 309.334,160 h 128 A 10.667,10.667 0 0 0 448,149.333 v -64 a 32,32 0 0 0 -32,-32 z"
         fill="#89753f" />
    </g>
    <path
       id="Path_3-3"
       data-name="Path 3"
       d="M 480,138.667 H 32 a 32,32 0 0 0 -32,32 V 448 a 10.667,10.667 0 0 0 10.667,10.667 H 501.334 A 10.667,10.667 0 0 0 512,448 V 170.667 a 32,32 0 0 0 -32,-32 z"
       fill="#89753f" />
  </g>
  <g
     id="lego_1_4"
     data-name="lego (1)"
     transform="translate(502,624.333)">
    <g
       id="Group_1-4"
       data-name="Group 1">
      <path
         id="Path_1-4"
         data-name="Path 1"
         d="M 181.333,53.333 H 96 a 32,32 0 0 0 -32,32 v 64 A 10.667,10.667 0 0 0 74.667,160 h 128 a 10.667,10.667 0 0 0 10.667,-10.667 v -64 a 32,32 0 0 0 -32.001,-32 z"
         fill="#695726" />
      <path
         id="Path_2-4"
         data-name="Path 2"
         d="m 416,53.333 h -85.333 a 32,32 0 0 0 -32,32 v 64 A 10.667,10.667 0 0 0 309.334,160 h 128 A 10.667,10.667 0 0 0 448,149.333 v -64 a 32,32 0 0 0 -32,-32 z"
         fill="#695726" />
    </g>
    <path
       id="Path_3-4"
       data-name="Path 3"
       d="M 480,138.667 H 32 a 32,32 0 0 0 -32,32 V 448 a 10.667,10.667 0 0 0 10.667,10.667 H 501.334 A 10.667,10.667 0 0 0 512,448 V 170.667 a 32,32 0 0 0 -32,-32 z"
       fill="#695726" />
  </g>
  <g
     id="lego_1_5"
     data-name="lego (1)"
     transform="translate(917.998,338.333)">
    <g
       id="Group_1-5"
       data-name="Group 1">
      <path
         id="Path_1-5"
         data-name="Path 1"
         d="M 181.333,53.333 H 96 a 32,32 0 0 0 -32,32 v 64 A 10.667,10.667 0 0 0 74.667,160 h 128 a 10.667,10.667 0 0 0 10.667,-10.667 v -64 a 32,32 0 0 0 -32.001,-32 z"
         fill="#89753f" />
      <path
         id="Path_2-5"
         data-name="Path 2"
         d="m 416,53.333 h -85.333 a 32,32 0 0 0 -32,32 v 64 A 10.667,10.667 0 0 0 309.334,160 h 128 A 10.667,10.667 0 0 0 448,149.333 v -64 a 32,32 0 0 0 -32,-32 z"
         fill="#89753f" />
    </g>
    <path
       id="Path_3-5"
       data-name="Path 3"
       d="M 480,138.667 H 32 a 32,32 0 0 0 -32,32 V 448 a 10.667,10.667 0 0 0 10.667,10.667 H 501.334 A 10.667,10.667 0 0 0 512,448 V 170.667 a 32,32 0 0 0 -32,-32 z"
       fill="#89753f" />
  </g>
  <g
     id="lego_1_6"
     data-name="lego (1)"
     transform="translate(1507,624.333)">
    <g
       id="Group_1-6"
       data-name="Group 1">
      <path
         id="Path_1-6"
         data-name="Path 1"
         d="M 181.333,53.333 H 96 a 32,32 0 0 0 -32,32 v 64 A 10.667,10.667 0 0 0 74.667,160 h 128 a 10.667,10.667 0 0 0 10.667,-10.667 v -64 a 32,32 0 0 0 -32.001,-32 z"
         fill="#695726" />
      <path
         id="Path_2-6"
         data-name="Path 2"
         d="m 416,53.333 h -85.333 a 32,32 0 0 0 -32,32 v 64 A 10.667,10.667 0 0 0 309.334,160 h 128 A 10.667,10.667 0 0 0 448,149.333 v -64 a 32,32 0 0 0 -32,-32 z"
         fill="#695726" />
    </g>
    <path
       id="Path_3-6"
       data-name="Path 3"
       d="M 480,138.667 H 32 a 32,32 0 0 0 -32,32 V 448 a 10.667,10.667 0 0 0 10.667,10.667 H 501.334 A 10.667,10.667 0 0 0 512,448 V 170.667 a 32,32 0 0 0 -32,-32 z"
       fill="#695726" />
  </g>
  <g
     id="lego_1_7"
     data-name="lego (1)"
     transform="translate(413.999,338.333)">
    <g
       id="Group_1-7"
       data-name="Group 1">
      <path
         id="Path_1-7"
         data-name="Path 1"
         d="M 181.333,53.333 H 96 a 32,32 0 0 0 -32,32 v 64 A 10.667,10.667 0 0 0 74.667,160 h 128 a 10.667,10.667 0 0 0 10.667,-10.667 v -64 a 32,32 0 0 0 -32.001,-32 z"
         fill="#968046" />
      <path
         id="Path_2-7"
         data-name="Path 2"
         d="m 416,53.333 h -85.333 a 32,32 0 0 0 -32,32 v 64 A 10.667,10.667 0 0 0 309.334,160 h 128 A 10.667,10.667 0 0 0 448,149.333 v -64 a 32,32 0 0 0 -32,-32 z"
         fill="#968046" />
    </g>
    <path
       id="Path_3-7"
       data-name="Path 3"
       d="M 480,138.667 H 32 a 32,32 0 0 0 -32,32 V 448 a 10.667,10.667 0 0 0 10.667,10.667 H 501.334 A 10.667,10.667 0 0 0 512,448 V 170.667 a 32,32 0 0 0 -32,-32 z"
       fill="#968046" />
  </g>
  <g
     id="lego_1_8"
     data-name="lego (1)"
     transform="translate(1418.999,338.333)">
    <g
       id="Group_1-8"
       data-name="Group 1">
      <path
         id="Path_1-8"
         data-name="Path 1"
         d="M 181.333,53.333 H 96 a 32,32 0 0 0 -32,32 v 64 A 10.667,10.667 0 0 0 74.667,160 h 128 a 10.667,10.667 0 0 0 10.667,-10.667 v -64 a 32,32 0 0 0 -32.001,-32 z"
         fill="#968046" />
      <path
         id="Path_2-8"
         data-name="Path 2"
         d="m 416,53.333 h -85.333 a 32,32 0 0 0 -32,32 v 64 A 10.667,10.667 0 0 0 309.334,160 h 128 A 10.667,10.667 0 0 0 448,149.333 v -64 a 32,32 0 0 0 -32,-32 z"
         fill="#968046" />
    </g>
    <path
       id="Path_3-8"
       data-name="Path 3"
       d="M 480,138.667 H 32 a 32,32 0 0 0 -32,32 V 448 a 10.667,10.667 0 0 0 10.667,10.667 H 501.334 A 10.667,10.667 0 0 0 512,448 V 170.667 a 32,32 0 0 0 -32,-32 z"
       fill="#968046" />
  </g>
  <g
     id="lego_1_9"
     data-name="lego (1)"
     transform="translate(-6.502,46.333)">
    <g
       id="Group_1-9"
       data-name="Group 1">
      <path
         id="Path_1-9"
         data-name="Path 1"
         d="M 181.333,53.333 H 96 a 32,32 0 0 0 -32,32 v 64 A 10.667,10.667 0 0 0 74.667,160 h 128 a 10.667,10.667 0 0 0 10.667,-10.667 v -64 a 32,32 0 0 0 -32.001,-32 z"
         fill="#ece285" />
      <path
         id="Path_2-9"
         data-name="Path 2"
         d="m 416,53.333 h -85.333 a 32,32 0 0 0 -32,32 v 64 A 10.667,10.667 0 0 0 309.334,160 h 128 A 10.667,10.667 0 0 0 448,149.333 v -64 a 32,32 0 0 0 -32,-32 z"
         fill="#ece285" />
    </g>
    <path
       id="Path_3-9"
       data-name="Path 3"
       d="M 480,138.667 H 32 a 32,32 0 0 0 -32,32 V 448 a 10.667,10.667 0 0 0 10.667,10.667 H 501.334 A 10.667,10.667 0 0 0 512,448 V 170.667 a 32,32 0 0 0 -32,-32 z"
       fill="#ece285" />
  </g>
  <g
     id="lego_1_10"
     data-name="lego (1)"
     transform="translate(1005.498,46.333)">
    <g
       id="Group_1-10"
       data-name="Group 1">
      <path
         id="Path_1-10"
         data-name="Path 1"
         d="M 181.333,53.333 H 96 a 32,32 0 0 0 -32,32 v 64 A 10.667,10.667 0 0 0 74.667,160 h 128 a 10.667,10.667 0 0 0 10.667,-10.667 v -64 a 32,32 0 0 0 -32.001,-32 z"
         fill="#ece285" />
      <path
         id="Path_2-10"
         data-name="Path 2"
         d="m 416,53.333 h -85.333 a 32,32 0 0 0 -32,32 v 64 A 10.667,10.667 0 0 0 309.334,160 h 128 A 10.667,10.667 0 0 0 448,149.333 v -64 a 32,32 0 0 0 -32,-32 z"
         fill="#ece285" />
    </g>
    <path
       id="Path_3-10"
       data-name="Path 3"
       d="M 480,138.667 H 32 a 32,32 0 0 0 -32,32 V 448 a 10.667,10.667 0 0 0 10.667,10.667 H 501.334 A 10.667,10.667 0 0 0 512,448 V 170.667 a 32,32 0 0 0 -32,-32 z"
       fill="#ece285" />
  </g>
  <g
     id="lego_1_11"
     data-name="lego (1)"
     transform="translate(503.499,46.333)">
    <g
       id="Group_1-11"
       data-name="Group 1">
      <path
         id="Path_1-11"
         data-name="Path 1"
         d="M 181.333,53.333 H 96 a 32,32 0 0 0 -32,32 v 64 A 10.667,10.667 0 0 0 74.667,160 h 128 a 10.667,10.667 0 0 0 10.667,-10.667 v -64 a 32,32 0 0 0 -32.001,-32 z"
         fill="#e9dd6f" />
      <path
         id="Path_2-11"
         data-name="Path 2"
         d="m 416,53.333 h -85.333 a 32,32 0 0 0 -32,32 v 64 A 10.667,10.667 0 0 0 309.334,160 h 128 A 10.667,10.667 0 0 0 448,149.333 v -64 a 32,32 0 0 0 -32,-32 z"
         fill="#e9dd6f" />
    </g>
    <path
       id="Path_3-11"
       data-name="Path 3"
       d="M 480,138.667 H 32 a 32,32 0 0 0 -32,32 V 448 a 10.667,10.667 0 0 0 10.667,10.667 H 501.334 A 10.667,10.667 0 0 0 512,448 V 170.667 a 32,32 0 0 0 -32,-32 z"
       fill="#e9dd6f" />
  </g>
  <g
     id="lego_1_12"
     data-name="lego (1)"
     transform="translate(1506.499,46.333)">
    <g
       id="Group_1-12"
       data-name="Group 1">
      <path
         id="Path_1-12"
         data-name="Path 1"
         d="M 181.333,53.333 H 96 a 32,32 0 0 0 -32,32 v 64 A 10.667,10.667 0 0 0 74.667,160 h 128 a 10.667,10.667 0 0 0 10.667,-10.667 v -64 a 32,32 0 0 0 -32.001,-32 z"
         fill="#e9dd6f" />
      <path
         id="Path_2-12"
         data-name="Path 2"
         d="m 416,53.333 h -85.333 a 32,32 0 0 0 -32,32 v 64 A 10.667,10.667 0 0 0 309.334,160 h 128 A 10.667,10.667 0 0 0 448,149.333 v -64 a 32,32 0 0 0 -32,-32 z"
         fill="#e9dd6f" />
    </g>
    <path
       id="Path_3-12"
       data-name="Path 3"
       d="M 480,138.667 H 32 a 32,32 0 0 0 -32,32 V 448 a 10.667,10.667 0 0 0 10.667,10.667 H 501.334 A 10.667,10.667 0 0 0 512,448 V 170.667 a 32,32 0 0 0 -32,-32 z"
       fill="#e9dd6f" />
  </g>
  <g
     id="lego_1_13"
     data-name="lego (1)"
     transform="translate(-86.501,-240.667)">
    <g
       id="Group_1-13"
       data-name="Group 1">
      <path
         id="Path_1-13"
         data-name="Path 1"
         d="M 181.333,53.333 H 96 a 32,32 0 0 0 -32,32 v 64 A 10.667,10.667 0 0 0 74.667,160 h 128 a 10.667,10.667 0 0 0 10.667,-10.667 v -64 a 32,32 0 0 0 -32.001,-32 z"
         fill="#f0e797" />
      <path
         id="Path_2-13"
         data-name="Path 2"
         d="m 416,53.333 h -85.333 a 32,32 0 0 0 -32,32 v 64 A 10.667,10.667 0 0 0 309.334,160 h 128 A 10.667,10.667 0 0 0 448,149.333 v -64 a 32,32 0 0 0 -32,-32 z"
         fill="#f0e797" />
    </g>
    <path
       id="Path_3-13"
       data-name="Path 3"
       d="M 480,138.667 H 32 a 32,32 0 0 0 -32,32 V 448 a 10.667,10.667 0 0 0 10.667,10.667 H 501.334 A 10.667,10.667 0 0 0 512,448 V 170.667 a 32,32 0 0 0 -32,-32 z"
       fill="#f0e797" />
  </g>
  <g
     id="lego_1_14"
     data-name="lego (1)"
     transform="translate(925.499,-240.667)">
    <g
       id="Group_1-14"
       data-name="Group 1">
      <path
         id="Path_1-14"
         data-name="Path 1"
         d="M 181.333,53.333 H 96 a 32,32 0 0 0 -32,32 v 64 A 10.667,10.667 0 0 0 74.667,160 h 128 a 10.667,10.667 0 0 0 10.667,-10.667 v -64 a 32,32 0 0 0 -32.001,-32 z"
         fill="#f0e797" />
      <path
         id="Path_2-14"
         data-name="Path 2"
         d="m 416,53.333 h -85.333 a 32,32 0 0 0 -32,32 v 64 A 10.667,10.667 0 0 0 309.334,160 h 128 A 10.667,10.667 0 0 0 448,149.333 v -64 a 32,32 0 0 0 -32,-32 z"
         fill="#f0e797" />
    </g>
    <path
       id="Path_3-14"
       data-name="Path 3"
       d="M 480,138.667 H 32 a 32,32 0 0 0 -32,32 V 448 a 10.667,10.667 0 0 0 10.667,10.667 H 501.334 A 10.667,10.667 0 0 0 512,448 V 170.667 a 32,32 0 0 0 -32,-32 z"
       fill="#f0e797" />
  </g>
  <g
     id="lego_1_15"
     data-name="lego (1)"
     transform="translate(423.5,-240.667)">
    <g
       id="Group_1-15"
       data-name="Group 1">
      <path
         id="Path_1-15"
         data-name="Path 1"
         d="M 181.333,53.333 H 96 a 32,32 0 0 0 -32,32 v 64 A 10.667,10.667 0 0 0 74.667,160 h 128 a 10.667,10.667 0 0 0 10.667,-10.667 v -64 a 32,32 0 0 0 -32.001,-32 z"
         fill="#f0eab2" />
      <path
         id="Path_2-15"
         data-name="Path 2"
         d="m 416,53.333 h -85.333 a 32,32 0 0 0 -32,32 v 64 A 10.667,10.667 0 0 0 309.334,160 h 128 A 10.667,10.667 0 0 0 448,149.333 v -64 a 32,32 0 0 0 -32,-32 z"
         fill="#f0eab2" />
    </g>
    <path
       id="Path_3-15"
       data-name="Path 3"
       d="M 480,138.667 H 32 a 32,32 0 0 0 -32,32 V 448 a 10.667,10.667 0 0 0 10.667,10.667 H 501.334 A 10.667,10.667 0 0 0 512,448 V 170.667 a 32,32 0 0 0 -32,-32 z"
       fill="#f0eab2" />
  </g>
  <g
     id="lego_1_16"
     data-name="lego (1)"
     transform="translate(1426.5,-240.667)">
    <g
       id="Group_1-16"
       data-name="Group 1">
      <path
         id="Path_1-16"
         data-name="Path 1"
         d="M 181.333,53.333 H 96 a 32,32 0 0 0 -32,32 v 64 A 10.667,10.667 0 0 0 74.667,160 h 128 a 10.667,10.667 0 0 0 10.667,-10.667 v -64 a 32,32 0 0 0 -32.001,-32 z"
         fill="#f0eab2" />
      <path
         id="Path_2-16"
         data-name="Path 2"
         d="m 416,53.333 h -85.333 a 32,32 0 0 0 -32,32 v 64 A 10.667,10.667 0 0 0 309.334,160 h 128 A 10.667,10.667 0 0 0 448,149.333 v -64 a 32,32 0 0 0 -32,-32 z"
         fill="#f0eab2" />
    </g>
    <path
       id="Path_3-16"
       data-name="Path 3"
       d="M 480,138.667 H 32 a 32,32 0 0 0 -32,32 V 448 a 10.667,10.667 0 0 0 10.667,10.667 H 501.334 A 10.667,10.667 0 0 0 512,448 V 170.667 a 32,32 0 0 0 -32,-32 z"
       fill="#f0eab2" />
  </g>
  <g
     id="lego_1_17"
     data-name="lego (1)"
     transform="translate(318,-3)">
    <g
       id="Group_1-17"
       data-name="Group 1"
       transform="translate(64,53.333)">
      <path
         id="Path_1-17"
         data-name="Path 1"
         d="M 181.333,53.333 H 96 a 32,32 0 0 0 -32,32 v 64 A 10.667,10.667 0 0 0 74.667,160 h 128 a 10.667,10.667 0 0 0 10.667,-10.667 v -64 a 32,32 0 0 0 -32.001,-32 z"
         transform="translate(-75.71,-53.333)"
         fill="#0b2b6a" />
      <path
         id="Path_2-17"
         data-name="Path 2"
         d="m 416,53.333 h -85.333 a 32,32 0 0 0 -32,32 v 64 A 10.667,10.667 0 0 0 309.334,160 h 128 A 10.667,10.667 0 0 0 448,149.333 v -64 a 32,32 0 0 0 -32,-32 z"
         transform="translate(-310.377,-53.333)"
         fill="#0b2b6a" />
    </g>
    <path
       id="Path_3-17"
       data-name="Path 3"
       d="M 238.044,138.667 H 15.87 c -8.764,0 -15.87,14.327 -15.87,32 V 448 c 0,5.891 2.369,10.667 5.29,10.667 h 243.334 c 2.921,0 5.29,-4.776 5.29,-10.667 V 170.667 c 0,-17.673 -7.106,-32 -15.87,-32 z"
       fill="#0b2b6a" />
  </g>
  <g
     id="lego_1_18"
     data-name="lego (1)"
     transform="translate(833.5,-3)">
    <g
       id="Group_1-18"
       data-name="Group 1"
       transform="translate(64,53.333)">
      <path
         id="Path_1-18"
         data-name="Path 1"
         d="M 181.333,53.333 H 96 a 32,32 0 0 0 -32,32 v 64 A 10.667,10.667 0 0 0 74.667,160 h 128 a 10.667,10.667 0 0 0 10.667,-10.667 v -64 a 32,32 0 0 0 -32.001,-32 z"
         transform="translate(-75.71,-53.333)"
         fill="#0b2b6a" />
      <path
         id="Path_2-18"
         data-name="Path 2"
         d="m 416,53.333 h -85.333 a 32,32 0 0 0 -32,32 v 64 A 10.667,10.667 0 0 0 309.334,160 h 128 A 10.667,10.667 0 0 0 448,149.333 v -64 a 32,32 0 0 0 -32,-32 z"
         transform="translate(-310.377,-53.333)"
         fill="#0b2b6a" />
    </g>
    <path
       id="Path_3-18"
       data-name="Path 3"
       d="M 238.044,138.667 H 15.87 c -8.764,0 -15.87,14.327 -15.87,32 V 448 c 0,5.891 2.369,10.667 5.29,10.667 h 243.334 c 2.921,0 5.29,-4.776 5.29,-10.667 V 170.667 c 0,-17.673 -7.106,-32 -15.87,-32 z"
       fill="#0b2b6a" />
  </g>
  <g
     id="lego_1_19"
     data-name="lego (1)"
     transform="translate(1348.914,-3)">
    <g
       id="Group_1-19"
       data-name="Group 1"
       transform="translate(64,53.333)">
      <path
         id="Path_1-19"
         data-name="Path 1"
         d="M 181.333,53.333 H 96 a 32,32 0 0 0 -32,32 v 64 A 10.667,10.667 0 0 0 74.667,160 h 128 a 10.667,10.667 0 0 0 10.667,-10.667 v -64 a 32,32 0 0 0 -32.001,-32 z"
         transform="translate(-75.71,-53.333)"
         fill="#0b2b6a" />
      <path
         id="Path_2-19"
         data-name="Path 2"
         d="m 416,53.333 h -85.333 a 32,32 0 0 0 -32,32 v 64 A 10.667,10.667 0 0 0 309.334,160 h 128 A 10.667,10.667 0 0 0 448,149.333 v -64 a 32,32 0 0 0 -32,-32 z"
         transform="translate(-310.377,-53.333)"
         fill="#0b2b6a" />
    </g>
    <path
       id="Path_3-19"
       data-name="Path 3"
       d="M 238.044,138.667 H 15.87 c -8.764,0 -15.87,14.327 -15.87,32 V 448 c 0,5.891 2.369,10.667 5.29,10.667 h 243.334 c 2.921,0 5.29,-4.776 5.29,-10.667 V 170.667 c 0,-17.673 -7.106,-32 -15.87,-32 z"
       fill="#0b2b6a" />
  </g>
  <g
     id="Group_18"
     data-name="Group 18"
     transform="translate(387,-106.06)">
    <path
       id="Polygon_1"
       data-name="Polygon 1"
       d="M 15.775,0 31.551,24.565 H 0 Z"
       transform="translate(119,271.17)"
       fill="#e6ff00" />
    <path
       id="Polygon_2"
       data-name="Polygon 2"
       d="M 15.775,0 31.551,24.565 H 0 Z"
       transform="matrix(0.545,0.839,-0.839,0.545,139.818,265.11)"
       fill="#e6ff00" />
  </g>
  <g
     id="Group_19"
     data-name="Group 19"
     transform="translate(229.999,17.303)">
    <path
       id="Polygon_1-2"
       data-name="Polygon 1"
       d="M 15.775,0 31.551,24.565 H 0 Z"
       transform="translate(119,271.17)"
       fill="#e6ff00" />
    <path
       id="Polygon_2-2"
       data-name="Polygon 2"
       d="M 15.775,0 31.551,24.565 H 0 Z"
       transform="matrix(0.545,0.839,-0.839,0.545,139.818,265.11)"
       fill="#e6ff00" />
  </g>
  <g
     id="Group_20"
     data-name="Group 20"
     transform="translate(387,4.303)">
    <path
       id="Polygon_1-3"
       data-name="Polygon 1"
       d="M 15.775,0 31.551,24.565 H 0 Z"
       transform="translate(119,271.17)"
       fill="#e6ff00" />
    <path
       id="Polygon_2-3"
       data-name="Polygon 2"
       d="M 15.775,0 31.551,24.565 H 0 Z"
       transform="matrix(0.545,0.839,-0.839,0.545,139.818,265.11)"
       fill="#e6ff00" />
  </g>
  <g
     id="Group_21"
     data-name="Group 21"
     transform="translate(249,-91.95)">
    <path
       id="Polygon_1-4"
       data-name="Polygon 1"
       d="M 15.775,0 31.551,24.565 H 0 Z"
       transform="translate(119,271.17)"
       fill="#e6ff00" />
    <path
       id="Polygon_2-4"
       data-name="Polygon 2"
       d="M 15.775,0 31.551,24.565 H 0 Z"
       transform="matrix(0.545,0.839,-0.839,0.545,139.818,265.11)"
       fill="#e6ff00" />
  </g>
  <g
     id="Group_23"
     data-name="Group 23"
     transform="translate(886.498,-111.87)">
    <path
       id="Polygon_1-5"
       data-name="Polygon 1"
       d="M 15.775,0 31.551,24.565 H 0 Z"
       transform="translate(119,271.17)"
       fill="#e6ff00" />
    <path
       id="Polygon_2-5"
       data-name="Polygon 2"
       d="M 15.775,0 31.551,24.565 H 0 Z"
       transform="matrix(0.545,0.839,-0.839,0.545,139.818,265.11)"
       fill="#e6ff00" />
  </g>
  <g
     id="Group_25"
     data-name="Group 25"
     transform="translate(896.5,75.13)">
    <path
       id="Polygon_1-6"
       data-name="Polygon 1"
       d="M 15.775,0 31.551,24.565 H 0 Z"
       transform="translate(119,271.17)"
       fill="#e6ff00" />
    <path
       id="Polygon_2-6"
       data-name="Polygon 2"
       d="M 15.775,0 31.551,24.565 H 0 Z"
       transform="matrix(0.545,0.839,-0.839,0.545,139.818,265.11)"
       fill="#e6ff00" />
  </g>
  <g
     id="Group_26"
     data-name="Group 26"
     transform="translate(749.996,-106.06)">
    <path
       id="Polygon_1-7"
       data-name="Polygon 1"
       d="M 15.775,0 31.551,24.565 H 0 Z"
       transform="translate(119,271.17)"
       fill="#e6ff00" />
    <path
       id="Polygon_2-7"
       data-name="Polygon 2"
       d="M 15.775,0 31.551,24.565 H 0 Z"
       transform="matrix(0.545,0.839,-0.839,0.545,139.818,265.11)"
       fill="#e6ff00" />
  </g>
  <g
     id="Group_27"
     data-name="Group 27"
     transform="translate(1302.999,-185.364)">
    <path
       id="Polygon_1-8"
       data-name="Polygon 1"
       d="M 15.775,0 31.551,24.565 H 0 Z"
       transform="translate(119,271.17)"
       fill="#e6ff00" />
    <path
       id="Polygon_2-8"
       data-name="Polygon 2"
       d="M 15.775,0 31.551,24.565 H 0 Z"
       transform="matrix(0.545,0.839,-0.839,0.545,139.818,265.11)"
       fill="#e6ff00" />
  </g>
  <g
     id="Group_29"
     data-name="Group 29"
     transform="translate(1261.496,66.796)">
    <path
       id="Polygon_1-9"
       data-name="Polygon 1"
       d="M 15.775,0 31.551,24.565 H 0 Z"
       transform="translate(119,271.17)"
       fill="#e6ff00" />
    <path
       id="Polygon_2-9"
       data-name="Polygon 2"
       d="M 15.775,0 31.551,24.565 H 0 Z"
       transform="matrix(0.545,0.839,-0.839,0.545,139.818,265.11)"
       fill="#e6ff00" />
  </g>
  <g
     id="Group_31"
     data-name="Group 31"
     transform="translate(1280.498,-72.03)">
    <path
       id="Polygon_1-10"
       data-name="Polygon 1"
       d="M 15.775,0 31.551,24.565 H 0 Z"
       transform="translate(119,271.17)"
       fill="#e6ff00" />
    <path
       id="Polygon_2-10"
       data-name="Polygon 2"
       d="M 15.775,0 31.551,24.565 H 0 Z"
       transform="matrix(0.545,0.839,-0.839,0.545,139.818,265.11)"
       fill="#e6ff00" />
  </g>
  <g
     id="Group_32"
     data-name="Group 32"
     transform="translate(1378.997,126.556)">
    <path
       id="Polygon_1-11"
       data-name="Polygon 1"
       d="M 15.775,0 31.551,24.565 H 0 Z"
       transform="translate(119,271.17)"
       fill="#e6ff00" />
    <path
       id="Polygon_2-11"
       data-name="Polygon 2"
       d="M 15.775,0 31.551,24.565 H 0 Z"
       transform="matrix(0.545,0.839,-0.839,0.545,139.818,265.11)"
       fill="#e6ff00" />
  </g>
  <g
     id="Group_30"
     data-name="Group 30"
     transform="translate(1417,-66.22)">
    <path
       id="Polygon_1-12"
       data-name="Polygon 1"
       d="M 15.775,0 31.551,24.565 H 0 Z"
       transform="translate(119,271.17)"
       fill="#e6ff00" />
    <path
       id="Polygon_2-12"
       data-name="Polygon 2"
       d="M 15.775,0 31.551,24.565 H 0 Z"
       transform="matrix(0.545,0.839,-0.839,0.545,139.818,265.11)"
       fill="#e6ff00" />
  </g>
  <g
     id="Group_28"
     data-name="Group 28"
     transform="translate(816.501,-12.11)">
    <path
       id="Polygon_1-13"
       data-name="Polygon 1"
       d="M 15.775,0 31.551,24.565 H 0 Z"
       transform="translate(119,271.17)"
       fill="#e6ff00" />
    <path
       id="Polygon_2-13"
       data-name="Polygon 2"
       d="M 15.775,0 31.551,24.565 H 0 Z"
       transform="matrix(0.545,0.839,-0.839,0.545,139.818,265.11)"
       fill="#e6ff00" />
  </g>
  <g
     id="Group_24"
     data-name="Group 24"
     transform="translate(768.998,86.716)">
    <path
       id="Polygon_1-14"
       data-name="Polygon 1"
       d="M 15.775,0 31.551,24.565 H 0 Z"
       transform="translate(119,271.17)"
       fill="#e6ff00" />
    <path
       id="Polygon_2-14"
       data-name="Polygon 2"
       d="M 15.775,0 31.551,24.565 H 0 Z"
       transform="matrix(0.545,0.839,-0.839,0.545,139.818,265.11)"
       fill="#e6ff00" />
  </g>
  <g
     id="Group_22"
     data-name="Group 22"
     transform="translate(298.999,106.636)">
    <path
       id="Polygon_1-15"
       data-name="Polygon 1"
       d="M 15.775,0 31.551,24.565 H 0 Z"
       transform="translate(119,271.17)"
       fill="#e6ff00" />
    <path
       id="Polygon_2-15"
       data-name="Polygon 2"
       d="M 15.775,0 31.551,24.565 H 0 Z"
       transform="matrix(0.545,0.839,-0.839,0.545,139.818,265.11)"
       fill="#e6ff00" />
  </g>
  <g
     id="Rectangle_10"
     data-name="Rectangle 10"
     transform="translate(183,599)"
     fill="#982d2d"
     stroke="#707070"
     stroke-width="1"
     style="stroke-width:3.77952756;stroke-miterlimit:4;stroke-dasharray:none;stroke:#ffffff;stroke-opacity:1">
    <rect
       width="590"
       height="339"
       rx="57"
       stroke="none"
       id="rect149"
       x="0"
       y="0"
       style="stroke-width:3.77952756;stroke-miterlimit:4;stroke-dasharray:none;stroke:#ffffff;stroke-opacity:1" />
    <rect
       x="0.5"
       y="0.5"
       width="589"
       height="338"
       rx="56.5"
       fill="none"
       id="rect151"
       style="stroke-width:3.77952756;stroke-miterlimit:4;stroke-dasharray:none;stroke:#ffffff;stroke-opacity:1" />
  </g>
  <g
     id="Rectangle_11"
     data-name="Rectangle 11"
     transform="translate(1145,599)"
     fill="#982d2d"
     stroke="#707070"
     stroke-width="1"
     style="stroke-width:3.77952756;stroke-miterlimit:4;stroke-dasharray:none;stroke:#ffffff;stroke-opacity:1">
    <rect
       width="590"
       height="339"
       rx="57"
       stroke="none"
       id="rect154"
       x="0"
       y="0"
       style="stroke-width:3.77952756;stroke-miterlimit:4;stroke-dasharray:none;stroke:#ffffff;stroke-opacity:1" />
    <rect
       x="0.5"
       y="0.5"
       width="589"
       height="338"
       rx="56.5"
       fill="none"
       id="rect156"
       style="stroke-width:3.77952756;stroke-miterlimit:4;stroke-dasharray:none;stroke:#ffffff;stroke-opacity:1" />
  </g>
</svg>
