<?xml version="1.0" encoding="UTF-8" standalone="no"?>
<svg
   xmlns:dc="http://purl.org/dc/elements/1.1/"
   xmlns:cc="http://creativecommons.org/ns#"
   xmlns:rdf="http://www.w3.org/1999/02/22-rdf-syntax-ns#"
   xmlns:svg="http://www.w3.org/2000/svg"
   xmlns="http://www.w3.org/2000/svg"
   xmlns:sodipodi="http://sodipodi.sourceforge.net/DTD/sodipodi-0.dtd"
   xmlns:inkscape="http://www.inkscape.org/namespaces/inkscape"
   id="Layer_1"
   enable-background="new 0 0 479.945 479.945"
   height="512"
   viewBox="0 0 479.945 479.945"
   width="512"
   version="1.1"
   sodipodi:docname="mada.svg"
   inkscape:version="1.0.2-2 (e86c870879, 2021-01-15)">
  <metadata
     id="metadata31">
    <rdf:RDF>
      <cc:Work
         rdf:about="">
        <dc:format>image/svg+xml</dc:format>
        <dc:type
           rdf:resource="http://purl.org/dc/dcmitype/StillImage" />
      </cc:Work>
    </rdf:RDF>
  </metadata>
  <defs
     id="defs29" />
  <sodipodi:namedview
     pagecolor="#ffffff"
     bordercolor="#666666"
     borderopacity="1"
     objecttolerance="10"
     gridtolerance="10"
     guidetolerance="10"
     inkscape:pageopacity="0"
     inkscape:pageshadow="2"
     inkscape:window-width="1920"
     inkscape:window-height="1001"
     id="namedview27"
     showgrid="false"
     inkscape:zoom="2.3422912"
     inkscape:cx="212.35277"
     inkscape:cy="312.3074"
     inkscape:window-x="-9"
     inkscape:window-y="-9"
     inkscape:window-maximized="1"
     inkscape:current-layer="Layer_1" />
  <path
     d="m 366.83541,295.97707 c 0,-7.44674 3.69578,-11.9069 5.65794,-14.68071 9.78713,-13.90057 8.9282,-32.11945 -2.12764,-45.14533 -3.97947,-4.68868 -6.06771,-10.44907 -6.06771,-16.29613 0,-4.78325 0.8353,-6.45384 5.4767,-21.18971 3.41998,-10.85883 -1.00078,-22.55296 -10.96128,-28.9674 -7.82498,-5.04329 -12.1039,-13.22288 -12.1039,-21.57583 0,-11.55228 6.4302,-13.07315 6.4302,-22.66328 0,-8.48692 -5.87859,-16.54042 -15.38992,-19.04631 -11.33164,-2.99445 -19.93676,-11.402563 -22.77361,-21.891032 l -1.37114,-5.074811 C 310.26387,67.121985 295.2916,61.188238 283.52654,67.523872 c -7.8959,4.263157 -18.07704,3.136296 -24.70424,-3.081136 -10.44119,-9.779256 -27.32045,-9.724095 -37.6986,0 -6.61932,6.209552 -16.80834,7.344293 -24.70424,3.081136 -11.82022,-6.351395 -26.74521,-0.370367 -30.07851,11.922655 l -1.37114,5.074811 c -2.86837,10.590911 -11.55229,18.935982 -22.77361,21.891032 -13.18348,3.47515 -19.40091,17.62 -12.61611,28.78616 7.18669,11.82809 3.47514,26.81612 -8.44751,34.49926 -7.71466,4.96449 -12.1039,13.10468 -12.1039,21.56007 0,4.75961 0.8353,6.4302 5.48458,21.19758 2.56893,8.17959 0.73285,17.02111 -4.93297,23.69559 -11.055839,13.02588 -11.914774,31.25264 -2.12764,45.14533 l 1.74151,2.45861 c 5.62642,7.99046 5.15362,18.45529 -1.17414,25.96507 -7.43885,8.82575 -6.64296,21.47338 1.83608,29.42445 16.94545,16.94545 16.68856,16.71299 16.76894,16.75318 -5.09057,8.69967 -8.00623,18.82566 -8.00623,29.62933 v 30.93744 c 0,3.48302 2.82109,6.30411 6.30412,6.30411 h 230.10014 c 3.48303,0 6.30412,-2.82109 6.30412,-6.30411 V 385.527 c 0,-10.80367 -2.91566,-20.92966 -8.00623,-29.62933 0.0788,-0.0394 -0.80141,0.81717 16.76894,-16.75318 8.47904,-7.95107 9.27493,-20.5987 1.83608,-29.42445 -3.38058,-4.011 -5.09057,-8.87304 -5.09057,-13.74297 z"
     fill="#c79a83"
     id="path2"
     style="stroke-width:0.788014" />
  <path
     d="m 312.01956,172.38335 c 3.3467,0.19069 5.96685,2.94086 5.96685,6.29308 v 37.73484 c 0,32.52135 -19.89736,60.39341 -48.18707,72.1033 -51.15552,21.23462 -107.83975,-16.48841 -107.83975,-72.1033 v -37.18639 c 0,-3.69499 3.16467,-6.61459 6.8447,-6.28126 37.81443,3.42865 75.05204,-6.1205 106.32124,-27.1857 3.5563,-2.39556 8.45302,-0.62095 9.57594,3.5177 3.88964,14.33713 14.49868,22.37724 27.31809,23.10773 z"
     fill="#e0b7a3"
     id="path4"
     style="stroke-width:0.788014" />
  <path
     d="m 370.36571,236.15103 c 11.05584,13.02588 11.91477,31.24476 2.12764,45.14533 -1.96531,2.7746 -5.65794,7.23082 -5.65794,14.68071 0,4.86993 1.70999,9.73197 5.09057,13.74297 7.43885,8.82575 6.64296,21.47338 -1.83608,29.42445 -16.94545,16.94545 -16.68856,16.71299 -16.76894,16.75318 -10.1969,-17.423 -29.10924,-29.13289 -50.75599,-29.13289 -17.96673,0 -32.64743,-14.51522 -32.64743,-32.5765 v -5.38214 l -0.1182,-0.29157 c 28.28971,-11.70989 48.18707,-39.58195 48.18707,-72.1033 v -37.73484 c 0,-3.35222 -2.62015,-6.10239 -5.96685,-6.29308 -12.74061,-0.72577 -23.40323,-8.67841 -27.31809,-23.10695 -1.12292,-4.13865 -6.01964,-5.91325 -9.57594,-3.51769 -31.24871,21.05101 -68.48395,30.61593 -106.32124,27.1857 -3.68003,-0.33333 -6.8447,2.58626 -6.8447,6.28126 v 37.18639 c 0,32.52135 19.89736,60.39341 48.18707,72.1033 l -0.1182,0.29157 v 5.38213 c 0,18.0739 -14.69489,32.57651 -32.64743,32.57651 -21.64675,0 -40.55909,11.70989 -50.75599,29.13289 -0.0788,-0.0394 0.80141,0.81717 -16.76894,-16.75319 -8.47825,-7.95421 -9.27178,-20.5979 -1.83608,-29.42445 6.32776,-7.50977 6.80056,-17.9746 1.17414,-25.96506 l -1.74151,-2.45861 c -9.786346,-13.89111 -8.929775,-32.11709 2.12764,-45.14533 5.66582,-6.67448 7.5019,-15.516 4.93297,-23.69559 -4.6485,-14.76344 -5.48458,-16.43561 -5.48458,-21.19758 0,-8.45539 4.38924,-16.59558 12.1039,-21.56007 11.92502,-7.68629 15.63262,-22.6688 8.44751,-34.49926 -6.7848,-11.16695 -0.56816,-25.31259 12.61611,-28.78616 11.22132,-2.95505 19.90524,-11.300123 22.77361,-21.891034 l 1.37114,-5.074811 c 3.33488,-12.295386 18.26066,-18.274838 30.07851,-11.922655 7.89669,4.260793 18.08177,3.131568 24.70424,-3.081136 10.3813,-9.720943 27.25426,-9.780044 37.6986,0 6.62405,6.21428 16.80992,7.341141 24.70424,3.081136 11.76506,-6.335634 26.73733,-0.401887 30.07851,11.922655 l 1.37114,5.074811 c 2.84079,10.489257 11.44039,18.898944 22.77361,21.891034 9.51133,2.50589 15.38992,10.55939 15.38992,19.0463 0,9.58856 -6.4302,11.11022 -6.4302,22.66329 0,8.35295 4.27892,16.53254 12.1039,21.57583 9.9605,6.41444 14.38126,18.10857 10.96128,28.9674 -4.63904,14.73272 -5.4767,16.40882 -5.4767,21.1897 0,5.84628 2.08824,11.60667 6.06771,16.29535 z"
     fill="#42434d"
     id="path6"
     style="stroke-width:0.788014;fill:#a21919;fill-opacity:1" />
  <path
     d="m 361.32719,385.527 v 30.93744 c 0,3.48302 -2.82109,6.30411 -6.30412,6.30411 H 124.92293 c -3.48303,0 -6.30412,-2.82109 -6.30412,-6.30411 V 385.527 c 0,-32.41654 26.27555,-58.76222 58.76222,-58.76222 7.21033,0 13.87693,-2.33252 19.28271,-6.28835 l 1.41843,9.18037 38.02956,29.44809 c 2.27736,1.75727 5.44518,1.75727 7.72254,0 l 38.02956,-29.44809 1.41843,-9.18037 c 5.40578,3.95583 12.07238,6.28835 19.28271,6.28835 32.37399,0 58.76222,26.24639 58.76222,58.76222 z"
     fill="#ffaa64"
     id="path8"
     style="stroke-width:0.788014;fill:#e376ff;fill-opacity:1" />
  <path
     d="m 281.86383,329.6568 -14.34185,93.11175 h -55.09796 l -14.34185,-93.11175 38.03114,29.44651 c 2.27184,1.75964 5.44675,1.75964 7.7186,0 z"
     fill="#42434d"
     id="path10"
     style="stroke-width:0.788014;fill:#fdfdff;fill-opacity:1" />
  <path
     d="m 201.15542,349.60143 c -36.94999,0.94877 -59.68419,28.76961 -59.68419,58.77798 v 14.38914 h -16.5483 c -3.48145,0 -6.30412,-2.82266 -6.30412,-6.30411 V 385.527 c 0,-32.41654 26.27555,-58.76222 58.76222,-58.76222 7.21033,0 13.87693,-2.33252 19.28271,-6.28835 1.79194,11.59957 0.84948,5.48931 4.49168,29.125 z"
     fill="#ffbd7b"
     id="path12"
     style="stroke-width:0.788014;fill:#e686ff;fill-opacity:1" />
  <path
     d="m 278.79058,349.60143 c 36.94999,0.94877 59.68419,28.76961 59.68419,58.77798 v 14.38914 h 16.5483 c 3.48145,0 6.30412,-2.82266 6.30412,-6.30411 V 385.527 c 0,-32.41654 -26.27555,-58.76222 -58.76222,-58.76222 -7.21033,0 -13.87693,-2.33252 -19.28271,-6.28835 -1.79273,11.59957 -0.85027,5.48931 -4.49168,29.125 z"
     fill="#faa157"
     id="path14"
     style="stroke-width:0.788014;fill:#dd59ff;fill-opacity:1" />
  <path
     d="m 270.808,301.74533 c -19.41431,8.12679 -40.74979,8.7572 -61.67,0 1.06855,-4.43337 0.89046,-7.30489 0.89046,-12.93919 l 0.1182,-0.29157 c 18.97696,7.87699 40.63868,7.89275 59.65268,0 l 0.1182,0.29157 c 0,5.63666 -0.17809,8.5074 0.89046,12.93919 z"
     fill="#a07765"
     id="path18"
     style="stroke-width:0.788014" />
  <path
     d="m 313.60505,79.446527 c 1.16783,4.326198 -1.20882,8.839943 -5.457,10.266249 -1.13474,0.381399 -2.25372,0.863663 -3.34512,1.451522 -7.8959,4.263157 -18.07705,3.136296 -24.70425,-3.081136 -10.44119,-9.779256 -27.32045,-9.724095 -37.6986,0 -6.61932,6.209552 -16.80834,7.344293 -24.70424,3.081136 -11.82021,-6.351395 -26.7452,-0.370367 -30.0785,11.922652 l -1.37115,5.07481 c -2.86837,10.59091 -11.55229,18.93599 -22.77361,21.89104 -13.18348,3.47514 -19.40091,17.62 -12.61611,28.78616 7.18669,11.82809 3.47515,26.81612 -8.44751,34.49926 -7.71466,4.96449 -12.1039,13.10468 -12.1039,21.56007 0,4.7596 0.8353,6.43019 5.48458,21.19758 2.56893,8.17959 0.73286,17.02111 -4.93297,23.69559 -11.05584,13.02587 -11.91477,31.25264 -2.12763,45.14533 l 1.74151,2.4586 c 5.62642,7.99047 5.15361,18.4553 -1.17414,25.96507 -0.88888,1.05436 -1.66035,2.1631 -2.31519,3.31203 -3.5303,6.19536 -11.93053,7.66659 -17.12512,2.472 -8.47904,-7.95107 -9.27493,-20.5987 -1.83608,-29.42445 6.32776,-7.50978 6.80056,-17.97461 1.17414,-25.96507 l -1.74151,-2.45861 c -9.787134,-13.89269 -8.928199,-32.11945 2.12764,-45.14533 5.66582,-6.67448 7.5019,-15.516 4.93297,-23.69559 -4.64928,-14.76738 -5.48458,-16.43797 -5.48458,-21.19758 0,-8.45539 4.38924,-16.59558 12.1039,-21.56007 11.92265,-7.68314 15.6342,-22.67117 8.44751,-34.49926 -6.7848,-11.16616 -0.56737,-25.31101 12.61611,-28.78616 11.22132,-2.95505 19.90524,-11.300121 22.77361,-21.891032 l 1.37114,-5.074811 c 3.3333,-12.293022 18.25829,-18.27405 30.07851,-11.922655 7.8959,4.263157 18.08492,3.128416 24.70424,-3.081136 10.37815,-9.724095 27.25741,-9.779256 37.6986,0 6.6272,6.217432 16.80834,7.344293 24.70424,3.081136 11.76506,-6.335634 26.73733,-0.401887 30.07851,11.922655 z"
     fill="#4d4e59"
     id="path20"
     style="stroke-width:0.788014;fill:#761212;fill-opacity:1" />
  <path
     d="m 225.01728,268.67159 c 11.77214,7.88014 2.79981,26.10691 -10.56727,21.41586 -29.3819,-10.31038 -52.49042,-37.73248 -52.49042,-73.67696 V 179.2241 c 0,-3.69579 3.16782,-6.61144 6.84785,-6.28048 3.01967,0.27423 6.33563,0.49015 9.914,0.59968 6.47669,0.19701 11.60667,5.54526 11.60667,12.0251 v 18.23465 c 0,27.44338 13.99198,51.01446 34.68917,64.86854 z"
     fill="#f2d1c2"
     id="path22"
     style="stroke-width:0.788014" />
  <path
     id="path865"
     style="fill:#e376ff;fill-opacity:1;stroke-width:0.840645"
     d="M 133.26562 449.88086 C 130.54821 449.88086 128.21533 451.49417 127.1543 453.8125 A 236.07381 236.07381 0 0 0 256 492.07422 A 236.07381 236.07381 0 0 0 384.8457 453.81055 C 383.78415 451.49349 381.45086 449.88086 378.73438 449.88086 L 133.26562 449.88086 z "
     transform="scale(0.93739258)" />
  <path
     d="m 271.3088,367.1526 -9.55008,93.11175 H 225.0696 l -9.55008,-93.11175 25.32451,29.44651 c 1.51279,1.75964 3.62694,1.75964 5.13974,0 z"
     fill="#42434d"
     id="path870"
     style="fill:#fdfdff;fill-opacity:1;stroke-width:0.643036" />
  <path
     d="m 230.0591,428.39292 h -15.76029 l -14.34185,-93.11175 17.8958,13.85328 z"
     fill="#2c2c33"
     id="path16"
     style="fill:#aeaeca;fill-opacity:1;stroke-width:0.788014" />
  <path
     d="m 235.30401,457.9413 -14.27485,0.44564 -15.89554,-92.66087 16.64135,13.34051 z"
     fill="#2c2c33"
     id="path872"
     style="fill:#aeaeca;fill-opacity:1;stroke-width:0.750142" />
  <path
     d="m 367.6313,385.52937 v 37.23918 c 0,3.48145 -2.82267,6.30412 -6.30411,6.30412 -3.48145,0 -6.30412,-2.82267 -6.30412,-6.30412 v -37.23918 c 0,-28.9942 -23.46233,-52.4589 -52.46047,-52.4589 -5.04723,0 -9.91952,-0.95349 -14.42144,-2.73204 l -19.19181,124.65568 c -0.5327,3.45387 -3.77065,5.80452 -7.19063,5.27024 -3.44126,-0.53033 -5.80058,-3.74937 -5.27024,-7.18984 l 20.01134,-129.97715 c -2.77223,-2.50273 -5.22296,-5.41838 -7.23712,-8.72568 -1.81086,-2.97317 -0.86918,-6.85178 2.10479,-8.66264 2.97396,-1.81322 6.85257,-0.86996 8.66342,2.10479 4.77773,7.84389 13.21264,12.64842 22.53248,12.64842 35.96261,-0.002 65.06791,29.10136 65.06791,65.06712 z m 9.11732,-79.8684 c -4.46725,-5.30254 -4.80531,-12.64526 -0.84159,-18.27089 l 1.73835,-2.4657 c 11.50028,-16.32135 10.50502,-37.56148 -2.47594,-52.85448 -4.24818,-5.00546 -5.63903,-11.6303 -3.721,-17.72165 l 4.34196,-13.79103 c 4.2931,-13.63659 -1.15523,-28.16757 -13.55936,-36.15961 -9.10472,-5.86598 -11.88798,-17.01402 -6.47511,-25.9304 8.8888,-14.64051 1.02047,-33.55837 -16.397,-38.14776 -9.01331,-2.37429 -16.02427,-9.059014 -18.2969,-17.44585 l -1.3743,-5.072447 c -4.36245,-16.102282 -23.6491,-24.179428 -39.1517,-15.831993 -5.66109,3.048827 -12.81941,2.174919 -17.40487,-2.122122 -12.77056,-11.96836 -33.54813,-11.96836 -46.31711,0 -4.58624,4.297829 -11.74456,5.170161 -17.40487,2.122122 -7.52475,-4.051181 -16.36233,-4.42864 -24.24641,-1.040179 -12.96362,5.575989 -14.82648,16.579819 -16.27958,21.944619 -2.27185,8.386836 -9.28281,15.07156 -18.2969,17.44585 -17.42615,4.59254 -25.28029,23.51513 -16.39622,38.14776 5.41287,8.91638 2.62882,20.06442 -6.47511,25.9304 -12.40413,7.99204 -17.852461,22.52302 -13.55936,36.15961 l 4.34196,13.79103 c 1.91803,6.09135 0.52718,12.71698 -3.721,17.72165 -12.980962,15.293 -13.976224,36.53313 -2.47594,52.85448 l 1.73757,2.4657 c 3.96371,5.62563 3.62644,12.96756 -0.84081,18.27089 -9.630326,11.43173 -8.619304,27.80509 2.35064,38.08552 2.53741,2.3798 6.52712,2.25372 8.91087,-0.28841 2.38059,-2.54056 2.25135,-6.53028 -0.2892,-8.91087 -5.996,-5.61933 -6.56732,-14.54516 -1.33017,-20.76338 8.21426,-9.75089 8.81945,-23.27637 1.5051,-33.65688 l -1.73757,-2.4657 c -8.13703,-11.54756 -7.42073,-26.59075 1.7817,-37.43303 7.06849,-8.32774 9.36161,-19.41904 6.13548,-29.66637 l -4.34196,-13.79104 c -2.56577,-8.14886 0.79432,-16.89897 8.36162,-21.7752 14.74217,-9.49872 19.32053,-28.41815 10.42385,-43.07128 -4.66583,-7.6855 -0.12687,-17.05262 8.83049,-19.41273 13.36315,-3.52006 23.8067,-13.612943 27.25505,-26.341736 l 1.37429,-5.072448 c 2.23009,-8.229232 12.63266,-12.534941 21.00531,-8.0275 10.3616,5.57914 23.52301,3.923523 32.00441,-4.024389 8.01568,-7.512139 21.0581,-7.512139 29.07378,0 8.48061,7.947912 21.64124,9.603529 32.00441,4.024389 8.38053,-4.512957 18.77759,-0.191488 21.00531,8.0275 l 1.3743,5.072448 c 3.44835,12.728005 13.8919,22.821676 27.25425,26.341736 8.96051,2.36011 13.49554,11.72959 8.83128,19.41273 -8.89668,14.65391 -4.31753,33.57256 10.42385,43.07128 7.5673,4.87623 10.92739,13.62634 8.36162,21.7752 l -4.34196,13.79104 c -3.22692,10.24812 -0.93379,21.33863 6.13548,29.66637 9.20243,10.84228 9.91874,25.88547 1.78249,37.43303 l -1.73836,2.4657 c -7.31435,10.38051 -6.70915,23.90599 1.50511,33.65609 1.61621,1.91881 2.70761,4.08427 3.24346,6.43492 0.77462,3.39477 4.15363,5.51846 7.54839,4.74463 3.39477,-0.77383 5.51846,-4.15362 4.74463,-7.54838 -0.97634,-4.26789 -3.01415,-8.33168 -5.89671,-11.75324 z m -113.2463,38.21397 c -2.13001,-2.75175 -6.08978,-3.25608 -8.84389,-1.12608 l -14.68622,11.37026 -36.04692,-27.90752 -0.48148,-3.1229 c 7.34351,-6.60908 11.95654,-15.68464 12.75401,-25.78146 54.0365,15.90606 108.09191,-24.87761 108.09191,-80.89991 0,-46.28795 0.0244,-44.34786 -0.0441,-44.94754 -0.37588,-3.30335 -3.28602,-5.66188 -6.30254,-5.5815 -1.34041,0.0126 -8.90692,1.47201 -16.40803,-3.04016 -11.85803,-7.13389 -11.91871,-22.77046 -11.91792,-22.92806 0.0307,-5.12288 -5.76275,-8.14492 -9.94711,-5.18356 -25.85474,18.30321 -56.23978,30.82712 -89.38602,35.46852 -3.44757,0.48226 -5.8518,3.66899 -5.36874,7.11734 0.48384,3.45466 3.67766,5.8518 7.11734,5.36874 30.87124,-4.32225 60.29254,-15.20946 86.55075,-32.02489 4.64141,17.41669 17.65625,27.13211 33.09739,28.00917 v 37.74116 c 0,39.54097 -32.16832,71.70929 -71.7093,71.70929 -39.54097,0 -71.70929,-32.16832 -71.70929,-71.70929 v -44.2273 c 0,-3.48145 -2.82266,-6.30411 -6.30411,-6.30411 -3.48145,0 -6.30412,2.82266 -6.30412,6.30411 v 44.2273 c 0,33.5237 19.66726,62.53838 48.06887,76.11823 v 1.66271 c 0,7.02357 -2.73914,13.6224 -7.71308,18.58216 -8.75799,8.73593 -19.9935,7.69181 -18.62945,7.69181 -35.9626,0 -65.06712,29.10136 -65.06712,65.06712 v 37.23918 c 0,3.48145 2.82267,6.30412 6.30412,6.30412 3.48144,0 6.30411,-2.82267 6.30411,-6.30412 v -37.23918 c 0,-28.99498 23.46312,-52.4589 52.46047,-52.4589 5.02989,0 9.89982,-0.9527 14.41987,-2.7478 l 22.03682,122.79482 c 0.53742,3.48538 3.80216,5.79978 7.19062,5.27024 3.44126,-0.53034 5.80058,-3.74938 5.27024,-7.18985 l -19.58451,-106.88087 29.39766,22.75943 c 2.27184,1.75885 5.44518,1.75885 7.7186,0 l 18.54512,-14.35762 c 2.75411,-2.13079 3.25844,-6.08977 1.12608,-8.84309 z"
     id="path24"
     style="stroke-width:0.788014"
     sodipodi:nodetypes="sssssscccccccccsscccccccccscccccccccccccccccccccccccccccccsccsccccccccccscsscccccsccccccccccssssssscsccssssssccccccccss" />
  <circle
     style="fill:none;fill-opacity:1;stroke:#000000;stroke-width:14.0608;stroke-linecap:round;stroke-linejoin:round;stroke-miterlimit:4;stroke-dasharray:none"
     id="path856"
     cx="239.9725"
     cy="239.9725"
     r="221.29384" />
</svg>
