<?xml version="1.0" encoding="iso-8859-1"?>
<!-- Generator: Adobe Illustrator 23.0.2, SVG Export Plug-In . SVG Version: 6.00 Build 0)  -->
<svg version="1.1" id="Layer_1" xmlns="http://www.w3.org/2000/svg" xmlns:xlink="http://www.w3.org/1999/xlink" x="0px" y="0px"
	 viewBox="0 0 1000 1000" style="enable-background:new 0 0 1000 1000;" xml:space="preserve">
<rect id="XMLID_30_" style="fill:#5D6E80;" width="1000" height="1000"/>
<g>
	<ellipse id="XMLID_110_" style="fill:#323845;" cx="506.128" cy="611.985" rx="267.247" ry="37.06"/>
	<path id="XMLID_2_" style="fill:#323845;" d="M655.483,728.108H351.751c-9.828,0-16.258-7.895-14.401-17.438l21.839-112.237
		h288.858l21.839,112.237C671.742,720.213,665.311,728.108,655.483,728.108z"/>
	<path id="XMLID_121_" style="fill:#333E49;" d="M656.704,321.892h-62.764c-9.913,0-17.948-8.036-17.948-17.948v-14.103
		c0-9.913,8.036-17.948,17.948-17.948h62.764c9.913,0,17.948,8.036,17.948,17.948v14.103
		C674.652,313.856,666.616,321.892,656.704,321.892z"/>
	
		<path id="XMLID_28_" style="fill:none;stroke:#323845;stroke-width:6;stroke-linecap:round;stroke-linejoin:round;stroke-miterlimit:10;" d="
		M656.704,321.892h-62.764c-9.913,0-17.948-8.036-17.948-17.948v-14.103c0-9.913,8.036-17.948,17.948-17.948h62.764
		c9.913,0,17.948,8.036,17.948,17.948v14.103C674.652,313.856,666.616,321.892,656.704,321.892z"/>
	<path id="XMLID_82_" style="fill:#484E5C;" d="M713.032,464.599h-420v-142c0-16.5,13.5-30,30-30h360c16.5,0,30,13.5,30,30V464.599z
		"/>
	<path id="XMLID_125_" style="fill:#454B56;" d="M683.032,292.599h-2.539v172h32.539v-142
		C713.032,306.099,699.532,292.599,683.032,292.599z"/>
	<path id="XMLID_120_" style="fill:#555A66;" d="M324.979,292.599h-1.946c-16.5,0-30,13.5-30,30v142h31.864v-142
		c0-0.708,0.034-1.408,0.083-2.105V292.599z"/>
	<path id="XMLID_109_" style="fill:#38424F;" d="M549.745,371.663h-94.572c-13.76,0-24.915-11.155-24.915-24.915v-16.5
		c0-13.76,11.155-24.915,24.915-24.915h94.572c13.76,0,24.915,11.155,24.915,24.915v16.5
		C574.66,360.508,563.505,371.663,549.745,371.663z"/>
	<path id="XMLID_112_" style="fill:#3B4351;" d="M550.318,384.827h-94.572c-13.76,0-24.915-11.155-24.915-24.915v-16.5
		c0-13.76,11.155-24.915,24.915-24.915h94.572c13.76,0,24.915,11.155,24.915,24.915v16.5
		C575.233,373.672,564.078,384.827,550.318,384.827z"/>
	
		<path id="XMLID_84_" style="fill:none;stroke:#323845;stroke-width:8;stroke-linecap:round;stroke-linejoin:round;stroke-miterlimit:10;" d="
		M549.745,371.663h-94.572c-13.76,0-24.915-11.155-24.915-24.915v-16.5c0-13.76,11.155-24.915,24.915-24.915h94.572
		c13.76,0,24.915,11.155,24.915,24.915v16.5C574.66,360.508,563.505,371.663,549.745,371.663z"/>
	
		<path id="XMLID_27_" style="fill:none;stroke:#323845;stroke-width:6;stroke-linecap:round;stroke-linejoin:round;stroke-miterlimit:10;" d="
		M713.032,464.599h-420v-142c0-16.5,13.5-30,30-30h360c16.5,0,30,13.5,30,30V464.599z"/>
	<path id="XMLID_33_" style="fill:#F76E6E;" d="M713.032,500.599h-420v-142c0-16.5,13.5-30,30-30h360c16.5,0,30,13.5,30,30V500.599z
		"/>
	<path id="XMLID_116_" style="fill:#DD5F5F;" d="M683.032,328.599h-15.776c16.5,0,30,13.5,30,30v142h15.776v-142
		C713.032,342.099,699.532,328.599,683.032,328.599z"/>
	<path id="XMLID_111_" style="fill:#F48989;" d="M339.032,328.599h-16c-16.5,0-30,13.5-30,30v142h16v-142
		C309.032,342.099,322.532,328.599,339.032,328.599z"/>
	<path id="XMLID_106_" style="fill:#DD5F5F;stroke:#DD5F5F;stroke-width:4;stroke-miterlimit:10;" d="M676.929,484.985h-67.216
		c-3.809,0-6.897-3.088-6.897-6.897v-27.19c0-3.809,3.088-6.897,6.897-6.897h67.216c3.809,0,6.897,3.088,6.897,6.897v27.19
		C683.827,481.897,680.739,484.985,676.929,484.985z"/>
	<path id="XMLID_104_" style="fill:#484E5C;" d="M670.36,482.492h-54.078c-3.809,0-6.897-3.088-6.897-6.897V457.39
		c0-3.809,3.088-6.897,6.897-6.897h54.078c3.809,0,6.897,3.088,6.897,6.897v18.206C677.258,479.404,674.17,482.492,670.36,482.492z"
		/>
	<path id="XMLID_122_" style="fill:#404751;" d="M670.36,450.492h-0.051v32h0.051c3.809,0,6.897-3.088,6.897-6.897V457.39
		C677.258,453.58,674.17,450.492,670.36,450.492z"/>
	<path id="XMLID_108_" style="fill:#6A6D7A;" d="M655.991,450.492h-39.708c-3.809,0-6.897,3.088-6.897,6.897v18.206
		c0,3.809,3.088,6.897,6.897,6.897h39.708V450.492z"/>
	<path id="XMLID_124_" style="fill:#777982;" d="M616.283,450.492c-3.809,0-6.897,3.088-6.897,6.897v18.206
		c0,3.809,3.088,6.897,6.897,6.897h1.876v-32H616.283z"/>
	
		<path id="XMLID_105_" style="fill:none;stroke:#323845;stroke-width:3;stroke-linecap:round;stroke-linejoin:round;stroke-miterlimit:10;" d="
		M655.991,450.492h-39.708c-3.809,0-6.897,3.088-6.897,6.897v18.206c0,3.809,3.088,6.897,6.897,6.897h39.708V450.492z"/>
	<path id="XMLID_101_" style="fill:#DD5F5F;stroke:#DD5F5F;stroke-width:4;stroke-miterlimit:10;" d="M677.827,419.168h-69.01
		c-3.314,0-6-2.686-6-6v-69.011c0-3.314,2.686-6,6-6h69.01c3.314,0,6,2.686,6,6v69.011
		C683.827,416.482,681.14,419.168,677.827,419.168z"/>
	
		<path id="XMLID_97_" style="fill:#DD5F5F;stroke:#DD5F5F;stroke-width:4;stroke-linecap:round;stroke-linejoin:round;stroke-miterlimit:10;" d="
		M553.551,468.938h-31.193v16h31.193c4.418,0,8-3.582,8-8v0C561.551,472.52,557.969,468.938,553.551,468.938z"/>
	
		<path id="XMLID_96_" style="fill:#DD5F5F;stroke:#DD5F5F;stroke-width:4;stroke-linecap:round;stroke-linejoin:round;stroke-miterlimit:10;" d="
		M485.66,468.938h31.193v16H485.66c-4.418,0-8-3.582-8-8v0C477.66,472.52,481.242,468.938,485.66,468.938z"/>
	<path id="XMLID_92_" style="fill:#484E5C;" d="M551.551,465.938h-31.193v16h31.193c4.418,0,8-3.582,8-8v0
		C559.551,469.52,555.969,465.938,551.551,465.938z"/>
	<path id="XMLID_91_" style="fill:#484E5C;" d="M483.66,465.938h31.193v16H483.66c-4.418,0-8-3.582-8-8v0
		C475.66,469.52,479.242,465.938,483.66,465.938z"/>
	<path id="XMLID_88_" style="fill:#DD5F5F;stroke:#DD5F5F;stroke-width:4;stroke-miterlimit:10;" d="M553.094,459.492h-208
		c-6.627,0-12-5.373-12-12v-74c0-6.627,5.373-12,12-12h208c6.627,0,12,5.373,12,12v74
		C565.094,454.12,559.722,459.492,553.094,459.492z"/>
	<path id="XMLID_6_" style="fill:#484E5C;" d="M553.094,444.492h-208c-6.627,0-12-5.373-12-12v-74c0-6.627,5.373-12,12-12h208
		c6.627,0,12,5.373,12,12v74C565.094,439.12,559.722,444.492,553.094,444.492z"/>
	
		<path id="XMLID_3_" style="fill:none;stroke:#323845;stroke-width:4;stroke-linecap:round;stroke-linejoin:round;stroke-miterlimit:10;" d="
		M553.094,444.492h-208c-6.627,0-12-5.373-12-12v-74c0-6.627,5.373-12,12-12h208c6.627,0,12,5.373,12,12v74
		C565.094,439.12,559.722,444.492,553.094,444.492z"/>
	<path id="XMLID_85_" style="fill:#6A6D7A;" d="M553.094,450.492h-208c-6.627,0-12-5.373-12-12v-74c0-6.627,5.373-12,12-12h208
		c6.627,0,12,5.373,12,12v74C565.094,445.12,559.722,450.492,553.094,450.492z"/>
	
		<path id="XMLID_14_" style="fill:none;stroke:#323845;stroke-width:3;stroke-linecap:round;stroke-linejoin:round;stroke-miterlimit:10;" d="
		M553.094,450.492h-208c-6.627,0-12-5.373-12-12v-74c0-6.627,5.373-12,12-12h208c6.627,0,12,5.373,12,12v74
		C565.094,445.12,559.722,450.492,553.094,450.492z"/>
	
		<path id="XMLID_1_" style="fill:none;stroke:#323845;stroke-width:6;stroke-linecap:round;stroke-linejoin:round;stroke-miterlimit:10;" d="
		M713.032,500.599h-420v-142c0-16.5,13.5-30,30-30h360c16.5,0,30,13.5,30,30V500.599z"/>
	
		<path id="XMLID_8_" style="fill:none;stroke:#323845;stroke-width:3;stroke-linecap:round;stroke-linejoin:round;stroke-miterlimit:10;" d="
		M553.257,450.492h-86v-98h86c6.627,0,12,5.373,12,12v74C565.257,445.12,559.884,450.492,553.257,450.492z"/>
	<path id="XMLID_65_" style="fill:#484E5C;" d="M549.335,442.57h-66.156c-4.418,0-8-3.582-8-8v-66.156c0-4.418,3.582-8,8-8h66.156
		c4.418,0,8,3.582,8,8v66.156C557.335,438.989,553.753,442.57,549.335,442.57z"/>
	<path id="XMLID_83_" style="fill:#6A6D7A;" d="M516.55,407.897l-41.232,28.14c0.689,3.717,3.943,6.534,7.86,6.534h66.156
		c4.033,0,7.36-2.988,7.911-6.869L516.55,407.897z"/>
	<path id="XMLID_81_" style="opacity:0.2;fill:#2D3039;" d="M516.55,395.088l-41.232-28.14c0.689-3.717,3.943-6.534,7.86-6.534
		h66.156c4.033,0,7.36,2.988,7.911,6.869L516.55,395.088z"/>
	<path id="XMLID_46_" style="fill:#3C4252;" d="M488.257,413.918v-24.852c0-8.601,6.973-15.574,15.574-15.574h24.852
		c8.601,0,15.574,6.973,15.574,15.574v24.852c0,8.601-6.973,15.574-15.574,15.574H503.83
		C495.229,429.492,488.257,422.52,488.257,413.918z"/>
	<path id="XMLID_5_" style="fill:#3C4252;" d="M523.896,414.132h-15.279c-2.761,0-5-2.239-5-5v-15.279c0-2.761,2.239-5,5-5h15.279
		c2.761,0,5,2.239,5,5v15.279C528.896,411.893,526.657,414.132,523.896,414.132z"/>
	<path id="XMLID_36_" style="fill:#3C4252;" d="M508.617,420.132c-6.065,0-11-4.935-11-11v-15.279c0-6.065,4.935-11,11-11h15.279
		c6.065,0,11,4.935,11,11v15.279c0,6.065-4.935,11-11,11H508.617z"/>
	<path id="XMLID_39_" style="fill:none;stroke:#454B59;stroke-miterlimit:10;" d="M508.617,420.132c-6.065,0-11-4.935-11-11v-15.279
		c0-6.065,4.935-11,11-11h15.279c6.065,0,11,4.935,11,11v15.279c0,6.065-4.935,11-11,11H508.617z"/>
	<path id="XMLID_61_" style="fill:none;stroke:#323845;stroke-miterlimit:10;" d="M508.617,419.132c-5.514,0-10-4.486-10-10v-15.279
		c0-5.514,4.486-10,10-10h15.279c5.514,0,10,4.486,10,10v15.279c0,5.514-4.486,10-10,10H508.617z"/>
	<path id="XMLID_4_" style="fill:none;stroke:#454B59;stroke-miterlimit:10;" d="M523.896,414.132h-15.279c-2.761,0-5-2.239-5-5
		v-15.279c0-2.761,2.239-5,5-5h15.279c2.761,0,5,2.239,5,5v15.279C528.896,411.893,526.657,414.132,523.896,414.132z"/>
	<path id="XMLID_38_" style="fill:none;stroke:#323845;stroke-miterlimit:10;" d="M508.617,413.132c-2.206,0-4-1.794-4-4v-15.279
		c0-2.206,1.794-4,4-4h15.279c2.206,0,4,1.794,4,4v15.279c0,2.206-1.794,4-4,4H508.617z"/>
	<path id="XMLID_34_" style="fill:#323845;" d="M521.104,410.34h-9.695c-2.209,0-4-1.791-4-4v-9.695c0-2.209,1.791-4,4-4h9.695
		c2.209,0,4,1.791,4,4v9.695C525.104,408.549,523.313,410.34,521.104,410.34z"/>
	<path id="XMLID_35_" style="fill:none;stroke:#454B59;stroke-miterlimit:10;" d="M521.104,410.34h-9.695c-2.209,0-4-1.791-4-4
		v-9.695c0-2.209,1.791-4,4-4h9.695c2.209,0,4,1.791,4,4v9.695C525.104,408.549,523.313,410.34,521.104,410.34z"/>
	<path id="XMLID_37_" style="fill:none;stroke:#323845;stroke-miterlimit:10;" d="M511.409,409.34c-1.654,0-3-1.346-3-3v-9.695
		c0-1.654,1.346-3,3-3h9.695c1.654,0,3,1.346,3,3v9.695c0,1.654-1.346,3-3,3H511.409z"/>
	<path id="XMLID_103_" style="fill:#484E5C;" d="M673.258,414.599h-59.872c-2.209,0-4-1.791-4-4v-59.872c0-2.209,1.791-4,4-4h59.872
		c2.209,0,4,1.791,4,4v59.872C677.258,412.808,675.467,414.599,673.258,414.599z"/>
	
		<circle id="XMLID_9_" style="fill:none;stroke:#323845;stroke-width:3;stroke-linecap:round;stroke-linejoin:round;stroke-miterlimit:10;" cx="643.321" cy="380.663" r="25.163"/>
	<circle id="XMLID_10_" style="fill:#6A6D7A;" cx="643.321" cy="380.663" r="18"/>
	
		<circle id="XMLID_98_" style="fill:none;stroke:#323845;stroke-width:3;stroke-linecap:round;stroke-linejoin:round;stroke-miterlimit:10;" cx="643.321" cy="380.663" r="18"/>
	<circle id="XMLID_100_" style="fill:#30B2C4;" cx="643.321" cy="380.663" r="12.67"/>
	
		<circle id="XMLID_11_" style="fill:none;stroke:#323845;stroke-width:3;stroke-linecap:round;stroke-linejoin:round;stroke-miterlimit:10;" cx="643.321" cy="380.663" r="12.67"/>
	
		<path id="XMLID_102_" style="fill:none;stroke:#FFFFFF;stroke-width:3;stroke-linecap:round;stroke-linejoin:round;stroke-miterlimit:10;" d="
		M636.909,380.663c0-3.536,2.877-6.413,6.413-6.413"/>
	
		<path id="XMLID_13_" style="fill:none;stroke:#323845;stroke-width:3;stroke-linecap:round;stroke-linejoin:round;stroke-miterlimit:10;" d="
		M670.36,482.492h-54.078c-3.809,0-6.897-3.088-6.897-6.897V457.39c0-3.809,3.088-6.897,6.897-6.897h54.078
		c3.809,0,6.897,3.088,6.897,6.897v18.206C677.258,479.404,674.17,482.492,670.36,482.492z"/>
	<polygon id="XMLID_41_" style="fill:#DD5F5F;" points="723.032,521.599 283.032,521.599 293.032,500.599 713.032,500.599 	"/>
	<polygon id="XMLID_107_" style="fill:#DD5F5F;" points="723.032,521.599 283.032,521.599 293.032,500.599 713.032,500.599 	"/>
	<polygon id="XMLID_117_" style="fill:#D35959;" points="712.032,500.599 697.407,500.599 707.407,521.599 722.032,521.599 	"/>
	<polygon id="XMLID_113_" style="fill:#F27979;" points="293.032,500.599 283.032,521.599 299.495,521.599 309.495,500.599 	"/>
	
		<polygon id="XMLID_18_" style="fill:none;stroke:#323845;stroke-width:6;stroke-linecap:round;stroke-linejoin:round;stroke-miterlimit:10;" points="
		723.032,521.599 283.032,521.599 293.032,500.599 713.032,500.599 	"/>
	<rect id="XMLID_40_" x="283.032" y="521.599" style="fill:#F76E6E;" width="440" height="21"/>
	<rect id="XMLID_118_" x="708.032" y="521.599" style="fill:#DD5F5F;" width="15" height="21"/>
	<rect id="XMLID_114_" x="283.032" y="521.599" style="fill:#F48989;" width="17" height="21"/>
	
		<rect id="XMLID_23_" x="283.032" y="521.599" style="fill:none;stroke:#323845;stroke-width:6;stroke-linecap:round;stroke-linejoin:round;stroke-miterlimit:10;" width="440" height="21"/>
	<path id="XMLID_42_" style="fill:#484E5C;" d="M683.032,628.573h-360c-16.569,0-31.502-12.913-33.384-29.098l-6.616-56.876h440
		l-6.615,56.876C714.534,615.66,699.601,628.573,683.032,628.573z"/>
	<path id="XMLID_119_" style="fill:#454B56;" d="M708.032,542.599l-6.615,56.876c-1.883,16.185-16.816,29.098-33.385,29.098h15
		c16.569,0,31.502-12.913,33.385-29.098l6.615-56.876H708.032z"/>
	<path id="XMLID_115_" style="fill:#555A66;" d="M306.648,599.475l-6.615-56.876h-17l6.615,56.876
		c1.883,16.185,16.816,29.098,33.385,29.098h17C323.464,628.573,308.53,615.66,306.648,599.475z"/>
	
		<path id="XMLID_25_" style="fill:none;stroke:#323845;stroke-width:6;stroke-linecap:round;stroke-linejoin:round;stroke-miterlimit:10;" d="
		M683.032,628.573h-360c-16.569,0-31.502-12.913-33.384-29.098l-6.616-56.876h440l-6.615,56.876
		C714.534,615.66,699.601,628.573,683.032,628.573z"/>
	<path id="XMLID_43_" style="fill:#2D3039;" d="M673.827,602h-340c-5.523,0-10-4.477-10-10v-29c0-2.209,1.791-4,4-4h352
		c2.209,0,4,1.791,4,4v29C683.827,597.523,679.349,602,673.827,602z"/>
	
		<path id="XMLID_19_" style="fill:none;stroke:#323845;stroke-width:6;stroke-linecap:round;stroke-linejoin:round;stroke-miterlimit:10;" d="
		M673.827,602h-340c-5.523,0-10-4.477-10-10v-29c0-2.209,1.791-4,4-4h352c2.209,0,4,1.791,4,4v29
		C683.827,597.523,679.349,602,673.827,602z"/>
	<g id="XMLID_58_">
		<path id="XMLID_45_" style="fill:#DCDBD7;" d="M654.898,701.081H351.166c-9.828,0-16.258-7.895-14.401-17.438l21.839-112.237
			h288.858L669.3,683.642C671.157,693.186,664.726,701.081,654.898,701.081z"/>
		
			<path id="XMLID_60_" style="fill:none;stroke:#323845;stroke-width:6;stroke-linecap:round;stroke-linejoin:round;stroke-miterlimit:10;" d="
			M654.898,701.081H351.166c-9.828,0-16.258-7.895-14.401-17.438l21.839-112.237h288.858L669.3,683.642
			C671.157,693.186,664.726,701.081,654.898,701.081z"/>
		<path id="XMLID_57_" style="fill:#F9D176;" d="M378.019,653.523l12.267-80.892h225.493l12.267,80.892
			c0.812,5.355-3.137,9.747-8.831,9.747H386.849C381.156,663.27,377.207,658.878,378.019,653.523z"/>
		<g id="XMLID_47_">
			<path id="XMLID_48_" style="fill:#F55090;" d="M502.484,558.922c-19.883,0-36.688,13.743-37.574,31.428
				c-0.929,18.547,15.852,34.257,37.525,34.257c21.668,0,38.473-15.71,37.576-34.257
				C539.148,572.665,522.363,558.922,502.484,558.922L502.484,558.922z M525.014,574.885c3.722,3.919,6.165,8.829,6.656,14.265
				c-4.261-0.783-8.265-1.162-11.986-1.162h-0.028c-2.998,0-5.805,0.237-8.454,0.644c-0.66-1.371-1.321-2.688-1.987-3.942
				C515.055,582.462,520.607,579.311,525.014,574.885L525.014,574.885z M502.479,565.606c6.686,0,12.848,1.979,17.796,5.299
				c-3.671,3.833-8.607,6.632-13.982,8.62c-3.788-6.258-7.399-10.675-9.842-13.346C498.398,565.813,500.409,565.606,502.479,565.606
				L502.479,565.606z M489.915,568.112c1.944,1.98,5.863,6.377,10.092,13.344c-8.773,2.252-17.616,2.783-22.96,2.783
				c-0.154,0-0.303,0-0.453-0.004h-0.004c-0.901,0-1.673-0.01-2.319-0.028C476.61,577.049,482.431,571.226,489.915,568.112
				L489.915,568.112z M473.161,590.35c0.005-0.117,0.018-0.242,0.031-0.366c0.834,0.025,1.904,0.049,3.195,0.049h0.008
				c5.887-0.036,16.171-0.461,26.579-3.319c0.569,1.077,1.126,2.202,1.686,3.369c-6.97,2.036-12.509,5.301-16.655,8.58
				c-4.02,3.186-6.79,6.366-8.424,8.505C475.34,602.541,472.917,596.674,473.161,590.35L473.161,590.35z M502.441,616.819
				c-6.75,0-12.93-2.01-17.885-5.36c1.104-1.571,3.439-4.569,7.097-7.642c3.734-3.14,8.837-6.347,15.448-8.245
				c2.293,5.573,4.41,12.043,6.077,19.457C509.842,616.18,506.231,616.819,502.441,616.819L502.441,616.819z M519.495,611.985
				c-1.657-6.659-3.662-12.568-5.808-17.766c1.908-0.241,3.912-0.374,6.032-0.374h0.086c3.507,0,7.38,0.381,11.591,1.216
				C530.192,601.971,525.815,608.021,519.495,611.985L519.495,611.985z M519.495,611.985"/>
		</g>
	</g>
	<g id="XMLID_12_">
		<path id="XMLID_71_" style="fill:#DCDBD7;" d="M654.898,701.081H351.166c-9.828,0-16.258-7.895-14.401-17.438l21.839-112.237
			h288.858L669.3,683.642C671.157,693.186,664.726,701.081,654.898,701.081z"/>
		
			<path id="XMLID_70_" style="fill:none;stroke:#323845;stroke-width:6;stroke-linecap:round;stroke-linejoin:round;stroke-miterlimit:10;" d="
			M654.898,701.081H351.166c-9.828,0-16.258-7.895-14.401-17.438l21.839-112.237h288.858L669.3,683.642
			C671.157,693.186,664.726,701.081,654.898,701.081z"/>
		<path id="XMLID_69_" style="fill:#FFFFFF;" d="M378.019,653.523l12.267-80.892h225.493l12.267,80.892
			c0.812,5.355-3.137,9.747-8.831,9.747H386.849C381.156,663.27,377.207,658.878,378.019,653.523z"/>
		<g id="XMLID_17_">
			<path id="XMLID_67_" d="M520.888,555.815h-30.574c-10.384,0-19.783,6.777-21.03,15.645l-4.247,30.201
				c-1.678,11.931,7.674,22.389,20.978,22.389h39.173c13.304,0,22.655-10.46,20.978-22.389l-4.247-30.201
				C540.672,562.592,531.272,555.815,520.888,555.815L520.888,555.815z M538.968,601.661c0.924,7.989-5.449,14.821-14.257,14.821
				h-38.22c-8.807,0-15.181-6.832-14.257-14.821l3.493-30.201c0.704-6.084,7.097-10.826,14.282-10.826h31.182
				c7.185,0,13.578,4.742,14.282,10.826L538.968,601.661z M538.968,601.661"/>
			<path id="XMLID_31_" d="M505.601,569.447c-10.241,0-19.083,7.056-19.751,16.279c-0.717,9.896,8.12,18.491,19.751,18.491
				c11.628,0,20.468-8.595,19.751-18.491C524.684,576.503,515.84,569.447,505.601,569.447L505.601,569.447z M505.601,597.571
				c-7.45,0-13.255-5.437-12.95-11.845c0.291-6.118,6.094-10.899,12.95-10.899s12.66,4.781,12.95,10.899
				C518.856,592.135,513.051,597.571,505.601,597.571L505.601,597.571z M505.601,597.571"/>
			<radialGradient id="XMLID_75_" cx="493.1283" cy="604.3333" r="62.4037" gradientUnits="userSpaceOnUse">
				<stop  offset="0" style="stop-color:#F9C200"/>
				<stop  offset="0.4516" style="stop-color:#FF4C50"/>
				<stop  offset="0.8011" style="stop-color:#B53E93"/>
				<stop  offset="1" style="stop-color:#423E93"/>
			</radialGradient>
			<path id="XMLID_20_" style="fill:url(#XMLID_75_);" d="M524.619,565.054c-1.211,0-2.374,0.397-3.186,1.097
				c-0.824,0.701-1.264,1.683-1.206,2.694c0.058,1.015,0.622,2.019,1.547,2.749c0.924,0.731,2.178,1.155,3.427,1.155
				c1.252,0,2.437-0.424,3.256-1.155c0.815-0.73,1.222-1.736,1.127-2.749c-0.095-1.011-0.681-1.993-1.609-2.694
				C527.056,565.451,525.834,565.054,524.619,565.054L524.619,565.054z M524.619,565.054"/>
		</g>
	</g>
	<path id="XMLID_59_" style="opacity:0.2;fill:#2D3039;" d="M683.827,589.15h-360V563c0-2.209,1.791-4,4-4h352c2.209,0,4,1.791,4,4
		V589.15z"/>
	<rect id="XMLID_26_" x="323.827" y="559" style="fill:#6A6D7A;" width="360" height="16"/>
	
		<path id="XMLID_44_" style="fill:none;stroke:#323845;stroke-width:6;stroke-linecap:round;stroke-linejoin:round;stroke-miterlimit:10;" d="
		M683.827,575h-360v-12c0-2.209,1.791-4,4-4h352c2.209,0,4,1.791,4,4V575z"/>
	<path id="XMLID_62_" style="opacity:0.81;fill:#30B2C4;" d="M488.257,413.918v-24.852c0-8.601,6.973-15.574,15.574-15.574h24.852
		c8.601,0,15.574,6.973,15.574,15.574v24.852c0,8.601-6.973,15.574-15.574,15.574H503.83
		C495.229,429.492,488.257,422.52,488.257,413.918z"/>
	
		<path id="XMLID_24_" style="fill:none;stroke:#323845;stroke-width:3;stroke-linecap:round;stroke-linejoin:round;stroke-miterlimit:10;" d="
		M488.257,413.918v-24.852c0-8.601,6.973-15.574,15.574-15.574h24.852c8.601,0,15.574,6.973,15.574,15.574v24.852
		c0,8.601-6.973,15.574-15.574,15.574H503.83C495.229,429.492,488.257,422.52,488.257,413.918z"/>
	
		<path id="XMLID_68_" style="fill:none;stroke:#FFFFFF;stroke-width:3;stroke-linecap:round;stroke-linejoin:round;stroke-miterlimit:10;" d="
		M495.256,391.066c0-5.831,4.744-10.574,10.574-10.574"/>
	
		<line id="XMLID_80_" style="fill:none;stroke:#FFFFFF;stroke-width:3;stroke-linecap:round;stroke-linejoin:round;stroke-miterlimit:10;" x1="537.256" y1="409.793" x2="537.256" y2="413.918"/>
	
		<line id="XMLID_64_" style="fill:none;stroke:#FFFFFF;stroke-width:3;stroke-linecap:round;stroke-linejoin:round;stroke-miterlimit:10;" x1="537.256" y1="389.066" x2="537.256" y2="403.167"/>
	
		<path id="XMLID_86_" style="fill:none;stroke:#323845;stroke-width:3;stroke-linecap:round;stroke-linejoin:round;stroke-miterlimit:10;" d="
		M460.077,419.212l-118.25-0.08v-50.717c0-4.418,3.582-8,8-8l110.25,0.08V419.212z"/>
	<path id="XMLID_87_" style="fill:#484E5C;" d="M421.073,437H345.58c-2.073,0-3.754-1.681-3.754-3.754l0,0
		c0-2.073,1.681-3.754,3.754-3.754h75.492c2.073,0,3.754,1.681,3.754,3.754l0,0C424.827,435.319,423.146,437,421.073,437z"/>
	<path id="XMLID_89_" style="fill:#484E5C;" d="M453.024,438.883h-14.06c-3.113,0-5.636-2.524-5.636-5.636v0
		c0-3.113,2.524-5.636,5.636-5.636h14.06c3.113,0,5.636,2.524,5.636,5.636v0C458.66,436.359,456.136,438.883,453.024,438.883z"/>
	<g id="XMLID_90_">
		<g id="XMLID_209_">
			
				<line id="XMLID_210_" style="fill:none;stroke:#323845;stroke-width:3;stroke-linecap:round;stroke-linejoin:round;stroke-miterlimit:10;" x1="454.327" y1="361.222" x2="454.327" y2="419.136"/>
		</g>
		<g id="XMLID_206_">
			
				<line id="XMLID_207_" style="fill:none;stroke:#323845;stroke-width:3;stroke-linecap:round;stroke-linejoin:round;stroke-miterlimit:10;" x1="448.327" y1="361.222" x2="448.327" y2="419.136"/>
		</g>
		<g id="XMLID_203_">
			
				<line id="XMLID_204_" style="fill:none;stroke:#323845;stroke-width:3;stroke-linecap:round;stroke-linejoin:round;stroke-miterlimit:10;" x1="442.327" y1="361.222" x2="442.327" y2="419.136"/>
		</g>
		<g id="XMLID_200_">
			
				<line id="XMLID_201_" style="fill:none;stroke:#323845;stroke-width:3;stroke-linecap:round;stroke-linejoin:round;stroke-miterlimit:10;" x1="436.327" y1="361.222" x2="436.327" y2="419.136"/>
		</g>
		<g id="XMLID_197_">
			
				<line id="XMLID_198_" style="fill:none;stroke:#323845;stroke-width:3;stroke-linecap:round;stroke-linejoin:round;stroke-miterlimit:10;" x1="430.327" y1="361.222" x2="430.327" y2="419.136"/>
		</g>
		<g id="XMLID_194_">
			
				<line id="XMLID_195_" style="fill:none;stroke:#323845;stroke-width:3;stroke-linecap:round;stroke-linejoin:round;stroke-miterlimit:10;" x1="424.327" y1="361.222" x2="424.327" y2="419.136"/>
		</g>
		<g id="XMLID_191_">
			
				<line id="XMLID_192_" style="fill:none;stroke:#323845;stroke-width:3;stroke-linecap:round;stroke-linejoin:round;stroke-miterlimit:10;" x1="418.327" y1="361.222" x2="418.327" y2="419.136"/>
		</g>
		<g id="XMLID_188_">
			
				<line id="XMLID_189_" style="fill:none;stroke:#323845;stroke-width:3;stroke-linecap:round;stroke-linejoin:round;stroke-miterlimit:10;" x1="412.327" y1="361.222" x2="412.327" y2="419.136"/>
		</g>
		<g id="XMLID_185_">
			
				<line id="XMLID_186_" style="fill:none;stroke:#323845;stroke-width:3;stroke-linecap:round;stroke-linejoin:round;stroke-miterlimit:10;" x1="406.327" y1="361.222" x2="406.327" y2="419.136"/>
		</g>
		<g id="XMLID_182_">
			
				<line id="XMLID_183_" style="fill:none;stroke:#323845;stroke-width:3;stroke-linecap:round;stroke-linejoin:round;stroke-miterlimit:10;" x1="400.327" y1="361.222" x2="400.327" y2="419.136"/>
		</g>
		<g id="XMLID_179_">
			
				<line id="XMLID_180_" style="fill:none;stroke:#323845;stroke-width:3;stroke-linecap:round;stroke-linejoin:round;stroke-miterlimit:10;" x1="394.327" y1="361.222" x2="394.327" y2="419.136"/>
		</g>
		<g id="XMLID_176_">
			
				<line id="XMLID_177_" style="fill:none;stroke:#323845;stroke-width:3;stroke-linecap:round;stroke-linejoin:round;stroke-miterlimit:10;" x1="388.327" y1="361.222" x2="388.327" y2="419.136"/>
		</g>
		<g id="XMLID_173_">
			
				<line id="XMLID_174_" style="fill:none;stroke:#323845;stroke-width:3;stroke-linecap:round;stroke-linejoin:round;stroke-miterlimit:10;" x1="382.327" y1="361.222" x2="382.327" y2="419.136"/>
		</g>
		<g id="XMLID_170_">
			
				<line id="XMLID_171_" style="fill:none;stroke:#323845;stroke-width:3;stroke-linecap:round;stroke-linejoin:round;stroke-miterlimit:10;" x1="376.327" y1="361.222" x2="376.327" y2="419.136"/>
		</g>
		<g id="XMLID_167_">
			
				<line id="XMLID_168_" style="fill:none;stroke:#323845;stroke-width:3;stroke-linecap:round;stroke-linejoin:round;stroke-miterlimit:10;" x1="370.327" y1="361.222" x2="370.327" y2="419.136"/>
		</g>
		<g id="XMLID_164_">
			
				<line id="XMLID_165_" style="fill:none;stroke:#323845;stroke-width:3;stroke-linecap:round;stroke-linejoin:round;stroke-miterlimit:10;" x1="364.327" y1="361.222" x2="364.327" y2="419.136"/>
		</g>
		<g id="XMLID_161_">
			
				<line id="XMLID_162_" style="fill:none;stroke:#323845;stroke-width:3;stroke-linecap:round;stroke-linejoin:round;stroke-miterlimit:10;" x1="358.327" y1="361.222" x2="358.327" y2="419.136"/>
		</g>
		<g id="XMLID_158_">
			
				<line id="XMLID_159_" style="fill:none;stroke:#323845;stroke-width:3;stroke-linecap:round;stroke-linejoin:round;stroke-miterlimit:10;" x1="352.327" y1="361.222" x2="352.327" y2="419.136"/>
		</g>
		<g id="XMLID_155_">
			
				<line id="XMLID_156_" style="fill:none;stroke:#323845;stroke-width:3;stroke-linecap:round;stroke-linejoin:round;stroke-miterlimit:10;" x1="346.327" y1="361.222" x2="346.327" y2="419.136"/>
		</g>
	</g>
	
		<path id="XMLID_93_" style="fill:none;stroke:#323845;stroke-width:3;stroke-linecap:round;stroke-linejoin:round;stroke-miterlimit:10;" d="
		M551.551,465.938h-31.193v16h31.193c4.418,0,8-3.582,8-8v0C559.551,469.52,555.969,465.938,551.551,465.938z"/>
	
		<path id="XMLID_15_" style="fill:none;stroke:#323845;stroke-width:3;stroke-linecap:round;stroke-linejoin:round;stroke-miterlimit:10;" d="
		M483.66,465.938h31.193v16H483.66c-4.418,0-8-3.582-8-8v0C475.66,469.52,479.242,465.938,483.66,465.938z"/>
	
		<path id="XMLID_95_" style="fill:none;stroke:#323845;stroke-width:3;stroke-linecap:round;stroke-linejoin:round;stroke-miterlimit:10;" d="
		M551.551,465.938h-31.193v16h31.193c4.418,0,8-3.582,8-8v0C559.551,469.52,555.969,465.938,551.551,465.938z"/>
	
		<path id="XMLID_94_" style="fill:none;stroke:#323845;stroke-width:3;stroke-linecap:round;stroke-linejoin:round;stroke-miterlimit:10;" d="
		M483.66,465.938h31.193v16H483.66c-4.418,0-8-3.582-8-8v0C475.66,469.52,479.242,465.938,483.66,465.938z"/>
	
		<path id="XMLID_29_" style="fill:none;stroke:#323845;stroke-width:3;stroke-linecap:round;stroke-linejoin:round;stroke-miterlimit:10;" d="
		M549.335,442.57h-66.156c-4.418,0-8-3.582-8-8v-66.156c0-4.418,3.582-8,8-8h66.156c4.418,0,8,3.582,8,8v66.156
		C557.335,438.989,553.753,442.57,549.335,442.57z"/>
	<path id="XMLID_126_" style="opacity:0.22;fill:#FFFFFF;" d="M673.258,346.727h-44.094l48.094,48.094v-44.094
		C677.258,348.518,675.467,346.727,673.258,346.727z"/>
	<path id="XMLID_127_" style="opacity:0.22;fill:#FFFFFF;" d="M613.7,346.727h-0.315c-2.209,0-4,1.791-4,4v2.51l61.363,61.363h2.51
		c2.209,0,4-1.791,4-4v-0.315L613.7,346.727z"/>
	
		<path id="XMLID_7_" style="fill:none;stroke:#323845;stroke-width:3;stroke-linecap:round;stroke-linejoin:round;stroke-miterlimit:10;" d="
		M673.258,414.599h-59.872c-2.209,0-4-1.791-4-4v-59.872c0-2.209,1.791-4,4-4h59.872c2.209,0,4,1.791,4,4v59.872
		C677.258,412.808,675.467,414.599,673.258,414.599z"/>
</g>
</svg>
